<?xml version="1.0" encoding="utf-8" ?>
<svg baseProfile="full" height="300mm" version="1.1" viewBox="0,0,200,300" width="200mm" xmlns="http://www.w3.org/2000/svg" xmlns:ev="http://www.w3.org/2001/xml-events" xmlns:xlink="http://www.w3.org/1999/xlink"><defs /><rect fill="#222222" height="300" width="200" x="0" y="0" /><text fill="#FFFFFF" style="font-size:12px; font-family:Arial; font-weight:bold;" x="10" y="20">Over 10km Runs</text><text fill="#FFFFFF" style="font-size:4px; font-family:Arial" x="10" y="280">ATHLETE</text><text fill="#FFFFFF" style="font-size:9px; font-family:Arial" x="10" y="290">xiang578</text><text fill="#FFFFFF" style="font-size:4px; font-family:Arial" x="120" y="280">STATISTICS</text><text fill="#FFFFFF" style="font-size:3px; font-family:Arial" x="120" y="285">Number: 10</text><text fill="#FFFFFF" style="font-size:3px; font-family:Arial" x="120" y="290">Weekly: 1.2</text><text fill="#FFFFFF" style="font-size:3px; font-family:Arial" x="141" y="285">Total: 256.5 km</text><text fill="#FFFFFF" style="font-size:3px; font-family:Arial" x="141" y="290">Avg: 25.7 km</text><text fill="#FFFFFF" style="font-size:3px; font-family:Arial" x="167" y="285">Min: 10.5 km</text><text fill="#FFFFFF" style="font-size:3px; font-family:Arial" x="167" y="290">Max: 52.6 km</text><polyline fill="none" points="17.276070964959217,75.5080923929927 17.198182604945032,75.57930724159814 16.61401990480954,75.75225728382793 16.185633924702415,75.84381889632641 16.029857204674045,75.84381889632641 15.866291648620972,75.89468640658743 15.328861964546377,75.97607434546808 15.1652964084642,76.04728871364205 14.931631328421645,76.06763566254813 14.799221116380068,75.97607434546808 14.6356555603561,75.25375305119815 14.588922544353409,74.95871824639471 14.604500216344604,74.82646085761371 14.503245348343626,74.45003460165753 14.40199048028444,73.21900474454014 14.331890956294956,72.68996040817001 14.082648204261204,71.67255611245491 13.981393336231122,71.09262898661109 13.887927304225741,70.36008252867032 13.825616616202751,69.69874922034069 13.786672436166555,69.4749119030821 13.700995240156772,69.27142280600674 13.64647338812938,68.8644428208645 13.560796192090493,68.42693667342246 13.443963652127422,68.08099962636334 13.475118996109813,67.88768111326499 13.334919948101742,67.13475124196702 13.342708784068236,66.77863291507674 13.21808740805136,66.16814010057715 13.077888360014185,65.75096692002262 13.101254868030082,65.62886697783688 13.0,65.24221574281546 13.070099524018588,65.16081520813168 13.591951536131091,64.99801385219325 13.747728256159462,64.90643792149785 13.91129381218343,64.89626281063101 14.347468628315255,64.79451161981706 14.838165296416264,64.74363596840703 15.017308524460532,64.75381110168382 15.235395932511892,64.68258513745968 15.469061012554448,64.65205970184616 16.294677628728095,64.2959286268524 16.715274772810517,64.1636509046948 17.73561228904873,63.888919444761996 17.977066205086885,63.84821839516371 18.265253137156833,63.75664094625972 18.343141497200122,63.75664094625972 18.748160969291348,63.61418689648417 19.044136737356894,63.57348568568705 19.184335785364965,63.58366099064733 20.298139333637664,63.17664762841014 20.70315880572889,63.044367771362886 21.482042405870743,62.84085980631062 21.918217221973464,62.800158141646534 22.68152315018233,62.52542128030473 22.96971008219407,62.342262768084765 23.335785374278203,62.18963030503801 24.324967546504922,61.52821908337501 24.434011250559706,61.48751664833253 24.807875378639437,61.23312588791305 24.854608394613024,61.16189630781446 24.83903072262183,61.07031531155371 24.73777585462085,60.866801553558616 24.73777585462085,60.68363866072468 24.543054954585386,60.24608090289985 24.558632626576582,60.14432288914395 24.652098658611067,60.06291637060349 24.706620510609355,60.08326800920622 24.77672003459884,60.235905108231236 24.955863262643106,60.41906918366294 25.096062310709385,60.49029952676938 25.423193422757322,60.49029952676938 25.90610125483363,60.3478387673822 26.482475118973525,60.25625669609144 27.027693639101926,60.042564726041746 27.206836867175298,59.94080641363689 27.604067503241822,59.82887209749606 27.78321073128609,59.808520384271105 27.915620943327667,59.7372893408683 28.196019039402017,59.69658585462457 28.30506274336949,59.645706463263195 28.390739939408377,59.53377167081635 28.686715707473923,59.50324396879296 29.79273041972192,59.17761431099643 30.306793595838826,59.065678763021424 30.54824751187698,58.98427097824606 30.62613587192027,58.923215076974884 30.649502379936166,58.862159121912555 30.57161401992198,58.49582226270286 30.478147987858392,58.30247702901397 30.267849415831733,58.11930736297654 30.05755084377597,58.06842681430135 28.842492427502293,58.28212486778648 28.647771527495934,58.25159661476209 28.499783643434057,58.11930736297654 27.87667676329147,56.62340364651027 27.269147555169184,55.22923303463904 26.459108610986732,53.183720308072225 26.256598874926567,52.77664589948108 25.999567286868114,52.1253218746715 25.843790566839743,51.58593953525997 25.72695802678936,50.93460432511347 25.72695802678936,50.2018448998424 25.836001730844146,49.519964589468145 25.968411942885723,49.05180407570151 26.085244482877897,48.77701273663115 26.326698398945155,48.30884720609174 26.903072263114154,47.555704719045025 27.58070099525503,46.96539813147683 28.180441367381718,46.55828721155558 28.967113803548273,46.21224104997236 29.340977931657108,46.11046243841702 29.504543487651972,46.029039441636996 29.987451319757383,45.91708266486239 30.41583729989361,45.886548967093404 31.498485504096607,45.86619316110591 32.40199048031354,45.96797213127138 32.744699264352676,45.92726056114043 32.87710947639425,45.7847698773985 33.001730852469336,45.367474047496216 32.93942016441724,45.255516202356375 32.97057550842874,45.06213404398295 32.931631328421645,44.89928549222532 32.97836434445344,44.797504953130556 32.97836434445344,44.604121517171734 32.84595413241186,44.10539332429471 32.70575508437469,43.952720711276925 32.56555603630841,43.93236433745915 32.38641280832235,43.983255260798614 32.26179143227637,44.14610596434795 32.26179143227637,44.41073754172248 32.40977931630914,44.563409146110644 32.931631328421645,44.86875134622096 33.43011683251825,45.04177799595345 34.11553440068383,45.17409220141417 34.58286456079804,45.20462621298793 36.95845954131801,45.23516021108662 37.44915620938991,45.194448210640985 38.882302033744054,45.24533820748911 39.26395499781938,45.153736186272 39.65339679791941,44.970531780680176 40.027260925999144,44.939997666057025 43.25183903070865,44.980709815929 44.451319774991134,45.02142194192129 46.001298139308346,45.001065881915565 46.172652531357016,45.031599969668605 46.53093898741645,45.16391419458523 46.95932496752357,45.194448210640985 47.62137602767325,45.21480421387241 48.00302899177768,45.17409220141417 48.88316745994962,45.17409220141417 49.47511899610981,45.21480421387241 50.33967979229055,45.194448210640985 51.1886629164801,45.24533820748911 51.983124188671354,45.255516202356375 53.03461704889196,45.255516202356375 53.32280398096191,45.27587218765257 53.79013414104702,45.27587218765257 54.02379922111868,45.23516021108662 54.23409779314534,45.29622816696792 55.939852877520025,45.29622816696792 56.67979229771299,45.39800797386124 57.24837732579908,45.37765202443552 59.46040675032418,45.45907578630431 59.52271743831807,45.42854188682395 59.55387278235867,45.255516202356375 59.61618347035255,45.194448210640985 60.04456945043057,45.26569419574662 60.410644742514705,45.24533820748911 60.82345305060153,45.286050178066944 61.36867157072993,45.255516202356375 62.15534400692559,45.33694010767795 62.591518822999205,45.255516202356375 63.1678926871391,45.286050178066944 63.32366940716747,45.26569419574662 63.424924275197554,45.286050178066944 63.7209000432631,45.27587218765257 63.970142795325955,45.32676212472143 64.49978364343406,45.32676212472143 64.7957594115287,45.367474047496216 65.48117697966518,45.33694010767795 65.9173517957388,45.357296069058066 66.59498052790877,45.316584140309715 66.87537862395402,45.33694010767795 66.95326698399731,45.316584140309715 67.0,45.26569419574662 66.9688446559885,44.92981962480553 66.9922111640044,45.01124391267513 66.91432280396111,45.10284612216492 66.71960190392565,45.04177799595345 66.33794893985032,45.01124391267513 64.62440501945093,45.001065881915565 63.91562094329856,44.89928549222532 63.63522284725332,44.939997666057025 63.487234963220544,44.909463537929696 63.12115967110731,44.909463537929696 62.980960623099236,44.878929396378226 63.035482475097524,44.96035374397616 62.94980527908774,44.96035374397616 62.83297273906646,44.919641582120676 61.82042405885295,44.889107445051195 61.5400259627786,44.950175705766014 61.27520553872455,44.919641582120676 60.53526611853158,44.939997666057025 59.8732150583819,44.909463537929696 59.68628299437114,44.878929396378226 59.60839463432785,44.919641582120676 59.475984422286274,45.153736186272 59.3513630462985,45.153736186272 59.30463003026671,45.24533820748911 59.218952834256925,45.29622816696792 58.11293812203803,45.286050178066944 56.773258329718374,45.316584140309715 55.72176546949777,45.20462621298793 54.389874513231916,45.21480421387241 51.50021635656594,45.13338016511261 49.186932064039866,45.14355817645264 48.306793595838826,45.10284612216492 46.75681523149251,45.10284612216492 46.36737343142158,45.04177799595345 46.079186499351636,44.939997666057025 44.59151882302831,44.909463537929696 43.46213760279352,44.919641582120676 41.3747295543144,44.86875134622096 39.79359584595659,44.86875134622096 39.66897446993971,44.889107445051195 39.147122457798105,45.113024137979664 38.87451319771935,45.16391419458523 38.6096927736653,45.13338016511261 38.59411510170321,45.01124391267513 38.61748160969,44.980709815929 38.92903504977585,44.99088784964988 38.960190393729135,45.01124391267513 38.91345737775555,45.07231206580764 38.6486369537015,45.06213404398295 38.703158805699786,45.02142194192129 38.97576806577854,44.970531780680176 39.03807875380153,45.01124391267513 39.03807875380153,45.14355817645264 39.427520553872455,45.14355817645264 39.661185633944115,45.031599969668605 39.816962353972485,44.980709815929 38.57074859368731,45.08249008608982 38.46949372565723,45.13338016511261 38.266983989597065,45.14355817645264 37.44136737345252,45.10284612216492 36.67806144524366,45.13338016511261 34.51276503675035,45.113024137979664 34.06101254868554,45.09266810486588 33.297706620476674,44.939997666057025 32.84595413241186,44.766970762262645 32.53440069235512,44.604121517171734 32.36304630030645,44.49216243921546 32.29294677625876,44.34966880585853 32.32410212029936,44.16646227538149 32.440934660320636,44.03414614672511 32.6356555603561,44.003611619671574 32.775854608393274,44.10539332429471 32.90826482043485,44.54305295161612 32.90826482043485,44.85857329452847 32.82258762436686,45.09266810486588 32.83816529638716,45.37765202443552 32.65902206834289,45.68299063829909 32.26958026830107,45.805125707287516 31.700995240127668,45.7847698773985 30.84422327997163,45.83565944094153 30.56382518389728,45.81530362000922 30.018606663768878,45.86619316110591 29.73041973169893,45.94761634917813 29.23972306359792,45.98832790735469 28.998269147559768,46.11046243841702 28.460839463456068,46.28348598913726 27.76763305926579,46.66006516563357 27.370402423170162,46.97557587384654 27.01211596711073,47.352151291088376 26.747295543027576,47.545527061818575 26.272176546946866,48.25795945793652 25.91389009085833,48.89914235512697 25.695802682836074,49.56067404994246 25.610125486797187,50.12042670787923 25.64128083077958,50.73106081712467 25.64128083077958,51.44346048087755 25.75811337082996,51.92178186218371 25.890523582871538,52.20673771238944 26.01514495885931,52.674876923905686 26.809606231050566,54.557578793304856 27.043271311122226,55.015525572649494 27.88446559928707,57.162746801674075 28.273907399416203,58.00737010665034 28.390739939408377,58.17018787431152 28.515361315454356,58.27194878492446 28.811337083549006,58.35335740593291 29.41886629164219,58.25159661476209 29.87061877976521,58.109131256249384 30.112072695803363,58.11930736297654 30.260060579807032,58.18036397209653 30.40804846386891,58.312653107401275 30.57940285591758,58.8723351181543 30.431414971884806,58.8723351181543 30.088706187787466,58.892687106163066 29.598009519686457,59.04532682579156 28.250540891400306,59.574475252607954 27.78321073128609,59.78816866505076 27.705322371271905,59.70676172844833 27.479446127224946,59.818696241636644 26.864128083077958,59.96115808803734 26.451319774991134,60.123971268454625 25.87494591085124,60.1748503089475 25.77369104285026,60.22572931209288 25.32193855472724,60.3478387673822 25.041540458681993,60.3173114237361 24.916919082665117,60.24608090289985 24.761142362607643,60.012037248001434 24.683254002564354,59.98150975652243 24.605365642579272,60.012037248001434 24.496321938553592,60.1748503089475 24.652098658611067,60.80574730969238 24.07572479447117,61.16189630781446 23.538295110338368,61.53839468842489 23.008654262230266,61.73173090037744 22.922977066220483,61.965768751630094 22.961921246227575,62.22015682453639 22.821722198161297,62.352438253656146 22.658156642166432,62.44401755683066 22.128515794029227,62.60682490824547 21.684552141901804,62.67805300431064 20.485071397648426,62.96296465699561 20.002163565543015,63.12577079014591 19.924275205557933,63.17664762841014 19.371267849433934,63.29875188787992 19.301168325415347,63.36997927329503 19.160969277349068,63.431031259729934 19.114236261346377,63.5327844509884 19.26222414537915,64.28575342641852 19.254435309383553,64.40785573321773 19.285590653395047,64.44855645438656 19.35569017738453,64.37733017666324 19.371267849433934,64.15347568481957 19.332323669397738,64.13312524066714 19.285590653395047,64.30610382582381 19.379056685429532,64.89626281063101 18.771527477307245,65.04888931697496 18.52228472524439,65.2116905535222 18.03937689313898,65.62886697783688 17.69666810904164,65.7611419054956 17.29943747294601,65.81201681049424 17.120294244901743,65.77131688946974 16.497187364759156,65.75096692002262 16.162267416686518,65.82219178703235 15.772825616644695,65.98499120836641 15.531371700577438,66.13761531879572 15.079619212454418,66.55478617372864 14.861531804432161,66.91090564995102 14.807009952375665,67.14492602445534 14.697966248408193,67.45016880451294 14.713543920370284,68.20309525177436 14.838165296416264,68.62025368351897 15.157507572468603,69.0882821082123 15.383383816544665,69.24089938993711 15.469061012554448,69.36299297356163 16.04543487666524,69.70892362667655 16.46603202080587,70.12607300194213 16.520553872775054,70.24816502745671 16.60623106881394,70.99088688563643 16.93336218089098,71.78447131547 17.011250540905166,72.0795196214749 16.98788403288927,72.23213032179046 16.93336218089098,72.28300048061647 16.59065339679364,72.37456667247898 16.458243184781168,72.37456667247898 16.131112072704127,72.50682873623009 16.029857204674045,72.50682873623009 15.897446992632467,72.59839463263779 15.913024664652767,72.7408302312324" stroke="#ffc500" stroke-linecap="round" stroke-linejoin="round" stroke-width="0.5"><title>2022-06-18 20.1km</title></polyline><polyline fill="none" points="85.09757949331834,33.83835062838989 86.34462951717433,33.81581461950009 87.3567781515012,33.88342259668934 87.68149477821134,33.8293362268123 89.94069343637966,33.77975697101829 90.76630273195042,33.85187222579589 94.44181859173113,33.8293362268123 96.52484120777808,33.68961266520091 97.40226698630431,33.716655984640965 98.72186008634162,33.58143915010078 100.55961801625381,33.68510544298624 101.21596013406815,33.55890295332392 101.60976540474803,33.59496086026411 103.83787417314306,33.39664184996036 105.5512725438748,33.42368542653094 106.25597671246214,33.39664184996036 106.89850110148836,33.279452743889124 109.09206554788398,33.24790175456474 110.1422129364073,33.31551097784359 111.01618428276561,33.2163507329351 113.41356022888795,33.17578508623046 113.63464388962893,33.09916094117216 115.04405222684727,33.13071208279871 116.28764781849168,33.0 117.35161293580313,33.018029285769444 117.77996252848243,33.14874129208329 118.52957431568939,33.60397533039395 120.7784096772375,35.533011275454555 123.24141983516165,37.75936526795522 124.32611154566985,38.58406691464006 124.86154853651533,39.133855752716045 125.84260728105437,39.967533230694244 126.09132639938616,40.287479140026335 126.29513789912744,40.74711392943391 126.38840756852005,42.20708485718933 126.34695438211202,42.76131497185452 126.41258859388472,50.73571839001306 126.33313665330934,51.07807597859755 126.33313665330934,51.95197153717163 126.41949745830789,52.49701756794457 126.31931892452121,54.83475037340213 126.25713914494554,55.08698070207902 126.37113540750579,56.11389717466045 126.44022405147552,58.50539907024904 126.40913416170224,59.24397988591954 126.31241006012715,59.56372585191093 126.37113540750579,60.15367097847047 126.34695438211202,60.77512768912675 126.27095687373367,61.11287065106444 126.37804427189985,61.45511308096866 126.38149870409688,63.305858341642306 126.27786573814228,66.9754993765182 126.31241006012715,68.79439894338066 126.23295811953722,71.0138514741775 126.26059357712802,72.61193854459088 126.17077833996154,77.35169333187514 126.10514412817429,78.3283614949687 125.70097556088876,79.00796028419973 124.52992304542568,80.29060598521573 124.03248480876209,80.34911136071241 123.92885184277839,80.42561822295647 123.47977565690235,80.91615771812394 123.41759587731212,81.4066894211901 123.09633368281357,81.74870691570504 122.37435735321196,82.22572499026865 121.62474556601956,82.5047321470156 120.94422242282599,82.57673358473585 118.43975907850836,82.54973306526335 117.34124963919749,82.62623447579062 114.2391695244587,82.9187381215088 112.94030301761813,83.13473903547674 112.10433042544173,83.34623846658542 111.51707695161167,83.39123815867424 107.05740498265368,83.38673819242103 106.2076146616746,83.44973766037401 105.14019511218066,83.40023808922706 104.05204896947544,83.45423761745224 102.53209880189388,83.35073843875398 100.48362050787546,83.37773825793374 99.56474154292664,83.30573868764805 96.49029688577866,83.3687383208271 95.4366950650583,83.5217368949634 94.93234796400066,83.66123493434134 91.64718294271734,84.77269680310928 87.70567580359057,86.23058614450747 87.52259089706058,86.2440847983653 87.30841610072821,86.15409366118547 86.93188299101894,85.74013105314407 87.10115016877535,85.97861018956246 87.40859463447123,86.21258793019115 87.2427818889264,86.12709626890864 87.4051402022742,86.2260865919161 87.68494921039382,86.25308389767997 88.04421015911794,86.14959409744915 87.6607681850146,86.26658254169342 87.26696291432017,86.21708748475066 86.14081801743305,86.43306533305804 85.79882922973775,86.75702927402563 85.41884168783145,86.93250832337799 83.92307254565821,87.0 81.17334451520583,86.96850390259715 79.90211346597061,86.644542179587 79.03159655179479,86.14059496799564 78.42016205257096,85.58264382152629 78.05399223946733,85.14167530099985 76.77930675803509,83.1707390409374 76.76894346142944,83.07173892495302 76.58585855488491,82.91423808640866 76.11951020800916,82.23022512569514 75.68079731870966,81.47419317408458 75.30426420904405,80.32210889348607 75.29735534462088,80.05208292259158 75.81206574228418,79.32750156487418 75.2282667006366,78.96745481528524 75.82933790329844,79.277995385748 76.07805702161568,79.0304632995194 76.11260134360055,78.71541959257956 76.04696713181329,78.51739047438969 75.60479981034587,78.26985229061938 75.32153637002921,78.00880987426535 75.05899952289474,77.50472172106674 74.57883344723086,71.92319567052982 74.76191835378995,71.31096688093021 74.80682597236591,70.93281950325036 74.45792832027655,70.19001652351471 74.39920297288336,69.93790963089123 74.42338399827713,69.20858881048298 74.41992956606555,69.87938452202798 75.43898706480104,69.80285151990756 75.49771241217968,69.71281245091814 75.45280479358917,69.61827114580046 75.5115301409678,69.74432615494334 75.38717058180191,69.79834957270214 75.44244149699807,69.76683592383779 75.31808193781762,69.73082028573299 74.43374729486823,69.81185541235027 74.36465865088394,69.46520365684592 74.32665989668749,66.16056157802268 74.38538524408068,65.88590918402406 74.69628414198814,65.8048637482043 74.72737403179053,65.66528499870765 74.59610560821602,64.94036585514004 74.35084092208126,64.5306214146949 74.26448011711182,63.27884096112757 74.3335687610961,61.98197887455353 74.38538524408068,61.522660480372 74.67210311660892,61.428094079788934 74.69282970980566,61.2794891503745 74.88973234515288,60.97327067507467 74.90009564174397,60.69406882808653 74.65483095560921,60.14916762329449 74.43374729486823,60.06360374990618 73.79467733803904,60.15367097847047 73.76704188044823,60.32029465812775 73.57704810950963,60.59949988771223 73.55977594852448,60.766121159531394 73.59086583831231,61.067838469763956 73.83613052444707,61.410081399180854 74.17466487993079,61.48663521908202 74.68246641321457,61.437100416131216 74.9622754213342,60.86969609116204 74.92427666713775,60.63552618489666 74.70664743859379,60.324797988338105 74.6755575487914,60.17168439263514 74.4302928626712,60.045590272642585 74.37502194748959,59.92399902598481 74.28175227811153,53.7942784635452 74.29902443911124,53.60059367013491 74.45101945585338,53.44294235892448 74.47174604905013,53.271777165746244 74.33702319330769,52.95647037578601 74.25757125271775,51.217720745757106 74.3059333035053,49.78971055458169 74.24029909171804,48.10934888787051 74.31629660011095,45.000663640532366 74.28520671030856,43.99139986934097 74.06412304958212,41.10760700753235 73.98121667679516,38.75531366993346 73.60468356710044,36.24960835260208 73.77049631265982,36.01074451173372 74.66173982000328,35.66371261376662 76.89330302058079,34.57752258340224 78.17835179864778,34.06821697748637 81.587876379097,33.84285782817824 82.80729094536218,33.87440820830125 83.99561562182498,33.793278594142976 84.50687158729124,33.65355486903536 85.0768529001216,33.793278594142976 86.42408145776426,33.76172813096309 88.00275697272446,33.788771387102315 87.70222137140809,33.82032182260264" stroke="red" stroke-linecap="round" stroke-linejoin="round" stroke-width="0.5"><title>2022-05-01 52.6km</title></polyline><polyline fill="none" points="149.51861144921713,33.0 149.67505008430453,34.26545553977485 149.72653621737118,35.53082022608214 149.6809907919669,36.03797566285357 149.72653621737118,36.31483497377485 150.14436598956672,36.35105923481569 150.26119990690495,36.80903097263217 150.6988320379678,36.878890022337146 150.63546448958368,36.878890022337146 150.74635769925953,37.90345761403296 150.20179283028847,38.01470758183132 149.2413784250166,38.288948690271354 149.02949318508036,38.40795765533767 148.76018110442965,38.63562474145692 148.45918524957233,39.05214441467433 148.6314657717594,39.34447843297676 148.76018110442965,39.680785910008126 149.70277338672167,41.23547787879397 150.5522945823177,42.769340784376254 150.9582429391885,43.33836223758772 151.30676445533754,43.90736533362906 151.55627417711366,44.45307378607686 151.83746767308912,44.802214887506125 152.91273575982632,46.61763722939031 152.95036024168803,46.85812788503608 152.82164490901778,47.17619113663386 152.86322986264713,47.42443164163706 152.97610330821772,47.543378979187764 153.14046288684767,47.57440858753944 153.5543321872683,47.861429877770206 153.81572332436917,48.13034648962275 154.61771885867347,49.4852101524848 154.84148551392718,50.02040434850096 155.13654066112213,50.434069900398754 155.14644184055214,50.50904574366177 155.06723240506835,50.721044680238265 155.09693594338023,50.834799157310044 155.23159198370558,50.96923532127221 155.5147657155685,51.10884102302771 155.80586039098853,51.530236721511756 156.60983616116573,53.01667494907815 156.91875295957288,53.47421421589752 157.17420338901138,53.962760001621064 157.90887090314936,55.18018829083121 158.00590246162756,55.39988509060822 158.0712502459064,55.72813286223936 158.05342812292656,55.87545468105054 157.97223845154804,56.04862086128196 158.0375862358269,56.20627814531508 158.19798534268193,56.30965920667222 158.2672935987357,56.568109211790215 158.78413516528235,58.83196955472704 158.8158189394817,59.48574735457623 158.8158189394817,59.33845565411866 158.93859356448957,59.31261487824486 161.11091233271145,59.30744671853245 161.24952884481172,59.31778303644205 161.37626394159452,59.39272116036409 161.45349314119812,60.99218667180685 161.4713152641707,62.764607693172366 161.53270257667464,63.4854102712161 161.52082116135716,63.95042858524357 161.64755625813268,66.47681420389927 161.90696715935337,66.53105778655845 163.26342874206603,66.53880685620607 164.08720687113237,66.47681420389927 164.84959768769477,66.50781055723564 165.78426902642968,66.44581779618966 166.83775451839756,66.45098386791688 167.73678161118005,66.37090958641238 168.62986799630016,66.34507909561944 168.9764092765472,66.4561499381307 169.15859097816428,66.7144515233449 169.19423522413854,66.91592413873695 169.196215460026,67.53582547142469 169.0793815426805,67.97232627957419 169.0694803632432,68.14537391145677 169.10314437333,68.44755750417244 169.20215616768837,68.79105907396297 169.15463050639664,69.366990334187 169.26156324430485,69.94806787764173 169.289286546722,70.48264234640192 169.24176088543027,71.14890093675058 169.29126678261673,72.1688993525404 169.22987947010552,72.77312382099262 169.33285173623153,72.94870654625265 169.36057503866323,72.91255730419107 169.56453933503508,72.87382589138542 169.33285173623153,72.94612445998973 169.43186353060446,75.26210432061089 169.40810069995496,75.81975315267482 169.49523107898858,76.64586724813671 169.46552754068398,76.92467204551212 169.5189939096308,77.25252021195593 169.6061242886717,77.4719427551754 169.7348396213347,78.43478832181063 169.67345230883075,78.78067714934332 169.35661456688103,78.83230176737925 169.40414022818004,78.86069524306731 169.67345230883075,78.8581140198894 169.74672103665944,78.99491832935382 169.91702132295904,79.15237103623804 170.94476374839724,79.45436656834136 171.00615106090117,79.49308357137124 171.0398150709807,79.58084179784964 171.0635779016302,80.03769376766286 171.03387436331832,79.99897795660763 170.98238823025167,80.05318006836205 171.0239731838883,80.00155901331709 171.06159766573546,80.01704534564851 171.0734790810602,80.7629543003768 171.31308762340632,83.11403936271927 171.39229705889738,83.75401720463014 171.54081475043495,84.4662233969575 171.51507168390526,84.71910130866672 171.28536432098917,85.31515637499069 171.11704427057703,86.1098652363853 171.01803247622593,86.20533110781798 170.78634487742238,86.2440333414288 170.45564548426046,86.1666287895714 170.31900920804765,86.2672546409758 169.72295820600993,86.18210972702582 167.9546075587714,86.0402006268323 167.70311760110053,85.97311592883489 167.26746570591786,85.9937574014566 166.89518135913386,85.942153674765 166.61002739138348,85.97569611423205 166.42982592564658,85.9550546205428 163.73670511910314,86.04536097768505 162.74064646784973,86.12018589595937 162.65747656059102,86.15114783857825 162.45549250009935,86.13050654951803 162.23568631662056,86.17436925998845 160.71882562705287,86.2440333414288 160.25148995767813,86.31111701254122 159.58811093548138,86.33949848916745 159.0752298406951,86.42722276552922 158.03164552816452,86.53558744779184 157.51876443337824,86.55106806253025 156.3959706853566,86.69555314712125 155.56229137686023,86.70587346516913 154.93059612885554,86.82713675151717 153.96226078002655,86.91743865909848 153.53651006428845,86.90453841479575 153.20977114290145,86.94581916347306 153.06521392313152,87.0 152.97610330821772,86.9845197779141 152.928577646926,86.84003705223586 152.83946703199763,85.9034507810029 152.71669240699703,83.3566143332464 152.71075169933465,82.71404145680026 152.79590184248082,82.26500077588389 152.78402042715607,81.97079552966352 152.83352632433525,81.81594869817854 152.7860006630508,81.67658539109289 152.7424354735267,80.99523786419013 152.71669240699703,79.80023545928816 152.7483761811891,79.75893803679355 152.97610330821772,79.71247832124573 153.25927704008063,79.6969917222741 153.74245459654776,79.60923407203154 154.14444248164364,79.4362986045926 154.0038457336559,79.29691654961971 153.96028054414637,79.20657574217694 153.9206758263972,78.75486478381936 154.14246224575618,78.74195858692838 154.18404719938553,78.70582118555103 154.07909469736478,78.16891395349921 154.07909469736478,77.87980330844402 154.13454130221362,77.67071141494125 154.04543068729254,77.53131544596545 154.01572714898066,76.94790558023487 154.0969168203519,76.78268867015868 154.05533186672255,76.44450549421708 154.0691935179275,75.76037471545169 154.08503540503443,75.59772840985715 154.11473894333176,75.58223820748935 154.05533186672255,75.06330858682668 154.04147021551762,73.42638601777435 153.97612243123876,72.74988480021239 153.93453747760213,71.15148328553005 153.96226078002655,70.81835717806644 153.90879441107245,70.37676173076579 153.92463629817212,69.94806787764173 153.88701181631768,69.46254662044339 153.90681417519227,69.02608261718524" stroke="red" stroke-linecap="round" stroke-linejoin="round" stroke-width="0.5"><title>2021-10-30 46.5km</title></polyline><polyline fill="none" points="34.782313557429006,93.0 34.82382443299866,93.36165567072203 34.763864279404515,93.37371074999282 34.81921211349254,93.42193099628093 34.803068995213835,93.45508234989029 33.753766307316255,93.48220614483034 33.72609239026497,93.53042613621801 33.70994927200081,93.76248326035056 33.83217573893489,94.83533663917297 33.811420301150065,94.77807902704626 33.79527718288591,94.85643150864234 33.80450182189816,96.45355152884622 34.28879537015746,96.48368467451837 34.387960239560925,96.78501369854894 34.42255263586412,97.06524572161652 34.83766139151703,97.07729862605083 35.00139873403532,98.35185333232039 34.090465631335974,98.60494697848117 33.99821924119897,98.66520691058577 33.26024812004471,98.78873921849299 32.909711837477516,99.05387922348382 32.51766467936977,99.49376304321959 32.393132052675355,99.58113610478904 32.3769889344112,99.63838032284912 32.439255247751134,99.60825180690881 32.335478058841545,99.65645741117805 32.56378787444555,100.02703421493425 32.64219730606419,100.27709445792061 33.79527718288591,102.21420498402404 34.15273194469046,102.73234354407214 34.20807977877848,102.8980246276642 34.31185696768807,103.02153147500576 34.77078275865642,103.88605861132419 35.52489699808939,105.03970887695323 35.999965907351,105.95836574972964 36.285929716788814,106.29871016127436 36.53730112993799,106.73241522266107 36.50962721290125,106.76253328969688 36.85324501618743,107.22333420958057 37.139208825625246,107.79254460602897 37.3006400083832,107.98830115082637 37.32600776567415,108.10575418242297 37.54509294226591,108.4822016819453 37.60505309586006,108.70806687095137 37.58429765807523,108.85864228422543 37.44362191311666,109.09956065019105 37.425172635077615,109.33746476450688 37.59352229710203,109.56030915784868 37.66731940921454,109.5121267911054 37.88871074555209,109.6054800240654 38.3545550157869,109.85542368885763 38.46525068396295,110.00900202306366 38.6174572276941,110.32217781430336 38.882665599376196,110.69858470900726 39.57451352545468,111.86690779684432 39.76592478499515,112.39985786645047 40.139522665092954,112.89967418654123 40.11646106754779,113.16162125874143 40.02652083715657,113.33022910234467 40.0634193932201,113.42356499240668 40.236381374750636,113.56507343661906 40.50389590616396,113.64937587646455 40.619203893846134,113.79690431413474 41.68926201952854,115.56415246313009 41.712323617059155,115.72370912763836 41.9936751070054,116.09098579986494 42.24504652014002,116.50943237197316 42.50564257231599,117.03022088465877 43.08679483021842,117.95135207712156 43.220552095925086,118.08078877413755 43.50420974563167,118.83030153312029 43.52727134316228,119.17344283488455 43.423494154252694,119.51356847381248 43.47884198832617,119.56774725963623 43.47653582858038,119.65202508715811 43.64719165035058,119.74533227899337 43.77633659655112,120.2269110530051 44.29983486063429,122.57745557109956 44.35287653494743,123.29370126178765 46.89887690295291,123.22448533004717 47.256331664772006,123.24254168252628 47.357802693906706,123.31175755350341 47.664521941158455,131.45954647961298 47.58150019001914,131.52572653137213 44.13840367786179,131.57385734441414 43.15597962283937,131.5528001275561 42.31423131276097,131.5949145397335 41.87144864005677,131.73328985860644 40.77602275709796,132.2747495539952 39.41077618295094,132.7379870967543 39.24242652092653,132.85229086058462 38.69125433982117,133.04780898493664 38.557497074099956,133.11699187634622 38.43065828765975,133.31551540401233 38.35916733529302,133.87197266162366 38.23694086835894,134.02236393254861 38.08473432461324,134.06748109953696 38.26461478539568,133.99830140304402 38.37300429382594,133.7847452209826 38.42373980839329,133.90505883551305 38.43757676692621,134.67504931507392 38.54827243508771,135.90516964940798 38.49523076076002,136.47358673162853 38.552884754608385,137.21040033103782 38.59439563017804,137.28558390943545 38.54827243508771,137.46000875391837 38.58055867164512,137.56827170720317 38.61284490820253,139.45075315736904 38.68433586055471,140.57835530476586 38.64051882523927,140.7106565757931 38.712009777606,140.8820455948844 38.714315937351785,141.83818973466623 38.67049890203634,142.00656272182096 38.73045905563049,142.7070998358431 38.68664202031505,143.38656800514036 38.575946352139,143.6300887506277 38.675111221542466,143.75635763323953 38.656661943517975,144.24940014310232 38.712009777606,144.43879748174004 38.610538748442195,144.60414294078328 38.70970361784566,144.94685475647566 38.70509129833954,146.22746423651188 38.603620269175735,146.50702332475157 38.391453571850434,146.68738201346423 38.001712573488476,146.7835726684625 37.858730668755015,146.73848335484763 37.85642450900923,146.84669754170136 37.84489371023665,146.7535131370205 37.711136444529984,146.74148931216223 37.25451681332197,146.81663810237296 37.21069977799198,146.77154886115022 37.18302586095524,146.53407722872726 37.20147513897973,146.77756076567493 37.28219073035871,146.80461431436743 37.74342268107284,146.72345356172627 37.84489371023665,146.77756076567493 37.83105675171828,146.92485187868442 37.88640458579175,147.0 38.384535092583974,146.91583408570114 38.8134808067698,146.71744164139454 39.27701891724428,146.61824470276224 40.204095138193225,146.56714306311005 40.229462895484176,146.52806525313463" stroke="#ff8e00" stroke-linecap="round" stroke-linejoin="round" stroke-width="0.5"><title>2021-09-11 29.2km</title></polyline><polyline fill="none" points="81.29224690448609,93.0 81.42823585812584,94.10669199516269 81.70021376531804,94.18747156091194 90.71257260005223,94.32479655049974 93.19128034537425,94.15515974883965 94.18647223318112,93.96936646113318 95.47218597639585,93.96936646113318 95.99759784262278,94.09861403204195 96.22012522123987,93.94513250778618 96.23248785341275,96.7965877480674 96.45501523202984,97.84666150866542 96.57246023742482,99.63174090759276 96.67754261067603,99.59135513616275 96.7455370874959,99.76097517690505 96.91243262143689,102.0306025550235 97.21531710904674,103.16941945431608 97.25240500547807,103.98515324176333 97.20295447690296,104.63934684834021 96.86916340896278,105.56812688129139 96.60336681781337,106.95722950116397 96.40556470345473,107.32872774744465 96.27575706591597,108.35437292954157 96.37465812309529,109.22656009262573 96.83207551250234,111.10817606245473 97.26476763762184,113.95874208402529 99.04498666670406,119.22342208208647 100.2132554045238,123.05856980129101 100.65831016178709,125.06888787619027 100.56559042070876,125.53714419661992 100.77575516718207,125.81971073915702 100.96119464939693,126.42520558992328 102.1727325997199,132.01159062592706 102.37053471407853,134.3041048615596 102.72905104630627,135.64405138350048 102.81558947134181,138.54177604770666 102.89594658030546,139.09063151208102 103.00721026962856,139.17941644089296 102.91449052855023,139.71212300823754 103.01339158570045,140.50310204266498 102.8774026320607,140.761378450934 103.06284211427555,142.60963365361386 103.08756737856311,144.32062685684286 108.8918231712596,143.57812689995262 109.47904819823452,143.65883390181625 109.93646558764158,143.93323682368282 110.31352586811408,144.40133277082714 110.67822351644281,145.16803305633584 111.25308591124485,145.7491040588102 113.10129941711784,145.7168224972702 113.58344207084156,145.98314481437774 114.33138131568558,146.0477076064235 115.41311162849888,145.66840011945533 116.24140798233566,145.7491040588102 116.73591326814494,145.85401900322904 116.90280880214414,146.0396372615578 116.89044616997126,146.27367678273004 116.62464957885095,146.57227748684454 116.75445721638971,147.0 118.02162701138877,146.64490984579606 118.35541807932896,146.1849032882892 118.6583025669097,145.42628759191575 118.7077530954848,142.66612956069002 102.14182601933135,130.52624876254777 100.40487620281056,122.56607104619616 97.56765212520259,113.57113837968427 96.75171840353869,109.24271157643307 96.66517997850315,107.94250196426219 97.51820159659837,104.51820047094225 97.6109213377058,103.63786211743354 97.27094895369373,102.12752405980063 96.91861393753788,99.30057670692258 96.75789971961058,98.71093795217894 96.51682839274872,98.92902425536886 96.67754261067603,97.66088068721001 96.48592181238928,96.59464818866763 96.5848228695686,95.27798408954914 96.14594942837721,95.36683971353341 94.01957669921103,96.9742939472053 93.53743404548732,96.36847500217118 93.41380772402044,94.23593924343731 91.15144604124362,94.42980954653103 88.31422196363565,94.42173163087136 87.87534852244426,94.51866654042533 87.90007378676091,95.1810505179019 87.99279352781014,95.14066147931226 87.88771115458803,94.54290024114744 87.9618869474507,94.47019910700692 90.4529573249456,94.44596537426332 90.60749022680102,94.89832662502886 90.70639128398034,96.33616447101667 92.55460478985333,96.43309600746943 92.90693980600918,96.39270788802241 92.99965954711661,96.27962099590513" stroke="#4dd2ff" stroke-linecap="round" stroke-linejoin="round" stroke-width="0.5"><title>2021-08-29 19.2km</title></polyline><polyline fill="none" points="134.9768786127097,126.17523802594587 134.44971098264796,123.05645607645783 134.70635838151793,122.8841931782772 134.65780346823158,122.34926848235045 133.38150289017358,115.6396496721718 133.24971098266542,114.51526379954157 133.32601156068267,114.34297705724748 151.0832369942509,113.2094996542146 153.21271676302422,113.2367033557639 155.5156069364166,112.90119019854683 156.50057803466916,112.64728713715886 161.00231213873485,112.14854593899145 168.56994219651097,110.80645869463115 175.88786127167987,110.14447247858698 178.78034682082944,109.69105316359855 181.98497109825257,109.4280684340738 185.39075144508388,108.97464385413332 186.2716763005883,109.02905497968095 186.4104046242719,111.28707437383491 186.341040462401,113.00093754396585 186.69479768784367,115.12279742026294 186.76416184971458,118.19664449419724 186.95144508668454,119.76524491060263 187.0,121.5514060835194 186.85433526008273,122.63939770638535 185.42543352599023,122.93859204017645 183.7468208092323,123.03832316244734 179.67514450862654,123.57324188606435 174.341040462401,123.97216130602101 169.40924855490448,124.79719101653973 168.85433526011184,124.77905861393447 168.5213872832246,124.55240313224203 168.2300578034483,123.536976356394 167.47398843930569,123.04738962010015 161.40462427746388,123.60044101932726 160.07976878611953,123.89056436170358 157.7838150289026,123.96309498418486 154.03121387280407,124.39827692919425 151.77687861272716,124.407343187082 151.31907514453633,124.52520441847446 149.0508670519921,124.606800523743 148.07283236994408,124.5342706577103 146.98381502891425,124.71559516296111 143.00231213870575,124.71559516296111 141.45549132948508,124.91505150348166 139.8254335260135,124.86065438362493 139.2080924855254,125.01477943197824 137.07167630057666,125.0963748900067 134.90057803469244,125.3502267362419 135.16416184970876,126.76452505267662 135.31676300577237,127.04556765318921 135.35144508667872,127.84335903076135 135.24739884393057,128.0881338634572 135.7329479768814,129.93751233777584 135.72601156070596,130.49956736573586 135.5664739884087,130.67180901109532 134.66473988440703,130.92563792825968 133.77687861272716,131.02535614586668 133.28439306360087,130.92563792825968 133.0,131.02535614586668" stroke="#4dd2ff" stroke-linecap="round" stroke-linejoin="round" stroke-width="0.5"><title>2021-08-28 17.3km</title></polyline><polyline fill="none" points="64.66264428116847,173.61507102550968 55.1998950681882,173.78167035045772 51.13431269675493,173.61507102550968 49.73189926549094,173.33740499480336 39.20671563484939,173.2448495153003 37.06768100737827,173.74464829731733 30.4522560336045,173.74464829731733 27.661594963283278,173.59655997583468 25.83420776494313,173.0597383526183 25.06925498432247,172.43035836637137 25.25341028330149,171.61586195584096 25.848373557208106,171.65288463407342 26.202518363075797,172.26375725589605 26.160020986339077,174.7442399177453 23.086044071416836,175.26254356408026 21.329485834226944,175.15147867641645 19.65792235051049,175.35509756243846 17.858866736700293,176.09552710368007 16.1023084995104,177.29871583468048 14.770724029454868,178.74252715709008 13.311647429189179,182.53708065889077 13.269150052510668,184.4065503975071 13.637460650643334,186.16493723390886 18.05718782794429,197.01086557978124 18.680482686322648,197.38101732256473 21.187827911926433,197.04788080290746 21.6552990556811,197.30698706084513 21.017838405037764,197.06638841038512 18.53882476396393,197.5475852523232 17.915529905585572,197.06638841038512 13.467471143754665,186.1279188163171 13.0,183.24044876324479 13.240818468097132,181.24139230156288 13.849947534152307,179.72356900717568 15.252360965416301,177.7984985479343 16.99475341028301,176.37318706061342 19.077124868927058,175.31807597124134 20.46537250786787,175.003392007231 25.905036726151593,174.78126167743176 26.216684155340772,174.15189028442546 26.103357817453798,172.31929098387627 25.933368310623337,171.76395260365098 25.380902413395233,171.3752142821395 24.94176285417052,171.8194865517653 25.0550891921157,172.35631345555157 26.868310598190874,173.1893161950793 28.58237145858584,173.4669825519086 37.1526757607935,173.57804892346758 38.83840503671672,173.09676060686616 48.938614900340326,173.1152717299119 51.31846799579216,173.4854936206175 64.83263378805714,173.4854936206175 65.5550891920575,173.78167035045772 66.9008394543198,173.72613726661075 67.0,167.35818144181394 66.57502623298205,163.26697035870166 66.77334732422605,162.63754148506996 66.51836306403857,162.45241474766954 64.96012591815088,162.73010475175397" stroke="#4dd2ff" stroke-linecap="round" stroke-linejoin="round" stroke-width="0.5"><title>2021-08-24 10.5km</title></polyline><polyline fill="none" points="77.64160646504024,194.11502455656228 77.46969511450152,193.57062447995122 77.44324721442536,192.585506775682 76.37210726094781,186.1127004098853 76.0415085098648,182.77663692093847 75.65801395862945,181.21225183596107 75.45304273293004,178.68840476870537 75.15550385697861,177.84997955414292 75.20839965718915,177.46101534475747 74.81168115590117,174.57395614404595 73.29753887598054,166.26638739784175 73.0,163.9061667987662 73.0,165.29810322821868 73.34382270110655,167.2433008032349 73.31076282600407,167.5718167089326 74.55381413004943,173.83055867566873 74.63976980533334,174.97158349091478 75.04310028161854,177.18441700866606 75.27451940739411,177.83269231058512 75.4332068079093,177.91912847767526 94.81951757075149,176.8991736122298 100.59838373944513,176.10394229361555 109.20056324233883,174.68632936241193 113.38594343091245,174.20225858444974 114.28517203382216,174.20225858444974 114.43063548431383,173.8392028862836 114.66866658508661,173.847847095607 114.41079955920577,173.78733760358227 114.34467980902991,174.0293751981626 115.05877311131917,174.11581695480345 123.59483286397881,173.02664153581645 125.87596424639923,172.8364659814979 125.71727684588404,172.853754693675 125.67760499575525,173.02664153581645 125.5784253704478,175.20497220335164 125.71066487085773,176.09529841587937 125.6577690706763,176.942392397581 125.92224807152525,177.85862317404462 126.05448757193517,179.37988048895568 126.29251867273706,184.07305712434027 126.24623484758195,187.14113779095715 126.54377372356248,188.6621550783202 125.88257622139645,188.9214154660258 124.81804824294522,189.0683291786081 126.8347006244876,188.94734144197355 127.0,190.260909269462 126.99338802503189,191.4793900477489 126.92726827479783,191.60037257767908 126.35863842297113,191.66086374935185 126.96694012495573,191.65222215721587 126.90082037472166,194.16687192022437 126.7156850741012,194.25328409145004 123.93204359008814,194.18415436460782 122.68238031104556,194.02861218230464 120.63928002942703,193.51877659090678 120.1037100526737,193.5101352716265 113.63719848173787,194.8322423653226 106.6747887841484,196.09383320123743 106.52932533371495,196.01606468542013 106.4698175585072,195.68770759661857 106.17227868249756,191.84233689123357 105.9408595567802,191.60037257767908 105.6962164810102,191.548522952442 102.99191869719652,191.7732043317592 102.76711154647637,191.68678851818913 99.75205093671684,192.0324510110113 99.44128811071278,191.91146936949735 99.09085343457991,192.10158326587043 98.20484878169373,192.2571305423844 96.8560058773437,192.41267740764306 96.4460634260322,192.37811147313187 96.28076405046158,192.222564516469 95.6790743235033,192.44724332186888 94.20460389374057,192.65463838075448 92.47887841315242,192.59414823073894 91.0969756336417,192.7410527728607 90.482061956689,192.6287140383647 89.9597159299883,192.78425992134726 87.06367087061517,192.96572959842888 85.96608301706146,192.89659835887142 85.14619811438024,193.01757797479513 84.87510713850497,192.9311639887892 80.90131015059887,193.2768191713294 79.90951389740803,193.19904693229546 78.76564221869921,193.423722009029 77.50936696460121,193.5101352716265 77.71433819030062,194.94457689292176 77.50936696460121,195.15196314965942" stroke="#ffb300" stroke-linecap="round" stroke-linejoin="round" stroke-width="0.5"><title>2021-08-07 23.0km</title></polyline><polyline fill="none" points="133.0,170.79746552819415 133.07049608352827,172.2796910435136 135.95202349871397,172.21075094106345 136.68342036553076,172.04989046713308 140.10248041775776,172.06138051187736 140.21703655354213,173.290805605684 140.2875326370704,177.30066609098867 139.92624020887888,181.57456174000254 136.75391644905903,181.44818643579492 136.73629242819152,181.32181092863175 135.96083550911862,181.42520908598817 135.13250652738498,181.26436744920647 133.63446475195815,181.31032223608054 133.48466057440965,181.54009576805402 133.37891644908814,181.98815222564735 133.51109660574002,182.01112941110478 133.52872062660754,182.29834366332216 133.2819843342004,184.10202520430175 133.36129242816241,184.6419727843604 133.51109660574002,184.7453665791909 133.6873368146189,189.0762957417246 133.87238903390244,189.46687180119625 136.58648825064301,189.6621591041112 137.56462140989606,189.53579678696406 142.77251958224224,189.71959645390598 146.47356396866962,189.54728427871305 149.6370757180266,189.1107584131969 154.1135770235269,189.14522106954246 159.04830287204823,188.83505661899108 159.12761096603936,186.35369700683805 158.80156657961197,180.79332933602564 158.82800261097145,177.61087600770406 158.81037859010394,177.49598358857475 158.59889033940271,177.61087600770406 158.8191906004795,177.57640829955926 158.36096605742932,171.61326752275636 158.1054177545302,171.4294255581117 156.58975195820676,171.41793542108644 149.00261096603936,171.8315792978392 148.5003263707331,172.40608107440494 148.42101827674196,173.3597447617576 148.6501305482816,180.873750676903 149.231723237579,189.1911712545625 150.87075718017877,189.0303454896566 155.27676240206347,189.08778330055793 162.61716710179462,188.68571774385782 166.19484334200388,188.72018058636604 168.13348563967156,188.20323636438843 170.50391644905903,188.22621173525113 171.40274151432095,187.78967854196526 171.42917754565133,187.34165511524043 171.8433420365036,186.9740442447437 171.83453002606984,186.16988947876234 172.04601827677106,185.77929705607676 171.9931462140812,182.8038382011 171.7816579634091,182.28685511336516 171.9490861618542,181.58605039396934 171.76403394254157,180.6209976144819 171.94027415142045,180.19591108772875 171.86977806789218,178.6678783925454 172.05483028717572,178.36916176663362 171.7552219320787,177.97853062164359 171.68472584855044,176.6917319570639 171.81690600520233,175.12916242871142 171.65828981719096,173.99168421083596 171.71116187988082,170.5676606223351 171.72878590077744,172.84269961895188 171.90502610962722,173.01504837742687 171.86977806789218,177.61087600770406 172.1253263707622,181.39074304860696 172.09007832896896,185.40019079184276 172.43374673626386,188.35257615506998 177.62402088774252,188.37555148233514 179.35117493470898,188.16877329553245 180.75228459527716,188.1917486764578 181.0871409921383,188.0538962903447 181.97715404696646,188.18026098686096 185.29046997384285,188.11133481389697 186.70920365533675,188.06538399842975 187.0,187.8586049966325 186.81494778062915,181.47116377892962 186.62108355085365,180.3912213986914 186.7180156657705,178.15086813052767 186.58583550908952,174.72702554403804 186.25097911222838,170.8434264288153 185.924934725801,170.55617035942123 185.41383812009008,170.42977735664317 183.05221932113636,170.4757384720433 181.14001305482816,170.28040354608675 179.57147519578575,170.46424819571257 179.9063315926469,180.06953356935264 186.66514360310975,180.13846678636764" stroke="#ffc000" stroke-linecap="round" stroke-linejoin="round" stroke-width="0.5"><title>2020-12-19 20.9km</title></polyline><polyline fill="none" points="15.279015240317676,248.4141377424603 16.472785128105897,247.37449147726875 18.44431418523891,247.19727770682948 20.316362418350764,246.2993886095428 20.650979735364672,245.82681137922918 20.488192932505626,244.46813639358152 24.223245687491726,243.27484641101182 25.860157427552622,242.44780337471457 26.909227935015224,241.5380462236135 26.7012225757353,240.51012642527348 27.38854463241296,240.8055070212722 28.87171328085242,240.59283310137835 33.48400602914626,239.16317717097263 33.33026293752482,238.15885823871213 31.376821302983444,238.12341145928076 30.38201306317933,236.29197329033195 28.102997822803445,230.78559213776316 27.922123597410973,229.72208457373927 27.958298442477826,227.61866157478653 28.17534751293715,227.09870584469172 29.03450008376967,226.0469669418162 30.074526879936457,225.0779369136726 31.07837883103639,224.5106944113286 32.79668397252681,223.9670832623524 35.6092781778425,223.87254181822937 36.10668229777366,223.7189117346934 36.305643945757765,223.3407441260715 36.215206833032425,222.44258893513324 35.99815776251489,221.86350988004415 35.69067157927202,221.74532996917696 35.708759001863655,222.19441270732204 36.32373136829119,222.6316750713013 37.12862167140702,222.87984995097213 38.32239155919524,222.97439256100188 42.82615977223031,223.02166382438008 44.96047563222237,222.71440011623054 51.0740244515473,222.7734893819288 53.30782113550231,222.96257474084268 65.10986434441293,223.15165965553751 67.0,223.04529944567184 65.69770557695301,223.31710859154555 61.17584994138451,223.15165965553751 61.93552168813767,223.15165965553751 62.18874560378026,222.97439256100188 62.125439624884166,222.79712507611112 60.83218891307479,222.7734893819288 60.063473455025814,222.26532027908252 60.09060458885506,222.5371320587583 61.808909730403684,223.0098460111185 57.847764193604235,223.11620626787044 52.36727516329847,223.0098460111185 51.300117233302444,222.8325786042842 44.562552336312365,222.80894292057928 42.97990286385175,223.12802406547416 37.49037012225017,223.0689350599714 36.115726009069476,222.5962214546089 35.69971529056784,222.17077683623938 35.78110869199736,221.87532786158408 36.15190085413633,222.11168712807557 36.350862502120435,222.74985368083435 36.27851281192852,223.37619741484377 35.91676436108537,223.80163566225383 34.06280355050694,224.33343030957622 30.779936359089334,224.8415863568007 30.137832858832553,225.17247694214166 29.016412661178038,226.37785257250653 28.39239658351289,227.4650386404246 27.958298442477826,228.91853620755865 28.066822977736592,230.4783580623698 31.096466253569815,238.01707102738146 31.566739239671733,238.3124607692007 33.10417015576968,238.13522705413925 33.447831184079405,238.40698525771586 33.628705409530085,238.9032370018249 28.889800703385845,240.48649593078153 27.406632054946385,240.7700614069836 26.574610618001316,240.40378914544272 26.7012225757353,241.31355911176797 24.792999497556593,242.6486574645096 24.178027131129056,242.90858554284205 24.241333110025153,243.14488306781277 23.97002177190734,243.34573541887949 20.66002344666049,244.3263602916195 20.442974376142956,244.53902435097552 20.05409479152877,244.4799510574594 18.91458717128262,244.94072159737698 13.226092781755142,246.21668779444008 13.0,246.38208933972783 14.392731535772327,255.2896422043268 15.007703902199864,255.2896422043268 17.865516663878225,254.6871730085768 18.39909562887624,255.8921068935524 18.417183051409665,256.76626333133026 18.76084407971939,257.94754074185767 18.62518841068959,258.25467003082304 18.21822140342556,258.25467003082304" stroke="#4dd2ff" stroke-linecap="round" stroke-linejoin="round" stroke-width="0.5"><title>2020-08-08 17.2km</title></polyline></svg>