<?xml version="1.0" encoding="utf-8" ?>
<svg baseProfile="full" height="300mm" version="1.1" viewBox="0,0,200,300" width="200mm" xmlns="http://www.w3.org/2000/svg" xmlns:ev="http://www.w3.org/2001/xml-events" xmlns:xlink="http://www.w3.org/1999/xlink"><defs /><rect fill="#222222" height="300" width="200" x="0" y="0" /><text fill="#FFFFFF" style="font-size:12px; font-family:Arial; font-weight:bold;" x="10" y="20">Over 10km Runs</text><text fill="#FFFFFF" style="font-size:4px; font-family:Arial" x="10" y="280">ATHLETE</text><text fill="#FFFFFF" style="font-size:9px; font-family:Arial" x="10" y="290">xiang578</text><text fill="#FFFFFF" style="font-size:4px; font-family:Arial" x="120" y="280">STATISTICS</text><text fill="#FFFFFF" style="font-size:3px; font-family:Arial" x="120" y="285">Number: 13</text><text fill="#FFFFFF" style="font-size:3px; font-family:Arial" x="120" y="290">Weekly: 1.2</text><text fill="#FFFFFF" style="font-size:3px; font-family:Arial" x="141" y="285">Total: 322.2 km</text><text fill="#FFFFFF" style="font-size:3px; font-family:Arial" x="141" y="290">Avg: 24.8 km</text><text fill="#FFFFFF" style="font-size:3px; font-family:Arial" x="167" y="285">Min: 10.5 km</text><text fill="#FFFFFF" style="font-size:3px; font-family:Arial" x="167" y="290">Max: 52.6 km</text><polyline fill="none" points="32.281829328945605,32.39999999999782 32.35417335719103,32.48268977580301 32.521468922524946,32.62444328212223 32.72041500022169,32.73666445400886 32.905796572653344,32.866604367576656 33.09117814505589,33.06151345167382 33.18612968211528,33.25642159228664 33.23586620154674,33.43951625887712 33.3669897527725,33.98879526339442 33.412204770429526,34.14235579542583 33.43481227924349,34.295915741855424 33.43481227924349,34.37860162429206 33.51167780929245,34.597127781984454 33.57497883401811,34.89833756896405 33.59306484105764,35.04598860238184 33.629236855194904,35.22316912786846 33.633758356940234,35.32357107957796 33.62471535342047,35.34128904508543 33.629236855194904,35.32357107957796 33.62019385167514,35.42397278096905 33.660887367557734,35.54209210916815 33.71514538873453,35.772423802602134 33.719666890538065,35.902353920242604 33.76036040642066,36.08543655630274 33.76940340994042,36.168118764264364 33.76488190816599,36.26851835997877 33.850790441734716,36.71736055052679 33.84174743821495,36.723266335473454 33.93669897527434,37.16029201845595 33.95478498234297,37.26659484586344 33.959306484117405,37.349274628719286 34.004521501774434,37.55597334322738 34.10399454063736,38.22330766547384 34.176338568882784,38.89063092984725 34.271290105971275,39.593375334396114 34.29841911655967,39.73510381245069 34.3436341342167,40.29610747703555 34.339112632442266,40.37287579173426 34.348155635991134,40.51460152672007 34.379806148353964,40.6031798578515 34.69631127198227,40.60908507299246 35.38357954041567,40.59136942495752 35.45140206688666,40.6031798578515 35.46948807395529,40.62089550070232 35.50113858631812,40.874818858555955 35.541832102200715,41.04016344027332 35.54635360397515,41.10512005451892 35.58704711985774,41.28227392455665 35.59609012340661,41.39447097257289 35.63226213751477,41.589338786809094 35.636783639289206,41.75468043531873 35.668434151652036,41.925926427175 35.72721367460326,42.138506645518646 35.74982118344633,42.28022616778617 35.822165211691754,42.52232919813105 35.840251218760386,42.7112866497082 35.86738022934878,42.79395525600921 35.880944734672084,42.917957847374055 35.97589627173147,43.38444036701185 35.98493927528034,43.490726767682645 35.99850378057454,43.76234629524697 36.0211112893885,43.89225063923732 36.14319183709449,44.37643586692866 36.20197136004572,44.67166790556803 36.26979388654581,45.132225565183035 36.30144439887954,45.29755267141081 36.30144439887954,45.34478886285433 36.3783099289285,45.69315406411988 36.37378842715407,45.82895663153977 36.39639593596803,45.947045448469 36.3918744342227,46.02970741434547 36.29692289713421,46.06513391922272 36.20197136004572,46.07694274727328 36.084412314143265,46.112369210597535 35.93972425759421,46.11827361813266 35.20724097150378,46.2658835250586 34.75056929315906,46.33083171274848 34.42502116601099,46.4016841617522 34.339112632442266,46.407588526850304 34.099473038862925,46.44891905847908 33.82818293289165,46.507962601539475 33.43481227924349,46.56700605804872 32.706850494927494,46.71461432074648 32.390345371328294,46.76775316291241 32.20496379889664,46.820891934978135 31.834200654091546,46.97440354945138 31.689512597571593,47.06296767630556 31.29614194392343,47.35227580054561 30.685739205538994,47.73604867769973 30.491314629587578,47.81280281441286 30.41444909956772,47.830515286736045 30.043685954762623,47.89546095196056 30.021078445919557,47.919077531543735 30.021078445919557,47.93678995713708 30.052728958282387,48.00763958165771 30.079857968899887,48.03716022176013 30.066293463576585,48.043064347199106 30.066293463576585,48.03125609545896 30.066293463576585,48.043064347199106 30.048207456537057,48.043064347199106 30.05725046005682,48.03125609545896 29.944212915899698,48.05487259543952 29.83117537177168,48.09620143707434 29.813089364703046,48.12572201229705 29.817610866448376,48.14933845687483 29.871868887654273,48.231995903941424 29.971341926517198,48.385502141387406 30.111508481262717,48.57443209223129 30.22906752716517,48.76926517607717 30.640524187881965,49.39508628351177 30.902771290304372,49.77293583048959 30.99320132561843,49.91462849700474 31.16501839272678,50.215723758770764 31.210233410383807,50.25705038380329 31.29614194392343,50.39874134773709 31.449873003992252,50.71754419473655 31.580996555188904,51.04815189016517 31.657862085237866,51.307913176282455 31.70759860466933,51.538154734393174 31.77542113114032,51.80381643579676 31.834200654091546,52.104897579858516 31.90654468233697,52.72476343945891 31.92915219120914,52.92547986442878 31.92010918763117,52.984513916784636 32.015060724748764,53.45087988984233 32.06027574240579,53.6338827843756 32.09192625476862,53.78146515845583 32.177834788308246,54.57249747037713 32.223049805965275,54.90307353727985 32.223049805965275,55.1273914667654 32.254700318328105,55.404835599572834 32.29087233246537,55.694083831836906 32.41295288014226,56.40243808158266 32.44912489425042,56.69758201079094 32.47173240309348,56.95730688043113 32.6661569790449,58.56284164534736 32.67519998259377,58.7871392042216 32.71589349844726,59.1294857031462 32.72041500022169,59.1294857031462 32.72945800377056,59.188510667656374 32.724936501996126,59.188510667656374 32.72945800377056,59.30656033735795 32.75658701432985,59.44821948456956 32.79728053024155,59.60758543002157 32.94649008853594,60.929708233103156 32.96005459383014,61.15989482402074 32.9962266079674,61.28974309021214 33.07309213798726,61.33105835990864 33.3127317315666,61.42549310305185 33.56593583046924,61.5553405136161 33.76036040642066,61.66748112244022 34.067822526500095,61.826838293021865 34.05877952295123,61.8209361868212 34.21703208476538,61.844544606410636 34.339112632442266,61.879957209868735 34.52901570661925,61.997998996666865 34.95855837437557,62.19276718911351 35.11681093618972,62.269493794407026 35.22080547682708,62.33441619248697 35.21176247330732,62.33441619248697 35.39262254393543,62.47016268693551 35.47400957570062,62.588202745282615 35.55539660752402,63.25512258094386 35.62774063574034,63.697762397241604 35.663912649906706,63.951540366277186 35.7181706710835,64.14629911939483 35.82668671346619,64.37056560884594 35.99850378057454,64.61843764553487 36.0753693105944,64.71286468715334 36.48682597131119,65.16729173126441 36.78524508787086,65.5036824772069 37.146965229156194,65.88728253372756 37.26904577680398,66.0761304514308 37.33686830330407,66.2236672715735 37.40469082980417,66.57185202628898 37.47703485804959,67.14428483245138 37.522249875735724,67.61638824705733 37.55390038806945,68.34813761398982 37.53129287925549,68.55467737050276 37.463470352755394,68.74351279335315 37.386604822735535,68.86743555891735 37.40016932802973,68.93824839678564 37.49059936334379,69.02086321709794 37.63980892163818,69.13298305961871 37.67145943400101,69.20379543106174 37.703109946334735,69.36312281209393 37.71667445165804,69.54605347311372 37.74380346221733,69.72898330408862 37.74380346221733,69.79979462873962 37.74832496402087,69.79979462873962 37.74380346221733,69.79389368975535 37.74380346221733,69.79979462873962 37.7528464657953,69.85290304060618 37.7392819605011,70.10074137101401 37.7392819605011,70.21285821047422 37.72119595340337,70.30137128454226 37.57650789691252,70.62001674226485 37.58555090043228,70.70262811651264 37.66241643045214,70.79114011539423 37.761889469315065,70.94456045311017 37.811625988717424,71.04487343520304 37.86588400992332,71.1982928074467 37.902056024060585,71.59954071331595 37.938228038168745,71.85326894590253 37.95179254346294,72.06569135451355 37.97892155408044,72.331217791565 38.015093568188604,72.8445639450365 38.015093568188604,72.99207599869624 38.00605056466884,73.02747881127652 38.01961506996304,73.01567787718886 38.042222578806104,73.29889934167295 38.05126558232587,73.65882374901776 38.14621711941436,74.93918453322112 38.14621711941436,75.02178705877668 38.186910635296954,75.45249748640344 38.15526012296323,75.50559845344833 38.13265261412016,75.51739865885611 37.17409423971549,75.57639963407564 37.01584167793044,75.57639963407564 36.82593860375346,75.59999999999854" stroke="#4dd2ff" stroke-linecap="round" stroke-linejoin="round" stroke-width="0.5"><title>2022-07-22 10.7km</title></polyline><polyline fill="none" points="121.59999999997672,63.45634567908928 121.55511429227772,62.35522354326167 121.40050796579453,62.23142703948906 120.7970445624378,62.28355192526942 119.81953359497129,61.78184736008916 119.27093050102121,60.882674345462874 119.39062572154216,60.79796870276914 119.56518125141156,60.84357945351803 119.56518125141156,60.70674706067075 118.98166705147014,60.393985722159414 118.40812745323638,60.25063603909075 118.2485338258848,60.03561064675887 117.82461325326585,60.02257877130978 117.9443084737577,59.65116871376449 117.80965135071892,59.47523654950783 117.83957515584189,59.3123357758559 117.48547679517651,59.2667234521432 117.82461325326585,59.29278764286573 117.93932117294753,59.63162072994237 117.78970214727451,60.029094709519995 118.30339413529146,60.02257877130978 118.39316555068945,60.25715194383156 118.56273377969046,60.30927914719723 117.94929577462608,60.37443806536976 117.63509582082042,60.50475561483108 116.72740706533659,60.30927914719723 116.28353728930233,60.56339838732674 115.8097437081451,60.58294596094129 115.52546755943331,60.47217626333804 115.41075963978074,60.58294596094129 115.08159778339905,59.47523654950783 114.76739782959339,59.23414319220683 114.47813438004232,58.7324041705142 113.89960748094018,58.36098332054462 113.71009004846564,58.41962892447191 113.66021703995648,58.32188620821398 113.43080120065133,58.28278906146079 112.87222350493539,58.39356422117635 112.16402678363374,58.13291634665802 111.7600554144301,58.36098332054462 111.53063957515405,58.36749950257581 111.52565227428568,58.530403742781345 111.48076656658668,58.406596574739524 111.5206649734173,58.530403742781345 111.43089355804841,58.458725950713415 111.10173170166672,58.569500671477726 111.01694758716621,58.80408152075688 110.6478873239248,58.71285578219249 110.21897945043747,58.862726539413416 109.76513507272466,58.62162985620307 109.5606557376741,58.62162985620307 109.3861002078047,58.76498479859583 109.07190025396994,58.569500671477726 108.8624336180801,58.243691880295955 108.50334795657545,58.13291634665802 108.22904640957131,57.92439694534187 107.90985915489728,57.96349440769336 107.06700531052775,57.644197457677365 106.7278688524384,57.774523020736524 106.55830062337918,57.62464859024112 106.30394827981945,57.79407182221257 105.56582775339484,57.93091319146333 105.2915262063907,57.833169399324106 105.02221196025494,57.97001064805954 104.73793581157224,57.735425391994795 104.34892634494463,58.035172999221686 103.93498037403333,58.14594877672789 102.66321865617647,57.35096354207781 102.38891710917233,56.66022710895777 102.09965365965036,56.45170079093077 102.06474255365902,56.184525014563405 101.97497113829013,56.17800851211723 102.0248441468284,56.10632692220679 101.70066959131509,55.75443380207071 101.20193950587418,55.558936419027305 101.14209189559915,55.44163757597562 100.74809512813226,54.39245080726323 100.8278919417935,54.13177944154813 100.73812052642461,53.8711065452153 100.81293003921746,53.47357743133398 100.71318402214092,53.44099291987004 100.7830062341236,53.343239242029085 100.67827291617868,53.2129006700452 100.84285384434042,52.9391884232391 100.77801893325523,52.38524180741297 100.28926344955107,51.92252815915708 100.27430154694594,51.44677529469118 100.08478411450051,51.0427072136481 99.79053336411016,50.87325821404738 99.53119371968205,50.43008084921894 98.67836527357576,49.85003320092437 98.38411452318542,49.40684561987655 98.04497806509607,49.23739037535415 97.55123528052354,49.17873263996444 97.31184483951074,48.89847794546222 96.80812745323055,48.60518625399345 96.9727083814214,48.533492434635264 96.88293696605251,48.21412765064815 96.54878780880244,48.07073863283222 96.36425767716719,48.16850392249762 96.22960055412841,48.005561653400946 95.85056568917935,47.84913651230818 95.47153082425939,47.45807124764542 95.30694989609765,46.66289458332176 94.96282613713993,46.26530090867891 94.84313091664808,45.95243780816236 94.9029785268649,45.926365783569054 94.68852459013578,45.75037921693729 94.43915954741533,44.84436325577917 94.4690833525674,44.55104477275745 94.34440083120717,44.642299619656114 94.16984530130867,44.44675328935773 93.80078503806726,43.416861730973324 93.5314707919315,43.3516779167403 93.26215654582484,43.07790485139412 92.94795659201918,43.02575740935208 92.78337566379923,42.89538853618433 92.66866774414666,42.934499238352146 92.5739090279094,42.680279058153246 91.71110598012456,42.77153775194165 91.36199492032756,42.9801283473098 90.95802355112392,43.4494536021848 89.94560147769516,43.55374742924323 89.49175709998235,43.7753709979188 89.22743015465676,43.70366937623476 89.27231586235575,43.85359081675051 89.12269683674094,43.977438581259776 89.00300161621999,43.95136539640953 88.92320480258786,43.5146372728268 88.21500808125711,43.5146372728268 87.49184945737943,43.214791595190036 87.32228122834931,43.279975610465044 87.27739552062121,43.61893094668994 86.76370353266248,44.08173116751277 86.50935118907364,44.57059939859391 86.08044331561541,44.883472240384435 85.97570999767049,45.3853678170417 85.72634495495004,45.67868078601896 84.3847610251396,46.52601847438564 83.98577695680433,46.62378716671083 83.61671669359202,46.93012767464097 83.18780882010469,47.053966854287864 82.82872315860004,47.61449776697191 82.82872315860004,47.90127828725599 82.903532671422,47.979490834852186 82.8386977603368,48.10332708664646 82.50953590392601,48.33144559341599 82.24022165779024,48.71598556521349 82.07065342876012,48.722503163138754 81.78637728004833,48.944100923290534 81.40235511425999,48.963653613733186 81.09812976216199,49.19176769896512 80.70912029553438,49.17873263996444 80.60438697758946,49.07445203011957 80.1605172015552,48.957136051201815 79.72163472636021,48.93758335790335 79.45730778112193,49.198285227044835 79.10819672129583,49.146144975700736 78.39999999999418,50.07814273096301 78.51470791961765,50.06510793225243 78.70921265293146,50.319285816651245 79.37252366656321,50.63863545442655 79.56204109903774,50.80156805795923 79.70667282381328,51.27732783754254 80.1605172015552,51.74004821120252 80.43481874853023,51.902976772027614 80.5295774647675,51.86387397197177 80.57945047327667,52.052870519859425 80.66922188870376,51.99421650490331 81.053244054463,52.248383343328896 81.47217732624267,52.71109359504044 82.25518356033717,53.115146489919425 82.79879935347708,53.19334985122987 82.84368506114697,53.35627307816321 83.18282151926542,53.525712599897815 83.3623643500323,53.734252661906794 83.50200877393945,53.72121893674557 83.42221196024911,53.86458970319654 83.60674209188437,53.96234223303327 83.63666589700733,53.89065706554538 84.01071346108802,53.85807286023555 83.80623412606656,53.91020757725346 83.69651350725326,54.190430632283096 83.82119602861349,54.16436344597969 83.8162087277451,54.32728310933089 84.0805356730416,54.737838009226834 84.57427845761413,55.304788534031104 84.6889863772667,55.27220536663299 84.96328792424174,55.59803596451093 84.84858000458917,55.656685218149505 84.89346571228816,56.00857911305502 85.09295774644124,55.871731818686385 85.40217039943673,56.093293893405644 85.73133225581842,55.845665619570354 86.20013853613636,55.96296339512628 86.36970676513738,55.897798002519266 86.61907180788694,56.06071130472628 86.93825906256097,55.93689724957221 87.09286538901506,56.21059101472929 87.22253521124367,56.20407451612846 87.26742091894266,56.340920786071365 87.347217732633,56.27575594823065 87.347217732633,56.386536115649506 87.59658277532435,56.21710751239152 87.6065573770029,56.458217253188195 87.8708843223285,56.4256349322859 87.8708843223285,56.58854629761481 88.29480489491834,56.62764493632494 88.43943661969388,56.738424225724884 88.61399214959238,56.640677808249166 88.61897945046076,57.07076043544657 88.51424613251584,57.20760403402528 89.19251904869452,57.48128996590094 89.25236665894045,57.761490481661895 89.40198568458436,57.72239284142779 89.7411221426737,57.92439694534187 89.8707919648732,58.119883912761 89.91069037170382,58.719371912582574 90.41440775801311,58.96046806507002 90.36952205031412,59.42310836697288 90.73359501268715,59.527364670855604 90.97298545367084,59.90529172036622 91.32708381433622,59.957419336809835 91.72108058183221,59.644652720122394 92.71854075268493,60.06167438612829 92.94795659201918,59.96393528457338 93.21727083812584,60.029094709519995 93.81075963980402,60.34185861824881 94.09004848761833,60.6741678573635 94.51895636110567,60.752357905137615 94.88302932344959,61.11072719576623 95.39672131143743,61.24755834372991 95.75580697297119,61.71017481660965 96.26949896095903,61.53425081033856 96.98767028396833,61.840488445959636 97.23703532668878,61.72972188541098 97.496374971146,61.73623757308815 97.79561302237562,61.29968438443757 97.96518125143484,61.21497953724611 98.26441930266446,61.482125044993154 98.59856845991453,61.38438907007003 99.07734934194013,62.05550509832392 99.46635880856775,61.72320619675884 99.74564765641117,61.951254730251094 99.6957746478729,62.09459892326777 99.76559685982647,62.14020834218536 100.09974601707654,62.062020738212595 100.61842530590366,62.4334106309725 101.29669822211144,62.348707946395734 101.66077118448447,62.602815515419934 102.40387901174836,62.80479741761155 102.88764719464234,63.2152739365265 103.17192334329593,63.332552245032275 103.29660586468526,63.28694405074202 103.28164396213833,63.19572752165186 103.57589471252868,63.20875846586932 103.6357423227746,63.13057274331368 103.75543754326645,63.18921204812068 103.855183560343,63.065417869380326 103.94994227660936,63.09799531829776 103.90006926804199,63.22830487499232 104.25416762870736,63.13708822545959 104.37386284922832,63.19572752165186 104.45365966288955,63.065417869380326 104.37386284922832,62.85040610709257 104.42872315860586,62.90904578186746 104.50353267142782,62.73312652522509 104.52348187481402,62.8243440045444 104.86760563377175,62.81131294755687 104.91249134147074,62.91556129649689 105.14689448161516,62.93510783469537 105.01223735857639,63.045871388541855 105.0970214730769,63.22830487499232 105.82018009695457,63.43679937032721 105.84012930039898,63.508469127016724 106.04460863539134,63.37164494569515 106.8375894712517,63.16966562180096 106.99718309857417,63.00677840109347 107.52084968826966,62.93510783469537 108.02456707454985,63.1631501444499 108.16919879935449,63.143603706637805 108.60808127452037,63.44331480753681 108.77764950355049,63.66483910376337 109.48584622485214,63.90590840578079 109.88981759408489,64.23167565372933 110.19903024702216,64.21864500967422 110.6728238282085,64.6356237223008 110.77755714612431,64.57698632741813 111.18651581619633,64.67471527587986 111.15160471020499,64.59653213431011 111.24636342644226,64.70729154425135 111.34112214267952,64.57047105655147 111.31618563842494,64.6356237223008 111.62041099052294,64.85714207089768 111.87975063495105,64.9353247536601 112.11415377506637,64.86365729972385 112.5430616485537,64.96138561730913 112.77247748785885,64.8180506779172 113.49563611173653,64.77895925051052 114.23874393902952,64.83108114606512 114.48810898174997,64.75289827980669 114.68261371506378,64.8180506779172 114.85716924496228,64.73335254172343 115.25615331329755,64.8180506779172 115.64017547908588,64.75289827980669 116.35335950125591,64.90926387469153 116.64761025164626,65.13078085833695 116.9219117986504,65.13729604702166 117.20618794733309,64.99396167538725 118.18868621563888,65.31972094184675 118.8819210343645,65.07865931453125 119.37566381896613,65.1894175219968 119.7945970907167,65.00047688412815 120.1237589470984,65.07865931453125 120.19358115908108,64.84411161041135 120.67236204107758,64.79850496852669 120.75714615560719,64.47925716388636 121.48030477951397,64.36198188377602 121.58503809742979,64.15349173215509 121.56508889401448,63.78863161151094" stroke="#ffc500" stroke-linecap="round" stroke-linejoin="round" stroke-width="0.5"><title>2022-07-09 20.1km</title></polyline><polyline fill="none" points="181.1534179833252,75.55191542905231 181.0667960870269,75.53211586499492 180.87189682035387,75.60000000000036 180.65101098480227,75.58585749158374 180.58171346775634,75.35674741037656 180.38248310628842,74.9664054481691 180.3370066107309,74.94377668636298 179.7631365477646,75.08520601209057 179.5552439966632,75.096520313351 178.92506970110117,74.83628970518657 179.01169159739948,73.07115463666196 179.01169159739948,71.98766639157293 179.09398239888105,71.80094947385805 179.07016137739265,71.54067438996935 179.22174969591288,71.56896533013969 179.35168254036398,71.48126328049511 179.54874735443445,71.44448488289163 179.5314229751748,71.09650118745412 179.70466676776414,71.02577202609245 179.9450425299874,70.98616358240906 180.19191493443213,71.0003094644926 180.41713186480047,70.77963252204063 180.4431184336936,70.62968392764924 180.38681420109788,70.49105117082945 180.20274267147033,70.34958814652236 180.20490821887506,70.1260744525407 179.91905596110155,69.93368084333815 179.81077859072684,69.74411467411664 179.24557071740128,69.43005318725045 179.1481210840575,69.24331149933278 178.76265364554274,69.32819430899144 178.68036284406116,68.85284576111917 178.74316371887107,68.64063280367736 179.42747669961682,68.41992884980209 179.16761101072916,67.77195007794762 178.52011233591475,67.77477972691668 178.14763818184292,66.67401492751378 178.10865832850686,64.94775330437369 178.2299289833245,64.88832187240405 178.55476109443407,64.83455041888192 178.69768722332083,64.63927387858712 178.86443437369599,64.5770113772669 178.80379904627625,64.43833508318494 178.90124867961276,64.2345640243093 178.81029568851227,63.77041079123046 178.76698474035948,63.27228268973158 178.71501160258777,63.235488626110964 178.55909218924353,63.24964019735489 178.47896693517396,63.19586417132814 178.48979467221216,63.00623172398264 178.37935175443272,62.82508853903528 178.47896693517396,62.57318346694046 178.41616606035677,62.40335796441286 178.4204971551735,62.25900511044165 178.57208547369373,62.046719537120225 178.5374367151744,61.92500808688601 178.57425102109846,61.709888294582925 178.61323087442724,61.571191365586856 178.68902503369463,61.53156348820994 178.52011233591475,59.518926242504676 178.50278795666236,59.45098545177825 178.21693569886702,59.42833846828762 177.9982154107347,59.55006569150464 177.84229599739047,59.42550759347978 177.71669424777792,59.42267671825357 177.65605892035092,59.33491937999497 177.50230505442596,58.117598937993534 177.59975468776247,58.07230180915758 177.60408578258648,58.01851133033415 177.3940276840658,58.02983565414797 177.32256461961515,57.5627017698971 177.56294038183114,57.4947540793637 177.6279068040676,57.44096198769694 177.44816636924952,57.171999275977214 177.34855118850828,56.93700772742886 177.34205454627954,56.78128885687147 177.48498067517357,56.18388296480771 177.47631848554738,55.95454213148332 177.402689873692,55.7421870730268 177.2034595122168,55.481695003625646 177.20562505961425,55.30048105122478 177.11034097368974,55.122096901472105 177.0626989307275,54.81629165771483 177.11900316331594,54.623745124097695 177.05836783591076,54.26696263500162 176.8136609788853,53.969638844633664 175.9322831840691,54.07441060885321 175.71139734850294,52.856757623807425 175.32159881517873,53.15126680047433 175.15268611739884,53.36648219644667 174.97727677739022,53.46559374093158 174.85600612258713,53.462761989590945 174.64811357147119,53.36648219644667 174.0460913922143,53.457098485680035 173.73425256554765,53.44010796392831 173.1907001662912,53.304183250238566 173.00013199443492,53.21356624141299 172.8398814862885,53.01534004787936 171.5600429685146,50.97065936866238 170.57471889814042,50.06436025250514 170.44262050629186,49.985057049902025 170.26937671369524,49.95673439837083 168.71451367518603,50.11534071024835 168.6863615588736,48.36210190039128 164.84034936332318,47.906063698552316 163.79005887073436,47.4953368159222 162.3586320344475,47.3055497096193 160.44428812629485,47.40752510382845 158.84827968703758,47.668126434517035 158.7768166225942,47.71061544738768 158.6403871359289,47.90889626731769 158.50612319667562,47.94571962327791 155.72122923075221,48.12417027350966 155.1581869048241,48.226141330867904 154.105730864816,48.506558953298736 153.6942768574081,48.492396545065276 153.58383393963595,48.214811240059134 153.45823219000886,48.07884963017932 153.39326576778694,47.795593191745866 153.02295716111985,47.498169445123494 152.96665292852413,47.418855669839104 152.96665292852413,47.28572109800734 152.88869322185928,47.09309923641558 152.77608475667512,46.9599624113107 152.68080067074334,46.71634796406579 152.4988946885278,46.59453958412087 152.3711273914887,46.36508449549365 152.35596855964104,46.15828929418058 152.29966432704532,45.996817523660866 152.32781644334318,45.79001836531643 152.22603571518994,45.554887855536435 152.14807600853237,45.51805992512709 152.04196418556967,45.32542037141684 151.97916331075248,45.331086268164654 151.88171367741597,45.1696075571017 152.00298433222633,45.10444909703256 152.00731542704307,45.05345536570894 151.9141968885233,44.925970446218344 151.87738258260651,44.69932850406258 151.73878754852922,44.34802821856647 151.67165557890257,44.26870146008514 151.7279598114983,44.1780419071074 151.58286813519226,43.99672151980121 151.38363777370978,43.58307799167051 151.34682346777845,43.265756381451865 151.25587047667796,43.17792536824891 151.20173179149424,43.01926187652134 151.24287719223503,42.91726322668728 151.13676536926505,42.605597335337734 151.15625529592944,42.560263694225796 150.89205851223232,41.80657626143511 150.88556187000358,41.35888328290639 150.8465820166748,41.305046083780326 150.87256858556066,40.98485331341362 150.90288624927052,40.894178286331226 150.99383924038557,40.806336446290516 151.0263224514856,40.641986119979265 151.05230902037874,40.33878441983143 151.02848799889762,40.177263806263 151.09778551593627,39.69836138417122 151.0674678522264,39.56517338458616 151.15192420111998,39.1571022832959 151.21689062333462,38.47979850050615 151.09778551593627,37.771296218701536 151.24287719223503,37.147792621799454 151.8513960137061,35.056073819694575 151.84489937149192,34.56287120057095 151.62401353593305,33.20224666697686 151.49624623889395,32.774196956957894 151.50707397593214,32.56725560054656 151.8730514877825,32.54741179180928 152.81289906259917,32.606943156590205 151.55038492408494,32.53607246333013 151.49841178630595,32.56442077198153 151.49408069148922,32.743014155368655 151.45510083816043,32.77986655181667 151.3121747092664,32.56442077198153 151.27319485593034,32.400000000001455 153.17237993223534,32.49921959960193 153.17237993223534,32.674978776347416 153.20053204852593,32.623952084097255 153.48205321148998,32.62962172325933 154.24649144629802,32.66930915055855 154.36776210111566,32.71183130319878 154.44572180778778,34.15752854355014 155.00226749147987,37.045762836127324 155.52199886926246,38.93322626567715 155.6519317137063,39.216613191390934 155.81867886408145,39.7947095750078" stroke="#ff6b00" stroke-linecap="round" stroke-linejoin="round" stroke-width="0.5"><title>2022-07-02 34.9km</title></polyline><polyline fill="none" points="15.820856771955732,114.40647391439416 15.758546083961846,114.46344579327706 15.29121592384763,114.6018058270638 14.94850713975029,114.67505511706258 14.823885763733415,114.67505511706258 14.69303331890842,114.71574912527285 14.263089571642922,114.78085947637737 14.132237126788823,114.83783097091145 13.945305062748957,114.8541085300385 13.839376893127337,114.78085947637737 13.708524448302342,114.20300244095779 13.671138035482727,113.96697459711868 13.683600173069863,113.86116868609315 13.602596278680721,113.56002768132748 13.521592384233372,112.57520379563357 13.465512765047606,112.15196832653601 13.266118563391501,111.33804488996248 13.185114668973256,110.87410318929324 13.110341843392234,110.2880660229348 13.060493292985484,109.758999376274 13.029337948944885,109.57992952246423 12.960796192113776,109.41713824480757 12.917178710515145,109.09155425669451 12.848636953684036,108.74154933873797 12.755170921707759,108.46479970109067 12.780095196911134,108.31014489061272 12.667935958481394,107.7078009935758 12.67416702726041,107.42290633205994 12.574469926446909,106.93451208046099 12.462310688017169,106.60077353602173 12.481003894412424,106.50309358226878 12.39999999999418,106.19377259425164 12.45607961920905,106.12865216650607 12.873561228916515,105.99841108175315 12.99818260493339,105.9251503371961 13.129035049758386,105.91701024850408 13.477974902634742,105.83560929585292 13.870532237138832,105.79490877472563 14.013846819580067,105.8030488813456 14.188316746003693,105.7460681099692 14.375248810043558,105.72164776148202 15.035742102976656,105.43674290148192 15.372219818236772,105.33092072375803 16.188489831256447,105.11113555581323 16.38165296407533,105.07857471613534 16.61220250974293,105.00531275700996 16.67451319776592,105.00531275700996 16.9985287754389,104.89134951718734 17.235309389885515,104.858788548554 17.34746862828615,104.86692879251859 18.238511466915952,104.54131810272884 18.562527044588933,104.43549421709395 19.185633924702415,104.2726878450485 19.53457377757877,104.24012651331577 20.14521852013422,104.0203370242416 20.375768065772718,103.87381021447072 20.668628299434204,103.75170424403404 21.4599740372214,103.2225752667 21.547209000447765,103.19001331866457 21.84630030291737,102.98650071032898 21.88368671570788,102.92951704625011 21.871224578120746,102.85625224924661 21.7902206837025,102.69344124284908 21.7902206837025,102.54691092858047 21.63444396367413,102.19686472232206 21.646906101261266,102.11545831131662 21.72167892687139,102.0503330964857 21.765296408499125,102.0666144073657 21.82137602768489,102.18872408659081 21.964690610126127,102.33525534693035 22.076849848555867,102.39223962141841 22.338554738205858,102.39223962141841 22.724881003872724,102.27827101390722 23.18598009517882,102.20500535687461 23.62215491128154,102.03405178083631 23.76546949375188,101.95264513091388 24.08325400261674,101.86309767800049 24.226568585028872,101.84681630741761 24.332496754650492,101.78983147269537 24.556815231509972,101.75726868370475 24.644050194707233,101.7165651706091 24.712591951538343,101.62701733665381 24.94937256598496,101.602595175038 25.834184335777536,101.34209144880151 26.24543487667688,101.2525430104215 26.438598009495763,101.18741678259903 26.500908697547857,101.13857206157991 26.519601903943112,101.08972729753441 26.457291215949226,100.79665781016593 26.382518390280893,100.6419816232119 26.214279532665387,100.49544589038487 26.046040675020777,100.45474145144544 25.073993942001835,100.62569989422991 24.918217222002568,100.60127729181113 24.799826914764708,100.49544589038487 24.301341410638997,99.2987229172104 23.815318044129526,98.1833864277105 23.16728688881267,96.54697624645996 23.005279099947074,96.22131671958778 22.799653829511954,95.70025749973865 22.675032453465974,95.26875162820943 22.58156642143149,94.74768346008932 22.58156642143149,94.16147591987828 22.668801384686958,93.61597167157379 22.77472955430858,93.24144326056194 22.86819558631396,93.02161018930565 23.061358719161944,92.64707776487194 23.522457810497144,92.0445637752382 24.06456079619238,91.57231850517928 24.544353093893733,91.24662976924446 25.17369104284444,90.96979283998007 25.472782345314045,90.88836995073507 25.603634790109936,90.82323155331324 25.98996105583501,90.73366613188773 26.332669839903247,90.7092391736769 27.19878840330057,90.69295452888764 27.921592384256655,90.77437770501638 28.195759411493782,90.74180844891453 28.301687581115402,90.62781590191662 28.401384681958007,90.29397923799479 28.351536131551256,90.20441296188437 28.37646040675463,90.04970723518636 28.345305062743137,89.91942839377953 28.38269147556275,89.83800396250444 28.38269147556275,89.68329721373448 28.27676330594113,89.28431465943868 28.16460406751139,89.16217656902154 28.052444829052547,89.14589146996514 27.90913024666952,89.18660420864035 27.809433145826915,89.31688477148055 27.809433145826915,89.52859003338381 27.927823453064775,89.65072731688997 28.345305062743137,89.89500107697677 28.74409346599714,90.03342239676567 29.292427520558704,90.13927376113134 29.666291648638435,90.1637009703918 31.566767633048585,90.18812816887294 31.95932496752357,90.15555856851279 33.10584162699524,90.19627056599347 33.41116399827297,90.12298894901687 33.72271743832971,89.97642542454923 34.02180874082842,89.95199813284853 36.60147122456692,89.98456785274175 37.56105581999873,90.01713755353921 38.80103851144668,90.00085270553245 38.938122025108896,90.02527997573998 39.22475118993316,90.13113135566891 39.5674599740305,90.15555856851279 40.0971008221386,90.17184337109575 40.402423193416325,90.13927376113134 41.10653396794805,90.13927376113134 41.58009519689949,90.17184337109575 42.271743833844084,90.15555856851279 42.95093033317244,90.19627056599347 43.58649935093126,90.20441296188437 44.42769363912521,90.20441296188437 44.658243184763705,90.22069775012278 45.032107312843436,90.22069775012278 45.2190393768833,90.18812816887294 45.38727823452791,90.23698253357361 46.75188230202184,90.23698253357361 47.343833838182036,90.31840637909409 47.79870186065091,90.30212161955205 49.56832540026517,90.36726062904563 49.61817395064281,90.34283350946134 49.64309822587529,90.20441296188437 49.69294677628204,90.15555856851279 50.03565556035028,90.21255535659657 50.328515794011764,90.19627056599347 50.658762440492865,90.22884014245574 51.094937256595585,90.20441296188437 51.72427520554629,90.26955208614163 52.07321505842265,90.20441296188437 52.53431414969964,90.22884014245574 52.65893552574562,90.21255535659657 52.739939420163864,90.22884014245574 52.97672003461048,90.22069775012278 53.176114236266585,90.2614096997786 53.599826914753066,90.2614096997786 53.836607529228786,90.29397923799479 54.38494158373214,90.26955208614163 54.733881436579395,90.28583685524427 55.27598442233284,90.25326731224777 55.500302899163216,90.26955208614163 55.56261358721531,90.25326731224777 55.60000000000582,90.21255535659657 55.575075724802446,89.94385569984661 55.5937689311977,90.00899513014156 55.53145824317471,90.08227689773048 55.37568152314634,90.03342239676567 55.07035915189772,90.00899513014156 53.69952401556657,90.00085270553245 53.132496754667955,89.91942839377953 52.908178277808474,89.95199813284853 52.78978797059972,89.92757083034667 52.49692773690913,89.92757083034667 52.38476849847939,89.90314351710549 52.42838598007802,89.96828299518165 52.35984422327601,89.96828299518165 52.26637819124153,89.93571326569509 51.45633924708818,89.91128595604096 51.2320207702287,89.96014056461718 51.02016443098546,89.93571326569509 50.42821289485437,89.95199813284853 49.89857204671716,89.92757083034667 49.74902639549691,89.90314351710549 49.68671570747392,89.93571326569509 49.5807875378523,90.12298894901687 49.4810904370388,90.12298894901687 49.44370402421919,90.19627056599347 49.37516226741718,90.23698253357361 48.490350497624604,90.22884014245574 47.41860666376306,90.25326731224777 46.577412375598215,90.1637009703918 45.51189961057389,90.17184337109575 43.200173085264396,90.10670413208936 41.34954565123189,90.1148465411643 40.64543487667106,90.08227689773048 39.40545218519401,90.08227689773048 39.09389874513727,90.03342239676567 38.86334919949877,89.95199813284853 37.67321505842847,89.92757083034667 36.769710082240636,89.93571326569509 35.09978364346898,89.89500107697677 33.83487667675945,89.89500107697677 33.73517957597505,89.91128595604096 33.317697966238484,90.09041931038519 33.09961055818712,90.13113135566891 32.88775421894388,90.10670413208936 32.87529208135675,90.00899513014156 32.893985287752,89.98456785274175 33.14322803981486,89.99271027972281 33.16815231498913,90.00899513014156 33.13076590219862,90.05784965264684 32.91890956295538,90.04970723518636 32.96252704458311,90.01713755353921 33.18061445263447,89.97642542454923 33.23046300304122,90.00899513014156 33.23046300304122,90.1148465411643 33.542016443097964,90.1148465411643 33.72894850713783,90.02527997573998 33.85356988318381,89.98456785274175 32.85659887496149,90.06599206887404 32.77559498054325,90.10670413208936 32.61358719167765,90.1148465411643 31.953093898744555,90.08227689773048 31.342449156189105,90.10670413208936 29.610212029423565,90.09041931038519 29.24881003893097,90.07413448389343 28.63816529637552,89.95199813284853 28.27676330594113,89.81357660981303 28.027520553878276,89.68329721373448 27.89043704024516,89.59372995137528 27.83435742103029,89.47973504468973 27.85928169626277,89.33316982030738 27.95274772826815,89.22731691738227 28.108524448267417,89.20288929573871 28.22068368672626,89.28431465943868 28.32661185634788,89.63444236129726 28.32661185634788,89.88685863562569 28.25807009951677,90.07413448389343 28.27053223713301,90.30212161955205 28.127217654691776,90.54639251064145 27.815664214635035,90.64410056583438 27.360796192107955,90.62781590191662 26.675378623971483,90.6685275527525 26.451060147112003,90.65224289600883 26.014885331009282,90.69295452888764 25.784335785370786,90.75809307934105 25.391778450866695,90.7906623258823 25.198615318047814,90.88836995073507 24.768671570753213,91.0267887913069 24.214106447441736,91.32805213251049 23.89632193854777,91.58046069908232 23.609692773694405,91.8817210328707 23.39783643442206,92.03642164945632 23.017741237563314,92.60636756635358 22.731112072709948,93.11931388410449 22.556642146257218,93.64853923995543 22.48810038942611,94.09634136630848 22.513024664629484,94.58484865369974 22.513024664629484,95.15476838470568 22.60649069666397,95.5374254897506 22.71241886628559,95.76539016991228 22.81211596709909,96.13990153912528 23.447684984857915,97.64606303464461 23.63461704889778,98.01242045811887 24.307572479447117,99.73019744134217 24.619125919532962,100.40589608532173 24.712591951538343,100.53615029944922 24.812289052380947,100.61755902793811 25.049069666827563,100.68268592474851 25.53509303330793,100.60127729181113 25.896495023800526,100.48730500500096 26.08965815664851,100.49544589038487 26.208048463857267,100.54429117767722 26.326438771095127,100.65012248592393 26.463522284728242,101.09786809452271 26.345131977519486,101.09786809452271 26.070964950253256,101.11414968493045 25.678407615749165,101.2362614606318 24.600432713137707,101.65958020208927 24.226568585028872,101.83053493203988 24.164257897034986,101.76540938275866 23.983556901774136,101.85495699330932 23.491302466456546,101.96892647043569 23.16105582000455,102.09917701476661 22.69995672866935,102.13988024715945 22.618952834280208,102.18058344967721 22.257550843787612,102.27827101390722 22.033232366957236,102.25384913898597 21.93353526611463,102.19686472232206 21.808913890097756,102.00962979840187 21.746603202045662,101.98520780522085 21.68429251408088,102.00962979840187 21.597057550854515,102.13988024715945 21.72167892687139,102.64459784775681 21.2605798355944,102.92951704625011 20.830636088270694,103.23071575074209 20.406923409784213,103.38538472030268 20.338381652982207,103.57261500130699 20.369536996964598,103.77612545962984 20.257377758534858,103.88195060292855 20.126525313738966,103.95521404546889 19.70281263522338,104.08545992659856 19.3476417135098,104.14244240344851 18.388057118136203,104.37037172559576 18.001730852440232,104.50061663212182 17.939420164446346,104.54131810272884 17.49701427956461,104.63900151030612 17.440934660320636,104.6959834186382 17.328775421890896,104.74482500778686 17.29138900907128,104.82622756079218 17.40977931630914,105.42860274113627 17.403548247530125,105.52628458657273 17.4284725227335,105.55884516351216 17.484552141919266,105.50186414132986 17.49701427956461,105.32278054785638 17.46585893552401,105.3065001925388 17.4284725227335,105.44488306065978 17.503245348343626,105.91701024850408 17.017221981834155,106.03911145358143 16.81782778017805,106.16935244281922 16.431501514511183,106.50309358226878 16.157334487244952,106.60891352440012 15.839549978380091,106.64961344839685 15.696235395938857,106.61705351158162 15.197749891813146,106.60077353602173 14.929813933355035,106.65775342962661 14.618260493298294,106.78799296669604 14.425097360479413,106.91009225503876 14.063695369986817,107.24382893898292 13.889225443534087,107.52872451996154 13.845607961906353,107.71594081956573 13.758372998709092,107.96013504361326 13.770835136325331,108.56247620141949 13.870532237138832,108.89620294682027 14.126006057980703,109.2706256865713 14.306707053241553,109.39271951195042 14.375248810043558,109.49039437885222 14.836347901349654,109.76713890134488 15.172825616638875,110.10085840155807 15.216443098237505,110.19853202196464 15.284984855068615,110.79270950851424 15.546689744718606,111.42757705237818 15.609000432712492,111.66361569717992 15.590307226317236,111.78570425743237 15.546689744718606,111.82640038449244 15.272522717452375,111.89965333798318 15.166594547830755,111.89965333798318 14.904889658180764,112.00546298898553 14.823885763733415,112.00546298898553 14.717957594111795,112.0787157061095 14.730419731728034,112.19266418498592" stroke="#ffc500" stroke-linecap="round" stroke-linejoin="round" stroke-width="0.5"><title>2022-06-18 20.1km</title></polyline><polyline fill="none" points="88.07806359465758,81.07068050271118 89.07570361373655,81.0526516955997 89.88542252119805,81.10673807735111 90.14519582256617,81.06346898145057 91.95255474910664,81.023805576815 92.61304218556324,81.08149778063671 95.55345487339946,81.06346898145057 97.21987296621955,80.95169013216037 97.92181358905509,80.97332478771204 98.97748806908203,80.86515132008208 100.44769441300014,80.94808435438972 100.97276810725452,80.84712236265841 101.28781232380425,80.87596868821129 103.07029933852027,80.71731347996865 104.44101803509693,80.73894834122439 105.00478136997845,80.71731347996865 105.51880088119651,80.62356219511094 107.27365243830718,80.59832140365143 108.11377034912584,80.6524087822745 108.81294742620958,80.57308058634771 110.73084818311327,80.540628068984 110.90771511170897,80.47932875293736 112.03524178148655,80.50456966624006 113.03011825479916,80.39999999999964 113.88129034865415,80.41442342861592 114.22397002279467,80.51899303366554 114.82365945255151,80.88318026431443 116.62272774179291,82.42640902036328 118.59313586814096,84.20749221436381 119.46088923653588,84.86725353171096 119.88923882921517,85.30708460217284 120.67408582485223,85.97402658455576 120.87306111952057,86.22998331202143 121.03611031929904,86.5976911435464 121.11072605481604,87.76566788575292 121.07756350569252,88.20905197748289 121.13007087512233,94.58857471201009 121.0665093226562,94.86246078287695 121.0665093226562,95.56157722973694 121.13559796665504,95.99761405435675 121.05545513961988,97.8678002987217 121.00571131595643,98.06958456166285 121.09690832601336,98.89111773972945 121.15217924118042,100.80431925619814 121.12730732935597,101.39518390873491 121.04992804810172,101.6509806815302 121.09690832601336,102.12293678277638 121.07756350569252,102.62010215130249 121.01676549899275,102.89029652085264 121.10243541753152,103.16409046477565 121.10519896328333,104.64468667331312 121.02229259051092,107.58039950121565 121.04992804810172,109.03551915470416 120.9863664956356,110.81108117934127 121.00847486170824,112.08955083567344 120.93662267197215,115.88135466550011 120.88411530254234,116.66268919597496 120.56078044872265,117.20636822736014 119.62393843634345,118.23248478817186 119.22598784700676,118.2792890885703 119.14308147423435,118.34049457836409 118.78382052552479,118.73292617449988 118.73407670186134,119.12535153695171 118.47706694625958,119.39896553256403 117.89948588257539,119.78057999221528 117.29979645281855,120.00378571761212 116.75537793825788,120.06138686778831 114.75180726280087,120.03978645221105 113.87299971135508,120.10098758063396 111.39133561956987,120.3349904972074 110.35224241409742,120.5077912283814 109.6834643403563,120.67699077326688 109.21366156129807,120.7129905269394 105.64592398612876,120.70939055393683 104.96609172935132,120.75979012829885 104.11215608974453,120.72019047138201 103.24163917558326,120.76339009396179 102.0256790415151,120.68059075100246 100.38689640630037,120.70219060634736 99.65179323434131,120.64459095011807 97.1922375086142,120.69499065666241 96.34935605205828,120.81738951597072 95.94587837120343,120.9289879474727 93.31774635417969,121.81815744248706 90.164540642887,122.98446891560707 90.01807271764847,122.9952678386926 89.84673288058548,122.92327492894765 89.54550639282388,122.59210484251525 89.6809201350261,122.7828881516507 89.92687570757698,122.97007034415401 89.79422551114112,122.90167701512655 89.92411216182518,122.98086927353324 90.14795936831797,123.00246711814361 90.43536812729144,122.91967527795896 90.12861454802623,123.01326603335474 89.81357033146196,122.97366998779944 88.91265441394353,123.14645226644643 88.63906338378729,123.40562341922123 88.33507335027389,123.54600665870203 87.13845803652657,123.60000000000036 84.93867561216757,123.57480312207736 83.92169077278231,123.31563374367033 83.22527724143583,122.91247597439542 82.73612964205677,122.46611505722103 82.44319379157969,122.11334024079952 81.42344540642807,120.53659123275065 81.41515476914356,120.45739113996206 81.26868684390502,120.33139046912765 80.89560816640733,119.78418010055611 80.54463785498228,119.17935453926657 80.24341136723524,118.2576871147885 80.23788427570253,118.0416663380729 80.64965259384189,117.46200125189898 80.18261336052092,117.17396385222855 80.66347032264457,117.42239630859876 80.86244561729836,117.22437063961661 80.89008107488917,116.97233567406329 80.83757370545936,116.81391237951175 80.48383984828251,116.6158818324966 80.25722909602337,116.40704789941083 80.0471996183187,116.00377737685449 79.66306675778469,111.53855653642495 79.80953468303778,111.04877350474453 79.84546077789855,110.74625560260029 79.56634265622415,110.15201321881068 79.51936237831251,109.95032770471335 79.5387071986188,109.36687104838529 79.53594365285244,109.90350761762238 80.35118965184665,109.84228121592605 80.39816992974374,109.77024996073487 80.36224383486842,109.69461691664037 80.40922411278007,109.79546092395503 80.30973646545317,109.83867965816171 80.35395319761301,109.81346873907023 80.25446555025701,109.78465622858675 79.54699783590331,109.84948432987949 79.4917269207217,109.57216292547673 79.46132791734999,106.92844926241742 79.50830819527619,106.70872734721888 79.75702731359343,106.64389099856271 79.78189922543243,106.53222799896685 79.67688448657282,105.95229268411276 79.48067273767083,105.62449713175556 79.4115840937011,104.62307276890351 79.4668550088827,103.58558309964246 79.50830819527619,103.21812838429832 79.73768249328714,103.14247526383042 79.75426376785617,103.0235913202996 79.91178587613103,102.77861654005937 79.920076513401,102.55525506247068 79.72386476448446,102.11933409863559 79.54699783590331,102.0508829999253 79.03574187043705,102.12293678277638 79.0136335043644,102.25623572650329 78.8616384876077,102.47959991016978 78.84782075881958,102.61289692762512 78.87269267065858,102.85427077581153 79.06890441956057,103.12806511934468 79.33973190395045,103.18930817526598 79.74597313057166,103.14968033290461 79.96982033706445,102.69575687293036 79.93942133370729,102.50842094791733 79.76531795087794,102.25983839066976 79.74044603903894,102.13734751410811 79.54423429015151,102.0364722181148 79.50001755799167,101.93919922078749 79.42540182248922,97.0354227708358 79.4392195512919,96.88047493610793 79.56081556469144,96.75435388713959 79.57739683924592,96.617421732597 79.46961855464906,96.36517630062917 79.40605700218293,94.9741765966046 79.44474664281006,93.83176844366608 79.39223927338026,92.48747911029568 79.45303728009458,90.00053091242626 79.42816536825558,89.19311989547168 79.25129843967443,86.88608560602552 79.18497334144195,85.00425093594822 78.88374685368035,82.99968668208203 79.01639705013076,82.80859560938734 79.72939185600262,82.53097009101475 81.51464241647045,81.66201806672143 82.54268143892114,81.25457358198946 85.27030110328633,81.07428626254296 86.24583275629266,81.09952656664063 87.19649249747454,81.03462287531511 87.605497269833,80.92284389522865 88.0614823201031,81.03462287531511 89.13926516621723,81.00938250476975 90.40220557818247,81.03101710968076 90.16177709712065,81.05625745808175" stroke="red" stroke-linecap="round" stroke-linejoin="round" stroke-width="0.5"><title>2022-05-01 52.6km</title></polyline><polyline fill="none" points="157.61488915936934,80.40000000000055 157.74004006744508,81.4123644318206 157.78122897389403,82.4246561808668 157.74479263357352,82.83038053028395 157.78122897389403,83.05186797902115 158.11549279165047,83.08084738785419 158.2089599255196,83.44722477810592 158.5590656303757,83.50311201787099 158.50837159166986,83.50311201787099 158.59708615941054,84.3227660912271 158.16143426422786,84.41176606546651 157.39310274001036,84.63115895221836 157.22359454806428,84.72636612427141 157.0081448835408,84.9084997931659 156.76734819966077,85.24171553174074 156.90517261740752,85.47558274638322 157.0081448835408,85.74462872800814 157.76221870938025,86.98838230303681 158.44183566585707,88.215472627503 158.76659435134934,88.67068979007217 159.0454115642642,89.12589226690397 159.24501934168802,89.56245902886349 159.4699741384684,89.84177191000617 160.3301886078625,91.2941097835137 160.36028819334751,91.48650230802923 160.25731592721422,91.74095290930745 160.29058389011334,91.9395453133111 160.38088264656835,92.03470318335167 160.5123703094796,92.05952687003264 160.84346574981464,92.2891439022178 161.05257865949534,92.50427719169966 161.69417508693732,93.58816812198893 161.8731884111403,94.0163234788024 162.10923252889188,94.347255920321 162.11715347244171,94.4072365949296 162.05378592405032,94.57683574419207 162.07754875469982,94.66783932584895 162.18527358696156,94.77538825701959 162.41181257245626,94.8870728184229 162.64468831278646,95.22418937721068 163.2878689289355,96.4133399592647 163.53500236765103,96.77937137271874 163.73936271121056,97.17020800129922 164.32709672251804,98.14415063266642 164.40472196930205,98.31990807248803 164.45700019672222,98.58250628979295 164.44274249833688,98.70036374484243 164.37779076123843,98.83889668902702 164.4300689886586,98.96502251625407 164.55838827414846,99.04772736533869 164.61383487899002,99.25448736943326 165.02730813222297,101.06557564378272 165.05265515157953,101.58859788366226 165.05265515157953,101.47076452329566 165.15087485159165,101.4500919025977 166.8887298661648,101.44595737482723 166.99962307584792,101.45422642915582 167.10101115327416,101.51417692829273 167.16279451295122,102.79374933744657 167.17705221133656,104.21168615453917 167.22616206133534,104.78832821697415 167.21665692908573,105.16034286819558 167.3180450065047,107.18145136311978 167.52557372747833,107.2248462292473 168.61074299364554,107.23104548496576 169.26976549690153,107.18145136311978 169.87967815015145,107.20624844578924 170.62741522114084,107.15665423695282 171.47020361472096,107.16078709433441 172.18942528893967,107.09672766913081 172.90389439703722,107.07606327649682 173.18112742123776,107.16491995050546 173.32687278253434,107.37156121867702 173.35538817931229,107.53273931099102 173.35697236801934,108.02866037714102 173.26350523414294,108.37786102366044 173.2555842905931,108.51629912916633 173.282515498664,108.75804600333868 173.3617249341478,109.03284725917183 173.32370440511295,109.49359226735123 173.40925059543952,109.95845430211466 173.4314292373747,110.38611387712263 173.39340870833985,110.91912074940137 173.43301342608902,111.73511948203395 173.38390357608296,112.21849905679574 173.46628138898814,112.35896523700376 173.48846003093058,112.33004584335504 173.6516314680266,112.29906071310961 173.46628138898814,112.35689956799342 173.5454908244792,114.20968345648907 173.52648055995815,114.65580252214113 173.59618486318504,115.31669379850973 173.57242203254282,115.53973763641079 173.61519512769883,115.80201616956583 173.684899430933,115.9775542041416 173.7878716970663,116.74783065745032 173.7387618470675,117.02454171947556 173.4852916535092,117.06584141390431 173.52331218254403,117.08855619445512 173.7387618470675,117.08649121591316 173.79737682932318,117.19593466348488 173.93361705836287,117.32189682899207 174.75581099872215,117.56349325467363 174.80492084872094,117.59446685709827 174.83185205678456,117.66467343828117 174.8508623213056,118.0301550141321 174.8270994906561,117.9991823652881 174.78591058419988,118.04254405469146 174.81917854710628,118.00124721065549 174.84927813259128,118.01363627652063 174.85878326484817,118.61036344030344 175.05047009872942,120.4912314901776 175.11383764711354,121.00321376370539 175.2326518003465,121.57297871756782 175.21205734712566,121.77528104693465 175.02829145679425,122.25212509999346 174.89363541646162,122.88789218910915 174.81442598097783,122.96426488625548 174.62907590193936,122.99522667314432 174.36451638740255,122.93330303165749 174.25520736644103,123.01380371278174 173.7783665648094,122.94568778162193 172.3636860470142,122.83216050146711 172.16249408087606,122.77849274306936 171.81397256473429,122.7950059211671 171.51614508730563,122.753722939814 171.28802191310388,122.78055689138728 171.14386074051436,122.76404369643569 168.9893640952796,122.8362887821495 168.19251717427687,122.89614871676804 168.12598124847136,122.9209182708637 167.9643940000824,122.9044052396157 167.78854905329354,122.93949540799167 166.57506050164375,122.99522667314432 166.20119196613814,123.04889361003461 165.67048874838656,123.07159879133542 165.26018387256045,123.14177821242447 164.42531642253016,123.22846995823511 164.01501154670405,123.24085445002584 163.11677654828236,123.35644251769827 162.44983310148382,123.36469877213676 161.94447690308152,123.46170940121465 161.16980862402124,123.53395092728078 160.8292080514293,123.52363073183824 160.56781691432116,123.5566553307799 160.4521711385023,123.60000000000036 160.38088264656835,123.58761582233274 160.3428621175408,123.47202964178996 160.27157362559228,122.72276062480432 160.1733539255947,120.68529146659785 160.16860135946627,120.17123316544075 160.2367214739861,119.8120006207082 160.22721634172194,119.57663642373245 160.26682105946384,119.45275895854411 160.22880053043627,119.3412683128754 160.19394837882282,118.79619029135392 160.1733539255947,117.84018836743144 160.19870094495127,117.80715042943575 160.38088264656835,117.76998265699785 160.60742163206305,117.75759337782074 160.9939636772324,117.68738725762705 161.31555398531054,117.54903888367517 161.20307658692036,117.43753323969668 161.1682244353142,117.36526059374319 161.13654066111485,117.00389182705658 161.3139697966035,116.99356686954343 161.34723775950988,116.96465694844301 161.26327575789037,116.53513116280101 161.26327575789037,116.3038426467574 161.30763304176799,116.13656913195518 161.23634454983403,116.02505235677381 161.21258171918453,115.55832446418844 161.27753345628298,115.42615093612767 161.2442654933766,115.15560439537512 161.25535481434054,114.60829977236244 161.2680283240261,114.47818272788663 161.29179115466832,114.46579056599239 161.2442654933766,114.05064686946207 161.23317617241264,112.74110881422075 161.1808979449852,112.19990784017136 161.1476299820788,110.92118662842495 161.16980862402124,110.65468574245551 161.12703552885796,110.30140938461409 161.13970903853624,109.95845430211466 161.10960945305123,109.57003729635653 161.1254513401509,109.22086609374855" stroke="red" stroke-linecap="round" stroke-linejoin="round" stroke-width="0.5"><title>2021-10-30 46.5km</title></polyline><polyline fill="none" points="29.825850845940295,128.40000000000146 29.8590595463902,128.68932453657908 29.81109142351488,128.69896859999608 29.855369690783846,128.7375447970262 29.842455196165247,128.7640658799137 29.003013045847183,128.785764915865 28.980873912209063,128.8243409089755 28.96795941759774,129.0099866082819 29.06574059114064,129.86826931134055 29.049136240915686,129.82246322163883 29.036221746304363,129.8851452069157 29.04360145750252,131.16284122307843 29.431036296125967,131.1869477396158 29.510368191644375,131.4280109588417 29.538042108688387,131.6521965772954 29.87012911320926,131.66183890084176 30.001118987216614,132.68148266585922 29.272372505067324,132.88395758278602 29.198575392954808,132.93216552846934 28.60819849602558,133.03099137479512 28.327769469979103,133.24310337878887 28.014131743489997,133.5950104345775 27.914505642140284,133.66490888383305 27.901591147521685,133.7107042582811 27.951404198196542,133.68660144552814 27.86838244707178,133.72516592894317 28.05103029955353,134.02162737194885 28.113757844846987,134.22167556633758 29.036221746304363,135.77136398722178 29.32218555574218,136.1858748352588 29.36646382301842,136.31841970213281 29.449485574143182,136.41722518000643 29.816626206920773,137.10884688906117 30.4199175984686,138.03176710156367 30.799972725872067,138.76669259978553 31.028743773429596,139.03896812902167 31.22984090395039,139.38593217813104 31.20770177031227,139.41002663175823 31.482596012938302,139.77866736766555 31.71136706049583,140.23403568482536 31.840512006703648,140.39064092066292 31.860806212534953,140.48460334593983 32.036074353804,140.78576134555806 32.084042476679315,140.96645349676328 32.06743812645436,141.08691382738107 31.95489753048605,141.2796485201543 31.94013810805336,141.46997181160805 32.07481783766707,141.6482473262804 32.13385552736145,141.60970143288432 32.310968596437306,141.68438401925414 32.68364401262079,141.88433895108756 32.77220054715872,142.0072016184531 32.89396578215383,142.25774225144414 33.10613247949368,142.5588677672058 33.659610820359376,143.49352623747654 33.8127398279903,143.91988629316074 34.11161813206854,144.31973934923553 34.093168854036776,144.52929700699497 34.0212166697238,144.66418328187683 34.05073551456735,144.7388519939268 34.18910509978741,144.8520587492967 34.40311672491953,144.9195007011731 34.495363115071086,145.03752345131034 35.3514096156141,146.4513219705059 35.36985889364587,146.57896730211178 35.594940085597045,146.87278863989377 35.79603721610329,147.20754589757962 36.00451405784406,147.62417670772993 36.46943586417183,148.36108166169834 36.57644167673425,148.46463101931113 36.80336779649224,149.06424122649696 36.821817074524006,149.33875426790837 36.73879532339197,149.6108547790518 36.78307359066093,149.65419780771117 36.781228662861395,149.72162006972758 36.91775332027464,149.79626582319543 37.021069277237984,150.1815288424059 37.43986788849725,152.06196445688147 37.48230122795212,152.6349610094312 39.51910152236087,152.57958826403956 39.80506533180596,152.59403334602393 39.88624215512391,152.6494060428049 40.13161755292094,159.16763718369293 40.06520015200658,159.22058122509952 37.310722942282155,159.25908587553386 36.52478369825985,159.2422401020467 35.85138505019859,159.2759316317879 35.497158912039595,159.3866318868877 34.62081820567255,159.81979964319908 33.5286209463593,160.1903896774038 33.39394121673831,160.28183268846988 32.953003471848206,160.43824718795076 32.84599765927851,160.49359350107807 32.74452663012198,160.65241232321023 32.68733386823442,161.09757812930002 32.58955269467697,161.21789114603962 32.46778745968186,161.2539848796314 32.61169182831509,161.19864112243522 32.69840343505348,161.0277961767879 32.738991846708814,161.12404706841153 32.750061413527874,161.74003945206096 32.8386179480658,162.7241357195271 32.79618460860365,163.1788693853032 32.842307803672156,163.76832026483135 32.87551650412934,163.82846712755054 32.8386179480658,163.96800700313543 32.86444693731028,164.054617365764 32.89027592655475,165.56060252589668 32.947468688442314,166.46268424381378 32.91241506017832,166.5685252606363 32.969607822080434,166.70563647591007 32.97145274987997,167.4705517877337 32.93639912162325,167.6052501774593 32.98436724449857,168.1656798686745 32.94931361624185,168.70925440411338 32.86075708170392,168.90407100050288 32.94008897722233,169.0050861065938 32.92532955481147,169.3995201144844 32.969607822080434,169.55103798539312 32.88843099874066,169.68331435262917 32.96776289426634,169.95748380518125 32.964073038667266,170.98197138921205 32.88289621533477,171.20561865980198 32.71316285747889,171.3499056107721 32.40137005878205,171.42685813477146 32.28698453499965,171.39078668387992 32.28513960720011,171.477358033364 32.27591496818059,171.40281050961858 32.16890915561817,171.3931914497316 31.80361345064739,171.4533104819002 31.768559822383395,171.41723908892163 31.74642068875255,171.22726178298217 31.761180111177964,171.4220486125414 31.82575258427096,171.4436914514954 32.194738144855364,171.37876284938284 32.27591496818059,171.4220486125414 32.2648454013688,171.53988150294754 32.30912366863049,171.60000000000036 32.70762807405845,171.53266726856236 33.050784645405656,171.37395331311745 33.4216151337896,171.29459576221052 34.163276110550214,171.2537144504895 34.18357031638152,171.22245220250807" stroke="#ff8e00" stroke-linecap="round" stroke-linejoin="round" stroke-width="0.5"><title>2021-09-11 29.2km</title></polyline><polyline fill="none" points="85.03379752358887,128.39999999999782 85.14258868648903,129.28535359612943 85.36017101226025,129.34997724872665 92.5700580800185,129.4598372403998 94.55302427627612,129.324127799071 95.34917778652743,129.1754931689029 96.37774878111668,129.1754931689029 96.7980782740633,129.27889122563283 96.97610017698025,129.15610600622676 96.9859902827011,131.43727019845392 97.16401218561805,132.2773292069287 97.2579681899224,133.7053927260713 97.3420340885059,133.67308410892656 97.39642966998508,133.80878014152404 97.5299460971437,135.6244820440188 97.77225368720246,136.53553556344923 97.80192400436499,137.18812259340848 97.76236358151073,137.71147747867144 97.4953307271353,138.45450150503166 97.28269345423905,139.56578360093044 97.12445176273468,139.86298219795208 97.02060565270949,140.68349834363107 97.09972649847623,141.38124807409986 97.46566041000187,142.88654084996233 97.81181411008583,145.16699366721514 99.23598933333415,149.37873766566918 100.17060432361905,152.4468558410299 100.52664812942385,154.0551103009493 100.45247233656119,154.4297153572952 100.6206041337282,154.6557685913249 100.76895571951172,155.14016447193717 101.73818607977591,159.6092725007402 101.89642777125118,161.44328388924623 102.1832408370392,162.51524110679748 102.25247157705599,164.83342083816387 102.31675726422691,165.27250520966118 102.40576821568538,165.34353315271073 102.33159242282272,165.76969840658785 102.41071326853125,166.4024816341298 102.30192210563109,166.60910276074355 102.45027369138552,168.08770692288817 102.4700539028272,169.45650148547065 107.11345853700186,168.86250151996137 107.5832385585818,168.92706712145082 107.94917247010744,169.1465894589419 108.25082069449127,169.52106621666098 108.54257881315425,170.13442644506722 109.00246872898424,170.5992832470438 110.48103953368263,170.57345799781615 110.86675365664996,170.78651585149782 111.46510505254264,170.83816608513735 112.33048930278164,170.53472009556208 112.99312638584524,170.5992832470438 113.38873061450431,170.68321520258178 113.52224704169203,170.83170980924478 113.51235693597118,171.0189414261804 113.29971966307494,171.2578219894749 113.40356577310013,171.59999999999854 114.41730160909356,171.3159278766325 114.68433446343988,170.9479226306321 114.92664205352776,170.34103007353042 114.96620247638202,168.1329036485513 101.71346081545926,158.42099901003894 100.32390096221934,152.05285683695547 98.0541217001446,144.85691070374378 97.40137472280185,141.39416926114427 97.33214398278506,140.35400157140975 98.01456127726124,137.6145603767509 98.088737070153,136.91028969394392 97.8167591629608,135.7020192478376 97.53489115001867,133.44046136553516 97.40631977567682,132.96875036173878 97.21346271419316,133.14321940429363 97.3420340885059,132.12870454976655 97.1887374499056,131.27571855093265 97.26785829564324,130.22238727163858 96.9167595426843,130.2934717708231 95.21566135933972,131.5794351577606 94.8299472364015,131.09478000173476 94.73104617919307,129.3887513947484 92.92115683297743,129.54384763722192 90.6513775709027,129.5373853046949 90.30027881794376,129.61493323234026 90.32005902938545,130.14484041431933 90.39423482224811,130.1125291834469 90.3101689236355,129.63432019291577 90.36950955796055,129.57615928560335 92.36236585993902,129.5567722994092 92.485992181435,129.91866130002018 92.56511302717263,131.06893157681043 94.04368383187102,131.1464768059741 94.32555184481316,131.1141663104172 94.39972763767582,131.0236967967212" stroke="#4dd2ff" stroke-linecap="round" stroke-linejoin="round" stroke-width="0.5"><title>2021-08-29 19.2km</title></polyline><polyline fill="none" points="145.9815028901503,154.94019042075524 145.5597687861009,152.44516486116845 145.76508670521434,152.30735454262322 145.72624277457362,151.8794147858789 144.7052023121505,146.5117197377367 144.59976878613816,145.6122110396318 144.66080924854032,145.47438164579944 158.8665895953891,144.56759972337022 160.57017341040773,144.5893626846082 162.4124855491391,144.320952158836 163.20046242774697,144.11782970972854 166.80184971098788,143.71883675119534 172.8559537572146,142.64516695570637 178.71028901732643,142.11557798286958 181.02427745665773,141.75284253088103 183.58797687859624,141.54245474725758 186.3126011560671,141.17971508330447 187.01734104045318,141.22324398374622 187.128323699435,143.02965949906866 187.07283236991498,144.40075003517268 187.35583815028076,146.09823793621035 187.41132947977167,148.55731559535707 187.5611560693651,149.81219592847992 187.59999999997672,151.2411248668177 187.48346820805455,152.11151816510755 186.340346820798,152.35087363214188 184.99745664739748,152.43065852995642 181.74011560689542,152.8585935088522 177.47283236990916,153.17772904481535 173.5273988439294,153.83775281323324 173.08346820808947,153.8232468911483 172.81710982657387,153.64192250579435 172.58404624275863,152.8295810851123 171.97919075144455,152.43791169608085 167.1236994219944,152.880352815464 166.06381502890144,153.11245148935996 164.22705202313955,153.17047598734644 161.22497109824326,153.51862154335686 159.42150289018173,153.52587454966488 159.05526011562324,153.62016353477884 157.24069364159368,153.6854404189944 156.45826589595526,153.6274165261675 155.58705202312558,153.7724761303689 152.4018497109646,153.7724761303689 151.16439306357643,153.9320412027846 149.86034682081663,153.88852350689922 149.36647398842615,154.01182354558478 147.65734104043804,154.07709991200682 145.92046242774813,154.2801813889928 146.13132947974373,155.4116200421413 146.25341040463536,155.6364541225521 146.28115606933716,156.2746872246098 146.19791907514445,156.47050709076575 146.58635838149348,157.95000987022286 146.58080924855312,158.3996538925894 146.45317919072113,158.53744720887698 145.73179190751398,158.74051034260992 145.02150289018755,158.8202849166919 144.62751445086906,158.74051034260992 144.39999999999418,158.8202849166919" stroke="#4dd2ff" stroke-linecap="round" stroke-linejoin="round" stroke-width="0.5"><title>2021-08-28 17.3km</title></polyline><polyline fill="none" points="53.73011542495806,192.8920568204121 46.15991605457384,193.02533628037054 42.907450157392304,192.8920568204121 41.78551941236947,192.66992399584706 33.36537250789115,192.59587961224315 31.65414480585605,192.99571863785968 26.3618048268836,192.99571863785968 24.129275970626622,192.8772479806721 22.667366211942863,192.44779068209755 22.055403987469617,191.94428669309855 22.202728226664476,191.2926895646815 22.678698845789768,191.32230770726164 22.962014690448996,191.81100580471684 22.928016789082903,193.7953919342035 20.468835257110186,194.21003485126857 19.06358866742812,194.12118294113316 17.726337880420033,194.28407804995368 16.287093389313668,194.87642168295133 14.881846799631603,195.83897266774875 13.816579223552253,196.99402172567352 12.649317943374626,200.02966452711553 12.615320042008534,201.52524031801295 12.909968520514667,202.9319497871329 16.445750262355432,211.60869246382936 16.94438614905812,211.90481385806197 18.950262329541147,211.63830464233615 19.324239244509954,211.84558964868484 18.81427072401857,211.6531107283081 16.831059811171144,212.03806820185855 16.332423924468458,211.6531107283081 12.77397691499209,202.90233505305514 12.400000000023283,200.59235901059583 12.59265477443114,198.99311384125758 13.07995802728692,197.77885520574637 14.201888772309758,196.23879883835616 15.595802728261333,195.09854964849364 17.261699895141646,194.25446077699598 18.37229800631758,194.00271360579063 22.724029380944557,193.82500934194832 22.9733473242959,193.32151222754328 22.882686253928114,191.85543278710975 22.746694648521952,191.41116208292806 22.304721930704545,191.1001714257145 21.95341028337134,191.4555892414137 22.04407135368092,191.88505076444562 23.494648478517774,192.5514529560678 24.865897166891955,192.77358604153414 31.72214060864644,192.86243913877843 33.07072402938502,192.47740848549438 41.15089192026062,192.4922173839368 43.05477439664537,192.78839489650272 53.86610703042243,192.78839489650272 54.444071353645995,193.02533628037054 55.520671563455835,192.98090981329733 55.600000000034925,187.88654515345115 55.260020986374,184.61357628696715 55.418677859415766,184.11003318805888 55.21469045121921,183.96193179814145 53.968100734520704,184.18408380141045" stroke="#4dd2ff" stroke-linecap="round" stroke-linejoin="round" stroke-width="0.5"><title>2021-08-24 10.5km</title></polyline><polyline fill="none" points="82.11328517200309,209.2920196452469 81.97575609158957,208.8564995839588 81.954597771517,208.06840542054124 81.09768580872333,202.8901603279046 80.83320680787438,200.22130953674787 80.52641116688028,198.96980146876376 80.3624341863324,196.95072381495993 80.1244030855596,196.27998364331143 80.16671972573386,195.96881227580525 79.84934492470347,193.6591649152324 78.63803110076697,187.01310991826904 78.39999999999418,185.12493343901224 78.39999999999418,186.23848258257203 78.67505816087942,187.79464064258354 78.64861026080325,188.05745336714244 79.64305130401044,193.06444694053062 79.71181584423175,193.9772667927282 80.03448022529483,195.7475336069292 80.21961552588618,196.26615384846446 80.34656544629252,196.33530278213948 95.8556140565779,195.51933888978238 100.47870699153282,194.88315383488953 107.36045059387106,193.7490634899259 110.70875474472996,193.36180686755688 111.42813762705191,193.36180686755688 111.54450838742196,193.07136230902324 111.734933268046,193.07827767648268 111.52863964735297,193.02987008286436 111.47574384720065,193.22350015852498 112.0470184890437,193.29265356383985 118.8758662911714,192.42131322865316 120.7007713970961,192.2691727851925 120.57382147668977,192.28300375493927 120.54208399658091,192.42131322865316 120.46274029632332,194.16397776267695 120.56853189665708,194.87623873270059 120.52621525651193,195.55391391806188 120.73779845720856,196.2868985392306 120.84359005754231,197.50390439116018 121.03401493816637,201.2584456994664 120.99698787805391,203.71291023276353 121.2350189788267,204.92972406265108 120.7060609770997,205.13713237281627 119.85443859433872,205.25466334288285 121.4677604995668,205.15787315357375 121.59999999997672,206.2087274155674 121.59471042000223,207.1835120381984 121.5418146198208,207.2802980621418 121.0869107383478,207.32869099947857 121.57355209992966,207.32177772577052 121.52065629977733,209.33349753617586 121.37254805926932,209.40262727315712 119.14563487205305,209.34732349168553 118.14590424881317,209.2228897458408 116.51142402351252,208.81502127272324 116.08296804211568,208.8081082173012 110.90975878536119,209.86579389225517 105.33983102728962,210.87506656098776 105.22346026694868,210.81285174833465 105.17585404679994,210.5501660772934 104.93782294596895,207.47386951298176 104.7526876454067,207.2802980621418 104.55697318477905,207.23881836195142 102.3935349577514,207.41856346540226 102.21368923716363,207.34943081454912 99.80164074935601,207.62596080880758 99.55303048854694,207.52917549559425 99.272682747629,207.68126661269343 98.56387902534334,207.80570443390388 97.48480470184586,207.93014192611008 97.1568507408083,207.90248917850113 97.02461124034016,207.77805161317156 96.543259458791,207.95779465749365 95.36368311496335,208.12371070459994 93.98310273050447,208.0753185845897 92.87758050690172,208.1928422182864 92.38564956531627,208.10297123068813 91.96777274398482,208.2274079370727 89.65093669647467,208.372583678738 88.77286641363753,208.31727868709277 88.11695849147509,208.41406237983392 87.90008571077487,208.34493119102626 84.72104812046746,208.62145533705916 83.9276111179206,208.55923754583273 83.01251377494191,208.73897760721957 82.00749357166933,208.8081082173012 82.17147055221722,209.95566151433377 82.00749357166933,210.12157051972463" stroke="#ffb300" stroke-linecap="round" stroke-linejoin="round" stroke-width="0.5"><title>2021-08-07 23.0km</title></polyline><polyline fill="none" points="144.39999999999418,190.63797242255896 144.45639686682262,191.82375283481815 146.761618798977,191.7686007528573 147.34673629241297,191.6399123737101 150.08198433418875,191.64910440950916 150.17362924281042,192.63264448455448 150.23002610963886,195.84053287279312 149.9409921671031,199.2596493920064 147.4031331592414,199.1585491486403 147.38903394254157,199.05744874291122 146.76866840728326,199.14016726879345 146.10600522189634,199.01149395936955 144.90757180156652,199.04825778887243 144.78772845954518,199.23207661445122 144.70313315925887,199.59052178052298 144.80887728460948,199.60890352888964 144.8229765012802,199.83867493065918 144.62558746736613,201.28162016344504 144.68903394252993,201.71357822749633 144.80887728460948,201.79629326335635 144.94986945169512,205.26103659338332 145.09791122711613,205.57349744096064 147.26919060052023,205.72972728329114 148.0516971278994,205.6286374295778 152.2180156657705,205.77567716312842 155.17885117494734,205.6378274229719 157.70966057441547,205.2886067305626 161.2908616188215,205.31617685564197 165.23864229762694,205.06804529520014 165.30208877281984,203.08295760547844 165.04125326368376,198.63466346882706 165.06240208877716,196.08870080616907 165.04830287207733,195.9967868708627 164.8791122715338,196.08870080616907 165.0553524803836,196.06112663965177 164.688772845926,191.2906140182131 164.48433420361835,191.14354044649372 163.2718015665596,191.13434833687643 157.20208877284313,191.4652634382728 156.8002610965923,191.9248648595276 156.7368146213994,192.6877958094119 156.92010443861363,198.69900054152822 157.38537859005737,205.3529370036522 158.69660574413138,205.2242763917311 162.22140992165077,205.2702266404558 168.09373368145316,204.94857419509208 170.95587467361474,204.97614446909574 172.50678851173143,204.56258909151802 174.4031331592414,204.5809693882038 175.12219321145676,204.23174283358094 175.14334203652106,203.87332409219744 175.47467362921452,203.57923539580224 175.46762402085005,202.9359115830157 175.63681462142267,202.6234376448665 175.59451697126497,200.2430705608822 175.42532637072145,199.8294840906965 175.55926892947173,199.26884031518057 175.41122715402162,198.49679809158988 175.55221932113636,198.1567288701881 175.49582245430793,196.93430271404213 175.64386422972893,196.69532941331272 175.40417754565715,196.38282449732287 175.3477806788287,195.35338556565694 175.45352480417932,194.10332994297278 175.3266318537644,193.19334736867677 175.368929503893,190.45412849787317 175.38302872062195,192.2741596951637 175.5240208876785,192.41203870194659 175.49582245430793,196.08870080616907 175.70026109661558,199.1125944388914 175.6720626631577,202.32015263348148 175.94699738899362,204.682060924064 180.099216710194,204.70044118587612 181.48093994776718,204.53501863642668 182.60182767620427,204.55339894117424 182.86971279370482,204.44311703228232 183.5817232375557,204.54420878949168 186.23237597907428,204.48906785112194 187.3673629242694,204.45230719874962 187.59999999997672,204.28688399731254 187.4519582244975,199.17693102315025 187.29686684068292,198.31297711895968 187.37441253260477,196.5206945044265 187.26866840725415,193.7816204352348 187.0007832897827,190.67474114305878 186.73994778064662,190.44493628754208 186.33107049606042,190.34382188532254 184.4417754568858,190.38059077763683 182.91201044386253,190.22432283687522 181.65718015661696,190.37139855657733 181.92506527411751,198.05562685549012 187.33211488247616,198.11077342909994" stroke="#ffc000" stroke-linecap="round" stroke-linejoin="round" stroke-width="0.5"><title>2020-12-19 20.9km</title></polyline><polyline fill="none" points="14.2232121922425,252.7313101939726 15.178228102449793,251.89959318182082 16.755451348173665,251.7578221654694 18.253089934645686,251.03951088764006 18.520783788291737,250.66144910339062 18.39055434599868,249.57450911487103 21.378596549970098,248.6198771288182 22.688125942018814,247.95824269978039 23.527382347965613,247.23043697889807 23.3609780605766,246.40810114022315 23.910835705901263,246.64440561702213 25.09737062465865,246.4742664811056 28.78720482328208,245.33054173678102 28.664210349990753,244.52708659097698 27.10145704235765,244.49872916742606 26.30561045050854,243.03357863226847 24.482398258231115,238.6284737102178 24.33769887787639,237.77766765900014 24.366638753941515,236.09492925983795 24.540278010361362,235.67896467576065 25.227600066980813,234.83757355345733 26.059621503954986,234.062349530941 26.862703064776724,233.60855552907014 28.237347178015625,233.17366660988773 30.487422542239074,233.0980334545893 30.885345838207286,232.97512938775617 31.04451515659457,232.6725953008645 30.972165466373553,231.9540711481095 30.798526210011914,231.49080790403968 30.552537263400154,231.39626397534448 30.56700720146182,231.7555301658649 31.05898509459803,232.1053400570454 31.702897337119794,232.30387996078207 32.65791324732709,232.37951404880732 36.26092781778425,232.41733105951425 37.96838050574297,232.17152009299025 42.85921956121456,232.21879150554741 44.64625690836692,232.37005979267997 54.087891475472134,232.52132772443292 55.59999999997672,232.4362395565404 54.55816446154495,232.65368687324371 50.94067995308433,232.52132772443292 51.548417350510135,232.52132772443292 51.750996482995106,232.37951404880732 51.70035169989569,232.23770006089762 50.66575113043655,232.21879150554741 50.05077876400901,231.81225622327474 50.0724836710433,232.02970564701536 51.447127784311306,232.40787680890207 48.278211354860105,232.49296501430217 43.893820130615495,232.40787680890207 43.040093786636135,232.26606288343464 37.65004186902661,232.2471543364736 36.383922291046474,232.50241925238515 31.992296097800136,232.45514804797858 30.89258080723812,232.07697716369148 30.559772232430987,231.73662146899733 30.624886953592068,231.50026228927163 30.92152068327414,231.68934970246482 31.080690001661424,232.19988294467475 31.022810249531176,232.70095793188375 30.733411488850834,233.04130852981325 29.25024284038227,233.46674424766388 26.623949087254005,233.87326908544492 26.110266287025297,234.13798155371478 25.213130128919147,235.10228205801104 24.71391726678121,235.97203091234405 24.366638753941515,237.13482896605274 24.45345838216599,238.38268644989876 26.87717300283839,244.413656821911 27.253391391685,244.6499686153693 28.483336124569178,244.50818164331577 28.75826494724606,244.72558820617996 28.90296432757168,245.12258960146573 25.111840562691214,246.3891967446325 23.925305643933825,246.61604912559415 23.25968849437777,246.32303131635854 23.3609780605766,247.05084728942165 21.83439959801035,248.11892597161204 21.34242170487414,248.32686843428382 21.39306648800266,248.5159064542604 21.17601741751423,248.67658833511086 18.52801875732257,249.46108823329996 18.35437950087362,249.63121948078333 18.04327583318809,249.5839608459719 17.131669737020275,249.95257727790886 12.580874225386651,250.97335023555206 12.39999999999418,251.10567147179245 13.514185228588758,258.23171376346727 14.006163121724967,258.23171376346727 16.29241333110258,257.74973840687016 16.719276503077708,258.7136855148492 16.73374644111027,259.41301066507003 17.00867526375805,260.35803259348904 16.900150728528388,260.6037360246628 16.574577122722985,260.6037360246628" stroke="#4dd2ff" stroke-linecap="round" stroke-linejoin="round" stroke-width="0.5"><title>2020-08-08 17.2km</title></polyline></svg>