<?xml version="1.0" encoding="utf-8" ?>
<svg baseProfile="full" height="300mm" version="1.1" viewBox="0,0,200,300" width="200mm" xmlns="http://www.w3.org/2000/svg" xmlns:ev="http://www.w3.org/2001/xml-events" xmlns:xlink="http://www.w3.org/1999/xlink"><defs /><rect fill="#222222" height="300" width="200" x="0" y="0" /><text fill="#FFFFFF" style="font-size:12px; font-family:Arial; font-weight:bold;" x="10" y="20">Over 10km Runs</text><text fill="#FFFFFF" style="font-size:4px; font-family:Arial" x="10" y="280">ATHLETE</text><text fill="#FFFFFF" style="font-size:9px; font-family:Arial" x="10" y="290">xiang578</text><text fill="#FFFFFF" style="font-size:4px; font-family:Arial" x="120" y="280">STATISTICS</text><text fill="#FFFFFF" style="font-size:3px; font-family:Arial" x="120" y="285">Number: 2</text><text fill="#FFFFFF" style="font-size:3px; font-family:Arial" x="120" y="290">Weekly: 1.0</text><text fill="#FFFFFF" style="font-size:3px; font-family:Arial" x="141" y="285">Total: 38.1 km</text><text fill="#FFFFFF" style="font-size:3px; font-family:Arial" x="141" y="290">Avg: 19.0 km</text><text fill="#FFFFFF" style="font-size:3px; font-family:Arial" x="167" y="285">Min: 17.2 km</text><text fill="#FFFFFF" style="font-size:3px; font-family:Arial" x="167" y="290">Max: 20.9 km</text><polyline fill="none" points="46.0,71.5949310563883 46.14099216705654,74.55938208702719 51.90404699742794,74.4215018821269 53.36684073106153,74.09978093426616 60.20496083551552,74.12276102375472 60.43407310708426,76.581611211368 60.5750652741408,84.60133218197734 59.85248041775776,93.14912348000507 53.50783289811807,92.89637287158985 53.47258485638304,92.6436218572635 51.92167101823725,92.85041817197634 50.26501305476995,92.52873489841295 47.2689295039163,92.62064447216108 46.96932114881929,93.08019153610803 46.757832898176275,93.97630445129471 47.022193211480044,94.02225882220955 47.057441253215075,94.59668732664431 46.563968668400776,98.2040504086035 46.72258485632483,99.28394556872081 47.022193211480044,99.49073315838177 47.374673629237805,108.15259148344921 47.74477806780487,108.9337436023925 53.17297650128603,109.3243182082224 55.129242819792125,109.07159357392811 65.54503916448448,109.43919290781196 72.94712793733925,109.0945685574261 79.27415143605322,108.22151682639378 88.22715404705377,108.29044213908492 98.09660574409645,107.67011323798215 98.25522193207871,102.7073940136761 97.60313315922394,91.58665867205127 97.6560052219429,85.22175201540813 97.62075718020787,84.99196717714949 97.19778067880543,85.22175201540813 97.63838120095897,85.15281659911852 96.72193211485865,73.22653504551272 96.21083550906042,72.85885111622338 93.17950391641352,72.83587084217288 78.00522193207871,73.6631585956784 77.00065274146618,74.81216214880988 76.84203655348392,76.71948952351522 77.30026109656319,91.747501353806 78.46344647515798,108.38234250912501 81.74151436035754,108.06069097931322 90.55352480412694,108.17556660111586 105.23433420358924,107.37143548771564 112.38968668400776,107.44036117273208 116.26697127934312,106.40647272877686 121.00783289811807,106.45242347050225 122.8054830286419,105.57935708393052 122.85835509130266,104.68331023048086 123.6866840730072,103.94808848948742 123.66906005213968,102.33977895752469 124.09203655354213,101.55859411215351 123.98629242816241,95.60767640220001 123.56331592681818,94.57371022673033 123.89817232370842,93.17210078793869 123.52806788508315,91.24199522896379 123.88054830284091,90.39182217545749 123.73955613578437,87.33575678509078 124.10966057435144,86.73832353326725 123.51044386415742,85.95706124328717 123.36945169710089,83.38346391412779 123.63381201040465,80.25832485742285 123.31657963438192,77.98336842167191 123.42232375976164,71.1353212446702 123.45757180155488,75.68539923790377 123.81005221925443,76.03009675485373 123.73955613578437,85.22175201540813 124.25065274152439,92.78148609721393 124.18015665793791,100.80038158368552 124.86749347252771,106.70515231013997 135.24804177548504,106.75110296467028 138.70234986941796,106.33754659106489 141.50456919055432,106.38349735291558 142.1742819842766,106.10779258068942 143.95430809393292,106.36052197372192 150.5809399476857,106.22266962779395 153.4184073106735,106.1307679968595 154.0,105.71720999326499 153.6298955612583,92.94232755785924 153.2421671017073,90.78244279738283 153.43603133154102,86.30173626105534 153.17167101817904,79.45405108807608 152.50195822445676,71.68685285763058 151.849869451602,71.11234071884246 150.82767624018015,70.85955471328634 146.10443864227273,70.95147694408661 142.28002610965632,70.56080709217349 139.1429503915715,70.92849639142514 139.8126631852938,90.13906713870529 153.3302872062195,90.27693357273529" stroke="#ff0000" stroke-linecap="round" stroke-linejoin="round" stroke-width="0.5"><title>2020-12-19 20.9km</title></polyline><polyline fill="none" points="50.55803048063535,226.8282754849206 52.945570256211795,224.7489829545375 56.88862837047782,224.39455541365896 60.63272483670153,222.5987772190856 61.301959470729344,221.65362275845837 60.97638586501125,218.93627278716303 68.44649137498345,216.54969282202364 71.72031485510524,214.89560674942913 73.81845587003045,213.07609244722698 73.4024451514706,211.02025285054697 74.77708926482592,211.6110140425444 77.74342656170484,211.1856662027567 86.96801205829252,208.32635434194526 86.66052587504964,206.31771647742426 82.75364260596689,206.24682291856152 80.76402612635866,202.5839465806639 76.20599564560689,191.57118427552632 75.84424719482195,189.44416914747853 75.91659688495565,185.23732314957306 76.3506950258743,184.19741168938344 78.06900016753934,182.09393388363242 80.14905375987291,180.1558738273452 82.15675766207278,179.02138882265717 85.59336794505361,177.93416652470478 91.218556355685,177.74508363645873 92.21336459554732,177.43782346938679 92.61128789151553,176.68148825214303 92.43041366606485,174.8851778702665 91.99631552502979,173.7270197600883 91.38134315854404,173.49065993835393 91.41751800372731,174.3888254146441 92.64746273658238,175.26335014260258 94.25724334281404,175.75969990194426 96.64478311839048,175.94878512200376 105.65231954446062,176.04332764876017 109.92095126444474,175.42880023246107 122.1480489030946,175.54697876385762 126.61564227100462,175.92514948168537 150.21972868882585,176.30331931107503 154.0,176.0905988913437 151.39541115390602,176.6342171830911 142.35169988276903,176.30331931107503 143.87104337627534,176.30331931107503 144.37749120756052,175.94878512200376 144.25087924976833,175.59425015222223 141.66437782614958,175.54697876385762 140.12694691005163,174.53064055816503 140.18120917771012,175.07426411751658 143.61781946080737,176.019692022237 135.69552838720847,176.23241253574088 124.73455032659695,176.019692022237 122.60023446660489,175.66515720856842 109.12510467262473,175.61788584115857 105.9598057277035,176.25604813094833 94.98074024450034,176.13787011994282 92.23145201813895,175.1924429092178 91.39943058113568,174.34155367247877 91.56221738399472,173.75065572316817 92.30380170827266,174.22337425615115 92.70172500424087,175.4997073616687 92.55702562385704,176.75239482968755 91.83352872217074,177.60327132450766 88.12560710101388,178.66686061915243 81.55987271817867,179.68317271360138 80.2756657176651,180.3449538842833 78.03282532235608,182.75570514501305 76.78479316702578,184.93007728084922 75.91659688495565,187.8370724151173 76.13364595547318,190.95671612473961 82.19293250713963,206.03414205476292 83.13347847934347,206.6249215384014 86.20834031153936,206.2704541082785 86.89566236815881,206.81397051543172 87.25741081906017,207.80647400364978 77.77960140677169,210.97299186156306 74.81326410989277,211.54012281396717 73.14922123600263,210.80757829088543 73.4024451514706,212.62711822353594 69.58599899511319,215.2973149290192 68.35605426225811,215.8171710856841 68.4826662200503,216.28976613562554 67.94004354381468,216.69147083775897 61.32004689332098,218.652720583239 60.88594875228591,219.07804870195105 60.10818958305754,218.9599021149188 57.82917434256524,219.88144319475396 46.452185563510284,222.43337558888015 46.0,222.76417867945565 48.785463071544655,240.57928440865362 50.01540780439973,240.57928440865362 55.73103332775645,239.37434601715358 56.79819125775248,241.78421378710482 56.83436610281933,243.53252666266053 57.52168815943878,245.89508148371533 57.25037682137918,246.50934006164607 56.43644280685112,246.50934006164607" stroke="#4dd2ff" stroke-linecap="round" stroke-linejoin="round" stroke-width="0.5"><title>2020-08-08 17.2km</title></polyline></svg>