<?xml version="1.0" encoding="utf-8" ?>
<svg baseProfile="full" height="300mm" version="1.1" viewBox="0,0,200,300" width="200mm" xmlns="http://www.w3.org/2000/svg" xmlns:ev="http://www.w3.org/2001/xml-events" xmlns:xlink="http://www.w3.org/1999/xlink"><defs /><rect fill="#222222" height="300" width="200" x="0" y="0" /><text fill="#FFFFFF" style="font-size:12px; font-family:Arial; font-weight:bold;" x="10" y="20">Over 10km Runs</text><text fill="#FFFFFF" style="font-size:4px; font-family:Arial" x="10" y="280">ATHLETE</text><text fill="#FFFFFF" style="font-size:9px; font-family:Arial" x="10" y="290">xiang578</text><text fill="#FFFFFF" style="font-size:4px; font-family:Arial" x="120" y="280">STATISTICS</text><text fill="#FFFFFF" style="font-size:3px; font-family:Arial" x="120" y="285">Number: 3</text><text fill="#FFFFFF" style="font-size:3px; font-family:Arial" x="120" y="290">Weekly: 1.0</text><text fill="#FFFFFF" style="font-size:3px; font-family:Arial" x="141" y="285">Total: 58.2 km</text><text fill="#FFFFFF" style="font-size:3px; font-family:Arial" x="141" y="290">Avg: 19.4 km</text><text fill="#FFFFFF" style="font-size:3px; font-family:Arial" x="167" y="285">Min: 17.2 km</text><text fill="#FFFFFF" style="font-size:3px; font-family:Arial" x="167" y="290">Max: 20.9 km</text><polyline fill="none" points="20.914106447424274,98.26213858948176 20.797273907461204,98.36896086238994 19.92102985724341,98.62838592574553 19.278450887068175,98.76572834449325 19.04478580702562,98.76572834449325 18.79943747294601,98.84202960988478 17.99329294677591,98.96411151820212 17.7479446126963,99.0709330704558 17.397446992632467,99.10145349382219 17.198831674584653,98.96411151820212 16.953483340563253,97.88062957679358 16.88338381651556,97.43807736958843 16.90675032453146,97.23969128642057 16.75486802251544,96.6750519024863 16.60298572044121,94.82850711681385 16.497836434456985,94.03494061225501 16.123972306377254,92.50883416867873 15.972090004361235,91.63894347992027 15.83189095632406,90.5401237929982 15.738424924318679,89.54812383051467 15.680008654249832,89.21236785461952 15.55149286024971,88.90713420901011 15.469710082223173,88.29666423130402 15.341194288164843,87.64040501012641 15.165945478191134,87.12149943954137 15.21267849416472,86.83152166989748 15.002379922138061,85.70212686295417 15.014063176116906,85.16794937261147 14.827131112106144,84.25221015086572 14.616832540021278,83.62645038003393 14.65188230201602,83.44330046675168 14.5,82.86332361421955 14.605149286042433,82.74122281219752 15.387927304196637,82.4970207782826 15.621592384239193,82.3596568822395 15.866940718318801,82.34439421594288 16.521202942472883,82.19176742972195 17.2572479446535,82.11545395260327 17.525962786690798,82.1307166525221 17.853093898738734,82.02387770618952 18.203591518860776,81.97808955277287 19.44201644306304,81.44389294027496 20.072912159201223,81.24547635704221 21.603418433573097,80.83337916714663 21.965599307615776,80.7723275927492 22.397879705764353,80.63496141938958 22.51471224578563,80.63496141938958 23.122241453966126,80.42128034472262 23.56620510603534,80.36022852853785 23.776503678062,80.37549148596736 25.44720900041284,79.7649714426152 26.054738208593335,79.56655165704433 27.223063608806115,79.26128970946593 27.877325832960196,79.20023721246253 29.022284725273494,78.78813192045345 29.454565123305656,78.51339415212715 30.003678061417304,78.28444545756065 31.487451319757383,77.29232862505887 31.651016875868663,77.23127497249516 32.211813067959156,76.84968883186957 32.28191259194864,76.74284446171805 32.25854608393274,76.60547296733421 32.10666378191672,76.30020233034156 32.10666378191672,76.02545799108339 31.814582431863528,75.36912135435705 31.837948939821217,75.21648433371593 31.9781479879166,75.09437455590523 32.059930765943136,75.1249020138057 32.16508005192736,75.35385766235413 32.43379489396466,75.62860377549077 32.644093466049526,75.73544929015043 33.134790134150535,75.73544929015043 33.8591518822941,75.5217581510733 34.72371267847484,75.3843850441408 35.541540458623786,75.06384708906262 35.8102553007775,74.91120962046261 36.40610125486273,74.74330814624409 36.67481609695824,74.71278057640302 36.87343141500605,74.60593401130609 37.29402855911758,74.5448787819405 37.457594115054235,74.46855969489116 37.586109909112565,74.30065750621725 38.03007356123999,74.25486595319671 39.689095629553776,73.76642146649829 40.460190393729135,73.59851814453577 40.82237126783002,73.47640646737273 40.93920380790951,73.38482261545869 40.97425356990425,73.29323868286883 40.85742102988297,72.74373339406156 40.71722198178759,72.45371554351732 40.401774123776704,72.17896104446845 40.086326265649404,72.10264022145566 38.26373864128254,72.42318730168336 37.97165729122935,72.37739492214314 37.74967546516564,72.17896104446845 36.815015144937206,69.93510546976904 35.90372133278288,67.84384955195128 34.6886629164801,64.7755804621047 34.38489831238985,64.16496884922526 33.999350930331275,63.18798281200725 33.76568585028872,62.37890930288995 33.590437040198594,61.40190648766293 33.590437040198594,60.302767349770875 33.75400259625167,59.27994688419858 33.95261791429948,58.57770611355227 34.1278667243314,58.16551910494309 34.490047598432284,57.463270809130336 35.35460839467123,56.333557078571175 36.37105149286799,55.44809719720797 37.27066205104347,54.83743081732973 38.45067070535151,54.318361574958544 39.01146689750021,54.165693657625525 39.256815231463406,54.043559162455495 39.98117697966518,53.87562399728631 40.623755949840415,53.829823450643744 42.24772825615946,53.799289741662506 43.60298572049942,53.951958196899795 44.11704889655812,53.89089084171428 44.31566421460593,53.67715481609048 44.5025962786749,53.05121107123705 44.40913024661131,52.883274303530925 44.455863262643106,52.59320106597443 44.39744699263247,52.3489282383307 44.46754651668016,52.196257429692196 44.46754651668016,51.906182275750325 44.268931198632345,51.158089986442064 44.05863262654748,50.92908106691175 43.84833405446261,50.898546506185085 43.57961921248352,50.97488289119792 43.39268714841455,51.219158946529205 43.39268714841455,51.616106312591 43.61466897447826,51.845113719165965 44.39744699263247,52.303127019324165 45.14517524879193,52.562666993937455 46.17330160102574,52.76113830212125 46.87429684121162,52.8069393194819 50.43768931197701,52.85274031663721 51.17373431409942,52.79167231595784 53.32345305063063,52.86800731123367 53.89593249675818,52.73060427940072 54.48009519686457,52.45579767102754 55.04089138901327,52.409996499089175 59.87775854609208,52.47106472388987 61.67697966250125,52.53213291288557 64.00194720894797,52.50159882286971 64.25897879706463,52.547399954506545 64.79640848113922,52.74587129187421 65.43898745131446,52.79167231595784 66.43206404149532,52.82220632080134 67.00454348768108,52.76113830212125 68.32475118990988,52.76113830212125 69.21267849416472,52.82220632080134 70.50951968843583,52.79167231595784 71.78299437469104,52.86800731123367 72.97468628297793,52.883274303530925 74.55192557332339,52.883274303530925 74.98420597141376,52.91380828148249 75.68520121159963,52.91380828148249 76.03569883166347,52.85274031663721 76.35114668973256,52.944342250448244 78.90977931628004,52.944342250448244 80.0196884465986,53.0970119607955 80.87256598874228,53.06647803665692 84.19061012548627,53.188613679456466 84.28407615749165,53.142812830235926 84.33080917352345,52.883274303530925 84.42427520552883,52.79167231595784 85.06685417564586,52.89854129361629 85.6159671137575,52.86800731123367 86.23517957591685,52.929075267100416 87.053007356124,52.883274303530925 88.23301601043204,53.005410161509644 88.88727823452791,52.883274303530925 89.75183903070865,52.929075267100416 89.98550411075121,52.89854129361629 90.13738641282544,52.929075267100416 90.58135006489465,52.91380828148249 90.95521419297438,52.99014318708214 91.74967546516564,52.99014318708214 92.19363911729306,53.05121107123705 93.22176546946866,53.005410161509644 93.87602769362275,53.03594410358346 94.89247079187771,52.97487621046457 95.31306793593103,53.005410161509644 95.42990047601052,52.97487621046457 95.5,52.89854129361629 95.4532669839682,52.394729437211936 95.48831674602116,52.51686586900905 95.37148420594167,52.65426918324374 95.07940285588847,52.562666993937455 94.50692340976093,52.51686586900905 91.9366075291764,52.50159882286971 90.87343141494785,52.3489282383307 90.45283427089453,52.409996499089175 90.23085244483082,52.36419530690182 89.68173950666096,52.36419530690182 89.4714409346343,52.31839409456734 89.55322371266084,52.44053061596787 89.42470791866072,52.44053061596787 89.24945910857059,52.37946237317374 87.73063608829398,52.33366116756952 87.31003894418245,52.42526355865266 86.91280830808682,52.37946237317374 85.80289917782648,52.409996499089175 84.8098225875874,52.36419530690182 84.52942449157126,52.31839409456734 84.41259195149178,52.37946237317374 84.21397663344396,52.73060427940072 84.0270445694332,52.73060427940072 83.95694504544372,52.86800731123367 83.82842925138539,52.944342250448244 82.1694071830716,52.929075267100416 80.15988749457756,52.97487621046457 78.5826482042321,52.8069393194819 76.58481176983332,52.82220632080134 72.25032453489257,52.70007024766528 68.78039809607435,52.715337264678965 67.46019039378734,52.65426918324374 65.13522284722421,52.65426918324374 64.55106014711782,52.562666993937455 64.11877974902745,52.409996499089175 61.88727823452791,52.36419530690182 60.193206404161174,52.37946237317374 57.06209433148615,52.303127019324165 54.690393768949434,52.303127019324165 54.50346170493867,52.33366116756952 53.72068368672626,52.669536206973135 53.31176979659358,52.74587129187421 52.91453916049795,52.70007024766528 52.89117265254026,52.51686586900905 52.926222414535005,52.47106472388987 53.393552574678324,52.48633177447482 53.4402855905937,52.51686586900905 53.37018606666243,52.608468098711455 52.9729554305668,52.59320106597443 53.054738208593335,52.53213291288557 53.46365209866781,52.45579767102754 53.55711813067319,52.51686586900905 53.55711813067319,52.715337264678965 54.141280830837786,52.715337264678965 54.49177845090162,52.547399954506545 54.725443530944176,52.47106472388987 52.85612289054552,52.62373512913473 52.70424058847129,52.70007024766528 52.400475984381046,52.715337264678965 51.16205106017878,52.65426918324374 50.017092167865485,52.70007024766528 46.769147555169184,52.669536206973135 46.091518822999205,52.63900215730246 44.946559930744115,52.409996499089175 44.268931198632345,52.150456143397605 43.80160103854723,51.906182275750325 43.54456945043057,51.73824365883047 43.43942016438814,51.52450320879143 43.48615318047814,51.249693413075875 43.66140199045185,51.0512192200913 43.953483340505045,51.00541742950736 44.16378191258991,51.158089986442064 44.362397230637725,51.81457942742418 44.362397230637725,52.28785994179634 44.233881436579395,52.63900215730246 44.25724794459529,53.06647803665692 43.988533102557994,53.52448595745227 43.404370402451605,53.70768856093491 42.5514928601915,53.67715481609048 41.266334919957444,53.753489161405014 40.84573777584592,53.722955430013826 40.027909995638765,53.799289741662506 39.595629597548395,53.921424523759924 38.85958459536778,53.98249186103203 38.4974037213251,54.165693657625525 37.691259195155,54.425228983702254 36.65144958894234,54.99009774845763 36.05560363474069,55.46336381077708 35.518173950666096,56.028226936628926 35.12094331451226,56.3182905927315 34.408264820463955,57.38693918690842 33.87083513633115,58.34871353269409 33.54370402422501,59.34101107491006 33.41518823016668,60.18064006182249 33.46192124619847,61.09659122567973 33.46192124619847,62.1651907213236 33.63717005623039,62.882672793282836 33.8357853742782,63.310106568576884 34.022717438288964,64.01231538585853 35.21440934657585,66.83636818995728 35.56490696669789,67.5232883589706 36.82669839891605,70.74412020251475 37.410861099138856,72.01105515997915 37.586109909112565,72.25528181146365 37.773041973181535,72.40792317737942 38.21700562530896,72.53003610889573 39.12829943746328,72.37739492214314 39.80592816963326,72.16369688437408 40.16810904373415,72.17896104446845 40.39009086973965,72.27054595814116 40.61207269580336,72.46897966110555 40.869104283861816,73.30850267723144 40.64712245785631,73.30850267723144 40.1330592816812,73.33903065924096 39.39701427950058,73.5679902386837 37.375811337085906,74.36171287891193 36.67481609695824,74.68225299757614 36.55798355693696,74.56014259266522 36.21916919085197,74.72804436245497 35.296192124602385,74.94173713205964 34.67697966250125,75.18595690268558 33.812418866262306,75.26227546342125 33.66053656430449,75.3385939681466 32.98290783207631,75.5217581510733 32.56231068802299,75.47596713560051 32.37537862395402,75.36912135435705 32.141713543911465,75.01805587200215 32.02488100383198,74.97226463478728 31.90804846386891,75.01805587200215 31.744482907874044,75.26227546342125 31.9781479879166,76.2086209645422 31.11358719173586,76.74284446171805 30.30744266550755,77.30759203263733 29.512981393374503,77.5975963505698 29.384465599316172,77.94865312744514 29.44288186932681,78.33023523680458 29.232583297241945,78.5286573804915 28.987234963278752,78.66602633524599 28.192773691029288,78.9102373623682 27.526828212838154,79.0170795064696 25.72760709648719,79.44444698549341 25.003245348285418,79.6886561852225 24.886412808322348,79.7649714426152 24.05690177413635,79.94812783181987 23.951752488093916,80.05496890994982 23.741453916067258,80.14654688959854 23.671354392019566,80.2991766764826 23.893336218083277,81.42863013962778 23.881652964104433,81.61178359982296 23.92838598007802,81.67283468157984 24.033535266062245,81.56599526498758 24.05690177413635,81.23021352722571 23.99848550412571,81.19968786100799 23.92838598007802,81.45915573873208 24.068585028173402,82.34439421594288 23.157291215960868,82.57333397545881 22.78342708782293,82.8175358302833 22.05906533973757,83.44330046675168 21.545002163562458,83.64171285824705 20.949156209419016,83.71802521574136 20.680441367381718,83.6569753342119 19.745781047153287,83.62645038003393 19.243401125015225,83.73328768054489 18.659238424967043,83.97748681255325 18.297057550866157,84.20642297819722 17.61942881869618,84.83217926058569 17.29229770664824,85.36635847492289 17.210514928563498,85.71738903668302 17.04694937262684,86.17525320676941 17.07031588058453,87.3046428776579 17.2572479446535,87.93038052528573 17.736261358717456,88.63242316231481 18.075075724802446,88.86134908490203 18.203591518860776,89.04448946034972 19.068152315041516,89.56338544001483 19.6990480311797,90.1891095029132 19.78083080914803,90.37224754117779 19.90934660320636,91.48633032845828 20.400043271365575,92.67670697320136 20.516875811328646,93.11927943221235 20.481826049333904,93.34819548267842 20.400043271365575,93.42450072091742 19.88598009519046,93.56185000871483 19.687364777142648,93.56185000871483 19.196668109099846,93.76024310434877 19.04478580702562,93.76024310434877 18.846170488977805,93.89759194895305 18.869536996993702,94.11124534684495" stroke="#ff3800" stroke-linecap="round" stroke-linejoin="round" stroke-width="0.5"><title>2022-06-18 20.1km</title></polyline><polyline fill="none" points="104.5,61.196198292294866 104.60574412532151,63.41953656527767 108.92803524812916,63.316126411598816 110.0251305483398,63.07483570070326 115.15372062666574,63.092070767823316 115.3255548303132,64.93620840853691 115.4312989556347,70.950999136483 114.88936031336198,77.36184261000744 110.1308746736031,77.17227965369966 110.10443864233093,76.98271639295126 108.94125326367794,77.13781362897862 107.69875979109202,76.89655117381335 105.45169712795177,76.96548335412808 105.22699086164357,77.3101436520883 105.06837467366131,77.98222833847831 105.26664490863914,78.0166941166608 105.29308093996951,78.44751549498324 104.92297650134424,81.15303780645627 105.04193864227273,81.96295917654788 105.26664490863914,82.11804986878997 105.53100522200111,88.61444361258327 105.80858355091186,89.20030770179437 109.87973237602273,89.49323865617043 111.34693211485865,89.30369518044608 119.15877937339246,89.5793946808626 124.71034595306264,89.32092641806958 129.4556135770399,88.66613761979534 136.17036553530488,88.71783160432096 143.57245430810144,88.25258492849389 143.69141644908814,84.53054551026435 143.20234986947617,76.18999400403845 143.24200391647173,71.4163140115561 143.21556788514135,71.24397538285848 142.89833550911862,71.4163140115561 143.22878590074833,71.36461244933889 142.54144908615854,62.419901284141815 142.15812663186807,62.14413833717117 139.88462793733925,62.1269031316333 128.50391644908814,62.7473689467588 127.75048955611419,63.60912161160377 127.6315274151275,65.03961714264005 127.9751958224806,76.31062601535814 128.84758485644124,88.78675688184012 131.3061357702827,88.54551823448855 137.91514360310975,88.63167495084781 148.9257506527356,88.02857661579037 154.29226501303492,88.08027087954542 157.200228459551,87.30485454658628 160.7558746736031,87.33931760287669 162.10411227151053,86.6845178129588 162.1437663185061,86.01248267286428 162.76501305482816,85.46106636712648 162.75179503916297,84.25483421814715 163.0690274151857,83.66894558411877 162.98971932119457,79.20575730165001 162.67248694517184,78.43028267005138 162.92362924281042,77.37907559095765 162.64605091384146,75.93149642172648 162.91041122714523,75.29386663159676 162.80466710188193,73.00181758882536 163.08224543079268,72.55374264995044 162.63283289811807,71.96779593246902 162.52708877285477,70.03759793560312 162.7253590078326,67.69374364307441 162.4874347258592,65.98752631626121 162.56674281985033,60.851490933506284 162.5931788511807,64.26404942842782 162.85753916448448,64.52257256614394 162.80466710188193,71.4163140115561 163.1879895561724,77.08611457291408 163.13511749345344,83.10028618777142 163.65062010439578,87.52886423261225 171.43603133165743,87.56332722351362 174.02676240209257,87.25315994329867 176.12842689291574,87.28762301469396 176.6307114881929,87.0808444355207 177.96573107043514,87.27039148029144 182.93570496077882,87.1670022208491 185.06380548304878,87.0980759976519 185.5,86.78790749495238 185.22242167097284,77.20674566840171 184.9316253263387,75.5868320980444 185.07702349865576,72.22630219579878 184.87875326367794,67.09053831605706 184.37646866840078,61.265139643226576 183.8874020887306,60.834255539135484 183.12075718014967,60.64466603497567 179.57832898170454,60.713607708064956 176.71001958230045,60.420605319137394 174.35721279372228,60.69637229357613 174.85949738899944,75.10430035403988 184.99771540466463,75.2077001795551" stroke="#ff0000" stroke-linecap="round" stroke-linejoin="round" stroke-width="0.5"><title>2020-12-19 20.9km</title></polyline><polyline fill="none" points="17.918522860505618,237.6212066136868 19.70917769218795,236.0617372159104 22.666471277887467,235.79591656024422 25.474543627526145,234.44908291431057 25.97646960307611,233.74021706884378 25.732289398787543,231.70220459037228 31.334868531266693,229.91226961652137 33.79023614135804,228.67170506207185 35.363841902522836,227.3070693354166 35.05183386366116,225.76518963791023 36.08281694864854,226.20826053190103 38.307569921249524,225.88924965206388 45.22600904369028,223.74476575646258 44.99539440625813,222.23828735806455 42.06523195444606,222.18511718891386 40.573019594768994,219.4379599354943 37.15449673420517,211.17838820664474 36.883185396087356,209.58312686061254 36.937447663687635,206.4279923621798 37.263021269463934,205.64805876703758 38.55175012565451,204.07045041272795 40.11179031996289,202.6169053705089 41.617568246496376,201.76604161698924 44.195025958819315,200.95062489352858 48.41391726676375,200.80881272734405 49.16002344666049,200.57836760203645 49.45846591866575,200.01111618910363 49.322810249519534,198.66388340269623 48.99723664380144,197.79526482006622 48.536007368937135,197.6179949537618 48.56313850276638,198.29161906098307 49.48559705243679,198.94751260694466 50.69293250713963,199.3197749264582 52.48358733882196,199.46158884149918 59.239239658403676,199.53249573657376 62.440713448333554,199.07160017434944 71.61103667732095,199.16023407289322 74.96173170319526,199.44386211126402 92.66479651659029,199.72748948330263 95.5,199.5679491685005 93.54655836545862,199.97566288731468 86.76377491210587,199.72748948330263 87.90328253223561,199.72748948330263 88.2831184056704,199.46158884149918 88.18815943732625,199.1956876141703 86.24828336958308,199.16023407289322 85.09521018253872,198.39798041862377 85.13590688328259,198.80569808813743 87.71336459560553,199.51476901667775 81.77164629043546,199.67430940180202 73.55091274500592,199.51476901667775 71.95017585001187,199.24886790641904 61.84382850443944,199.21341438087256 59.46985429577762,199.69203609821125 51.23555518343346,199.6034025899571 49.17358901363332,198.89433218191698 48.54957293585176,198.25616525436635 48.671663038025144,197.81299179237976 49.22785128117539,198.16753069210972 49.526293753122445,199.12478052125516 49.41776921792189,200.0642961222693 48.875146541628055,200.70245349338074 46.09420532576041,201.50014546435705 41.169904538663104,202.2623795351974 40.20674928824883,202.75871541321249 38.524618991767056,204.5667788587598 37.58859487524023,206.1975579606369 36.937447663687635,208.37780431133433 37.10023446660489,210.71753709355835 41.64469938038383,222.02560654106492 42.350108859478496,222.46869115380105 44.656255233625416,222.20284058120887 45.17174677614821,222.61047788657743 45.44305811426602,223.35485550273734 38.334701055136975,225.72974389616866 36.10994808241958,226.15509211047174 34.86191592703108,225.60568371816044 35.05183386366116,226.97033866764832 32.189499246305786,228.9729861967644 31.267040696693584,229.36287831426307 31.361999665095937,229.71732460171916 30.955032657890115,230.01860312832287 25.99003517004894,231.48954043743288 25.664461564214434,231.80853652646329 25.081142187293153,231.71992658618547 23.37188075692393,232.41108239606547 14.839139172632713,234.32503169165284 14.5,234.57313400959538 16.589097303629387,247.9344633064975 17.511555853299797,247.9344633064975 21.798274995875545,247.03075951286155 22.59864344331436,248.83816034033225 22.625774577143602,250.1493949969954 23.14126611960819,251.92131111278286 22.93778261600528,252.3820050462382 22.327332105196547,252.3820050462382" stroke="#4dd2ff" stroke-linecap="round" stroke-linejoin="round" stroke-width="0.5"><title>2020-08-08 17.2km</title></polyline></svg>