<?xml version="1.0" encoding="utf-8" ?>
<svg baseProfile="full" height="300mm" version="1.1" viewBox="0,0,200,300" width="200mm" xmlns="http://www.w3.org/2000/svg" xmlns:ev="http://www.w3.org/2001/xml-events" xmlns:xlink="http://www.w3.org/1999/xlink"><defs /><rect fill="#222222" height="300" width="200" x="0" y="0" /><text fill="#FFFFFF" style="font-size:12px; font-family:Arial; font-weight:bold;" x="10" y="20">Over 10km Runs</text><text fill="#FFFFFF" style="font-size:4px; font-family:Arial" x="10" y="280">ATHLETE</text><text fill="#FFFFFF" style="font-size:9px; font-family:Arial" x="10" y="290">xiang578</text><text fill="#FFFFFF" style="font-size:4px; font-family:Arial" x="120" y="280">STATISTICS</text><text fill="#FFFFFF" style="font-size:3px; font-family:Arial" x="120" y="285">Number: 12</text><text fill="#FFFFFF" style="font-size:3px; font-family:Arial" x="120" y="290">Weekly: 1.2</text><text fill="#FFFFFF" style="font-size:3px; font-family:Arial" x="141" y="285">Total: 311.5 km</text><text fill="#FFFFFF" style="font-size:3px; font-family:Arial" x="141" y="290">Avg: 26.0 km</text><text fill="#FFFFFF" style="font-size:3px; font-family:Arial" x="167" y="285">Min: 10.5 km</text><text fill="#FFFFFF" style="font-size:3px; font-family:Arial" x="167" y="290">Max: 52.6 km</text><polyline fill="none" points="67.0,71.82043209885887 66.94389286538353,70.44402942907618 66.75063495727954,70.28928379936042 65.99630570306908,70.35443990658678 64.77441699375049,69.72730920010872 64.0886631263129,68.60334293182677 64.23828215195681,68.49746087845779 64.45647656428628,68.5544743168939 64.45647656428628,68.3834338258348 63.7270838143595,67.99248215269836 63.010159316589125,67.81329504886526 62.81066728240694,67.54451330844677 62.28076656660414,67.52822346413814 62.430385592218954,67.06396089220289 62.26206418842776,66.84404568688478 62.299468944838736,66.64041971981715 61.85684599398519,66.58340431517718 62.28076656660414,66.61598455358398 62.424151466198964,67.03952591242705 62.23712768414407,67.53636838689636 62.879242669121595,67.52822346413814 62.991456938383635,67.82143992978672 63.20341722466401,67.88659893399381 62.436619718326256,67.96804758170765 62.04386977604008,68.13094451853976 60.909258831699844,67.88659893399381 60.354421611642465,68.20424798415479 59.762179635232314,68.2286824511757 59.40683444929891,68.09022032916982 59.263449549733195,68.2286824511757 58.85199722927064,66.84404568688478 58.45924728701357,66.54267899025945 58.097667975060176,65.91550521314275 57.3745093512116,65.45122915067986 57.137612560618436,65.52453615558989 57.075271299952874,65.40235776026384 56.78850150082144,65.35348632682508 56.09027938119834,65.49195527646953 55.20503347957856,65.16614543331889 54.70006926805945,65.45122915067986 54.41329946895712,65.45937437821703 54.40706534287892,65.66300467847395 54.350958208262455,65.50824571842531 54.400831216800725,65.66300467847395 54.28861694759689,65.57340743838722 53.87716462710523,65.71187583934443 53.771184483979596,66.00510190094064 53.30985915492056,65.8910697277388 52.77372431309777,66.07840817426404 52.206418840942206,65.77703732025111 51.95081967214355,65.77703732025111 51.73262525975588,65.95623099824661 51.33987531749881,65.71187583934443 51.07804202262196,65.30461485036722 50.62918494574842,65.16614543331889 50.28630801200052,64.90549618167643 49.88732394366525,64.95436800961397 48.83375663816696,64.55524682209216 48.40983606557711,64.71815377592065 48.19787577926763,64.5308107378005 47.87993534980342,64.7425897777648 46.95728469177266,64.91364148932917 46.614407758024754,64.7914617491515 46.27776495035505,64.96251331007079 45.922419764479855,64.66928173999258 45.43615793122444,65.04396624902438 44.91872546757804,65.18243597090986 43.32902332022786,64.18870442759362 42.98614638647996,63.32528388619539 42.624567074584775,63.064625988663465 42.5809281920956,62.73065626820244 42.468713922891766,62.72251064014199 42.53105518355733,62.63290865275485 42.12583698914386,62.193042252587475 41.50242438237183,61.94867052378322 41.42761486954987,61.802046969965886 40.93511891018716,60.49056350907995 41.0348649272637,60.16472430193244 40.922650658059865,59.8388831815173 41.01616254905821,59.341971789166564 40.89148002769798,59.30124114983846 40.97875779267633,59.17904905253454 40.84784114523791,59.016125837551954 41.05356730546919,58.6739855290507 40.972523666598136,57.98155225926166 40.36157931195339,57.40316019894453 40.3428769337188,56.808469118361245 40.10598014315474,56.303384017061035 39.73816670515225,56.0915727675565 39.41399214960984,55.537601061521855 38.34795659198426,54.81254150115274 37.980143154010875,54.25855702484478 37.55622258139192,54.04673796919087 36.93904410066898,53.97341579995191 36.639806049410254,53.62309743182777 36.01015931656002,53.25648281748727 36.2158854767913,53.16686554329135 36.10367120758747,52.76765956330928 35.68598476104671,52.58842329103936 35.45532209650264,52.71062990311839 35.28700069268234,52.50695206674936 34.81320711149601,52.31142064038431 34.33941353036789,51.82258905955314 34.13368737013661,50.8286182291522 33.70353267143946,50.331626135845 33.55391364582465,49.94054726020113 33.628723158617504,49.90795722945768 33.36065573769156,49.687974021166156 33.04894943430554,48.555454069723055 33.086354190745624,48.188805965943175 32.93050103902351,48.302874524568324 32.71230662666494,48.05844161169807 32.250981297605904,46.771077163717564 31.914338489965303,46.689597395925375 31.577695682295598,46.347381064239016 31.18494574003853,46.28219676169101 30.979219579778146,46.11923567022677 30.83583468021243,46.168124047937454 30.7173862849304,45.85034882268883 29.638882475177525,45.964422189925244 29.20249365043128,46.22516043413634 28.69752943891217,46.811817002730095 27.432001847133506,46.94218428655222 26.86469637497794,47.21921374739759 26.534287693357328,47.129586720293446 26.590394827973796,47.31698852093541 26.40337104597711,47.47179822657199 26.25375202030409,47.43920674550827 26.154006003256654,46.893296591031685 25.268760101578664,46.893296591031685 24.364811821753392,46.518489493984816 24.152851535443915,46.599969513081305 24.096744400798343,47.02366368336152 23.454629415849922,47.602163959389145 23.136688986385707,48.21324924824148 22.60055414456292,48.604340300476906 22.469637497124495,49.23170977129848 22.157931193709373,49.5983509825237 20.48095128146815,50.65752309298114 19.98222119602724,50.77973395838853 19.520895866997307,51.162659593297576 18.984761025145417,51.3174585678571 18.53590394827188,52.01812220871216 18.53590394827188,52.37659785906726 18.629415839299327,52.474363543562504 18.548372200428275,52.629158858308074 18.136919879936613,52.91430699176635 17.80027707226691,53.39498195651686 17.588316785986535,53.40312895392344 17.232971600082237,53.68012615410771 16.752943892846815,53.70456701716466 16.372662202717038,53.989709623703675 15.886400369461626,53.97341579995191 15.755483721994096,53.84306503764674 15.20064650196582,53.69642006400318 14.652043407986639,53.67197919737737 14.321634726424236,53.997856533802405 13.885245901619783,53.93268121962683 13.0,55.09767841370194 13.143384899565717,55.08138491531281 13.386515816207975,55.39910727081224 14.215654583240394,55.79829431802864 14.452551373804454,56.00196007244813 14.63334102978115,56.59665979692363 15.20064650196582,57.17506026400224 15.543523435713723,57.3787209650327 15.66197183096665,57.329842464961985 15.724313091632212,57.56608814982246 15.836527360894252,57.492770631128224 16.31655506810057,57.8104791791593 16.840221657825168,58.38886699379873 17.818979450472398,58.893933112394734 18.4984991918609,58.99168731403552 18.55460632647737,59.1953413477022 18.978526899125427,59.40714074986681 19.20295543753309,59.66781582738258 19.37751096743159,59.651523670931056 19.27776495035505,59.83073712899568 19.508427614870016,59.952927791291586 19.545832371280994,59.86332133192627 20.013391826389125,59.82259107529171 19.75779265759047,59.887759471563186 19.62064188410295,60.23803829035387 19.77649503579596,60.20545430747006 19.770260909717763,60.40910388666089 20.10066959130927,60.922297511529905 20.717848072061315,61.63098566753979 20.86123297159793,61.59025670828851 21.20410990534583,61.99754495563684 21.06072500575101,62.07085652268506 21.116832140367478,62.51072389131514 21.366197183087934,62.33966477335707 21.752712999325013,62.616617366755236 22.16416531978757,62.307082024461124 22.75017317017773,62.45370424390785 22.962133456458105,62.372247503146355 23.273839759873226,62.57588913090876 23.672823828208493,62.42112156196163 23.866081736283377,62.76323876841343 24.028169014054583,62.75509314515875 24.08427614867105,62.9261509825883 24.1840221658058,62.84469493528741 24.1840221658058,62.98317014456188 24.495728469162714,62.771384390485764 24.508196721290005,63.07277156648706 24.838605402910616,63.03204366535647 24.838605402910616,63.235682872018515 25.36850611868431,63.28455617040527 25.5492957746319,63.423030282156105 25.76749018699047,63.30084726031055 25.773724313097773,63.8384505443064 25.642807665659348,64.00950504252978 26.490648810897255,64.35161245737618 26.565458323719213,64.70186310207282 26.752482105745003,64.65299105178201 27.176402678363957,64.90549618167643 27.338489956135163,65.14985489095125 27.388362964673433,65.89921489072731 28.01800969755277,66.20058508133297 27.9619025629072,66.77888545871247 28.416993765888037,66.90920583856496 28.71623181711766,67.38161465045778 29.158854767942103,67.44677417101047 29.65135072733392,67.05581590014845 30.89817594087799,67.57709298265763 31.18494574003853,67.45491910571582 31.521588547708234,67.53636838689636 32.2634495497623,67.92732327280828 32.612560609559296,68.34270982170347 33.14869545138208,68.44044738141747 33.60378665436292,68.88840899470597 34.245901639340445,69.05944792966329 34.69475871621398,69.63771852076025 35.33687370122061,69.4178135129223 36.234587854967685,69.8006105574459 36.54629415841191,69.66215235676282 36.870468713954324,69.67029696635655 37.244516278005904,69.12460548054514 37.45647656431538,69.01872442155582 37.83052412836696,69.35265630624053 38.248210574907716,69.23048633758299 38.84668667745427,70.0693813729049 39.33294851073879,69.65400774594309 39.682059570535785,69.93906841281569 39.61971830987022,70.11824865408198 39.70699607481947,70.1752604277317 40.12468252136023,70.07752592276302 40.77303163241595,70.54176328871108 41.62087277765386,70.43588493299467 42.0759639806347,70.75351939427128 43.00484876471455,71.00599677201171 43.6095589933102,71.51909242065449 43.96490417915629,71.66569030629034 44.120757330878405,71.60868006342935 44.102054952672916,71.4946594020621 44.4698683906754,71.51094808233393 44.54467790349736,71.41321592914028 44.69429692911217,71.48651506015085 44.8189794504724,71.33177233672541 44.93742784578353,71.37249414786857 44.875086585088866,71.53538109373767 45.317709535884205,71.42136028181994 45.46732856152812,71.4946594020621 45.567074578633765,71.33177233672541 45.46732856152812,71.06300763386389 45.53590394827188,71.13630722733069 45.62941583929933,70.91640815652863 45.65435234355391,71.03043000567777 46.08450704225106,71.01414118444154 46.14061417686753,71.14445162062111 46.43361810204806,71.16888479336558 46.26529669822776,71.30733923567459 46.371276841382496,71.53538109373767 47.27522512120777,71.79599921290719 47.30016162552056,71.8855864087709 47.555760794261005,71.71455618211621 48.546986839093734,71.46208202725029 48.74647887321771,71.25847300136593 49.401062110380735,71.16888479336558 50.03070884323097,71.45393768055874 50.211498499207664,71.4295046332918 50.76010159315774,71.8041435094201 50.97206187946722,72.0810488797033 51.857307781116106,72.38238550722599 52.362271992635215,72.78959456716257 52.748787808814086,72.77330626209005 53.341029785282444,73.29452965287783 53.471946432691766,73.22123290927266 53.98314477028907,73.34339409484892 53.93950588777079,73.245665167884 54.057954283081926,73.38411443031146 54.17640267839306,73.21308882068843 54.14523204806028,73.29452965287783 54.52551373816095,73.57142758862028 54.849688293703366,73.6691559420724 55.142692218883894,73.57957162465391 55.67882706070668,73.70173202163642 55.965596859838115,73.52256334739286 56.86954513969249,73.47369906313543 57.79842992380145,73.5388514325823 58.11013622721657,73.44112284975927 58.35326714385883,73.52256334739286 58.5714615562174,73.41669067714975 59.07019164165831,73.52256334739286 59.55021934886463,73.44112284975927 60.441699376591714,73.63657984336169 60.8095128145942,73.91347607291755 61.152389748313,73.92162005877617 61.50773493418819,73.74245209423316 62.73585776955588,74.14965117730753 63.602401292999275,73.84832414316043 64.21957977372222,73.9867719024951 64.74324636341771,73.75059610515746 65.15469868390937,73.84832414316043 65.24197644885862,73.55513951300964 65.84045255134697,73.49813121065745 65.94643269453081,73.09907145485704 66.85038097438519,72.9524773547164 66.98129762179451,72.69186466519386 66.95636111753993,72.23578951438685" stroke="#ffc500" stroke-linecap="round" stroke-linejoin="round" stroke-width="0.5"><title>2022-07-09 20.1km</title></polyline><polyline fill="none" points="118.9417724791565,86.9398942863154 118.83349510878907,86.9151448312441 118.58987102544052,87.0 118.3137637309992,86.98232186447785 118.22714183469361,86.69593426296888 117.97810388286598,86.20800681021137 117.92125826340634,86.17972085795373 117.20392068471119,86.35650751511275 116.94405499582354,86.37065039168738 116.15633712637646,86.04536213148276 116.26461449674389,83.83894329582654 116.26461449674389,82.48458298946571 116.36747799860314,82.25118684232075 116.33770172174263,81.9258429874626 116.52718711989291,81.96120666267234 116.68960317545861,81.85157910061935 116.93593419303943,81.80560610361317 116.91427871896303,81.37062648431856 117.13083345971245,81.28221503261557 117.43130316247698,81.23270447801042 117.73989366804017,81.25038683061393 118.02141483100422,80.97454065254897 118.05389804211154,80.7871049095611 117.98351775137417,80.61381396353681 117.75342833934701,80.4369851831525 117.75613527359383,80.15759306567634 117.39881995138421,79.91710105417224 117.2634732384031,79.68014334264626 116.55696339675342,79.28756648406306 116.43515135507914,79.05413937416415 115.95331705693388,79.16024288623885 115.85045355507464,78.56605720139669 115.92895464859612,78.30079100459625 116.7843458745192,78.0249110622517 116.45951376341691,77.21493759743316 115.65014041989343,77.2184746586463 115.18454772730183,75.84251865939223 115.13582291064085,73.68469163046575 115.28741122916108,73.61040234050415 115.69345136804623,73.54318802360103 115.87210902915103,73.2990923482339 116.0805429671309,73.22126422158362 116.00474880784168,73.04791885398117 116.12656084951595,72.79320503038616 116.01286961064034,72.21301348903944 115.95873092545662,71.5903533621622 115.89376450322743,71.54436078263643 115.69886523655441,71.56205024669362 115.59870866897108,71.49483021416017 115.61224334026338,71.2577896549792 115.47418969303544,71.03136067379273 115.59870866897108,70.71647933367422 115.5202075754496,70.50419745551517 115.52562144397234,70.32375638805206 115.71510684212262,70.05839942139937 115.67179589396983,69.90626010860797 115.71781377636944,69.63736036822957 115.76653859303042,69.46398920698266 115.86128129212011,69.41445436026152 115.65014041989343,66.89865780313085 115.62848494583159,66.8137318147219 115.27116962359287,66.78542308535907 114.99776926341292,66.93758211438035 114.8028699967399,66.78188449185109 114.64586780972604,66.77834589781742 114.57007365043683,66.66864922499371 114.37788131803973,65.14699867249146 114.49969335969945,65.09037726144743 114.50510722823674,65.02313916291678 114.24253460508771,65.03729456768451 114.15320577452076,64.45337721237047 114.45367547728529,64.36844259920508 114.53488350508269,64.30120248461935 114.31020796156372,63.96499909497106 114.18568898562808,63.67125965928608 114.17756818285852,63.47661107108797 114.35622584396333,62.729853706010545 114.34539810693241,62.44317766435415 114.25336234211863,62.17773384128304 114.00432439027645,61.85211875453206 114.00703132452327,61.62560131403188 113.88792621711036,61.40262112683922 113.82837366341846,61.02036457214308 113.89875395414128,60.779681405119845 113.82295979489572,60.33370329375066 113.51707622360846,59.962048555793444 112.41535398009,60.09301326106652 112.13924668563413,58.57094702975883 111.65199851896614,58.93908350059064 111.44085764675401,59.20810274555879 111.22159597174323,59.33199217616311 111.07000765323755,59.32845248698868 110.81014196433534,59.20810274555879 110.05761424025695,59.32137310710095 109.66781570692547,59.30013495491039 108.98837520786037,59.1302290627973 108.75016499304911,59.016957801764875 108.54985185785335,58.76917505984966 106.95005371063598,56.21332421082843 105.7183986226737,55.080450315630515 105.55327563286119,54.981321312377986 105.33672089212632,54.94591799796399 103.39314209397708,55.14417588780998 103.35795194859384,52.95262737548728 98.55043670415762,52.382579623190395 97.23757358842704,51.86917101990184 95.44829004305939,51.63193713702458 93.0553601578722,51.759406379784195 91.0603496088006,52.08515804314629 90.97102077823365,52.13826930923278 90.80048391991295,52.38612033414756 90.63265399583906,52.43214952909693 87.15153653844027,52.65521284188799 86.44773363102286,52.782676663584425 85.13216358101636,53.133198691622965 84.61784607176378,53.115495681331595 84.4797924245504,52.76851405007437 84.32279023750743,52.59856203772324 84.24158220973914,52.24449148968233 83.77869645139435,51.87271180640346 83.70831616065698,51.77356958729797 83.70831616065698,51.60715137250736 83.61086652732047,51.36637404551766 83.47010594584572,51.19995301413837 83.35100083843281,50.89543495508224 83.12361836066702,50.74317448014881 82.96390923936269,50.45635561936797 82.94496069954766,50.19786161772572 82.87458040881029,49.99602190457517 82.90977055417898,49.73752295664599 82.78254464399652,49.44360981942009 82.68509501066,49.39757490640841 82.55245523195481,49.15677546426923 82.47395413843333,49.16385783520673 82.3521420967736,48.962009446377124 82.50373041527928,48.88056137129024 82.50914428380202,48.81681920713709 82.39274611066503,48.657463057772475 82.34672822826542,48.37416063007731 82.17348443565425,47.93503527320718 82.08956947362458,47.835876825105515 82.15994976436195,47.72255238388425 81.97858516898123,47.495901899750606 81.72954721713904,46.97884748958859 81.68352933472488,46.58219547681438 81.56983809584926,46.47240671031068 81.5021647393587,46.274077345651676 81.5535964902956,46.14657903335865 81.4209567115904,45.75699666917171 81.44531911991362,45.70032961778088 81.11507314028859,44.75822032679389 81.10695233750448,44.19860410363253 81.0582275208435,44.1313076047245 81.09071073195082,43.73106664176703 81.12860781159543,43.61772285791267 81.2422990504856,43.507920557864054 81.28290306434792,43.30248264997499 81.31538627546979,42.92348052478701 81.28560999862384,42.721579757828295 81.37223189492943,42.12295173021266 81.33433481528482,41.956466730733155 81.43990525140543,41.44637785411942 81.52111327917373,40.59974812563087 81.37223189492943,39.714120273376466 81.5535964902956,38.93474077724932 82.314245017129,36.3200922746164 82.306124214374,35.70358900071369 82.03001691991813,34.00280833372017 81.8703077986138,33.46774619619646 81.88384246992064,33.209069500682745 82.34131435972813,33.18426473976069 83.51612382824533,33.25867894573821 81.93798115510435,33.170090579162206 81.87301473288971,33.205525964976914 81.86760086436698,33.428767694209455 81.81887604769145,33.474833189769925 81.64021838658664,33.205525964976914 81.59149356991111,33.0 83.96547491529782,33.12402449950059 83.96547491529782,33.34372347043427 84.00066506065195,33.27994010512157 84.35256651435338,33.28702715407235 85.30811430787435,33.336636438198184 85.45970262639457,33.38978912899802 85.55715225973108,35.19691067943859 86.25283436434984,38.8072035451587 86.90249858658353,41.16653283209598 87.06491464213468,41.52076648923685 87.27334858009999,42.243386968759296" stroke="#ff6b00" stroke-linecap="round" stroke-linejoin="round" stroke-width="0.5"><title>2022-07-02 34.9km</title></polyline><polyline fill="none" points="137.27607096495922,75.5080923929927 137.19818260494503,75.57930724159814 136.61401990480954,75.75225728382793 136.18563392470242,75.84381889632641 136.02985720467404,75.84381889632641 135.86629164862097,75.89468640658743 135.32886196454638,75.97607434546808 135.1652964084642,76.04728871364205 134.93163132842164,76.06763566254813 134.79922111638007,75.97607434546808 134.6356555603561,75.25375305119815 134.5889225443534,74.95871824639471 134.6045002163446,74.82646085761371 134.50324534834363,74.45003460165753 134.40199048028444,73.21900474454014 134.33189095629496,72.68996040817001 134.0826482042612,71.67255611245491 133.98139333623112,71.09262898661109 133.88792730422574,70.36008252867032 133.82561661620275,69.69874922034069 133.78667243616655,69.4749119030821 133.70099524015677,69.27142280600674 133.64647338812938,68.8644428208645 133.5607961920905,68.42693667342246 133.44396365212742,68.08099962636334 133.4751189961098,67.88768111326499 133.33491994810174,67.13475124196702 133.34270878406824,66.77863291507674 133.21808740805136,66.16814010057715 133.07788836001419,65.75096692002262 133.10125486803008,65.62886697783688 133.0,65.24221574281546 133.0700995240186,65.16081520813168 133.5919515361311,64.99801385219325 133.74772825615946,64.90643792149785 133.91129381218343,64.89626281063101 134.34746862831526,64.79451161981706 134.83816529641626,64.74363596840703 135.01730852446053,64.75381110168382 135.2353959325119,64.68258513745968 135.46906101255445,64.65205970184616 136.2946776287281,64.2959286268524 136.71527477281052,64.1636509046948 137.73561228904873,63.888919444761996 137.97706620508689,63.84821839516371 138.26525313715683,63.75664094625972 138.34314149720012,63.75664094625972 138.74816096929135,63.61418689648417 139.0441367373569,63.57348568568705 139.18433578536496,63.58366099064733 140.29813933363766,63.17664762841014 140.7031588057289,63.044367771362886 141.48204240587074,62.84085980631062 141.91821722197346,62.800158141646534 142.68152315018233,62.52542128030473 142.96971008219407,62.342262768084765 143.3357853742782,62.18963030503801 144.32496754650492,61.52821908337501 144.4340112505597,61.48751664833253 144.80787537863944,61.23312588791305 144.85460839461302,61.16189630781446 144.83903072262183,61.07031531155371 144.73777585462085,60.866801553558616 144.73777585462085,60.68363866072468 144.5430549545854,60.24608090289985 144.55863262657658,60.14432288914395 144.65209865861107,60.06291637060349 144.70662051060935,60.08326800920622 144.77672003459884,60.235905108231236 144.9558632626431,60.41906918366294 145.09606231070939,60.49029952676938 145.42319342275732,60.49029952676938 145.90610125483363,60.3478387673822 146.48247511897353,60.25625669609144 147.02769363910193,60.042564726041746 147.2068368671753,59.94080641363689 147.60406750324182,59.82887209749606 147.7832107312861,59.808520384271105 147.91562094332767,59.7372893408683 148.19601903940202,59.69658585462457 148.3050627433695,59.645706463263195 148.39073993940838,59.53377167081635 148.68671570747392,59.50324396879296 149.79273041972192,59.17761431099643 150.30679359583883,59.065678763021424 150.54824751187698,58.98427097824606 150.62613587192027,58.923215076974884 150.64950237993617,58.862159121912555 150.57161401992198,58.49582226270286 150.4781479878584,58.30247702901397 150.26784941583173,58.11930736297654 150.05755084377597,58.06842681430135 148.8424924275023,58.28212486778648 148.64777152749593,58.25159661476209 148.49978364343406,58.11930736297654 147.87667676329147,56.62340364651027 147.26914755516918,55.22923303463904 146.45910861098673,53.183720308072225 146.25659887492657,52.77664589948108 145.9995672868681,52.1253218746715 145.84379056683974,51.58593953525997 145.72695802678936,50.93460432511347 145.72695802678936,50.2018448998424 145.83600173084415,49.519964589468145 145.96841194288572,49.05180407570151 146.0852444828779,48.77701273663115 146.32669839894515,48.30884720609174 146.90307226311415,47.555704719045025 147.58070099525503,46.96539813147683 148.18044136738172,46.55828721155558 148.96711380354827,46.21224104997236 149.3409779316571,46.11046243841702 149.50454348765197,46.029039441636996 149.98745131975738,45.91708266486239 150.4158372998936,45.886548967093404 151.4984855040966,45.86619316110591 152.40199048031354,45.96797213127138 152.74469926435268,45.92726056114043 152.87710947639425,45.7847698773985 153.00173085246934,45.367474047496216 152.93942016441724,45.255516202356375 152.97057550842874,45.06213404398295 152.93163132842164,44.89928549222532 152.97836434445344,44.797504953130556 152.97836434445344,44.604121517171734 152.84595413241186,44.10539332429471 152.7057550843747,43.952720711276925 152.5655560363084,43.93236433745915 152.38641280832235,43.983255260798614 152.26179143227637,44.14610596434795 152.26179143227637,44.41073754172248 152.40977931630914,44.563409146110644 152.93163132842164,44.86875134622096 153.43011683251825,45.04177799595345 154.11553440068383,45.17409220141417 154.58286456079804,45.20462621298793 156.958459541318,45.23516021108662 157.4491562093899,45.194448210640985 158.88230203374405,45.24533820748911 159.26395499781938,45.153736186272 159.6533967979194,44.970531780680176 160.02726092599914,44.939997666057025 163.25183903070865,44.980709815929 164.45131977499113,45.02142194192129 166.00129813930835,45.001065881915565 166.17265253135702,45.031599969668605 166.53093898741645,45.16391419458523 166.95932496752357,45.194448210640985 167.62137602767325,45.21480421387241 168.00302899177768,45.17409220141417 168.88316745994962,45.17409220141417 169.4751189961098,45.21480421387241 170.33967979229055,45.194448210640985 171.1886629164801,45.24533820748911 171.98312418867135,45.255516202356375 173.03461704889196,45.255516202356375 173.3228039809619,45.27587218765257 173.79013414104702,45.27587218765257 174.02379922111868,45.23516021108662 174.23409779314534,45.29622816696792 175.93985287752002,45.29622816696792 176.679792297713,45.39800797386124 177.24837732579908,45.37765202443552 179.46040675032418,45.45907578630431 179.52271743831807,45.42854188682395 179.55387278235867,45.255516202356375 179.61618347035255,45.194448210640985 180.04456945043057,45.26569419574662 180.4106447425147,45.24533820748911 180.82345305060153,45.286050178066944 181.36867157072993,45.255516202356375 182.1553440069256,45.33694010767795 182.5915188229992,45.255516202356375 183.1678926871391,45.286050178066944 183.32366940716747,45.26569419574662 183.42492427519755,45.286050178066944 183.7209000432631,45.27587218765257 183.97014279532596,45.32676212472143 184.49978364343406,45.32676212472143 184.7957594115287,45.367474047496216 185.48117697966518,45.33694010767795 185.9173517957388,45.357296069058066 186.59498052790877,45.316584140309715 186.87537862395402,45.33694010767795 186.9532669839973,45.316584140309715 187.0,45.26569419574662 186.9688446559885,44.92981962480553 186.9922111640044,45.01124391267513 186.9143228039611,45.10284612216492 186.71960190392565,45.04177799595345 186.33794893985032,45.01124391267513 184.62440501945093,45.001065881915565 183.91562094329856,44.89928549222532 183.63522284725332,44.939997666057025 183.48723496322054,44.909463537929696 183.1211596711073,44.909463537929696 182.98096062309924,44.878929396378226 183.03548247509752,44.96035374397616 182.94980527908774,44.96035374397616 182.83297273906646,44.919641582120676 181.82042405885295,44.889107445051195 181.5400259627786,44.950175705766014 181.27520553872455,44.919641582120676 180.53526611853158,44.939997666057025 179.8732150583819,44.909463537929696 179.68628299437114,44.878929396378226 179.60839463432785,44.919641582120676 179.47598442228627,45.153736186272 179.3513630462985,45.153736186272 179.3046300302667,45.24533820748911 179.21895283425692,45.29622816696792 178.11293812203803,45.286050178066944 176.77325832971837,45.316584140309715 175.72176546949777,45.20462621298793 174.38987451323192,45.21480421387241 171.50021635656594,45.13338016511261 169.18693206403987,45.14355817645264 168.30679359583883,45.10284612216492 166.7568152314925,45.10284612216492 166.36737343142158,45.04177799595345 166.07918649935164,44.939997666057025 164.5915188230283,44.909463537929696 163.46213760279352,44.919641582120676 161.3747295543144,44.86875134622096 159.7935958459566,44.86875134622096 159.6689744699397,44.889107445051195 159.1471224577981,45.113024137979664 158.87451319771935,45.16391419458523 158.6096927736653,45.13338016511261 158.5941151017032,45.01124391267513 158.61748160969,44.980709815929 158.92903504977585,44.99088784964988 158.96019039372914,45.01124391267513 158.91345737775555,45.07231206580764 158.6486369537015,45.06213404398295 158.7031588056998,45.02142194192129 158.97576806577854,44.970531780680176 159.03807875380153,45.01124391267513 159.03807875380153,45.14355817645264 159.42752055387245,45.14355817645264 159.66118563394411,45.031599969668605 159.81696235397249,44.980709815929 158.5707485936873,45.08249008608982 158.46949372565723,45.13338016511261 158.26698398959707,45.14355817645264 157.44136737345252,45.10284612216492 156.67806144524366,45.13338016511261 154.51276503675035,45.113024137979664 154.06101254868554,45.09266810486588 153.29770662047667,44.939997666057025 152.84595413241186,44.766970762262645 152.53440069235512,44.604121517171734 152.36304630030645,44.49216243921546 152.29294677625876,44.34966880585853 152.32410212029936,44.16646227538149 152.44093466032064,44.03414614672511 152.6356555603561,44.003611619671574 152.77585460839327,44.10539332429471 152.90826482043485,44.54305295161612 152.90826482043485,44.85857329452847 152.82258762436686,45.09266810486588 152.83816529638716,45.37765202443552 152.6590220683429,45.68299063829909 152.26958026830107,45.805125707287516 151.70099524012767,45.7847698773985 150.84422327997163,45.83565944094153 150.56382518389728,45.81530362000922 150.01860666376888,45.86619316110591 149.73041973169893,45.94761634917813 149.23972306359792,45.98832790735469 148.99826914755977,46.11046243841702 148.46083946345607,46.28348598913726 147.7676330592658,46.66006516563357 147.37040242317016,46.97557587384654 147.01211596711073,47.352151291088376 146.74729554302758,47.545527061818575 146.27217654694687,48.25795945793652 145.91389009085833,48.89914235512697 145.69580268283607,49.56067404994246 145.6101254867972,50.12042670787923 145.64128083077958,50.73106081712467 145.64128083077958,51.44346048087755 145.75811337082996,51.92178186218371 145.89052358287154,52.20673771238944 146.0151449588593,52.674876923905686 146.80960623105057,54.557578793304856 147.04327131112223,55.015525572649494 147.88446559928707,57.162746801674075 148.2739073994162,58.00737010665034 148.39073993940838,58.17018787431152 148.51536131545436,58.27194878492446 148.811337083549,58.35335740593291 149.4188662916422,58.25159661476209 149.8706187797652,58.109131256249384 150.11207269580336,58.11930736297654 150.26006057980703,58.18036397209653 150.4080484638689,58.312653107401275 150.57940285591758,58.8723351181543 150.4314149718848,58.8723351181543 150.08870618778747,58.892687106163066 149.59800951968646,59.04532682579156 148.2505408914003,59.574475252607954 147.7832107312861,59.78816866505076 147.7053223712719,59.70676172844833 147.47944612722495,59.818696241636644 146.86412808307796,59.96115808803734 146.45131977499113,60.123971268454625 145.87494591085124,60.1748503089475 145.77369104285026,60.22572931209288 145.32193855472724,60.3478387673822 145.041540458682,60.3173114237361 144.91691908266512,60.24608090289985 144.76114236260764,60.012037248001434 144.68325400256435,59.98150975652243 144.60536564257927,60.012037248001434 144.4963219385536,60.1748503089475 144.65209865861107,60.80574730969238 144.07572479447117,61.16189630781446 143.53829511033837,61.53839468842489 143.00865426223027,61.73173090037744 142.92297706622048,61.965768751630094 142.96192124622758,62.22015682453639 142.8217221981613,62.352438253656146 142.65815664216643,62.44401755683066 142.12851579402923,62.60682490824547 141.6845521419018,62.67805300431064 140.48507139764843,62.96296465699561 140.00216356554301,63.12577079014591 139.92427520555793,63.17664762841014 139.37126784943393,63.29875188787992 139.30116832541535,63.36997927329503 139.16096927734907,63.431031259729934 139.11423626134638,63.5327844509884 139.26222414537915,64.28575342641852 139.25443530938355,64.40785573321773 139.28559065339505,64.44855645438656 139.35569017738453,64.37733017666324 139.37126784943393,64.15347568481957 139.33232366939774,64.13312524066714 139.28559065339505,64.30610382582381 139.37905668542953,64.89626281063101 138.77152747730725,65.04888931697496 138.5222847252444,65.2116905535222 138.03937689313898,65.62886697783688 137.69666810904164,65.7611419054956 137.299437472946,65.81201681049424 137.12029424490174,65.77131688946974 136.49718736475916,65.75096692002262 136.16226741668652,65.82219178703235 135.7728256166447,65.98499120836641 135.53137170057744,66.13761531879572 135.07961921245442,66.55478617372864 134.86153180443216,66.91090564995102 134.80700995237567,67.14492602445534 134.6979662484082,67.45016880451294 134.71354392037028,68.20309525177436 134.83816529641626,68.62025368351897 135.1575075724686,69.0882821082123 135.38338381654467,69.24089938993711 135.46906101255445,69.36299297356163 136.04543487666524,69.70892362667655 136.46603202080587,70.12607300194213 136.52055387277505,70.24816502745671 136.60623106881394,70.99088688563643 136.93336218089098,71.78447131547 137.01125054090517,72.0795196214749 136.98788403288927,72.23213032179046 136.93336218089098,72.28300048061647 136.59065339679364,72.37456667247898 136.45824318478117,72.37456667247898 136.13111207270413,72.50682873623009 136.02985720467404,72.50682873623009 135.89744699263247,72.59839463263779 135.91302466465277,72.7408302312324" stroke="#ffc500" stroke-linecap="round" stroke-linejoin="round" stroke-width="0.5"><title>2022-06-18 20.1km</title></polyline><polyline fill="none" points="25.097579493318335,93.83835062838989 26.344629517174326,93.81581461950009 27.356778151501203,93.88342259668934 27.681494778211345,93.8293362268123 29.94069343637966,93.77975697101829 30.766302731950418,93.85187222579589 34.441818591731135,93.8293362268123 36.52484120777808,93.68961266520091 37.40226698630431,93.71665598464097 38.72186008634162,93.58143915010078 40.55961801625381,93.68510544298624 41.215960134068155,93.55890295332392 41.60976540474803,93.59496086026411 43.837874173143064,93.39664184996036 45.5512725438748,93.42368542653094 46.25597671246214,93.39664184996036 46.898501101488364,93.27945274388912 49.092065547883976,93.24790175456474 50.142212936407304,93.31551097784359 51.01618428276561,93.2163507329351 53.413560228887945,93.17578508623046 53.63464388962893,93.09916094117216 55.04405222684727,93.13071208279871 56.28764781849168,93.0 57.35161293580313,93.01802928576944 57.77996252848243,93.14874129208329 58.52957431568939,93.60397533039395 60.778409677237505,95.53301127545456 63.24141983516165,97.75936526795522 64.32611154566985,98.58406691464006 64.86154853651533,99.13385575271604 65.84260728105437,99.96753323069424 66.09132639938616,100.28747914002633 66.29513789912744,100.74711392943391 66.38840756852005,102.20708485718933 66.34695438211202,102.76131497185452 66.41258859388472,110.73571839001306 66.33313665330934,111.07807597859755 66.33313665330934,111.95197153717163 66.41949745830789,112.49701756794457 66.31931892452121,114.83475037340213 66.25713914494554,115.08698070207902 66.37113540750579,116.11389717466045 66.44022405147552,118.50539907024904 66.40913416170224,119.24397988591954 66.31241006012715,119.56372585191093 66.37113540750579,120.15367097847047 66.34695438211202,120.77512768912675 66.27095687373367,121.11287065106444 66.37804427189985,121.45511308096866 66.38149870409688,123.3058583416423 66.27786573814228,126.9754993765182 66.31241006012715,128.79439894338066 66.23295811953722,131.0138514741775 66.26059357712802,132.61193854459088 66.17077833996154,137.35169333187514 66.10514412817429,138.3283614949687 65.70097556088876,139.00796028419973 64.52992304542568,140.29060598521573 64.03248480876209,140.3491113607124 63.928851842778386,140.42561822295647 63.47977565690235,140.91615771812394 63.417595877312124,141.4066894211901 63.096333682813565,141.74870691570504 62.37435735321196,142.22572499026865 61.624745566019556,142.5047321470156 60.94422242282599,142.57673358473585 58.43975907850836,142.54973306526335 57.341249639197486,142.62623447579062 54.2391695244587,142.9187381215088 52.940303017618135,143.13473903547674 52.10433042544173,143.34623846658542 51.51707695161167,143.39123815867424 47.05740498265368,143.38673819242103 46.2076146616746,143.449737660374 45.14019511218066,143.40023808922706 44.052048969475436,143.45423761745224 42.53209880189388,143.35073843875398 40.48362050787546,143.37773825793374 39.56474154292664,143.30573868764805 36.49029688577866,143.3687383208271 35.4366950650583,143.5217368949634 34.932347964000655,143.66123493434134 31.647182942717336,144.77269680310928 27.705675803590566,146.23058614450747 27.52259089706058,146.2440847983653 27.30841610072821,146.15409366118547 26.931882991018938,145.74013105314407 27.101150168775348,145.97861018956246 27.40859463447123,146.21258793019115 27.2427818889264,146.12709626890864 27.405140202274197,146.2260865919161 27.684949210393825,146.25308389767997 28.044210159117938,146.14959409744915 27.660768185014604,146.26658254169342 27.266962914320175,146.21708748475066 26.14081801743305,146.43306533305804 25.79882922973775,146.75702927402563 25.418841687831446,146.932508323378 23.923072545658215,147.0 21.173344515205827,146.96850390259715 19.902113465970615,146.644542179587 19.03159655179479,146.14059496799564 18.42016205257096,145.5826438215263 18.053992239467334,145.14167530099985 16.77930675803509,143.1707390409374 16.768943461429444,143.07173892495302 16.585858554884908,142.91423808640866 16.11951020800916,142.23022512569514 15.680797318709665,141.47419317408458 15.30426420904405,140.32210889348607 15.297355344620883,140.05208292259158 15.812065742284176,139.32750156487418 15.228266700636595,138.96745481528524 15.829337903298438,139.277995385748 16.078057021615678,139.0304632995194 16.112601343600545,138.71541959257956 16.04696713181329,138.51739047438969 15.604799810345867,138.26985229061938 15.321536370029207,138.00880987426535 15.058999522894737,137.50472172106674 14.578833447230863,131.92319567052982 14.761918353789952,131.3109668809302 14.806825972365914,130.93281950325036 14.457928320276551,130.1900165235147 14.399202972883359,129.93790963089123 14.423383998277131,129.20858881048298 14.419929566065548,129.87938452202798 15.43898706480104,129.80285151990756 15.49771241217968,129.71281245091814 15.452804793589166,129.61827114580046 15.511530140967807,129.74432615494334 15.38717058180191,129.79834957270214 15.442441496998072,129.7668359238378 15.318081937817624,129.730820285733 14.433747294868226,129.81185541235027 14.36465865088394,129.46520365684592 14.326659896687488,126.16056157802268 14.38538524408068,125.88590918402406 14.696284141988144,125.8048637482043 14.727374031790532,125.66528499870765 14.596105608216021,124.94036585514004 14.350840922081261,124.5306214146949 14.264480117111816,123.27884096112757 14.333568761096103,121.98197887455353 14.38538524408068,121.522660480372 14.672103116608923,121.42809407978893 14.692829709805665,121.2794891503745 14.88973234515288,120.97327067507467 14.900095641743974,120.69406882808653 14.654830955609214,120.14916762329449 14.433747294868226,120.06360374990618 13.794677338039037,120.15367097847047 13.767041880448232,120.32029465812775 13.577048109509633,120.59949988771223 13.559775948524475,120.7661211595314 13.590865838312311,121.06783846976396 13.836130524447071,121.41008139918085 14.174664879930788,121.48663521908202 14.68246641321457,121.43710041613122 14.962275421334198,120.86969609116204 14.924276667137747,120.63552618489666 14.70664743859379,120.3247979883381 14.675557548791403,120.17168439263514 14.430292862671195,120.04559027264258 14.375021947489586,119.92399902598481 14.281752278111526,113.7942784635452 14.299024439111236,113.60059367013491 14.451019455853384,113.44294235892448 14.471746049050125,113.27177716574624 14.337023193307687,112.95647037578601 14.257571252717753,111.2177207457571 14.305933303505299,109.78971055458169 14.240299091718043,108.10934888787051 14.316296600110945,105.00066364053237 14.285206710308557,103.99139986934097 14.064123049582122,101.10760700753235 13.981216676795157,98.75531366993346 13.604683567100437,96.24960835260208 13.770496312659816,96.01074451173372 14.661739820003277,95.66371261376662 16.893303020580788,94.57752258340224 18.178351798647782,94.06821697748637 21.587876379096997,93.84285782817824 22.807290945362183,93.87440820830125 23.99561562182498,93.79327859414298 24.506871587291243,93.65355486903536 25.076852900121594,93.79327859414298 26.42408145776426,93.76172813096309 28.002756972724455,93.78877138710232 27.702221371408086,93.82032182260264" stroke="red" stroke-linecap="round" stroke-linejoin="round" stroke-width="0.5"><title>2022-05-01 52.6km</title></polyline><polyline fill="none" points="89.51861144921713,93.0 89.67505008430453,94.26545553977485 89.72653621737118,95.53082022608214 89.6809907919669,96.03797566285357 89.72653621737118,96.31483497377485 90.14436598956672,96.3510592348157 90.26119990690495,96.80903097263217 90.6988320379678,96.87889002233715 90.63546448958368,96.87889002233715 90.74635769925953,97.90345761403296 90.20179283028847,98.01470758183132 89.24137842501659,98.28894869027135 89.02949318508036,98.40795765533767 88.76018110442965,98.63562474145692 88.45918524957233,99.05214441467433 88.6314657717594,99.34447843297676 88.76018110442965,99.68078591000813 89.70277338672167,101.23547787879397 90.5522945823177,102.76934078437625 90.9582429391885,103.33836223758772 91.30676445533754,103.90736533362906 91.55627417711366,104.45307378607686 91.83746767308912,104.80221488750612 92.91273575982632,106.61763722939031 92.95036024168803,106.85812788503608 92.82164490901778,107.17619113663386 92.86322986264713,107.42443164163706 92.97610330821772,107.54337897918776 93.14046288684767,107.57440858753944 93.5543321872683,107.8614298777702 93.81572332436917,108.13034648962275 94.61771885867347,109.4852101524848 94.84148551392718,110.02040434850096 95.13654066112213,110.43406990039875 95.14644184055214,110.50904574366177 95.06723240506835,110.72104468023826 95.09693594338023,110.83479915731004 95.23159198370558,110.96923532127221 95.5147657155685,111.10884102302771 95.80586039098853,111.53023672151176 96.60983616116573,113.01667494907815 96.91875295957288,113.47421421589752 97.17420338901138,113.96276000162106 97.90887090314936,115.18018829083121 98.00590246162756,115.39988509060822 98.07125024590641,115.72813286223936 98.05342812292656,115.87545468105054 97.97223845154804,116.04862086128196 98.0375862358269,116.20627814531508 98.19798534268193,116.30965920667222 98.2672935987357,116.56810921179022 98.78413516528235,118.83196955472704 98.81581893948169,119.48574735457623 98.81581893948169,119.33845565411866 98.93859356448957,119.31261487824486 101.11091233271145,119.30744671853245 101.24952884481172,119.31778303644205 101.37626394159452,119.39272116036409 101.45349314119812,120.99218667180685 101.4713152641707,122.76460769317237 101.53270257667464,123.4854102712161 101.52082116135716,123.95042858524357 101.64755625813268,126.47681420389927 101.90696715935337,126.53105778655845 103.26342874206603,126.53880685620607 104.08720687113237,126.47681420389927 104.84959768769477,126.50781055723564 105.78426902642968,126.44581779618966 106.83775451839756,126.45098386791688 107.73678161118005,126.37090958641238 108.62986799630016,126.34507909561944 108.9764092765472,126.4561499381307 109.15859097816428,126.7144515233449 109.19423522413854,126.91592413873695 109.196215460026,127.53582547142469 109.0793815426805,127.97232627957419 109.0694803632432,128.14537391145677 109.10314437333,128.44755750417244 109.20215616768837,128.79105907396297 109.15463050639664,129.366990334187 109.26156324430485,129.94806787764173 109.289286546722,130.48264234640192 109.24176088543027,131.14890093675058 109.29126678261673,132.1688993525404 109.22987947010552,132.77312382099262 109.33285173623153,132.94870654625265 109.36057503866323,132.91255730419107 109.56453933503508,132.87382589138542 109.33285173623153,132.94612445998973 109.43186353060446,135.2621043206109 109.40810069995496,135.81975315267482 109.49523107898858,136.6458672481367 109.46552754068398,136.92467204551212 109.51899390963081,137.25252021195593 109.60612428867171,137.4719427551754 109.73483962133469,138.43478832181063 109.67345230883075,138.78067714934332 109.35661456688103,138.83230176737925 109.40414022818004,138.8606952430673 109.67345230883075,138.8581140198894 109.74672103665944,138.99491832935382 109.91702132295904,139.15237103623804 110.94476374839724,139.45436656834136 111.00615106090117,139.49308357137124 111.0398150709807,139.58084179784964 111.0635779016302,140.03769376766286 111.03387436331832,139.99897795660763 110.98238823025167,140.05318006836205 111.0239731838883,140.0015590133171 111.06159766573546,140.0170453456485 111.07347908106021,140.7629543003768 111.31308762340632,143.11403936271927 111.39229705889738,143.75401720463014 111.54081475043495,144.4662233969575 111.51507168390526,144.71910130866672 111.28536432098917,145.3151563749907 111.11704427057703,146.1098652363853 111.01803247622593,146.20533110781798 110.78634487742238,146.2440333414288 110.45564548426046,146.1666287895714 110.31900920804765,146.2672546409758 109.72295820600993,146.18210972702582 107.95460755877139,146.0402006268323 107.70311760110053,145.9731159288349 107.26746570591786,145.9937574014566 106.89518135913386,145.942153674765 106.61002739138348,145.97569611423205 106.42982592564658,145.9550546205428 103.73670511910314,146.04536097768505 102.74064646784973,146.12018589595937 102.65747656059102,146.15114783857825 102.45549250009935,146.13050654951803 102.23568631662056,146.17436925998845 100.71882562705287,146.2440333414288 100.25148995767813,146.31111701254122 99.58811093548138,146.33949848916745 99.0752298406951,146.42722276552922 98.03164552816452,146.53558744779184 97.51876443337824,146.55106806253025 96.39597068535659,146.69555314712125 95.56229137686023,146.70587346516913 94.93059612885554,146.82713675151717 93.96226078002655,146.91743865909848 93.53651006428845,146.90453841479575 93.20977114290145,146.94581916347306 93.06521392313152,147.0 92.97610330821772,146.9845197779141 92.92857764692599,146.84003705223586 92.83946703199763,145.9034507810029 92.71669240699703,143.3566143332464 92.71075169933465,142.71404145680026 92.79590184248082,142.2650007758839 92.78402042715607,141.97079552966352 92.83352632433525,141.81594869817854 92.7860006630508,141.67658539109289 92.74243547352671,140.99523786419013 92.71669240699703,139.80023545928816 92.74837618118909,139.75893803679355 92.97610330821772,139.71247832124573 93.25927704008063,139.6969917222741 93.74245459654776,139.60923407203154 94.14444248164364,139.4362986045926 94.00384573365591,139.2969165496197 93.96028054414637,139.20657574217694 93.9206758263972,138.75486478381936 94.14246224575618,138.74195858692838 94.18404719938553,138.70582118555103 94.07909469736478,138.1689139534992 94.07909469736478,137.87980330844402 94.13454130221362,137.67071141494125 94.04543068729254,137.53131544596545 94.01572714898066,136.94790558023487 94.09691682035191,136.78268867015868 94.05533186672255,136.44450549421708 94.06919351792749,135.7603747154517 94.08503540503443,135.59772840985715 94.11473894333176,135.58223820748935 94.05533186672255,135.06330858682668 94.04147021551762,133.42638601777435 93.97612243123876,132.74988480021239 93.93453747760213,131.15148328553005 93.96226078002655,130.81835717806644 93.90879441107245,130.3767617307658 93.92463629817212,129.94806787764173 93.88701181631768,129.4625466204434 93.90681417519227,129.02608261718524" stroke="red" stroke-linecap="round" stroke-linejoin="round" stroke-width="0.5"><title>2021-10-30 46.5km</title></polyline><polyline fill="none" points="154.782313557429,93.0 154.82382443299866,93.36165567072203 154.76386427940452,93.37371074999282 154.81921211349254,93.42193099628093 154.80306899521383,93.45508234989029 153.75376630731625,93.48220614483034 153.72609239026497,93.53042613621801 153.7099492720008,93.76248326035056 153.8321757389349,94.83533663917297 153.81142030115006,94.77807902704626 153.7952771828859,94.85643150864234 153.80450182189816,96.45355152884622 154.28879537015746,96.48368467451837 154.38796023956093,96.78501369854894 154.42255263586412,97.06524572161652 154.83766139151703,97.07729862605083 155.00139873403532,98.35185333232039 154.09046563133597,98.60494697848117 153.99821924119897,98.66520691058577 153.2602481200447,98.78873921849299 152.90971183747752,99.05387922348382 152.51766467936977,99.49376304321959 152.39313205267536,99.58113610478904 152.3769889344112,99.63838032284912 152.43925524775113,99.60825180690881 152.33547805884155,99.65645741117805 152.56378787444555,100.02703421493425 152.6421973060642,100.27709445792061 153.7952771828859,102.21420498402404 154.15273194469046,102.73234354407214 154.20807977877848,102.8980246276642 154.31185696768807,103.02153147500576 154.77078275865642,103.88605861132419 155.5248969980894,105.03970887695323 155.999965907351,105.95836574972964 156.28592971678881,106.29871016127436 156.537301129938,106.73241522266107 156.50962721290125,106.76253328969688 156.85324501618743,107.22333420958057 157.13920882562525,107.79254460602897 157.3006400083832,107.98830115082637 157.32600776567415,108.10575418242297 157.5450929422659,108.4822016819453 157.60505309586006,108.70806687095137 157.58429765807523,108.85864228422543 157.44362191311666,109.09956065019105 157.42517263507762,109.33746476450688 157.59352229710203,109.56030915784868 157.66731940921454,109.5121267911054 157.8887107455521,109.6054800240654 158.3545550157869,109.85542368885763 158.46525068396295,110.00900202306366 158.6174572276941,110.32217781430336 158.8826655993762,110.69858470900726 159.57451352545468,111.86690779684432 159.76592478499515,112.39985786645047 160.13952266509295,112.89967418654123 160.1164610675478,113.16162125874143 160.02652083715657,113.33022910234467 160.0634193932201,113.42356499240668 160.23638137475064,113.56507343661906 160.50389590616396,113.64937587646455 160.61920389384613,113.79690431413474 161.68926201952854,115.56415246313009 161.71232361705916,115.72370912763836 161.9936751070054,116.09098579986494 162.24504652014002,116.50943237197316 162.505642572316,117.03022088465877 163.08679483021842,117.95135207712156 163.2205520959251,118.08078877413755 163.50420974563167,118.83030153312029 163.52727134316228,119.17344283488455 163.4234941542527,119.51356847381248 163.47884198832617,119.56774725963623 163.47653582858038,119.65202508715811 163.64719165035058,119.74533227899337 163.77633659655112,120.2269110530051 164.2998348606343,122.57745557109956 164.35287653494743,123.29370126178765 166.8988769029529,123.22448533004717 167.256331664772,123.24254168252628 167.3578026939067,123.31175755350341 167.66452194115845,131.45954647961298 167.58150019001914,131.52572653137213 164.1384036778618,131.57385734441414 163.15597962283937,131.5528001275561 162.31423131276097,131.5949145397335 161.87144864005677,131.73328985860644 160.77602275709796,132.2747495539952 159.41077618295094,132.7379870967543 159.24242652092653,132.85229086058462 158.69125433982117,133.04780898493664 158.55749707409996,133.11699187634622 158.43065828765975,133.31551540401233 158.35916733529302,133.87197266162366 158.23694086835894,134.02236393254861 158.08473432461324,134.06748109953696 158.26461478539568,133.99830140304402 158.37300429382594,133.7847452209826 158.4237398083933,133.90505883551305 158.4375767669262,134.67504931507392 158.5482724350877,135.90516964940798 158.49523076076002,136.47358673162853 158.55288475460839,137.21040033103782 158.59439563017804,137.28558390943545 158.5482724350877,137.46000875391837 158.58055867164512,137.56827170720317 158.61284490820253,139.45075315736904 158.6843358605547,140.57835530476586 158.64051882523927,140.7106565757931 158.712009777606,140.8820455948844 158.71431593735178,141.83818973466623 158.67049890203634,142.00656272182096 158.7304590556305,142.7070998358431 158.68664202031505,143.38656800514036 158.575946352139,143.6300887506277 158.67511122154247,143.75635763323953 158.65666194351797,144.24940014310232 158.712009777606,144.43879748174004 158.6105387484422,144.60414294078328 158.70970361784566,144.94685475647566 158.70509129833954,146.22746423651188 158.60362026917574,146.50702332475157 158.39145357185043,146.68738201346423 158.00171257348848,146.7835726684625 157.85873066875502,146.73848335484763 157.85642450900923,146.84669754170136 157.84489371023665,146.7535131370205 157.71113644452998,146.74148931216223 157.25451681332197,146.81663810237296 157.21069977799198,146.77154886115022 157.18302586095524,146.53407722872726 157.20147513897973,146.77756076567493 157.2821907303587,146.80461431436743 157.74342268107284,146.72345356172627 157.84489371023665,146.77756076567493 157.83105675171828,146.92485187868442 157.88640458579175,147.0 158.38453509258397,146.91583408570114 158.8134808067698,146.71744164139454 159.27701891724428,146.61824470276224 160.20409513819322,146.56714306311005 160.22946289548418,146.52806525313463" stroke="#ff8e00" stroke-linecap="round" stroke-linejoin="round" stroke-width="0.5"><title>2021-09-11 29.2km</title></polyline><polyline fill="none" points="21.292246904486092,153.0 21.428235858125845,154.1066919951627 21.70021376531804,154.18747156091194 30.712572600052226,154.32479655049974 33.19128034537425,154.15515974883965 34.18647223318112,153.96936646113318 35.47218597639585,153.96936646113318 35.99759784262278,154.09861403204195 36.22012522123987,153.94513250778618 36.23248785341275,156.7965877480674 36.45501523202984,157.84666150866542 36.57246023742482,159.63174090759276 36.67754261067603,159.59135513616275 36.745537087495904,159.76097517690505 36.91243262143689,162.0306025550235 37.21531710904674,163.16941945431608 37.25240500547807,163.98515324176333 37.20295447690296,164.6393468483402 36.86916340896278,165.5681268812914 36.60336681781337,166.95722950116397 36.40556470345473,167.32872774744465 36.27575706591597,168.35437292954157 36.37465812309529,169.22656009262573 36.83207551250234,171.10817606245473 37.264767637621844,173.9587420840253 39.04498666670406,179.22342208208647 40.21325540452381,183.05856980129101 40.658310161787085,185.06888787619027 40.56559042070876,185.53714419661992 40.77575516718207,185.81971073915702 40.96119464939693,186.42520558992328 42.17273259971989,192.01159062592706 42.37053471407853,194.3041048615596 42.72905104630627,195.64405138350048 42.81558947134181,198.54177604770666 42.89594658030546,199.09063151208102 43.00721026962856,199.17941644089296 42.91449052855023,199.71212300823754 43.01339158570045,200.50310204266498 42.877402632060694,200.761378450934 43.062842114275554,202.60963365361386 43.08756737856311,204.32062685684286 48.8918231712596,203.57812689995262 49.47904819823452,203.65883390181625 49.93646558764158,203.93323682368282 50.313525868114084,204.40133277082714 50.67822351644281,205.16803305633584 51.25308591124485,205.7491040588102 53.10129941711784,205.7168224972702 53.583442070841556,205.98314481437774 54.331381315685576,206.0477076064235 55.41311162849888,205.66840011945533 56.24140798233566,205.7491040588102 56.73591326814494,205.85401900322904 56.902808802144136,206.0396372615578 56.890446169971256,206.27367678273004 56.62464957885095,206.57227748684454 56.75445721638971,207.0 58.02162701138877,206.64490984579606 58.355418079328956,206.1849032882892 58.6583025669097,205.42628759191575 58.707753095484804,202.66612956069002 42.14182601933135,190.52624876254777 40.404876202810556,182.56607104619616 37.567652125202585,173.57113837968427 36.75171840353869,169.24271157643307 36.66517997850315,167.9425019642622 37.518201596598374,164.51820047094225 37.610921337705804,163.63786211743354 37.27094895369373,162.12752405980063 36.918613937537884,159.30057670692258 36.75789971961058,158.71093795217894 36.51682839274872,158.92902425536886 36.67754261067603,157.66088068721 36.48592181238928,156.59464818866763 36.5848228695686,155.27798408954914 36.14594942837721,155.3668397135334 34.01957669921103,156.9742939472053 33.537434045487316,156.36847500217118 33.413807724020444,154.23593924343731 31.151446041243616,154.42980954653103 28.314221963635646,154.42173163087136 27.875348522444256,154.51866654042533 27.900073786760913,155.1810505179019 27.992793527810136,155.14066147931226 27.887711154588033,154.54290024114744 27.961886947450694,154.47019910700692 30.4529573249456,154.44596537426332 30.60749022680102,154.89832662502886 30.706391283980338,156.33616447101667 32.55460478985333,156.43309600746943 32.90693980600918,156.39270788802241 32.99965954711661,156.27962099590513" stroke="#4dd2ff" stroke-linecap="round" stroke-linejoin="round" stroke-width="0.5"><title>2021-08-29 19.2km</title></polyline><polyline fill="none" points="74.9768786127097,186.17523802594587 74.44971098264796,183.05645607645783 74.70635838151793,182.8841931782772 74.65780346823158,182.34926848235045 73.38150289017358,175.6396496721718 73.24971098266542,174.51526379954157 73.32601156068267,174.34297705724748 91.08323699425091,173.2094996542146 93.21271676302422,173.2367033557639 95.51560693641659,172.90119019854683 96.50057803466916,172.64728713715886 101.00231213873485,172.14854593899145 108.56994219651097,170.80645869463115 115.88786127167987,170.14447247858698 118.78034682082944,169.69105316359855 121.98497109825257,169.4280684340738 125.39075144508388,168.97464385413332 126.2716763005883,169.02905497968095 126.4104046242719,171.2870743738349 126.341040462401,173.00093754396585 126.69479768784367,175.12279742026294 126.76416184971458,178.19664449419724 126.95144508668454,179.76524491060263 127.0,181.5514060835194 126.85433526008273,182.63939770638535 125.42543352599023,182.93859204017645 123.7468208092323,183.03832316244734 119.67514450862654,183.57324188606435 114.341040462401,183.972161306021 109.40924855490448,184.79719101653973 108.85433526011184,184.77905861393447 108.52138728322461,184.55240313224203 108.23005780344829,183.536976356394 107.47398843930569,183.04738962010015 101.40462427746388,183.60044101932726 100.07976878611953,183.89056436170358 97.78381502890261,183.96309498418486 94.03121387280407,184.39827692919425 91.77687861272716,184.407343187082 91.31907514453633,184.52520441847446 89.0508670519921,184.606800523743 88.07283236994408,184.5342706577103 86.98381502891425,184.7155951629611 83.00231213870575,184.7155951629611 81.45549132948508,184.91505150348166 79.82543352601351,184.86065438362493 79.20809248552541,185.01477943197824 77.07167630057666,185.0963748900067 74.90057803469244,185.3502267362419 75.16416184970876,186.76452505267662 75.31676300577237,187.0455676531892 75.35144508667872,187.84335903076135 75.24739884393057,188.0881338634572 75.7329479768814,189.93751233777584 75.72601156070596,190.49956736573586 75.56647398840869,190.67180901109532 74.66473988440703,190.92563792825968 73.77687861272716,191.02535614586668 73.28439306360087,190.92563792825968 73.0,191.02535614586668" stroke="#4dd2ff" stroke-linecap="round" stroke-linejoin="round" stroke-width="0.5"><title>2021-08-28 17.3km</title></polyline><polyline fill="none" points="184.66264428116847,173.61507102550968 175.1998950681882,173.78167035045772 171.13431269675493,173.61507102550968 169.73189926549094,173.33740499480336 159.2067156348494,173.2448495153003 157.06768100737827,173.74464829731733 150.4522560336045,173.74464829731733 147.66159496328328,173.59655997583468 145.83420776494313,173.0597383526183 145.06925498432247,172.43035836637137 145.2534102833015,171.61586195584096 145.8483735572081,171.65288463407342 146.2025183630758,172.26375725589605 146.16002098633908,174.7442399177453 143.08604407141684,175.26254356408026 141.32948583422694,175.15147867641645 139.6579223505105,175.35509756243846 137.8588667367003,176.09552710368007 136.1023084995104,177.29871583468048 134.77072402945487,178.74252715709008 133.31164742918918,182.53708065889077 133.26915005251067,184.4065503975071 133.63746065064333,186.16493723390886 138.0571878279443,197.01086557978124 138.68048268632265,197.38101732256473 141.18782791192643,197.04788080290746 141.6552990556811,197.30698706084513 141.01783840503776,197.06638841038512 138.53882476396393,197.5475852523232 137.91552990558557,197.06638841038512 133.46747114375466,186.1279188163171 133.0,183.24044876324479 133.24081846809713,181.24139230156288 133.8499475341523,179.72356900717568 135.2523609654163,177.7984985479343 136.994753410283,176.37318706061342 139.07712486892706,175.31807597124134 140.46537250786787,175.003392007231 145.9050367261516,174.78126167743176 146.21668415534077,174.15189028442546 146.1033578174538,172.31929098387627 145.93336831062334,171.76395260365098 145.38090241339523,171.3752142821395 144.94176285417052,171.8194865517653 145.0550891921157,172.35631345555157 146.86831059819087,173.1893161950793 148.58237145858584,173.4669825519086 157.1526757607935,173.57804892346758 158.83840503671672,173.09676060686616 168.93861490034033,173.1152717299119 171.31846799579216,173.4854936206175 184.83263378805714,173.4854936206175 185.5550891920575,173.78167035045772 186.9008394543198,173.72613726661075 187.0,167.35818144181394 186.57502623298205,163.26697035870166 186.77334732422605,162.63754148506996 186.51836306403857,162.45241474766954 184.96012591815088,162.73010475175397" stroke="#4dd2ff" stroke-linecap="round" stroke-linejoin="round" stroke-width="0.5"><title>2021-08-24 10.5km</title></polyline><polyline fill="none" points="17.64160646504024,254.11502455656228 17.46969511450152,253.57062447995122 17.443247214425355,252.585506775682 16.372107260947814,246.1127004098853 16.041508509864798,242.77663692093847 15.658013958629454,241.21225183596107 15.453042732930044,238.68840476870537 15.155503856978612,237.84997955414292 15.208399657189148,237.46101534475747 14.81168115590117,234.57395614404595 13.297538875980536,226.26638739784175 13.0,223.9061667987662 13.0,225.29810322821868 13.343822701106546,227.2433008032349 13.310762826004066,227.5718167089326 14.553814130049432,233.83055867566873 14.639769805333344,234.97158349091478 15.043100281618536,237.18441700866606 15.27451940739411,237.83269231058512 15.4332068079093,237.91912847767526 34.819517570751486,236.8991736122298 40.598383739445126,236.10394229361555 49.20056324233883,234.68632936241193 53.38594343091245,234.20225858444974 54.285172033822164,234.20225858444974 54.430635484313825,233.8392028862836 54.66866658508661,233.847847095607 54.41079955920577,233.78733760358227 54.34467980902991,234.0293751981626 55.05877311131917,234.11581695480345 63.59483286397881,233.02664153581645 65.87596424639923,232.8364659814979 65.71727684588404,232.853754693675 65.67760499575525,233.02664153581645 65.5784253704478,235.20497220335164 65.71066487085773,236.09529841587937 65.6577690706763,236.942392397581 65.92224807152525,237.85862317404462 66.05448757193517,239.37988048895568 66.29251867273706,244.07305712434027 66.24623484758195,247.14113779095715 66.54377372356248,248.6621550783202 65.88257622139645,248.9214154660258 64.81804824294522,249.0683291786081 66.8347006244876,248.94734144197355 67.0,250.260909269462 66.99338802503189,251.4793900477489 66.92726827479783,251.60037257767908 66.35863842297113,251.66086374935185 66.96694012495573,251.65222215721587 66.90082037472166,254.16687192022437 66.7156850741012,254.25328409145004 63.93204359008814,254.18415436460782 62.68238031104556,254.02861218230464 60.63928002942703,253.51877659090678 60.103710052673705,253.5101352716265 53.63719848173787,254.8322423653226 46.674788784148404,256.09383320123743 46.52932533371495,256.01606468542013 46.4698175585072,255.68770759661857 46.17227868249756,251.84233689123357 45.9408595567802,251.60037257767908 45.6962164810102,251.548522952442 42.991918697196525,251.7732043317592 42.76711154647637,251.68678851818913 39.75205093671684,252.0324510110113 39.441288110712776,251.91146936949735 39.09085343457991,252.10158326587043 38.20484878169373,252.2571305423844 36.856005877343705,252.41267740764306 36.4460634260322,252.37811147313187 36.280764050461585,252.222564516469 35.6790743235033,252.44724332186888 34.20460389374057,252.65463838075448 32.478878413152415,252.59414823073894 31.096975633641705,252.7410527728607 30.482061956688995,252.6287140383647 29.959715929988306,252.78425992134726 27.06367087061517,252.96572959842888 25.966083017061464,252.89659835887142 25.14619811438024,253.01757797479513 24.875107138504973,252.9311639887892 20.901310150598874,253.2768191713294 19.909513897408033,253.19904693229546 18.765642218699213,253.423722009029 17.509366964601213,253.5101352716265 17.714338190300623,254.94457689292176 17.509366964601213,255.15196314965942" stroke="#ffb300" stroke-linecap="round" stroke-linejoin="round" stroke-width="0.5"><title>2021-08-07 23.0km</title></polyline><polyline fill="none" points="73.0,230.79746552819415 73.07049608352827,232.2796910435136 75.95202349871397,232.21075094106345 76.68342036553076,232.04989046713308 80.10248041775776,232.06138051187736 80.21703655354213,233.290805605684 80.2875326370704,237.30066609098867 79.92624020887888,241.57456174000254 76.75391644905903,241.44818643579492 76.73629242819152,241.32181092863175 75.96083550911862,241.42520908598817 75.13250652738498,241.26436744920647 73.63446475195815,241.31032223608054 73.48466057440965,241.54009576805402 73.37891644908814,241.98815222564735 73.51109660574002,242.01112941110478 73.52872062660754,242.29834366332216 73.28198433420039,244.10202520430175 73.36129242816241,244.6419727843604 73.51109660574002,244.7453665791909 73.6873368146189,249.0762957417246 73.87238903390244,249.46687180119625 76.58648825064301,249.6621591041112 77.56462140989606,249.53579678696406 82.77251958224224,249.71959645390598 86.47356396866962,249.54728427871305 89.63707571802661,249.1107584131969 94.11357702352689,249.14522106954246 99.04830287204823,248.83505661899108 99.12761096603936,246.35369700683805 98.80156657961197,240.79332933602564 98.82800261097145,237.61087600770406 98.81037859010394,237.49598358857475 98.59889033940271,237.61087600770406 98.81919060047949,237.57640829955926 98.36096605742932,231.61326752275636 98.10541775453021,231.4294255581117 96.58975195820676,231.41793542108644 89.00261096603936,231.8315792978392 88.50032637073309,232.40608107440494 88.42101827674196,233.3597447617576 88.6501305482816,240.873750676903 89.23172323757899,249.1911712545625 90.87075718017877,249.0303454896566 95.27676240206347,249.08778330055793 102.61716710179462,248.68571774385782 106.19484334200388,248.72018058636604 108.13348563967156,248.20323636438843 110.50391644905903,248.22621173525113 111.40274151432095,247.78967854196526 111.42917754565133,247.34165511524043 111.8433420365036,246.9740442447437 111.83453002606984,246.16988947876234 112.04601827677106,245.77929705607676 111.99314621408121,242.8038382011 111.78165796340909,242.28685511336516 111.94908616185421,241.58605039396934 111.76403394254157,240.6209976144819 111.94027415142045,240.19591108772875 111.86977806789218,238.6678783925454 112.05483028717572,238.36916176663362 111.75522193207871,237.97853062164359 111.68472584855044,236.6917319570639 111.81690600520233,235.12916242871142 111.65828981719096,233.99168421083596 111.71116187988082,230.5676606223351 111.72878590077744,232.84269961895188 111.90502610962722,233.01504837742687 111.86977806789218,237.61087600770406 112.1253263707622,241.39074304860696 112.09007832896896,245.40019079184276 112.43374673626386,248.35257615506998 117.62402088774252,248.37555148233514 119.35117493470898,248.16877329553245 120.75228459527716,248.1917486764578 121.0871409921383,248.0538962903447 121.97715404696646,248.18026098686096 125.29046997384285,248.11133481389697 126.70920365533675,248.06538399842975 127.0,247.8586049966325 126.81494778062915,241.47116377892962 126.62108355085365,240.3912213986914 126.71801566577051,238.15086813052767 126.58583550908952,234.72702554403804 126.25097911222838,230.8434264288153 125.924934725801,230.55617035942123 125.41383812009008,230.42977735664317 123.05221932113636,230.4757384720433 121.14001305482816,230.28040354608675 119.57147519578575,230.46424819571257 119.9063315926469,240.06953356935264 126.66514360310975,240.13846678636764" stroke="#ffc000" stroke-linecap="round" stroke-linejoin="round" stroke-width="0.5"><title>2020-12-19 20.9km</title></polyline><polyline fill="none" points="135.27901524031768,248.4141377424603 136.4727851281059,247.37449147726875 138.4443141852389,247.19727770682948 140.31636241835076,246.2993886095428 140.65097973536467,245.82681137922918 140.48819293250563,244.46813639358152 144.22324568749173,243.27484641101182 145.86015742755262,242.44780337471457 146.90922793501522,241.5380462236135 146.7012225757353,240.51012642527348 147.38854463241296,240.8055070212722 148.87171328085242,240.59283310137835 153.48400602914626,239.16317717097263 153.33026293752482,238.15885823871213 151.37682130298344,238.12341145928076 150.38201306317933,236.29197329033195 148.10299782280345,230.78559213776316 147.92212359741097,229.72208457373927 147.95829844247783,227.61866157478653 148.17534751293715,227.09870584469172 149.03450008376967,226.0469669418162 150.07452687993646,225.0779369136726 151.0783788310364,224.5106944113286 152.7966839725268,223.9670832623524 155.6092781778425,223.87254181822937 156.10668229777366,223.7189117346934 156.30564394575777,223.3407441260715 156.21520683303243,222.44258893513324 155.9981577625149,221.86350988004415 155.69067157927202,221.74532996917696 155.70875900186365,222.19441270732204 156.3237313682912,222.6316750713013 157.12862167140702,222.87984995097213 158.32239155919524,222.97439256100188 162.8261597722303,223.02166382438008 164.96047563222237,222.71440011623054 171.0740244515473,222.7734893819288 173.3078211355023,222.96257474084268 185.10986434441293,223.15165965553751 187.0,223.04529944567184 185.697705576953,223.31710859154555 181.1758499413845,223.15165965553751 181.93552168813767,223.15165965553751 182.18874560378026,222.97439256100188 182.12543962488417,222.79712507611112 180.8321889130748,222.7734893819288 180.06347345502581,222.26532027908252 180.09060458885506,222.5371320587583 181.80890973040368,223.0098460111185 177.84776419360423,223.11620626787044 172.36727516329847,223.0098460111185 171.30011723330244,222.8325786042842 164.56255233631236,222.80894292057928 162.97990286385175,223.12802406547416 157.49037012225017,223.0689350599714 156.11572600906948,222.5962214546089 155.69971529056784,222.17077683623938 155.78110869199736,221.87532786158408 156.15190085413633,222.11168712807557 156.35086250212044,222.74985368083435 156.27851281192852,223.37619741484377 155.91676436108537,223.80163566225383 154.06280355050694,224.33343030957622 150.77993635908933,224.8415863568007 150.13783285883255,225.17247694214166 149.01641266117804,226.37785257250653 148.3923965835129,227.4650386404246 147.95829844247783,228.91853620755865 148.0668229777366,230.4783580623698 151.09646625356982,238.01707102738146 151.56673923967173,238.3124607692007 153.10417015576968,238.13522705413925 153.4478311840794,238.40698525771586 153.62870540953008,238.9032370018249 148.88980070338584,240.48649593078153 147.40663205494639,240.7700614069836 146.57461061800132,240.40378914544272 146.7012225757353,241.31355911176797 144.7929994975566,242.6486574645096 144.17802713112906,242.90858554284205 144.24133311002515,243.14488306781277 143.97002177190734,243.34573541887949 140.6600234466605,244.3263602916195 140.44297437614296,244.53902435097552 140.05409479152877,244.4799510574594 138.91458717128262,244.94072159737698 133.22609278175514,246.21668779444008 133.0,246.38208933972783 134.39273153577233,255.2896422043268 135.00770390219986,255.2896422043268 137.86551666387822,254.6871730085768 138.39909562887624,255.8921068935524 138.41718305140967,256.76626333133026 138.7608440797194,257.94754074185767 138.6251884106896,258.25467003082304 138.21822140342556,258.25467003082304" stroke="#4dd2ff" stroke-linecap="round" stroke-linejoin="round" stroke-width="0.5"><title>2020-08-08 17.2km</title></polyline></svg>