<?xml version="1.0" encoding="utf-8" ?>
<svg baseProfile="full" height="300mm" version="1.1" viewBox="0,0,200,300" width="200mm" xmlns="http://www.w3.org/2000/svg" xmlns:ev="http://www.w3.org/2001/xml-events" xmlns:xlink="http://www.w3.org/1999/xlink"><defs /><rect fill="#222222" height="300" width="200" x="0" y="0" /><text fill="#FFFFFF" style="font-size:12px; font-family:Arial; font-weight:bold;" x="10" y="20">Over 10km Runs</text><text fill="#FFFFFF" style="font-size:4px; font-family:Arial" x="10" y="280">ATHLETE</text><text fill="#FFFFFF" style="font-size:9px; font-family:Arial" x="10" y="290">xiang578</text><text fill="#FFFFFF" style="font-size:4px; font-family:Arial" x="120" y="280">STATISTICS</text><text fill="#FFFFFF" style="font-size:3px; font-family:Arial" x="120" y="285">Number: 11</text><text fill="#FFFFFF" style="font-size:3px; font-family:Arial" x="120" y="290">Weekly: 1.2</text><text fill="#FFFFFF" style="font-size:3px; font-family:Arial" x="141" y="285">Total: 291.4 km</text><text fill="#FFFFFF" style="font-size:3px; font-family:Arial" x="141" y="290">Avg: 26.5 km</text><text fill="#FFFFFF" style="font-size:3px; font-family:Arial" x="167" y="285">Min: 10.5 km</text><text fill="#FFFFFF" style="font-size:3px; font-family:Arial" x="167" y="290">Max: 52.6 km</text><polyline fill="none" points="58.9417724791565,86.9398942863154 58.833495108789066,86.9151448312441 58.589871025440516,87.0 58.3137637309992,86.98232186447785 58.22714183469361,86.69593426296888 57.97810388286598,86.20800681021137 57.921258263406344,86.17972085795373 57.20392068471119,86.35650751511275 56.944054995823535,86.37065039168738 56.15633712637646,86.04536213148276 56.26461449674389,83.83894329582654 56.26461449674389,82.48458298946571 56.367477998603135,82.25118684232075 56.33770172174263,81.9258429874626 56.527187119892915,81.96120666267234 56.689603175458615,81.85157910061935 56.93593419303943,81.80560610361317 56.91427871896303,81.37062648431856 57.13083345971245,81.28221503261557 57.43130316247698,81.23270447801042 57.73989366804017,81.25038683061393 58.02141483100422,80.97454065254897 58.05389804211154,80.7871049095611 57.983517751374166,80.61381396353681 57.75342833934701,80.4369851831525 57.75613527359383,80.15759306567634 57.39881995138421,79.91710105417224 57.263473238403094,79.68014334264626 56.55696339675342,79.28756648406306 56.43515135507914,79.05413937416415 55.953317056933884,79.16024288623885 55.85045355507464,78.56605720139669 55.92895464859612,78.30079100459625 56.784345874519204,78.0249110622517 56.45951376341691,77.21493759743316 55.65014041989343,77.2184746586463 55.18454772730183,75.84251865939223 55.135822910640854,73.68469163046575 55.28741122916108,73.61040234050415 55.693451368046226,73.54318802360103 55.872109029151034,73.2990923482339 56.080542967130896,73.22126422158362 56.00474880784168,73.04791885398117 56.126560849515954,72.79320503038616 56.01286961064034,72.21301348903944 55.95873092545662,71.5903533621622 55.89376450322743,71.54436078263643 55.69886523655441,71.56205024669362 55.598708668971085,71.49483021416017 55.612243340263376,71.2577896549792 55.47418969303544,71.03136067379273 55.598708668971085,70.71647933367422 55.520207575449604,70.50419745551517 55.52562144397234,70.32375638805206 55.71510684212262,70.05839942139937 55.67179589396983,69.90626010860797 55.71781377636944,69.63736036822957 55.76653859303042,69.46398920698266 55.86128129212011,69.41445436026152 55.65014041989343,66.89865780313085 55.62848494583159,66.8137318147219 55.27116962359287,66.78542308535907 54.99776926341292,66.93758211438035 54.8028699967399,66.78188449185109 54.64586780972604,66.77834589781742 54.570073650436825,66.66864922499371 54.37788131803973,65.14699867249146 54.49969335969945,65.09037726144743 54.50510722823674,65.02313916291678 54.24253460508771,65.03729456768451 54.15320577452076,64.45337721237047 54.45367547728529,64.36844259920508 54.53488350508269,64.30120248461935 54.31020796156372,63.96499909497106 54.185688985628076,63.67125965928608 54.17756818285852,63.47661107108797 54.35622584396333,62.729853706010545 54.34539810693241,62.44317766435415 54.253362342118635,62.17773384128304 54.00432439027645,61.85211875453206 54.00703132452327,61.62560131403188 53.88792621711036,61.40262112683922 53.82837366341846,61.02036457214308 53.898753954141284,60.779681405119845 53.82295979489572,60.33370329375066 53.517076223608456,59.962048555793444 52.41535398009,60.09301326106652 52.139246685634134,58.57094702975883 51.65199851896614,58.93908350059064 51.44085764675401,59.20810274555879 51.22159597174323,59.33199217616311 51.07000765323755,59.32845248698868 50.810141964335344,59.20810274555879 50.05761424025695,59.32137310710095 49.66781570692547,59.30013495491039 48.98837520786037,59.1302290627973 48.75016499304911,59.016957801764875 48.549851857853355,58.76917505984966 46.950053710635984,56.21332421082843 45.7183986226737,55.080450315630515 45.55327563286119,54.981321312377986 45.33672089212632,54.94591799796399 43.393142093977076,55.14417588780998 43.357951948593836,52.95262737548728 38.55043670415762,52.382579623190395 37.23757358842704,51.86917101990184 35.44829004305939,51.63193713702458 33.0553601578722,51.759406379784195 31.060349608800607,52.08515804314629 30.97102077823365,52.13826930923278 30.80048391991295,52.38612033414756 30.632653995839064,52.43214952909693 27.15153653844027,52.65521284188799 26.447733631022857,52.782676663584425 25.132163581016357,53.133198691622965 24.61784607176378,53.115495681331595 24.479792424550396,52.76851405007437 24.322790237507434,52.59856203772324 24.241582209739136,52.24449148968233 23.778696451394353,51.87271180640346 23.708316160656977,51.77356958729797 23.708316160656977,51.60715137250736 23.610866527320468,51.36637404551766 23.470105945845717,51.19995301413837 23.35100083843281,50.89543495508224 23.123618360667024,50.74317448014881 22.963909239362692,50.45635561936797 22.944960699547664,50.19786161772572 22.87458040881029,49.99602190457517 22.909770554178976,49.73752295664599 22.782544643996516,49.44360981942009 22.685095010660007,49.39757490640841 22.55245523195481,49.15677546426923 22.473954138433328,49.16385783520673 22.352142096773605,48.962009446377124 22.50373041527928,48.88056137129024 22.509144283802016,48.81681920713709 22.39274611066503,48.657463057772475 22.34672822826542,48.37416063007731 22.173484435654245,47.93503527320718 22.08956947362458,47.835876825105515 22.159949764361954,47.72255238388425 21.978585168981226,47.495901899750606 21.729547217139043,46.97884748958859 21.68352933472488,46.58219547681438 21.569838095849263,46.47240671031068 21.502164739358705,46.274077345651676 21.553596490295604,46.14657903335865 21.420956711590406,45.75699666917171 21.44531911991362,45.70032961778088 21.115073140288587,44.75822032679389 21.10695233750448,44.19860410363253 21.058227520843502,44.1313076047245 21.09071073195082,43.73106664176703 21.12860781159543,43.61772285791267 21.2422990504856,43.507920557864054 21.28290306434792,43.30248264997499 21.31538627546979,42.92348052478701 21.28560999862384,42.721579757828295 21.372231894929428,42.12295173021266 21.33433481528482,41.956466730733155 21.439905251405435,41.44637785411942 21.521113279173733,40.59974812563087 21.372231894929428,39.714120273376466 21.553596490295604,38.93474077724932 22.314245017128997,36.3200922746164 22.306124214373995,35.70358900071369 22.030016919918125,34.00280833372017 21.870307798613794,33.46774619619646 21.883842469920637,33.209069500682745 22.34131435972813,33.18426473976069 23.516123828245327,33.25867894573821 21.937981155104353,33.170090579162206 21.873014732889715,33.205525964976914 21.867600864366977,33.428767694209455 21.818876047691447,33.474833189769925 21.64021838658664,33.205525964976914 21.59149356991111,33.0 23.96547491529782,33.12402449950059 23.96547491529782,33.34372347043427 24.000665060651954,33.27994010512157 24.352566514353384,33.28702715407235 25.308114307874348,33.336636438198184 25.459702626394574,33.38978912899802 25.557152259731083,35.19691067943859 26.252834364349837,38.8072035451587 26.902498586583533,41.16653283209598 27.06491464213468,41.52076648923685 27.27334858009999,42.243386968759296" stroke="#ff6b00" stroke-linecap="round" stroke-linejoin="round" stroke-width="0.5"><title>2022-07-02 34.9km</title></polyline><polyline fill="none" points="77.27607096495922,75.5080923929927 77.19818260494503,75.57930724159814 76.61401990480954,75.75225728382793 76.18563392470242,75.84381889632641 76.02985720467404,75.84381889632641 75.86629164862097,75.89468640658743 75.32886196454638,75.97607434546808 75.1652964084642,76.04728871364205 74.93163132842164,76.06763566254813 74.79922111638007,75.97607434546808 74.6356555603561,75.25375305119815 74.58892254435341,74.95871824639471 74.6045002163446,74.82646085761371 74.50324534834363,74.45003460165753 74.40199048028444,73.21900474454014 74.33189095629496,72.68996040817001 74.0826482042612,71.67255611245491 73.98139333623112,71.09262898661109 73.88792730422574,70.36008252867032 73.82561661620275,69.69874922034069 73.78667243616655,69.4749119030821 73.70099524015677,69.27142280600674 73.64647338812938,68.8644428208645 73.56079619209049,68.42693667342246 73.44396365212742,68.08099962636334 73.47511899610981,67.88768111326499 73.33491994810174,67.13475124196702 73.34270878406824,66.77863291507674 73.21808740805136,66.16814010057715 73.07788836001419,65.75096692002262 73.10125486803008,65.62886697783688 73.0,65.24221574281546 73.07009952401859,65.16081520813168 73.59195153613109,64.99801385219325 73.74772825615946,64.90643792149785 73.91129381218343,64.89626281063101 74.34746862831526,64.79451161981706 74.83816529641626,64.74363596840703 75.01730852446053,64.75381110168382 75.23539593251189,64.68258513745968 75.46906101255445,64.65205970184616 76.2946776287281,64.2959286268524 76.71527477281052,64.1636509046948 77.73561228904873,63.888919444761996 77.97706620508689,63.84821839516371 78.26525313715683,63.75664094625972 78.34314149720012,63.75664094625972 78.74816096929135,63.61418689648417 79.0441367373569,63.57348568568705 79.18433578536496,63.58366099064733 80.29813933363766,63.17664762841014 80.70315880572889,63.044367771362886 81.48204240587074,62.84085980631062 81.91821722197346,62.800158141646534 82.68152315018233,62.52542128030473 82.96971008219407,62.342262768084765 83.3357853742782,62.18963030503801 84.32496754650492,61.52821908337501 84.4340112505597,61.48751664833253 84.80787537863944,61.23312588791305 84.85460839461302,61.16189630781446 84.83903072262183,61.07031531155371 84.73777585462085,60.866801553558616 84.73777585462085,60.68363866072468 84.54305495458539,60.24608090289985 84.55863262657658,60.14432288914395 84.65209865861107,60.06291637060349 84.70662051060935,60.08326800920622 84.77672003459884,60.235905108231236 84.9558632626431,60.41906918366294 85.09606231070939,60.49029952676938 85.42319342275732,60.49029952676938 85.90610125483363,60.3478387673822 86.48247511897353,60.25625669609144 87.02769363910193,60.042564726041746 87.2068368671753,59.94080641363689 87.60406750324182,59.82887209749606 87.78321073128609,59.808520384271105 87.91562094332767,59.7372893408683 88.19601903940202,59.69658585462457 88.30506274336949,59.645706463263195 88.39073993940838,59.53377167081635 88.68671570747392,59.50324396879296 89.79273041972192,59.17761431099643 90.30679359583883,59.065678763021424 90.54824751187698,58.98427097824606 90.62613587192027,58.923215076974884 90.64950237993617,58.862159121912555 90.57161401992198,58.49582226270286 90.47814798785839,58.30247702901397 90.26784941583173,58.11930736297654 90.05755084377597,58.06842681430135 88.8424924275023,58.28212486778648 88.64777152749593,58.25159661476209 88.49978364343406,58.11930736297654 87.87667676329147,56.62340364651027 87.26914755516918,55.22923303463904 86.45910861098673,53.183720308072225 86.25659887492657,52.77664589948108 85.99956728686811,52.1253218746715 85.84379056683974,51.58593953525997 85.72695802678936,50.93460432511347 85.72695802678936,50.2018448998424 85.83600173084415,49.519964589468145 85.96841194288572,49.05180407570151 86.0852444828779,48.77701273663115 86.32669839894515,48.30884720609174 86.90307226311415,47.555704719045025 87.58070099525503,46.96539813147683 88.18044136738172,46.55828721155558 88.96711380354827,46.21224104997236 89.34097793165711,46.11046243841702 89.50454348765197,46.029039441636996 89.98745131975738,45.91708266486239 90.41583729989361,45.886548967093404 91.4984855040966,45.86619316110591 92.40199048031354,45.96797213127138 92.74469926435268,45.92726056114043 92.87710947639425,45.7847698773985 93.00173085246934,45.367474047496216 92.93942016441724,45.255516202356375 92.97057550842874,45.06213404398295 92.93163132842164,44.89928549222532 92.97836434445344,44.797504953130556 92.97836434445344,44.604121517171734 92.84595413241186,44.10539332429471 92.70575508437469,43.952720711276925 92.56555603630841,43.93236433745915 92.38641280832235,43.983255260798614 92.26179143227637,44.14610596434795 92.26179143227637,44.41073754172248 92.40977931630914,44.563409146110644 92.93163132842164,44.86875134622096 93.43011683251825,45.04177799595345 94.11553440068383,45.17409220141417 94.58286456079804,45.20462621298793 96.958459541318,45.23516021108662 97.44915620938991,45.194448210640985 98.88230203374405,45.24533820748911 99.26395499781938,45.153736186272 99.65339679791941,44.970531780680176 100.02726092599914,44.939997666057025 103.25183903070865,44.980709815929 104.45131977499113,45.02142194192129 106.00129813930835,45.001065881915565 106.17265253135702,45.031599969668605 106.53093898741645,45.16391419458523 106.95932496752357,45.194448210640985 107.62137602767325,45.21480421387241 108.00302899177768,45.17409220141417 108.88316745994962,45.17409220141417 109.47511899610981,45.21480421387241 110.33967979229055,45.194448210640985 111.1886629164801,45.24533820748911 111.98312418867135,45.255516202356375 113.03461704889196,45.255516202356375 113.32280398096191,45.27587218765257 113.79013414104702,45.27587218765257 114.02379922111868,45.23516021108662 114.23409779314534,45.29622816696792 115.93985287752002,45.29622816696792 116.67979229771299,45.39800797386124 117.24837732579908,45.37765202443552 119.46040675032418,45.45907578630431 119.52271743831807,45.42854188682395 119.55387278235867,45.255516202356375 119.61618347035255,45.194448210640985 120.04456945043057,45.26569419574662 120.4106447425147,45.24533820748911 120.82345305060153,45.286050178066944 121.36867157072993,45.255516202356375 122.15534400692559,45.33694010767795 122.5915188229992,45.255516202356375 123.1678926871391,45.286050178066944 123.32366940716747,45.26569419574662 123.42492427519755,45.286050178066944 123.7209000432631,45.27587218765257 123.97014279532596,45.32676212472143 124.49978364343406,45.32676212472143 124.7957594115287,45.367474047496216 125.48117697966518,45.33694010767795 125.9173517957388,45.357296069058066 126.59498052790877,45.316584140309715 126.87537862395402,45.33694010767795 126.95326698399731,45.316584140309715 127.0,45.26569419574662 126.9688446559885,44.92981962480553 126.9922111640044,45.01124391267513 126.91432280396111,45.10284612216492 126.71960190392565,45.04177799595345 126.33794893985032,45.01124391267513 124.62440501945093,45.001065881915565 123.91562094329856,44.89928549222532 123.63522284725332,44.939997666057025 123.48723496322054,44.909463537929696 123.1211596711073,44.909463537929696 122.98096062309924,44.878929396378226 123.03548247509752,44.96035374397616 122.94980527908774,44.96035374397616 122.83297273906646,44.919641582120676 121.82042405885295,44.889107445051195 121.5400259627786,44.950175705766014 121.27520553872455,44.919641582120676 120.53526611853158,44.939997666057025 119.8732150583819,44.909463537929696 119.68628299437114,44.878929396378226 119.60839463432785,44.919641582120676 119.47598442228627,45.153736186272 119.3513630462985,45.153736186272 119.30463003026671,45.24533820748911 119.21895283425692,45.29622816696792 118.11293812203803,45.286050178066944 116.77325832971837,45.316584140309715 115.72176546949777,45.20462621298793 114.38987451323192,45.21480421387241 111.50021635656594,45.13338016511261 109.18693206403987,45.14355817645264 108.30679359583883,45.10284612216492 106.75681523149251,45.10284612216492 106.36737343142158,45.04177799595345 106.07918649935164,44.939997666057025 104.59151882302831,44.909463537929696 103.46213760279352,44.919641582120676 101.3747295543144,44.86875134622096 99.79359584595659,44.86875134622096 99.66897446993971,44.889107445051195 99.1471224577981,45.113024137979664 98.87451319771935,45.16391419458523 98.6096927736653,45.13338016511261 98.59411510170321,45.01124391267513 98.61748160969,44.980709815929 98.92903504977585,44.99088784964988 98.96019039372914,45.01124391267513 98.91345737775555,45.07231206580764 98.6486369537015,45.06213404398295 98.70315880569979,45.02142194192129 98.97576806577854,44.970531780680176 99.03807875380153,45.01124391267513 99.03807875380153,45.14355817645264 99.42752055387245,45.14355817645264 99.66118563394411,45.031599969668605 99.81696235397249,44.980709815929 98.57074859368731,45.08249008608982 98.46949372565723,45.13338016511261 98.26698398959707,45.14355817645264 97.44136737345252,45.10284612216492 96.67806144524366,45.13338016511261 94.51276503675035,45.113024137979664 94.06101254868554,45.09266810486588 93.29770662047667,44.939997666057025 92.84595413241186,44.766970762262645 92.53440069235512,44.604121517171734 92.36304630030645,44.49216243921546 92.29294677625876,44.34966880585853 92.32410212029936,44.16646227538149 92.44093466032064,44.03414614672511 92.6356555603561,44.003611619671574 92.77585460839327,44.10539332429471 92.90826482043485,44.54305295161612 92.90826482043485,44.85857329452847 92.82258762436686,45.09266810486588 92.83816529638716,45.37765202443552 92.65902206834289,45.68299063829909 92.26958026830107,45.805125707287516 91.70099524012767,45.7847698773985 90.84422327997163,45.83565944094153 90.56382518389728,45.81530362000922 90.01860666376888,45.86619316110591 89.73041973169893,45.94761634917813 89.23972306359792,45.98832790735469 88.99826914755977,46.11046243841702 88.46083946345607,46.28348598913726 87.76763305926579,46.66006516563357 87.37040242317016,46.97557587384654 87.01211596711073,47.352151291088376 86.74729554302758,47.545527061818575 86.27217654694687,48.25795945793652 85.91389009085833,48.89914235512697 85.69580268283607,49.56067404994246 85.61012548679719,50.12042670787923 85.64128083077958,50.73106081712467 85.64128083077958,51.44346048087755 85.75811337082996,51.92178186218371 85.89052358287154,52.20673771238944 86.01514495885931,52.674876923905686 86.80960623105057,54.557578793304856 87.04327131112223,55.015525572649494 87.88446559928707,57.162746801674075 88.2739073994162,58.00737010665034 88.39073993940838,58.17018787431152 88.51536131545436,58.27194878492446 88.811337083549,58.35335740593291 89.41886629164219,58.25159661476209 89.87061877976521,58.109131256249384 90.11207269580336,58.11930736297654 90.26006057980703,58.18036397209653 90.40804846386891,58.312653107401275 90.57940285591758,58.8723351181543 90.4314149718848,58.8723351181543 90.08870618778747,58.892687106163066 89.59800951968646,59.04532682579156 88.2505408914003,59.574475252607954 87.78321073128609,59.78816866505076 87.7053223712719,59.70676172844833 87.47944612722495,59.818696241636644 86.86412808307796,59.96115808803734 86.45131977499113,60.123971268454625 85.87494591085124,60.1748503089475 85.77369104285026,60.22572931209288 85.32193855472724,60.3478387673822 85.041540458682,60.3173114237361 84.91691908266512,60.24608090289985 84.76114236260764,60.012037248001434 84.68325400256435,59.98150975652243 84.60536564257927,60.012037248001434 84.49632193855359,60.1748503089475 84.65209865861107,60.80574730969238 84.07572479447117,61.16189630781446 83.53829511033837,61.53839468842489 83.00865426223027,61.73173090037744 82.92297706622048,61.965768751630094 82.96192124622758,62.22015682453639 82.8217221981613,62.352438253656146 82.65815664216643,62.44401755683066 82.12851579402923,62.60682490824547 81.6845521419018,62.67805300431064 80.48507139764843,62.96296465699561 80.00216356554301,63.12577079014591 79.92427520555793,63.17664762841014 79.37126784943393,63.29875188787992 79.30116832541535,63.36997927329503 79.16096927734907,63.431031259729934 79.11423626134638,63.5327844509884 79.26222414537915,64.28575342641852 79.25443530938355,64.40785573321773 79.28559065339505,64.44855645438656 79.35569017738453,64.37733017666324 79.37126784943393,64.15347568481957 79.33232366939774,64.13312524066714 79.28559065339505,64.30610382582381 79.37905668542953,64.89626281063101 78.77152747730725,65.04888931697496 78.52228472524439,65.2116905535222 78.03937689313898,65.62886697783688 77.69666810904164,65.7611419054956 77.29943747294601,65.81201681049424 77.12029424490174,65.77131688946974 76.49718736475916,65.75096692002262 76.16226741668652,65.82219178703235 75.7728256166447,65.98499120836641 75.53137170057744,66.13761531879572 75.07961921245442,66.55478617372864 74.86153180443216,66.91090564995102 74.80700995237567,67.14492602445534 74.69796624840819,67.45016880451294 74.71354392037028,68.20309525177436 74.83816529641626,68.62025368351897 75.1575075724686,69.0882821082123 75.38338381654467,69.24089938993711 75.46906101255445,69.36299297356163 76.04543487666524,69.70892362667655 76.46603202080587,70.12607300194213 76.52055387277505,70.24816502745671 76.60623106881394,70.99088688563643 76.93336218089098,71.78447131547 77.01125054090517,72.0795196214749 76.98788403288927,72.23213032179046 76.93336218089098,72.28300048061647 76.59065339679364,72.37456667247898 76.45824318478117,72.37456667247898 76.13111207270413,72.50682873623009 76.02985720467404,72.50682873623009 75.89744699263247,72.59839463263779 75.91302466465277,72.7408302312324" stroke="#ffc500" stroke-linecap="round" stroke-linejoin="round" stroke-width="0.5"><title>2022-06-18 20.1km</title></polyline><polyline fill="none" points="145.09757949331834,33.83835062838989 146.34462951717433,33.81581461950009 147.3567781515012,33.88342259668934 147.68149477821134,33.8293362268123 149.94069343637966,33.77975697101829 150.76630273195042,33.85187222579589 154.44181859173113,33.8293362268123 156.52484120777808,33.68961266520091 157.4022669863043,33.716655984640965 158.72186008634162,33.58143915010078 160.5596180162538,33.68510544298624 161.21596013406815,33.55890295332392 161.60976540474803,33.59496086026411 163.83787417314306,33.39664184996036 165.5512725438748,33.42368542653094 166.25597671246214,33.39664184996036 166.89850110148836,33.279452743889124 169.09206554788398,33.24790175456474 170.1422129364073,33.31551097784359 171.0161842827656,33.2163507329351 173.41356022888795,33.17578508623046 173.63464388962893,33.09916094117216 175.04405222684727,33.13071208279871 176.28764781849168,33.0 177.35161293580313,33.018029285769444 177.77996252848243,33.14874129208329 178.5295743156894,33.60397533039395 180.7784096772375,35.533011275454555 183.24141983516165,37.75936526795522 184.32611154566985,38.58406691464006 184.86154853651533,39.133855752716045 185.84260728105437,39.967533230694244 186.09132639938616,40.287479140026335 186.29513789912744,40.74711392943391 186.38840756852005,42.20708485718933 186.34695438211202,42.76131497185452 186.41258859388472,50.73571839001306 186.33313665330934,51.07807597859755 186.33313665330934,51.95197153717163 186.4194974583079,52.49701756794457 186.3193189245212,54.83475037340213 186.25713914494554,55.08698070207902 186.3711354075058,56.11389717466045 186.44022405147552,58.50539907024904 186.40913416170224,59.24397988591954 186.31241006012715,59.56372585191093 186.3711354075058,60.15367097847047 186.34695438211202,60.77512768912675 186.27095687373367,61.11287065106444 186.37804427189985,61.45511308096866 186.38149870409688,63.305858341642306 186.27786573814228,66.9754993765182 186.31241006012715,68.79439894338066 186.23295811953722,71.0138514741775 186.26059357712802,72.61193854459088 186.17077833996154,77.35169333187514 186.1051441281743,78.3283614949687 185.70097556088876,79.00796028419973 184.52992304542568,80.29060598521573 184.0324848087621,80.34911136071241 183.92885184277839,80.42561822295647 183.47977565690235,80.91615771812394 183.41759587731212,81.4066894211901 183.09633368281357,81.74870691570504 182.37435735321196,82.22572499026865 181.62474556601956,82.5047321470156 180.944222422826,82.57673358473585 178.43975907850836,82.54973306526335 177.34124963919749,82.62623447579062 174.2391695244587,82.9187381215088 172.94030301761813,83.13473903547674 172.10433042544173,83.34623846658542 171.51707695161167,83.39123815867424 167.05740498265368,83.38673819242103 166.2076146616746,83.44973766037401 165.14019511218066,83.40023808922706 164.05204896947544,83.45423761745224 162.53209880189388,83.35073843875398 160.48362050787546,83.37773825793374 159.56474154292664,83.30573868764805 156.49029688577866,83.3687383208271 155.4366950650583,83.5217368949634 154.93234796400066,83.66123493434134 151.64718294271734,84.77269680310928 147.70567580359057,86.23058614450747 147.52259089706058,86.2440847983653 147.3084161007282,86.15409366118547 146.93188299101894,85.74013105314407 147.10115016877535,85.97861018956246 147.40859463447123,86.21258793019115 147.2427818889264,86.12709626890864 147.4051402022742,86.2260865919161 147.68494921039382,86.25308389767997 148.04421015911794,86.14959409744915 147.6607681850146,86.26658254169342 147.26696291432017,86.21708748475066 146.14081801743305,86.43306533305804 145.79882922973775,86.75702927402563 145.41884168783145,86.93250832337799 143.92307254565821,87.0 141.17334451520583,86.96850390259715 139.90211346597061,86.644542179587 139.0315965517948,86.14059496799564 138.42016205257096,85.58264382152629 138.05399223946733,85.14167530099985 136.7793067580351,83.1707390409374 136.76894346142944,83.07173892495302 136.5858585548849,82.91423808640866 136.11951020800916,82.23022512569514 135.68079731870966,81.47419317408458 135.30426420904405,80.32210889348607 135.29735534462088,80.05208292259158 135.81206574228418,79.32750156487418 135.2282667006366,78.96745481528524 135.82933790329844,79.277995385748 136.07805702161568,79.0304632995194 136.11260134360055,78.71541959257956 136.0469671318133,78.51739047438969 135.60479981034587,78.26985229061938 135.3215363700292,78.00880987426535 135.05899952289474,77.50472172106674 134.57883344723086,71.92319567052982 134.76191835378995,71.31096688093021 134.8068259723659,70.93281950325036 134.45792832027655,70.19001652351471 134.39920297288336,69.93790963089123 134.42338399827713,69.20858881048298 134.41992956606555,69.87938452202798 135.43898706480104,69.80285151990756 135.49771241217968,69.71281245091814 135.45280479358917,69.61827114580046 135.5115301409678,69.74432615494334 135.3871705818019,69.79834957270214 135.44244149699807,69.76683592383779 135.31808193781762,69.73082028573299 134.43374729486823,69.81185541235027 134.36465865088394,69.46520365684592 134.3266598966875,66.16056157802268 134.38538524408068,65.88590918402406 134.69628414198814,65.8048637482043 134.72737403179053,65.66528499870765 134.59610560821602,64.94036585514004 134.35084092208126,64.5306214146949 134.26448011711182,63.27884096112757 134.3335687610961,61.98197887455353 134.38538524408068,61.522660480372 134.67210311660892,61.428094079788934 134.69282970980566,61.2794891503745 134.88973234515288,60.97327067507467 134.90009564174397,60.69406882808653 134.6548309556092,60.14916762329449 134.43374729486823,60.06360374990618 133.79467733803904,60.15367097847047 133.76704188044823,60.32029465812775 133.57704810950963,60.59949988771223 133.55977594852448,60.766121159531394 133.5908658383123,61.067838469763956 133.83613052444707,61.410081399180854 134.1746648799308,61.48663521908202 134.68246641321457,61.437100416131216 134.9622754213342,60.86969609116204 134.92427666713775,60.63552618489666 134.7066474385938,60.324797988338105 134.6755575487914,60.17168439263514 134.4302928626712,60.045590272642585 134.37502194748959,59.92399902598481 134.28175227811153,53.7942784635452 134.29902443911124,53.60059367013491 134.45101945585338,53.44294235892448 134.47174604905013,53.271777165746244 134.3370231933077,52.95647037578601 134.25757125271775,51.217720745757106 134.3059333035053,49.78971055458169 134.24029909171804,48.10934888787051 134.31629660011095,45.000663640532366 134.28520671030856,43.99139986934097 134.06412304958212,41.10760700753235 133.98121667679516,38.75531366993346 133.60468356710044,36.24960835260208 133.77049631265982,36.01074451173372 134.66173982000328,35.66371261376662 136.8933030205808,34.57752258340224 138.17835179864778,34.06821697748637 141.587876379097,33.84285782817824 142.80729094536218,33.87440820830125 143.99561562182498,33.793278594142976 144.50687158729124,33.65355486903536 145.0768529001216,33.793278594142976 146.42408145776426,33.76172813096309 148.00275697272446,33.788771387102315 147.7022213714081,33.82032182260264" stroke="red" stroke-linecap="round" stroke-linejoin="round" stroke-width="0.5"><title>2022-05-01 52.6km</title></polyline><polyline fill="none" points="29.518611449217133,93.0 29.67505008430453,94.26545553977485 29.726536217371176,95.53082022608214 29.680990791966906,96.03797566285357 29.726536217371176,96.31483497377485 30.144365989566722,96.3510592348157 30.26119990690495,96.80903097263217 30.698832037967804,96.87889002233715 30.635464489583683,96.87889002233715 30.746357699259534,97.90345761403296 30.20179283028847,98.01470758183132 29.241378425016592,98.28894869027135 29.029493185080355,98.40795765533767 28.76018110442965,98.63562474145692 28.45918524957233,99.05214441467433 28.631465771759395,99.34447843297676 28.76018110442965,99.68078591000813 29.702773386721674,101.23547787879397 30.5522945823177,102.76934078437625 30.958242939188494,103.33836223758772 31.306764455337543,103.90736533362906 31.556274177113664,104.45307378607686 31.837467673089122,104.80221488750612 32.91273575982632,106.61763722939031 32.95036024168803,106.85812788503608 32.82164490901778,107.17619113663386 32.86322986264713,107.42443164163706 32.976103308217716,107.54337897918776 33.14046288684767,107.57440858753944 33.5543321872683,107.8614298777702 33.81572332436917,108.13034648962275 34.61771885867347,109.4852101524848 34.84148551392718,110.02040434850096 35.136540661122126,110.43406990039875 35.14644184055214,110.50904574366177 35.06723240506835,110.72104468023826 35.09693594338023,110.83479915731004 35.231591983705584,110.96923532127221 35.5147657155685,111.10884102302771 35.80586039098853,111.53023672151176 36.60983616116573,113.01667494907815 36.918752959572885,113.47421421589752 37.17420338901138,113.96276000162106 37.908870903149364,115.18018829083121 38.00590246162756,115.39988509060822 38.07125024590641,115.72813286223936 38.05342812292656,115.87545468105054 37.97223845154804,116.04862086128196 38.03758623582689,116.20627814531508 38.19798534268193,116.30965920667222 38.267293598735705,116.56810921179022 38.78413516528235,118.83196955472704 38.81581893948169,119.48574735457623 38.81581893948169,119.33845565411866 38.938593564489565,119.31261487824486 41.11091233271145,119.30744671853245 41.24952884481172,119.31778303644205 41.376263941594516,119.39272116036409 41.45349314119812,120.99218667180685 41.4713152641707,122.76460769317237 41.53270257667464,123.4854102712161 41.52082116135716,123.95042858524357 41.64755625813268,126.47681420389927 41.90696715935337,126.53105778655845 43.263428742066026,126.53880685620607 44.087206871132366,126.47681420389927 44.84959768769477,126.50781055723564 45.78426902642968,126.44581779618966 46.83775451839756,126.45098386791688 47.73678161118005,126.37090958641238 48.62986799630016,126.34507909561944 48.9764092765472,126.4561499381307 49.158590978164284,126.7144515233449 49.19423522413854,126.91592413873695 49.196215460025996,127.53582547142469 49.079381542680494,127.97232627957419 49.0694803632432,128.14537391145677 49.10314437333,128.44755750417244 49.20215616768837,128.79105907396297 49.15463050639664,129.366990334187 49.26156324430485,129.94806787764173 49.289286546721996,130.48264234640192 49.24176088543027,131.14890093675058 49.29126678261673,132.1688993525404 49.229879470105516,132.77312382099262 49.33285173623153,132.94870654625265 49.36057503866323,132.91255730419107 49.56453933503508,132.87382589138542 49.33285173623153,132.94612445998973 49.43186353060446,135.2621043206109 49.40810069995496,135.81975315267482 49.49523107898858,136.6458672481367 49.46552754068398,136.92467204551212 49.51899390963081,137.25252021195593 49.60612428867171,137.4719427551754 49.734839621334686,138.43478832181063 49.67345230883075,138.78067714934332 49.356614566881035,138.83230176737925 49.40414022818004,138.8606952430673 49.67345230883075,138.8581140198894 49.74672103665944,138.99491832935382 49.917021322959044,139.15237103623804 50.944763748397236,139.45436656834136 51.006151060901175,139.49308357137124 51.039815070980694,139.58084179784964 51.0635779016302,140.03769376766286 51.03387436331832,139.99897795660763 50.98238823025167,140.05318006836205 51.0239731838883,140.0015590133171 51.06159766573546,140.0170453456485 51.07347908106021,140.7629543003768 51.31308762340632,143.11403936271927 51.392297058897384,143.75401720463014 51.54081475043495,144.4662233969575 51.51507168390526,144.71910130866672 51.285364320989174,145.3151563749907 51.117044270577026,146.1098652363853 51.018032476225926,146.20533110781798 50.78634487742238,146.2440333414288 50.45564548426046,146.1666287895714 50.319009208047646,146.2672546409758 49.722958206009935,146.18210972702582 47.954607558771386,146.0402006268323 47.70311760110053,145.9731159288349 47.26746570591786,145.9937574014566 46.89518135913386,145.942153674765 46.61002739138348,145.97569611423205 46.42982592564658,145.9550546205428 43.736705119103135,146.04536097768505 42.74064646784973,146.12018589595937 42.65747656059102,146.15114783857825 42.45549250009935,146.13050654951803 42.23568631662056,146.17436925998845 40.718825627052865,146.2440333414288 40.25148995767813,146.31111701254122 39.58811093548138,146.33949848916745 39.0752298406951,146.42722276552922 38.03164552816452,146.53558744779184 37.51876443337824,146.55106806253025 36.39597068535659,146.69555314712125 35.56229137686023,146.70587346516913 34.93059612885554,146.82713675151717 33.962260780026554,146.91743865909848 33.53651006428845,146.90453841479575 33.209771142901445,146.94581916347306 33.06521392313152,147.0 32.976103308217716,146.9845197779141 32.92857764692599,146.84003705223586 32.83946703199763,145.9034507810029 32.716692406997026,143.3566143332464 32.71075169933465,142.71404145680026 32.795901842480816,142.2650007758839 32.784020427156065,141.97079552966352 32.83352632433525,141.81594869817854 32.7860006630508,141.67658539109289 32.74243547352671,140.99523786419013 32.716692406997026,139.80023545928816 32.74837618118909,139.75893803679355 32.976103308217716,139.71247832124573 33.25927704008063,139.6969917222741 33.74245459654776,139.60923407203154 34.14444248164364,139.4362986045926 34.00384573365591,139.2969165496197 33.96028054414637,139.20657574217694 33.9206758263972,138.75486478381936 34.14246224575618,138.74195858692838 34.18404719938553,138.70582118555103 34.07909469736478,138.1689139534992 34.07909469736478,137.87980330844402 34.13454130221362,137.67071141494125 34.04543068729254,137.53131544596545 34.01572714898066,136.94790558023487 34.09691682035191,136.78268867015868 34.055331866722554,136.44450549421708 34.06919351792749,135.7603747154517 34.08503540503443,135.59772840985715 34.11473894333176,135.58223820748935 34.055331866722554,135.06330858682668 34.04147021551762,133.42638601777435 33.976122431238764,132.74988480021239 33.934537477602134,131.15148328553005 33.962260780026554,130.81835717806644 33.90879441107245,130.3767617307658 33.92463629817212,129.94806787764173 33.88701181631768,129.4625466204434 33.90681417519227,129.02608261718524" stroke="red" stroke-linecap="round" stroke-linejoin="round" stroke-width="0.5"><title>2021-10-30 46.5km</title></polyline><polyline fill="none" points="94.782313557429,93.0 94.82382443299866,93.36165567072203 94.76386427940452,93.37371074999282 94.81921211349254,93.42193099628093 94.80306899521383,93.45508234989029 93.75376630731625,93.48220614483034 93.72609239026497,93.53042613621801 93.70994927200081,93.76248326035056 93.8321757389349,94.83533663917297 93.81142030115006,94.77807902704626 93.79527718288591,94.85643150864234 93.80450182189816,96.45355152884622 94.28879537015746,96.48368467451837 94.38796023956093,96.78501369854894 94.42255263586412,97.06524572161652 94.83766139151703,97.07729862605083 95.00139873403532,98.35185333232039 94.09046563133597,98.60494697848117 93.99821924119897,98.66520691058577 93.26024812004471,98.78873921849299 92.90971183747752,99.05387922348382 92.51766467936977,99.49376304321959 92.39313205267536,99.58113610478904 92.3769889344112,99.63838032284912 92.43925524775113,99.60825180690881 92.33547805884155,99.65645741117805 92.56378787444555,100.02703421493425 92.64219730606419,100.27709445792061 93.79527718288591,102.21420498402404 94.15273194469046,102.73234354407214 94.20807977877848,102.8980246276642 94.31185696768807,103.02153147500576 94.77078275865642,103.88605861132419 95.52489699808939,105.03970887695323 95.999965907351,105.95836574972964 96.28592971678881,106.29871016127436 96.53730112993799,106.73241522266107 96.50962721290125,106.76253328969688 96.85324501618743,107.22333420958057 97.13920882562525,107.79254460602897 97.3006400083832,107.98830115082637 97.32600776567415,108.10575418242297 97.54509294226591,108.4822016819453 97.60505309586006,108.70806687095137 97.58429765807523,108.85864228422543 97.44362191311666,109.09956065019105 97.42517263507762,109.33746476450688 97.59352229710203,109.56030915784868 97.66731940921454,109.5121267911054 97.88871074555209,109.6054800240654 98.3545550157869,109.85542368885763 98.46525068396295,110.00900202306366 98.6174572276941,110.32217781430336 98.8826655993762,110.69858470900726 99.57451352545468,111.86690779684432 99.76592478499515,112.39985786645047 100.13952266509295,112.89967418654123 100.11646106754779,113.16162125874143 100.02652083715657,113.33022910234467 100.0634193932201,113.42356499240668 100.23638137475064,113.56507343661906 100.50389590616396,113.64937587646455 100.61920389384613,113.79690431413474 101.68926201952854,115.56415246313009 101.71232361705916,115.72370912763836 101.9936751070054,116.09098579986494 102.24504652014002,116.50943237197316 102.50564257231599,117.03022088465877 103.08679483021842,117.95135207712156 103.22055209592509,118.08078877413755 103.50420974563167,118.83030153312029 103.52727134316228,119.17344283488455 103.4234941542527,119.51356847381248 103.47884198832617,119.56774725963623 103.47653582858038,119.65202508715811 103.64719165035058,119.74533227899337 103.77633659655112,120.2269110530051 104.29983486063429,122.57745557109956 104.35287653494743,123.29370126178765 106.8988769029529,123.22448533004717 107.256331664772,123.24254168252628 107.3578026939067,123.31175755350341 107.66452194115845,131.45954647961298 107.58150019001914,131.52572653137213 104.13840367786179,131.57385734441414 103.15597962283937,131.5528001275561 102.31423131276097,131.5949145397335 101.87144864005677,131.73328985860644 100.77602275709796,132.2747495539952 99.41077618295094,132.7379870967543 99.24242652092653,132.85229086058462 98.69125433982117,133.04780898493664 98.55749707409996,133.11699187634622 98.43065828765975,133.31551540401233 98.35916733529302,133.87197266162366 98.23694086835894,134.02236393254861 98.08473432461324,134.06748109953696 98.26461478539568,133.99830140304402 98.37300429382594,133.7847452209826 98.4237398083933,133.90505883551305 98.43757676692621,134.67504931507392 98.54827243508771,135.90516964940798 98.49523076076002,136.47358673162853 98.55288475460839,137.21040033103782 98.59439563017804,137.28558390943545 98.54827243508771,137.46000875391837 98.58055867164512,137.56827170720317 98.61284490820253,139.45075315736904 98.68433586055471,140.57835530476586 98.64051882523927,140.7106565757931 98.712009777606,140.8820455948844 98.71431593735178,141.83818973466623 98.67049890203634,142.00656272182096 98.73045905563049,142.7070998358431 98.68664202031505,143.38656800514036 98.575946352139,143.6300887506277 98.67511122154247,143.75635763323953 98.65666194351797,144.24940014310232 98.712009777606,144.43879748174004 98.6105387484422,144.60414294078328 98.70970361784566,144.94685475647566 98.70509129833954,146.22746423651188 98.60362026917574,146.50702332475157 98.39145357185043,146.68738201346423 98.00171257348848,146.7835726684625 97.85873066875502,146.73848335484763 97.85642450900923,146.84669754170136 97.84489371023665,146.7535131370205 97.71113644452998,146.74148931216223 97.25451681332197,146.81663810237296 97.21069977799198,146.77154886115022 97.18302586095524,146.53407722872726 97.20147513897973,146.77756076567493 97.2821907303587,146.80461431436743 97.74342268107284,146.72345356172627 97.84489371023665,146.77756076567493 97.83105675171828,146.92485187868442 97.88640458579175,147.0 98.38453509258397,146.91583408570114 98.8134808067698,146.71744164139454 99.27701891724428,146.61824470276224 100.20409513819322,146.56714306311005 100.22946289548418,146.52806525313463" stroke="#ff8e00" stroke-linecap="round" stroke-linejoin="round" stroke-width="0.5"><title>2021-09-11 29.2km</title></polyline><polyline fill="none" points="141.2922469044861,93.0 141.42823585812584,94.10669199516269 141.70021376531804,94.18747156091194 150.71257260005223,94.32479655049974 153.19128034537425,94.15515974883965 154.18647223318112,93.96936646113318 155.47218597639585,93.96936646113318 155.99759784262278,94.09861403204195 156.22012522123987,93.94513250778618 156.23248785341275,96.7965877480674 156.45501523202984,97.84666150866542 156.57246023742482,99.63174090759276 156.67754261067603,99.59135513616275 156.7455370874959,99.76097517690505 156.9124326214369,102.0306025550235 157.21531710904674,103.16941945431608 157.25240500547807,103.98515324176333 157.20295447690296,104.63934684834021 156.86916340896278,105.56812688129139 156.60336681781337,106.95722950116397 156.40556470345473,107.32872774744465 156.27575706591597,108.35437292954157 156.3746581230953,109.22656009262573 156.83207551250234,111.10817606245473 157.26476763762184,113.95874208402529 159.04498666670406,119.22342208208647 160.2132554045238,123.05856980129101 160.65831016178709,125.06888787619027 160.56559042070876,125.53714419661992 160.77575516718207,125.81971073915702 160.96119464939693,126.42520558992328 162.1727325997199,132.01159062592706 162.37053471407853,134.3041048615596 162.72905104630627,135.64405138350048 162.8155894713418,138.54177604770666 162.89594658030546,139.09063151208102 163.00721026962856,139.17941644089296 162.91449052855023,139.71212300823754 163.01339158570045,140.50310204266498 162.8774026320607,140.761378450934 163.06284211427555,142.60963365361386 163.0875673785631,144.32062685684286 168.8918231712596,143.57812689995262 169.47904819823452,143.65883390181625 169.93646558764158,143.93323682368282 170.31352586811408,144.40133277082714 170.6782235164428,145.16803305633584 171.25308591124485,145.7491040588102 173.10129941711784,145.7168224972702 173.58344207084156,145.98314481437774 174.33138131568558,146.0477076064235 175.41311162849888,145.66840011945533 176.24140798233566,145.7491040588102 176.73591326814494,145.85401900322904 176.90280880214414,146.0396372615578 176.89044616997126,146.27367678273004 176.62464957885095,146.57227748684454 176.7544572163897,147.0 178.02162701138877,146.64490984579606 178.35541807932896,146.1849032882892 178.6583025669097,145.42628759191575 178.7077530954848,142.66612956069002 162.14182601933135,130.52624876254777 160.40487620281056,122.56607104619616 157.56765212520259,113.57113837968427 156.7517184035387,109.24271157643307 156.66517997850315,107.94250196426219 157.51820159659837,104.51820047094225 157.6109213377058,103.63786211743354 157.27094895369373,102.12752405980063 156.91861393753788,99.30057670692258 156.75789971961058,98.71093795217894 156.51682839274872,98.92902425536886 156.67754261067603,97.66088068721001 156.48592181238928,96.59464818866763 156.5848228695686,95.27798408954914 156.1459494283772,95.36683971353341 154.01957669921103,96.9742939472053 153.53743404548732,96.36847500217118 153.41380772402044,94.23593924343731 151.15144604124362,94.42980954653103 148.31422196363565,94.42173163087136 147.87534852244426,94.51866654042533 147.9000737867609,95.1810505179019 147.99279352781014,95.14066147931226 147.88771115458803,94.54290024114744 147.9618869474507,94.47019910700692 150.4529573249456,94.44596537426332 150.60749022680102,94.89832662502886 150.70639128398034,96.33616447101667 152.55460478985333,96.43309600746943 152.90693980600918,96.39270788802241 152.9996595471166,96.27962099590513" stroke="#4dd2ff" stroke-linecap="round" stroke-linejoin="round" stroke-width="0.5"><title>2021-08-29 19.2km</title></polyline><polyline fill="none" points="14.976878612709697,186.17523802594587 14.449710982647957,183.05645607645783 14.70635838151793,182.8841931782772 14.657803468231577,182.34926848235045 13.381502890173579,175.6396496721718 13.24971098266542,174.51526379954157 13.326011560682673,174.34297705724748 31.08323699425091,173.2094996542146 33.21271676302422,173.2367033557639 35.51560693641659,172.90119019854683 36.50057803466916,172.64728713715886 41.00231213873485,172.14854593899145 48.569942196510965,170.80645869463115 55.88786127167987,170.14447247858698 58.780346820829436,169.69105316359855 61.98497109825257,169.4280684340738 65.39075144508388,168.97464385413332 66.2716763005883,169.02905497968095 66.4104046242719,171.2870743738349 66.341040462401,173.00093754396585 66.69479768784367,175.12279742026294 66.76416184971458,178.19664449419724 66.95144508668454,179.76524491060263 67.0,181.5514060835194 66.85433526008273,182.63939770638535 65.42543352599023,182.93859204017645 63.746820809232304,183.03832316244734 59.675144508626545,183.57324188606435 54.341040462401,183.972161306021 49.40924855490448,184.79719101653973 48.85433526011184,184.77905861393447 48.52138728322461,184.55240313224203 48.23005780344829,183.536976356394 47.473988439305685,183.04738962010015 41.40462427746388,183.60044101932726 40.07976878611953,183.89056436170358 37.78381502890261,183.96309498418486 34.031213872804074,184.39827692919425 31.77687861272716,184.407343187082 31.319075144536328,184.52520441847446 29.0508670519921,184.606800523743 28.07283236994408,184.5342706577103 26.98381502891425,184.7155951629611 23.002312138705747,184.7155951629611 21.455491329485085,184.91505150348166 19.825433526013512,184.86065438362493 19.208092485525412,185.01477943197824 17.071676300576655,185.0963748900067 14.900578034692444,185.3502267362419 15.164161849708762,186.76452505267662 15.316763005772373,187.0455676531892 15.351445086678723,187.84335903076135 15.247398843930569,188.0881338634572 15.732947976881405,189.93751233777584 15.726011560705956,190.49956736573586 15.566473988408688,190.67180901109532 14.664739884407027,190.92563792825968 13.77687861272716,191.02535614586668 13.284393063600874,190.92563792825968 13.0,191.02535614586668" stroke="#4dd2ff" stroke-linecap="round" stroke-linejoin="round" stroke-width="0.5"><title>2021-08-28 17.3km</title></polyline><polyline fill="none" points="124.66264428116847,173.61507102550968 115.1998950681882,173.78167035045772 111.13431269675493,173.61507102550968 109.73189926549094,173.33740499480336 99.20671563484939,173.2448495153003 97.06768100737827,173.74464829731733 90.4522560336045,173.74464829731733 87.66159496328328,173.59655997583468 85.83420776494313,173.0597383526183 85.06925498432247,172.43035836637137 85.25341028330149,171.61586195584096 85.8483735572081,171.65288463407342 86.2025183630758,172.26375725589605 86.16002098633908,174.7442399177453 83.08604407141684,175.26254356408026 81.32948583422694,175.15147867641645 79.65792235051049,175.35509756243846 77.85886673670029,176.09552710368007 76.1023084995104,177.29871583468048 74.77072402945487,178.74252715709008 73.31164742918918,182.53708065889077 73.26915005251067,184.4065503975071 73.63746065064333,186.16493723390886 78.05718782794429,197.01086557978124 78.68048268632265,197.38101732256473 81.18782791192643,197.04788080290746 81.6552990556811,197.30698706084513 81.01783840503776,197.06638841038512 78.53882476396393,197.5475852523232 77.91552990558557,197.06638841038512 73.46747114375466,186.1279188163171 73.0,183.24044876324479 73.24081846809713,181.24139230156288 73.8499475341523,179.72356900717568 75.2523609654163,177.7984985479343 76.99475341028301,176.37318706061342 79.07712486892706,175.31807597124134 80.46537250786787,175.003392007231 85.9050367261516,174.78126167743176 86.21668415534077,174.15189028442546 86.1033578174538,172.31929098387627 85.93336831062334,171.76395260365098 85.38090241339523,171.3752142821395 84.94176285417052,171.8194865517653 85.0550891921157,172.35631345555157 86.86831059819087,173.1893161950793 88.58237145858584,173.4669825519086 97.1526757607935,173.57804892346758 98.83840503671672,173.09676060686616 108.93861490034033,173.1152717299119 111.31846799579216,173.4854936206175 124.83263378805714,173.4854936206175 125.5550891920575,173.78167035045772 126.9008394543198,173.72613726661075 127.0,167.35818144181394 126.57502623298205,163.26697035870166 126.77334732422605,162.63754148506996 126.51836306403857,162.45241474766954 124.96012591815088,162.73010475175397" stroke="#4dd2ff" stroke-linecap="round" stroke-linejoin="round" stroke-width="0.5"><title>2021-08-24 10.5km</title></polyline><polyline fill="none" points="137.64160646504024,194.11502455656228 137.46969511450152,193.57062447995122 137.44324721442536,192.585506775682 136.37210726094781,186.1127004098853 136.0415085098648,182.77663692093847 135.65801395862945,181.21225183596107 135.45304273293004,178.68840476870537 135.1555038569786,177.84997955414292 135.20839965718915,177.46101534475747 134.81168115590117,174.57395614404595 133.29753887598054,166.26638739784175 133.0,163.9061667987662 133.0,165.29810322821868 133.34382270110655,167.2433008032349 133.31076282600407,167.5718167089326 134.55381413004943,173.83055867566873 134.63976980533334,174.97158349091478 135.04310028161854,177.18441700866606 135.2745194073941,177.83269231058512 135.4332068079093,177.91912847767526 154.8195175707515,176.8991736122298 160.59838373944513,176.10394229361555 169.20056324233883,174.68632936241193 173.38594343091245,174.20225858444974 174.28517203382216,174.20225858444974 174.43063548431383,173.8392028862836 174.6686665850866,173.847847095607 174.41079955920577,173.78733760358227 174.3446798090299,174.0293751981626 175.05877311131917,174.11581695480345 183.5948328639788,173.02664153581645 185.87596424639923,172.8364659814979 185.71727684588404,172.853754693675 185.67760499575525,173.02664153581645 185.5784253704478,175.20497220335164 185.71066487085773,176.09529841587937 185.6577690706763,176.942392397581 185.92224807152525,177.85862317404462 186.05448757193517,179.37988048895568 186.29251867273706,184.07305712434027 186.24623484758195,187.14113779095715 186.54377372356248,188.6621550783202 185.88257622139645,188.9214154660258 184.81804824294522,189.0683291786081 186.8347006244876,188.94734144197355 187.0,190.260909269462 186.9933880250319,191.4793900477489 186.92726827479783,191.60037257767908 186.35863842297113,191.66086374935185 186.96694012495573,191.65222215721587 186.90082037472166,194.16687192022437 186.7156850741012,194.25328409145004 183.93204359008814,194.18415436460782 182.68238031104556,194.02861218230464 180.63928002942703,193.51877659090678 180.1037100526737,193.5101352716265 173.63719848173787,194.8322423653226 166.6747887841484,196.09383320123743 166.52932533371495,196.01606468542013 166.4698175585072,195.68770759661857 166.17227868249756,191.84233689123357 165.9408595567802,191.60037257767908 165.6962164810102,191.548522952442 162.99191869719652,191.7732043317592 162.76711154647637,191.68678851818913 159.75205093671684,192.0324510110113 159.44128811071278,191.91146936949735 159.0908534345799,192.10158326587043 158.20484878169373,192.2571305423844 156.8560058773437,192.41267740764306 156.4460634260322,192.37811147313187 156.28076405046158,192.222564516469 155.6790743235033,192.44724332186888 154.20460389374057,192.65463838075448 152.47887841315242,192.59414823073894 151.0969756336417,192.7410527728607 150.482061956689,192.6287140383647 149.9597159299883,192.78425992134726 147.06367087061517,192.96572959842888 145.96608301706146,192.89659835887142 145.14619811438024,193.01757797479513 144.87510713850497,192.9311639887892 140.90131015059887,193.2768191713294 139.90951389740803,193.19904693229546 138.7656422186992,193.423722009029 137.5093669646012,193.5101352716265 137.71433819030062,194.94457689292176 137.5093669646012,195.15196314965942" stroke="#ffb300" stroke-linecap="round" stroke-linejoin="round" stroke-width="0.5"><title>2021-08-07 23.0km</title></polyline><polyline fill="none" points="13.0,230.79746552819415 13.070496083528269,232.2796910435136 15.95202349871397,232.21075094106345 16.683420365530765,232.04989046713308 20.10248041775776,232.06138051187736 20.21703655354213,233.290805605684 20.2875326370704,237.30066609098867 19.92624020887888,241.57456174000254 16.753916449059034,241.44818643579492 16.73629242819152,241.32181092863175 15.960835509118624,241.42520908598817 15.132506527384976,241.26436744920647 13.634464751958149,241.31032223608054 13.484660574409645,241.54009576805402 13.378916449088138,241.98815222564735 13.511096605740022,242.01112941110478 13.528720626607537,242.29834366332216 13.281984334200388,244.10202520430175 13.361292428162415,244.6419727843604 13.511096605740022,244.7453665791909 13.687336814618902,249.0762957417246 13.872389033902436,249.46687180119625 16.586488250643015,249.6621591041112 17.564621409896063,249.53579678696406 22.77251958224224,249.71959645390598 26.473563968669623,249.54728427871305 29.63707571802661,249.1107584131969 34.11357702352689,249.14522106954246 39.048302872048225,248.83505661899108 39.127610966039356,246.35369700683805 38.80156657961197,240.79332933602564 38.82800261097145,237.61087600770406 38.81037859010394,237.49598358857475 38.598890339402715,237.61087600770406 38.81919060047949,237.57640829955926 38.36096605742932,231.61326752275636 38.10541775453021,231.4294255581117 36.58975195820676,231.41793542108644 29.002610966039356,231.8315792978392 28.50032637073309,232.40608107440494 28.42101827674196,233.3597447617576 28.650130548281595,240.873750676903 29.23172323757899,249.1911712545625 30.87075718017877,249.0303454896566 35.27676240206347,249.08778330055793 42.61716710179462,248.68571774385782 46.19484334200388,248.72018058636604 48.13348563967156,248.20323636438843 50.503916449059034,248.22621173525113 51.40274151432095,247.78967854196526 51.42917754565133,247.34165511524043 51.8433420365036,246.9740442447437 51.83453002606984,246.16988947876234 52.046018276771065,245.77929705607676 51.99314621408121,242.8038382011 51.78165796340909,242.28685511336516 51.94908616185421,241.58605039396934 51.76403394254157,240.6209976144819 51.940274151420454,240.19591108772875 51.869778067892184,238.6678783925454 52.05483028717572,238.36916176663362 51.75522193207871,237.97853062164359 51.68472584855044,236.6917319570639 51.81690600520233,235.12916242871142 51.65828981719096,233.99168421083596 51.71116187988082,230.5676606223351 51.72878590077744,232.84269961895188 51.905026109627215,233.01504837742687 51.869778067892184,237.61087600770406 52.125326370762195,241.39074304860696 52.09007832896896,245.40019079184276 52.433746736263856,248.35257615506998 57.62402088774252,248.37555148233514 59.35117493470898,248.16877329553245 60.75228459527716,248.1917486764578 61.0871409921383,248.0538962903447 61.97715404696646,248.18026098686096 65.29046997384285,248.11133481389697 66.70920365533675,248.06538399842975 67.0,247.8586049966325 66.81494778062915,241.47116377892962 66.62108355085365,240.3912213986914 66.71801566577051,238.15086813052767 66.58583550908952,234.72702554403804 66.25097911222838,230.8434264288153 65.924934725801,230.55617035942123 65.41383812009008,230.42977735664317 63.05221932113636,230.4757384720433 61.14001305482816,230.28040354608675 59.57147519578575,230.46424819571257 59.90633159264689,240.06953356935264 66.66514360310975,240.13846678636764" stroke="#ffc000" stroke-linecap="round" stroke-linejoin="round" stroke-width="0.5"><title>2020-12-19 20.9km</title></polyline><polyline fill="none" points="75.27901524031768,248.4141377424603 76.4727851281059,247.37449147726875 78.44431418523891,247.19727770682948 80.31636241835076,246.2993886095428 80.65097973536467,245.82681137922918 80.48819293250563,244.46813639358152 84.22324568749173,243.27484641101182 85.86015742755262,242.44780337471457 86.90922793501522,241.5380462236135 86.7012225757353,240.51012642527348 87.38854463241296,240.8055070212722 88.87171328085242,240.59283310137835 93.48400602914626,239.16317717097263 93.33026293752482,238.15885823871213 91.37682130298344,238.12341145928076 90.38201306317933,236.29197329033195 88.10299782280345,230.78559213776316 87.92212359741097,229.72208457373927 87.95829844247783,227.61866157478653 88.17534751293715,227.09870584469172 89.03450008376967,226.0469669418162 90.07452687993646,225.0779369136726 91.07837883103639,224.5106944113286 92.79668397252681,223.9670832623524 95.6092781778425,223.87254181822937 96.10668229777366,223.7189117346934 96.30564394575777,223.3407441260715 96.21520683303243,222.44258893513324 95.9981577625149,221.86350988004415 95.69067157927202,221.74532996917696 95.70875900186365,222.19441270732204 96.32373136829119,222.6316750713013 97.12862167140702,222.87984995097213 98.32239155919524,222.97439256100188 102.82615977223031,223.02166382438008 104.96047563222237,222.71440011623054 111.0740244515473,222.7734893819288 113.30782113550231,222.96257474084268 125.10986434441293,223.15165965553751 127.0,223.04529944567184 125.69770557695301,223.31710859154555 121.17584994138451,223.15165965553751 121.93552168813767,223.15165965553751 122.18874560378026,222.97439256100188 122.12543962488417,222.79712507611112 120.83218891307479,222.7734893819288 120.06347345502581,222.26532027908252 120.09060458885506,222.5371320587583 121.80890973040368,223.0098460111185 117.84776419360423,223.11620626787044 112.36727516329847,223.0098460111185 111.30011723330244,222.8325786042842 104.56255233631236,222.80894292057928 102.97990286385175,223.12802406547416 97.49037012225017,223.0689350599714 96.11572600906948,222.5962214546089 95.69971529056784,222.17077683623938 95.78110869199736,221.87532786158408 96.15190085413633,222.11168712807557 96.35086250212044,222.74985368083435 96.27851281192852,223.37619741484377 95.91676436108537,223.80163566225383 94.06280355050694,224.33343030957622 90.77993635908933,224.8415863568007 90.13783285883255,225.17247694214166 89.01641266117804,226.37785257250653 88.39239658351289,227.4650386404246 87.95829844247783,228.91853620755865 88.06682297773659,230.4783580623698 91.09646625356982,238.01707102738146 91.56673923967173,238.3124607692007 93.10417015576968,238.13522705413925 93.4478311840794,238.40698525771586 93.62870540953008,238.9032370018249 88.88980070338584,240.48649593078153 87.40663205494639,240.7700614069836 86.57461061800132,240.40378914544272 86.7012225757353,241.31355911176797 84.7929994975566,242.6486574645096 84.17802713112906,242.90858554284205 84.24133311002515,243.14488306781277 83.97002177190734,243.34573541887949 80.66002344666049,244.3263602916195 80.44297437614296,244.53902435097552 80.05409479152877,244.4799510574594 78.91458717128262,244.94072159737698 73.22609278175514,246.21668779444008 73.0,246.38208933972783 74.39273153577233,255.2896422043268 75.00770390219986,255.2896422043268 77.86551666387822,254.6871730085768 78.39909562887624,255.8921068935524 78.41718305140967,256.76626333133026 78.76084407971939,257.94754074185767 78.62518841068959,258.25467003082304 78.21822140342556,258.25467003082304" stroke="#4dd2ff" stroke-linecap="round" stroke-linejoin="round" stroke-width="0.5"><title>2020-08-08 17.2km</title></polyline></svg>