<?xml version="1.0" encoding="utf-8" ?>
<svg baseProfile="full" height="200mm" version="1.1" viewBox="0,0,200,200" width="200mm" xmlns="http://www.w3.org/2000/svg" xmlns:ev="http://www.w3.org/2001/xml-events" xmlns:xlink="http://www.w3.org/1999/xlink"><defs /><rect fill="#1a1a1a" height="200" width="200" x="0" y="0" /><text alignment-baseline="middle" fill="#e1ed5e" style="dominant-baseline: central; font-size:9.0px; font-family:Arial;" text-anchor="middle" x="100.0" y="100.0">2021</text><line stroke="#e1ed5e" stroke-width="0.3" x1="100.0" x2="100.0" y1="15.0" y2="10.0" /><path d="M 100.0 14.0 a86.0,86.0 0 0,1 42.46469731375804,11.215312516191453" fill="none" id="id85" stroke="none" /><text fill="#e1ed5e" style="font-size:6.75px; font-family:Arial;" text-anchor="middle"><textPath startOffset="22.20632615414155" xlink:href="#id85">January</textPath></text><path d="M 105.71112130821622 79.79150937346287 l 0.8767596281569473 -3.102366027814211 a24.223876923224836,24.223876923224836 0 0,0 0.4002820122391785,0.116853295828111 l -0.9300318581195529 3.0868144030673963" fill="#ff1b02" stroke="none" /><path d="M 108.09893153111575 80.62456947434976 l 0.8503737102372804 -2.0343864718747646 a23.204963438247848,23.204963438247848 0 0,0 0.3672088690672215,0.15721967388571828 l -0.8852663370948172 2.0194472700262556" fill="#ff0c01" stroke="none" /><line stroke="#e1ed5e" stroke-width="0.3" x1="143.23703022742887" x2="145.7803849466894" y1="26.81831364943548" y2="22.513508569990506" /><path d="M 143.74570117128098 25.957352633546492 a86.0,86.0 0 0,1 28.547481713284135,27.462654790039103" fill="none" id="id86" stroke="none" /><text fill="#e1ed5e" style="font-size:6.75px; font-family:Arial;" text-anchor="middle"><textPath startOffset="19.985693538727396" xlink:href="#id86">February</textPath></text><path d="M 115.9244219780498 86.31012108654704 l 9.833248325065677 -8.453429523634682 a33.96739153929831,33.96739153929831 0 0,0 0.37734437779265656,0.4466567227629159 l -9.97730331634545 8.282913851242661" fill="#ffa20e" stroke="none" /><line stroke="#e1ed5e" stroke-width="0.3" x1="172.23445277983987" x2="176.4835382374775" y1="55.19839476539836" y2="52.563006222186495" /><path d="M 173.08426987136738 54.67131705675599 a86.0,86.0 0 0,1 12.851231095245387,41.99856678651699" fill="none" id="id87" stroke="none" /><text fill="#e1ed5e" style="font-size:6.75px; font-family:Arial;" text-anchor="middle"><textPath startOffset="22.20632615414155" xlink:href="#id87">March</textPath></text><path d="M 120.87857604477298 97.74499172005257 l 11.479566142524565 -1.2398602589604204 a32.546328086554,32.546328086554 0 0,0 0.05536420894004378,0.5575100284978561 l -11.499207477146838 1.0420746997581292" fill="#ff8f0d" stroke="none" /><line stroke="#e1ed5e" stroke-width="0.3" x1="184.98032266829074" x2="189.97916517819016" y1="98.17113171792111" y2="98.06355123074" /><path d="M 185.9800911702706 98.14961562048488 a86.0,86.0 0 0,1 -9.607161424134198,41.387399972396054" fill="none" id="id88" stroke="none" /><text fill="#e1ed5e" style="font-size:6.75px; font-family:Arial;" text-anchor="middle"><textPath startOffset="21.466115282336823" xlink:href="#id88">April</textPath></text><path d="M 120.9764740272857 100.99374915477107 l 3.3654431197459176 0.1594360544735628 a24.36921760171575,24.36921760171575 0 0,0 -0.023456705416501283,0.4188352325350408 l -3.362200063441887 -0.21734300334402692" fill="#ff1d02" stroke="none" /><path d="M 120.95626037817324 101.35467743843564 l 10.392013837563663 0.671771892103473 a31.413703907598627,31.413703907598627 0 0,0 -0.0395265791589666,0.539308768610747 l -10.378910699740358 -0.8505537972109901" fill="#ff800b" stroke="none" /><path d="M 120.89721153311464 102.0752229133903 l 9.398069264577222 0.9332866563835236 a30.444296156134378,30.444296156134378 0 0,0 -0.05627511948578616,0.5210377150544477 l -9.380611843590383 -1.0949206933227627" fill="#ff720a" stroke="none" /><path d="M 120.64145759157962 103.86396538481128 l 9.351275366875246 1.7505064340119219 a30.513707151402386,30.513707151402386 0 0,0 -0.10108765008019148,0.5154437499156513 l -9.31975778381939 -1.911213910995518" fill="#ff730a" stroke="none" /><path d="M 120.41448212921028 104.9243191809786 l 10.098723968453639 2.4359834271822565 a31.388370471278286,31.388370471278286 0 0,0 -0.13121637095682104,0.5241441757599111 l -10.055296283201757 -2.6094554423395633" fill="#ff7f0b" stroke="none" /><path d="M 120.32669344350535 105.2749913415812 l 12.407958909960954 3.2199962083676805 a33.81896329245004,33.81896329245004 0 0,0 -0.1510772382186458,0.5622146055236963 l -12.35069359540053 -3.433101747066925" fill="#ffa00e" stroke="none" /><path d="M 119.9155931802556 106.66101706037122 l 9.39680989684132 3.1428795752857344 a30.90846750320771,30.90846750320771 0 0,0 -0.17310091332716251,0.5031122808701759 l -9.341318152570928 -3.3041645592452107" fill="#ff790b" stroke="none" /><path d="M 119.79798401119884 107.00284435728193 l 9.127753649004012 3.228623586089897 a30.681936631560962,30.681936631560962 0 0,0 -0.18040356187489495,0.4963931220329105 l -9.07082582612389 -3.3852645051289385" fill="#ff760a" stroke="none" /><path d="M 119.26925614724726 108.34839909993367 l 9.093218930077027 3.9396342106438618 a30.909962069755196,30.909962069755196 0 0,0 -0.2157205005686105,0.4863927802332634 l -9.024057344777145 -4.095575327369813" fill="#ff790b" stroke="none" /><path d="M 118.97047184881838 109.00673069616215 l 8.966452694744088 4.2570593586193635 a30.925715506193608,30.925715506193608 0 0,0 -0.23245349902440446,0.4789230584423854 l -8.89184593910497 -4.410771373027025" fill="#ff790b" stroke="none" /><path d="M 118.64920377521936 109.65438752849418 l 9.509512756481882 4.922919094284772 a31.708219519348923,31.708219519348923 0 0,0 -0.2550963884023089,0.4825462312731746 l -9.423363859854682 -5.085880340644081" fill="#ff840c" stroke="none" /><line stroke="#e1ed5e" stroke-width="0.3" x1="174.80103733775053" x2="179.2010983576182" y1="140.37084112569926" y2="142.7455964860345" /><path d="M 175.68104954172406 140.8457921977663 a86.0,86.0 0 0,1 -30.038265399797805,32.042727171017184" fill="none" id="id89" stroke="none" /><text fill="#e1ed5e" style="font-size:6.75px; font-family:Arial;" text-anchor="middle"><textPath startOffset="22.206326154141568" xlink:href="#id89">May</textPath></text><path d="M 116.27256486870786 113.27417163493432 l 2.767856103969908 2.257849163996889 a24.57196168227557,24.57196168227557 0 0,0 -0.27017924966190504,0.32544831107412997 l -2.7285808544144596 -2.3051587321847897" fill="#ff2003" stroke="none" /><path d="M 116.0416608686014 113.55231037782055 l 1.0475088072339898 0.8849560276468635 a22.37128475237687,22.37128475237687 0 0,0 -0.2510457534486969,0.29202292722881074 l -1.032120544214514 -0.9028560540372023" fill="#ff0000" stroke="none" /><path d="M 115.32070863581623 114.36230785411682 l 2.901776015488439 2.720252793053463 a24.977446329264435,24.977446329264435 0 0,0 -0.2967480582111909,0.31113915265133124 l -2.8545214058982835 -2.7697990622873014" fill="#ff2603" stroke="none" /><path d="M 115.07121518719521 114.62390073753431 l 6.803304932057929 6.601382488262935 a30.479620707333616,30.479620707333616 0 0,0 -0.3685993058751809,0.37338915080120716 l -6.688665001127213 -6.717512133044807" fill="#ff730a" stroke="none" /><path d="M 114.55890576462653 115.13401014063108 l 1.8494783238780916 1.9225362235982861 a23.667717301653695,23.667717301653695 0 0,0 -0.2960314865196721,0.2799162478580981 l -1.8161110029676117 -1.9540871082023055" fill="#ff1302" stroke="none" /><path d="M 114.0293411484842 115.62618273729858 l 7.1345234264316995 7.9465860602445115 a31.679403285538715,31.679403285538715 0 0,0 -0.40890211980483043,0.3608085784935134 l -6.996678953720282 -8.068217780510315" fill="#ff830c" stroke="none" /><path d="M 113.75828350139079 115.86535959552629 l 3.501580733387002 4.037846544035499 a26.344648945029643,26.344648945029643 0 0,0 -0.3451582110588441,0.2941513155118203 l -3.43155704575111 -4.097522249770266" fill="#ff3905" stroke="none" /><path d="M 113.48314897796784 116.09983520530334 l 4.313280117334795 5.150362070231165 a27.71793233257611,27.71793233257611 0 0,0 -0.36842394709518667,0.3031878262847223 l -4.223986041694917 -5.223845015373065" fill="#ff4d07" stroke="none" /><path d="M 113.20401910651253 116.32954008644616 l 6.19233594820521 7.65812267304921 a30.848444921453584,30.848444921453584 0 0,0 -0.41578196173042475,0.3303223365959865 l -6.059596493757434 -7.763578923650322" fill="#ff780b" stroke="none" /><path d="M 112.92097659922987 116.55440617244103 l 6.72605478391793 8.617447913163469 a31.931615685357343,31.931615685357343 0 0,0 -0.43620300918645527,0.3344618667936491 l -6.576723046237982 -8.731949121784488" fill="#ff870c" stroke="none" /><path d="M 112.04921762599082 117.19931262002967 l 6.196499275999673 8.845016457152925 a31.799579593890243,31.799579593890243 0 0,0 -0.45101361209175517,0.31021127495839124 l -6.0433287792850345 -8.95036852147641" fill="#ff850c" stroke="none" /><path d="M 111.7513745106137 117.40417183066458 l 3.762508423719298 5.572398621249778 a27.72369660474542,27.72369660474542 0 0,0 -0.39780243959365463,0.2636417654586456 l -3.666031285385679 -5.636338407799742" fill="#ff4d07" stroke="none" /><line stroke="#e1ed5e" stroke-width="0.3" x1="143.8653032363475" x2="146.44561519142675" y1="172.8068346515853" y2="177.08958963109032" /><path d="M 144.38136562736335 173.6633856474863 a86.0,86.0 0 0,1 -40.68145358897372,12.25698825130547" fill="none" id="id90" stroke="none" /><text fill="#e1ed5e" style="font-size:6.75px; font-family:Arial;" text-anchor="middle"><textPath startOffset="21.466115282336833" xlink:href="#id90">June</textPath></text><path d="M 110.5260780823613 118.17145234162733 l 4.990661682946718 8.615513794906999 a30.95659489905386,30.95659489905386 0 0,0 -0.46339256087802383,0.26312638986948894 l -4.841620355147495 -8.700143350571116" fill="#ff790b" stroke="none" /><path d="M 109.57404056367764 118.69057910512821 l 1.861490089385792 3.634027612236552 a25.083050580066235,25.083050580066235 0 0,0 -0.3859757037306701,0.19353623057472927 l -1.7986604779723614 -3.6655316837205834" fill="#ff2703" stroke="none" /><path d="M 109.2508944713604 118.85261126421891 l 3.0096282503788045 6.133390844513554 a27.832008888829176,27.832008888829176 0 0,0 -0.4319094819511594,0.2073427984325503 l -2.9036061004274125 -6.184287919445664" fill="#ff4e07" stroke="none" /><path d="M 107.59598834532513 119.57807347666477 l 3.906368347062306 10.06836280531837 a31.79961310614638,31.79961310614638 0 0,0 -0.5120188647376166,0.1936017229310919 l -3.7324792615644147 -10.134112778356092" fill="#ff850c" stroke="none" /><path d="M 107.2578585660854 119.70592522655815 l 1.4077403745614367 3.822177892683422 a25.073177728198004,25.073177728198004 0 0,0 -0.40628152065523643,0.14567809850283547 l -1.3417392932764654 -3.845843532226217" fill="#ff2703" stroke="none" /><path d="M 106.57524785965236 119.94407469862006 l 1.6799708000648732 5.095695834311223 a26.365483941350245,26.365483941350245 0 0,0 -0.43224158796926065,0.13839010672829796 l -1.592007867004672 -5.123858787699227" fill="#ff3a05" stroke="none" /><path d="M 105.18746579009965 120.34920634021253 l 5.455480369842833 21.400564403293753 a43.08498183936913,43.08498183936913 0 0,0 -0.7202305405528064,0.17701514374588762 l -5.086296544546816 -21.49130080535367" fill="#eaff1a" stroke="none" /><path d="M 104.48393922423573 120.51570834832081 l 1.4473519880479178 6.62217969049626 a27.77850216718468,27.77850216718468 0 0,0 -0.4680129169263079,0.09807665714626469 l -1.333147609692232 -6.646112328369066" fill="#ff4e07" stroke="none" /><path d="M 103.06178313531738 120.77559828337769 l 1.47651626015792 10.018837822338577 a31.12705344988525,31.12705344988525 0 0,0 -0.5307479943334876,0.07355683582788283 l -1.303839674637602 -10.042769223659063" fill="#ff7c0b" stroke="none" /><path d="M 101.98527174616119 120.90594882070398 l 0.6290691191024406 6.624426521996733 a27.65422833256735,27.65422833256735 0 0,0 -0.4742774986879515,0.04092265824243341 l -0.5149473026729473 -6.63427343251783" fill="#ff4c07" stroke="none" /><path d="M 101.26447882468166 120.96189622390904 l 0.7569961854095428 12.549103370271688 a33.57191467607416,33.57191467607416 0 0,0 -0.577136274488923,0.029831353105638763 l -0.5408718425071402 -12.560274530139528" fill="#ff9c0e" stroke="none" /><line stroke="#e1ed5e" stroke-width="0.3" x1="102.19456741930631" x2="102.32365962044197" y1="184.97166512339345" y2="189.96999836594603" /><path d="M 102.22038585953345 185.97133177190398 a86.0,86.0 0 0,1 -42.740103519485714,-10.115201625700543" fill="none" id="id91" stroke="none" /><text fill="#e1ed5e" style="font-size:6.75px; font-family:Arial;" text-anchor="middle"><textPath startOffset="22.20632615414155" xlink:href="#id91">July</textPath></text><path d="M 100.18074693466247 120.99922214144158 l 0.054319931292243454 6.310902622187365 a27.311136392256703,27.311136392256703 0 0,0 -0.47013373190939345,0.0 l 0.05431993129223911 -6.310902622187365" fill="#ff4706" stroke="none" /><path d="M 98.73552117531835 120.96189622390904 l -0.40082131179889224 6.644614823324376 a27.656693163601144,27.656693163601144 0 0,0 -0.4749539746907312,-0.032755606865899956 l 0.5151380472685535 -6.6367308719421905" fill="#ff4c07" stroke="none" /><path d="M 98.37488393609728 120.93702456842531 l -0.846719816030453 10.90863230299308 a31.941443833825716,31.941443833825716 0 0,0 -0.5478044045853203,-0.04726686906834334 l 1.0343685383573151 -10.892441181646074" fill="#ff870c" stroke="none" /><path d="M 95.86986931433489 120.58985236759428 l -0.8579136769832169 4.276938745433379 a25.36213490269892,25.36213490269892 0 0,0 -0.4273018992835546,-0.08954526757341767 l 0.9314070376961583 -4.26153749713342" fill="#ff2b04" stroke="none" /><path d="M 94.46302465271185 120.25689768951611 l -1.106273521822858 4.0472763815287545 a25.19574632378637,25.19574632378637 0 0,0 -0.41737213535181106,-0.11795353446799774 l 1.175776825279283 -4.0276340537222355" fill="#ff2904" stroke="none" /><path d="M 90.7491055286396 118.85261126421891 l -4.7393582660489235 9.658447548861043 a31.758583820748257,31.758583820748257 0 0,0 -0.48869820281925264,-0.24504342410184504 l 4.904910376550937 -9.575436283849896" fill="#ff840c" stroke="none" /><line stroke="#e1ed5e" stroke-width="0.3" x1="58.666819895761336" x2="56.23545636021788" y1="174.27360380694188" y2="178.64263932499728" /><path d="M 58.180547188652646 175.14741091055294 a86.0,86.0 0 0,1 -31.652253787137756,-30.449443065178592" fill="none" id="id92" stroke="none" /><text fill="#e1ed5e" style="font-size:6.75px; font-family:Arial;" text-anchor="middle"><textPath startOffset="22.20632615414155" xlink:href="#id92">August</textPath></text><path d="M 87.95078237400918 117.19931262002967 l -17.893008157495235 25.54086502261141 a52.18486054205543,52.18486054205543 0 0,0 -0.731265636073516,-0.5217386150316059 l 18.330001121417638 -25.229082145735585" fill="#82ff25" stroke="none" /><path d="M 84.19399662182784 113.82643327865904 l -1.599359589807307 1.399053139998218 a23.124923712994768,23.124923712994768 0 0,0 -0.259502928027216,-0.3018605318987829 l 1.6232050274053018 -1.3713155089379048" fill="#ff0b01" stroke="none" /><path d="M 83.50135304334701 112.99209946851258 l -11.210996296284758 8.828262063255037 a35.26971089450724,35.26971089450724 0 0,0 -0.3714961718359344,-0.4802088802858655 l 11.361299285338761 -8.633975188855919" fill="#ffb310" stroke="none" /><path d="M 82.6465618267979 111.8261652097733 l -19.301633876585807 13.153837802329916 a44.35757948152523,44.35757948152523 0 0,0 -0.4245588441563464,-0.634657867113316 l 19.52519582615288 -12.81964302101078" fill="#daff1b" stroke="none" /><path d="M 82.44556493220864 111.52570212397912 l -23.322914427901278 15.31310824420999 a48.90071005386955,48.90071005386955 0 0,0 -0.4559295812360412,-0.7076128349464299 l 23.583048872514365 -14.909373809342112" fill="#a6ff21" stroke="none" /><line stroke="#e1ed5e" stroke-width="0.3" x1="26.63291911575756" x2="22.317208475507996" y1="142.92168965132927" y2="145.44649492493687" /><path d="M 25.769776987707644 143.4266507060508 a86.0,86.0 0 0,1 -11.730757126820373,-40.83630448921669" fill="none" id="id93" stroke="none" /><text fill="#e1ed5e" style="font-size:6.75px; font-family:Arial;" text-anchor="middle"><textPath startOffset="21.46611528233685" xlink:href="#id93">September</textPath></text><path d="M 81.69416730710424 110.29060199501025 l -9.05361092469684 5.089476573217495 a31.38607926818969,31.38607926818969 0 0,0 -0.2606891732950935,-0.4732265718196072 l 9.13987650744345 -4.9328794830000655" fill="#ff7f0b" stroke="none" /><path d="M 81.51974371655577 109.97397251340807 l -5.762208304953862 3.1099193847018567 a27.547873176003307,27.547873176003307 0 0,0 -0.2216259084202238,-0.41923269682677744 l 5.814886721598972 -3.010271672788953" fill="#ff4a06" stroke="none" /><path d="M 80.32549172779594 107.34259656027581 l -37.01520597092006 13.814206702383366 a60.50895822324108,60.50895822324108 0 0,0 -0.3557803967818427,-0.97895485034338 l 37.24751062870712 -13.175004055033869" fill="#30ff32" stroke="none" /><path d="M 79.97269907076064 106.31721596034903 l -9.934821375015234 3.1337429030106745 a31.41734228753329,31.41734228753329 0 0,0 -0.1582435091920014,-0.5171489439476288 l 9.987291656713365 -2.962266986510998" fill="#ff800b" stroke="none" /><path d="M 79.67330655649465 105.27499134158121 l -8.719480089843731 2.2627970508263617 a30.008306363041264,30.008306363041264 0 0,0 -0.12544713218298215,-0.5010989346834607 l 8.757138536321772 -2.112370276745509" fill="#ff6c0a" stroke="none" /><line stroke="#e1ed5e" stroke-width="0.3" x1="15.007084014347285" x2="10.007500721073583" y1="101.09737516637583" y2="101.16192664675087" /><path d="M 14.007167355692545 101.11028546245083 a86.0,86.0 0 0,1 10.666146001902534,-42.60595125391555" fill="none" id="id94" stroke="none" /><text fill="#e1ed5e" style="font-size:6.75px; font-family:Arial;" text-anchor="middle"><textPath startOffset="22.20632615414155" xlink:href="#id94">October</textPath></text><path d="M 81.43458229118936 90.18545643968196 l -55.69625312643191 -29.44363068095413 a84.0,84.0 0 0,0 0.6867676031261127,-1.2724760666701092 l 55.18117742408733 30.39798773095671" fill="#4dd2ff" stroke="none" /><line stroke="#e1ed5e" stroke-width="0.3" x1="26.266209847984243" x2="21.928928074336255" y1="57.711370442889674" y2="55.22380399835377" /><path d="M 25.398753493254645 57.213857153982495 a86.0,86.0 0 0,1 29.58750427330803,-30.492523968695096" fill="none" id="id95" stroke="none" /><text fill="#e1ed5e" style="font-size:6.75px; font-family:Arial;" text-anchor="middle"><textPath startOffset="21.46611528233685" xlink:href="#id95">November</textPath></text><path d="M 88.09926311788651 82.69761687909137 l -6.53641038598894 -9.503233106837829 a32.53412763137996,32.53412763137996 0 0,0 0.46414628142571074,-0.31339364112300006 l 6.3718594101566906 9.614338660259495" fill="#ff8f0d" stroke="none" /><line stroke="#e1ed5e" stroke-width="0.3" x1="56.762969772571076" x2="54.21961505331055" y1="26.818313649435495" y2="22.513508569990535" /><path d="M 56.25429882871897 25.957352633546506 a86.0,86.0 0 0,1 42.265352541879196,-11.944610805530505" fill="none" id="id96" stroke="none" /><text fill="#e1ed5e" style="font-size:6.75px; font-family:Arial;" text-anchor="middle"><textPath startOffset="22.20632615414155" xlink:href="#id96">December</textPath></text><path d="M 92.23578459929587 80.48803036053334 l -1.0700041086365657 -2.688988726398271 a23.89405756044971,23.89405756044971 0 0,0 0.38346188830182454,-0.14877725522323476 l 1.0235590553350649 2.707008685512057" fill="#ff1602" stroke="none" /><path d="M 95.33964822691252 79.52364482259891 l -2.980633285223984 -13.09611565253069 a34.43102453148845,34.43102453148845 0 0,0 0.5790269918163692,-0.12655287336004484 l 2.754763569254094 13.145482023986602" fill="#ffa80f" stroke="none" /></svg>