<?xml version="1.0" encoding="utf-8" ?>
<svg baseProfile="full" height="200mm" version="1.1" viewBox="0,0,200,200" width="200mm" xmlns="http://www.w3.org/2000/svg" xmlns:ev="http://www.w3.org/2001/xml-events" xmlns:xlink="http://www.w3.org/1999/xlink"><defs /><rect fill="#1a1a1a" height="200" width="200" x="0" y="0" /><text alignment-baseline="middle" fill="#e1ed5e" style="dominant-baseline: central; font-size:9.0px; font-family:Arial;" text-anchor="middle" x="100.0" y="100.0">2023</text><line stroke="#e1ed5e" stroke-width="0.3" x1="100.0" x2="100.0" y1="15.0" y2="10.0" /><path d="M 100.0 14.0 a86.0,86.0 0 0,1 42.46469731375804,11.215312516191453" fill="none" id="id97" stroke="none" /><text fill="#e1ed5e" style="font-size:6.75px; font-family:Arial;" text-anchor="middle"><textPath startOffset="22.20632615414155" xlink:href="#id97">January</textPath></text><path d="M 109.41281617654863 81.2277094730956 l 0.8647289915148619 -1.7245576192380432 a22.92921103325642,22.92921103325642 0 0,0 0.35129681799116413,0.17994787461751144 l -0.8942862970947816 1.7094172193080313" fill="#ff1101" stroke="none" /><line stroke="#e1ed5e" stroke-width="0.3" x1="143.23703022742887" x2="145.7803849466894" y1="26.81831364943548" y2="22.513508569990506" /><path d="M 143.74570117128098 25.957352633546492 a86.0,86.0 0 0,1 28.547481713284135,27.462654790039103" fill="none" id="id98" stroke="none" /><text fill="#e1ed5e" style="font-size:6.75px; font-family:Arial;" text-anchor="middle"><textPath startOffset="19.985693538727396" xlink:href="#id98">February</textPath></text><path d="M 117.04232023915458 87.72973835380427 l 0.7213942988012524 -0.5193950513867578 a21.88892123033934,21.88892123033934 0 0,0 0.21752102985136595,0.30766807064385593 l -0.7302279484565013 0.5069004804111087" fill="#ff0200" stroke="none" /><line stroke="#e1ed5e" stroke-width="0.3" x1="172.23445277983987" x2="176.4835382374775" y1="55.19839476539836" y2="52.563006222186495" /><path d="M 173.08426987136738 54.67131705675599 a86.0,86.0 0 0,1 12.851231095245387,41.99856678651699" fill="none" id="id99" stroke="none" /><text fill="#e1ed5e" style="font-size:6.75px; font-family:Arial;" text-anchor="middle"><textPath startOffset="22.20632615414155" xlink:href="#id99">March</textPath></text><path d="M 120.28053869075195 94.5502522615342 l 3.9498301422466757 -1.0613908344973426 a25.08995215817439,25.08995215817439 0 0,0 0.10848855662670716,0.41805066395016927 l -3.9675150307436855 0.993243744998323" fill="#ff3004" stroke="none" /><line stroke="#e1ed5e" stroke-width="0.3" x1="184.98032266829074" x2="189.97916517819016" y1="98.17113171792111" y2="98.06355123074" /><path d="M 185.9800911702706 98.14961562048488 a86.0,86.0 0 0,1 -9.607161424134198,41.387399972396054" fill="none" id="id100" stroke="none" /><text fill="#e1ed5e" style="font-size:6.75px; font-family:Arial;" text-anchor="middle"><textPath startOffset="21.466115282336823" xlink:href="#id100">April</textPath></text><path d="M 120.89721153311464 102.0752229133903 l 3.588948344359021 0.35640486422725826 a24.606601536865725,24.606601536865725 0 0,0 -0.045484363787705095,0.42112871896499454 l -3.582281679070264 -0.41812990507704423" fill="#ff2904" stroke="none" /><line stroke="#e1ed5e" stroke-width="0.3" x1="174.80103733775053" x2="179.2010983576182" y1="140.37084112569926" y2="142.7455964860345" /><path d="M 175.68104954172406 140.8457921977663 a86.0,86.0 0 0,1 -30.038265399797805,32.042727171017184" fill="none" id="id101" stroke="none" /><text fill="#e1ed5e" style="font-size:6.75px; font-family:Arial;" text-anchor="middle"><textPath startOffset="22.206326154141568" xlink:href="#id101">May</textPath></text><path d="M 116.498646956653 112.99209946851258 l 0.6469274976788637 0.5094324656344307 a21.823429793179365,21.823429793179365 0 0,0 -0.23494697970315703,0.2931324819292886 l -0.6380626059208527 -0.5204927811419695" fill="#ff0100" stroke="none" /><path d="M 114.0293411484842 115.62618273729858 l 0.7977585377404139 0.8885606643273256 a22.194135142572875,22.194135142572875 0 0,0 -0.28647095481042945,0.25277731021341976 l -0.7823452300233967 -0.9021611163130342" fill="#ff0601" stroke="none" /><path d="M 113.48314897796784 116.09983520530334 l 0.9246517537669439 1.1040997086265398 a22.440144795613794,22.440144795613794 0 0,0 -0.29827213010658077,0.24545765681448445 l -0.905509495115672 -1.1198524842982027" fill="#ff0a01" stroke="none" /><path d="M 112.04921762599082 117.19931262002967 l 0.6479397335765623 0.9248831237543225 a22.129262897182414,22.129262897182414 0 0,0 -0.31385945725219283,0.2158753966213857 l -0.6319233917014863 -0.9358993097408023" fill="#ff0600" stroke="none" /><line stroke="#e1ed5e" stroke-width="0.3" x1="143.8653032363475" x2="146.44561519142675" y1="172.8068346515853" y2="177.08958963109032" /><path d="M 144.38136562736335 173.6633856474863 a86.0,86.0 0 0,1 -40.68145358897372,12.25698825130547" fill="none" id="id102" stroke="none" /><text fill="#e1ed5e" style="font-size:6.75px; font-family:Arial;" text-anchor="middle"><textPath startOffset="21.466115282336833" xlink:href="#id102">June</textPath></text><path d="M 110.21172684928248 118.3499491758327 l 1.1742514648877582 2.1100696305690403 a23.41480027096255,23.41480027096255 0 0,0 -0.3538725462216808,0.19295952733656802 l -1.1377561067974287 -2.1299698096653787" fill="#ff1802" stroke="none" /><path d="M 105.18746579009965 120.34920634021253 l 0.18470972555691212 0.7245727433181637 a21.747745506890492,21.747745506890492 0 0,0 -0.363546410687357,0.08935086270672479 l -0.17221003012634403 -0.7276448643389184" fill="#ff0000" stroke="none" /><path d="M 100.90346689309514 120.98055641714683 l 0.0595013083351309 1.3817557300218628 a22.383036262410297,22.383036262410297 0 0,0 -0.3850731175874808,0.013262696764248747 l -0.03570783907299779 -1.3825752252122052" fill="#ff0901" stroke="none" /><line stroke="#e1ed5e" stroke-width="0.3" x1="102.19456741930631" x2="102.32365962044197" y1="184.97166512339345" y2="189.96999836594603" /><path d="M 102.22038585953345 185.97133177190398 a86.0,86.0 0 0,1 -42.740103519485714,-10.115201625700543" fill="none" id="id103" stroke="none" /><text fill="#e1ed5e" style="font-size:6.75px; font-family:Arial;" text-anchor="middle"><textPath startOffset="22.20632615414155" xlink:href="#id103">July</textPath></text><path d="M 95.51606077576429 120.51570834832081 l -2.041358985099173 9.33998510643445 a30.560463811681025,30.560463811681025 0 0,0 -0.512949891372674,-0.11674572525494999 l 2.2018290258647095 -9.303462647601814" fill="#ff7b0b" stroke="none" /><line stroke="#e1ed5e" stroke-width="0.3" x1="58.666819895761336" x2="56.23545636021788" y1="174.27360380694188" y2="178.64263932499728" /><path d="M 58.180547188652646 175.14741091055294 a86.0,86.0 0 0,1 -31.652253787137756,-30.449443065178592" fill="none" id="id104" stroke="none" /><text fill="#e1ed5e" style="font-size:6.75px; font-family:Arial;" text-anchor="middle"><textPath startOffset="22.20632615414155" xlink:href="#id104">August</textPath></text><line stroke="#e1ed5e" stroke-width="0.3" x1="26.63291911575756" x2="22.317208475507996" y1="142.92168965132927" y2="145.44649492493687" /><path d="M 25.769776987707644 143.4266507060508 a86.0,86.0 0 0,1 -11.730757126820373,-40.83630448921669" fill="none" id="id105" stroke="none" /><text fill="#e1ed5e" style="font-size:6.75px; font-family:Arial;" text-anchor="middle"><textPath startOffset="21.46611528233685" xlink:href="#id105">September</textPath></text><path d="M 81.87401531095188 110.60418214915194 l -2.811332973189174 1.6447044086728966 a24.25709159804399,24.25709159804399 0 0,0 -0.20774235728843587,-0.36221631058780007 l 2.839227326629987 -1.5960682522267897" fill="#ff2403" stroke="none" /><path d="M 79.67330655649465 105.27499134158121 l -2.3489021728107975 0.6095648885656394 a23.426707804991636,23.426707804991636 0 0,0 -0.09793332802828143,-0.39119496389440006 l 2.3590468151341373 -0.5690420852738475" fill="#ff1802" stroke="none" /><line stroke="#e1ed5e" stroke-width="0.3" x1="15.007084014347285" x2="10.007500721073583" y1="101.09737516637583" y2="101.16192664675087" /><path d="M 14.007167355692545 101.11028546245083 a86.0,86.0 0 0,1 10.666146001902534,-42.60595125391555" fill="none" id="id106" stroke="none" /><text fill="#e1ed5e" style="font-size:6.75px; font-family:Arial;" text-anchor="middle"><textPath startOffset="22.20632615414155" xlink:href="#id106">October</textPath></text><path d="M 79.01574976396665 99.18683210126434 l -7.996289910060079 -0.30986698074535535 a29.002291538770933,29.002291538770933 0 0,0 0.023624979104214208,-0.49868596938722204 l 7.989771322722366 0.4474640567555865" fill="#ff6609" stroke="none" /><path d="M 79.16333360222342 97.38593545837743 l -5.275881512813684 -0.6618858566512302 a26.31723787548424,26.31723787548424 0 0,0 0.06025895670476164,-0.44899921991939207 l 5.263706557051088 0.7526034186352817" fill="#ff4106" stroke="none" /><path d="M 79.91906864156998 93.8553929516997 l -1.0419465756656945 -0.31882745668069185 a22.089634623933613,22.089634623933613 0 0,0 0.11438698242460929,-0.36263799334773456 l 1.0363041094728813 0.3367156164548409" fill="#ff0500" stroke="none" /><path d="M 80.38941819471856 92.48833698450439 l -13.758847840774871 -5.270207150791726 a35.73366815554944,35.73366815554944 0 0,0 0.2249629245976595,-0.5725061052218656 l 13.666091366295522 5.506262260909355" fill="#ffbf11" stroke="none" /><line stroke="#e1ed5e" stroke-width="0.3" x1="26.266209847984243" x2="21.928928074336255" y1="57.711370442889674" y2="55.22380399835377" /><path d="M 25.398753493254645 57.213857153982495 a86.0,86.0 0 0,1 29.58750427330803,-30.492523968695096" fill="none" id="id107" stroke="none" /><text fill="#e1ed5e" style="font-size:6.75px; font-family:Arial;" text-anchor="middle"><textPath startOffset="21.46611528233685" xlink:href="#id107">November</textPath></text><path d="M 88.70189139769569 82.29822771554957 l -7.171305761312539 -11.235935680688256 a34.32943648256737,34.32943648256737 0 0,0 0.5008515165767743,-0.31363317373217103 l 6.9768350923635225 11.357713195743358" fill="#ffad10" stroke="none" /><line stroke="#e1ed5e" stroke-width="0.3" x1="56.762969772571076" x2="54.21961505331055" y1="26.818313649435495" y2="22.513508569990535" /><path d="M 56.25429882871897 25.957352633546506 a86.0,86.0 0 0,1 42.265352541879196,-11.944610805530505" fill="none" id="id108" stroke="none" /><text fill="#e1ed5e" style="font-size:6.75px; font-family:Arial;" text-anchor="middle"><textPath startOffset="22.20632615414155" xlink:href="#id108">December</textPath></text><path d="M 89.3179101791058 81.91981866633112 l -32.046269462682616 -54.240544001006626 a84.0,84.0 0 0,0 1.2512130701387194,-0.7247833704398112 l 31.107859660078574 54.78413152883649" fill="#4dd2ff" stroke="none" /></svg>