<?xml version="1.0" encoding="utf-8" ?>
<svg baseProfile="full" height="200mm" version="1.1" viewBox="0,0,200,200" width="200mm" xmlns="http://www.w3.org/2000/svg" xmlns:ev="http://www.w3.org/2001/xml-events" xmlns:xlink="http://www.w3.org/1999/xlink"><defs /><rect fill="#1a1a1a" height="200" width="200" x="0" y="0" /><text alignment-baseline="middle" fill="#e1ed5e" style="dominant-baseline: central; font-size:9.0px; font-family:Arial;" text-anchor="middle" x="100.0" y="100.0">2025</text><line stroke="#e1ed5e" stroke-width="0.3" x1="100.0" x2="100.0" y1="15.0" y2="10.0" /><path d="M 100.0 14.0 a86.0,86.0 0 0,1 42.46469731375804,11.215312516191453" fill="none" id="id121" stroke="none" /><text fill="#e1ed5e" style="font-size:6.75px; font-family:Arial;" text-anchor="middle"><textPath startOffset="22.20632615414155" xlink:href="#id121">January</textPath></text><path d="M 106.0581310904928 79.89281104454417 l 8.683168409464958 -28.819796952752085 a51.099470261534314,51.099470261534314 0 0,0 0.8400135514769194,0.2609962994203248 l -9.177967333652596 28.66606051844924" fill="#d2ff1c" stroke="none" /><line stroke="#e1ed5e" stroke-width="0.3" x1="143.23703022742887" x2="145.7803849466894" y1="26.81831364943548" y2="22.513508569990506" /><path d="M 143.74570117128098 25.957352633546492 a86.0,86.0 0 0,1 28.547481713284135,27.462654790039103" fill="none" id="id122" stroke="none" /><text fill="#e1ed5e" style="font-size:6.75px; font-family:Arial;" text-anchor="middle"><textPath startOffset="19.985693538727396" xlink:href="#id122">February</textPath></text><line stroke="#e1ed5e" stroke-width="0.3" x1="172.23445277983987" x2="176.4835382374775" y1="55.19839476539836" y2="52.563006222186495" /><path d="M 173.08426987136738 54.67131705675599 a86.0,86.0 0 0,1 12.851231095245387,41.99856678651699" fill="none" id="id123" stroke="none" /><text fill="#e1ed5e" style="font-size:6.75px; font-family:Arial;" text-anchor="middle"><textPath startOffset="22.20632615414155" xlink:href="#id123">March</textPath></text><path d="M 119.04729006885535 91.15688171328212 l 20.165994341719255 -9.362501053349245 a43.23339276323384,43.23339276323384 0 0,0 0.3075699385067018,0.6776895895592102 l -20.324166597189304 9.013989454947973" fill="#ffba11" stroke="none" /><path d="M 120.08093135843002 93.85539295169968 l 55.80924134549956 -17.0771888818737 a79.36353141874991,79.36353141874991 0 0,0 0.3884810959160775,1.3097651311312952 l -56.09492833852734 16.11399436399587" fill="#46fff8" stroke="none" /><line stroke="#e1ed5e" stroke-width="0.3" x1="184.98032266829074" x2="189.97916517819016" y1="98.17113171792111" y2="98.06355123074" /><path d="M 185.9800911702706 98.14961562048488 a86.0,86.0 0 0,1 -9.607161424134198,41.387399972396054" fill="none" id="id124" stroke="none" /><text fill="#e1ed5e" style="font-size:6.75px; font-family:Arial;" text-anchor="middle"><textPath startOffset="21.466115282336823" xlink:href="#id124">April</textPath></text><line stroke="#e1ed5e" stroke-width="0.3" x1="174.80103733775053" x2="179.2010983576182" y1="140.37084112569926" y2="142.7455964860345" /><path d="M 175.68104954172406 140.8457921977663 a86.0,86.0 0 0,1 -30.038265399797805,32.042727171017184" fill="none" id="id125" stroke="none" /><text fill="#e1ed5e" style="font-size:6.75px; font-family:Arial;" text-anchor="middle"><textPath startOffset="22.206326154141568" xlink:href="#id125">May</textPath></text><path d="M 118.12598468904814 110.60418214915192 l 16.803787301484597 9.830661583213896 a40.468157972371515,40.468157972371515 0 0,0 -0.3569274657975456,0.5982309631061608 l -16.632078959988824 -10.118454640206162" fill="#ff8f0d" stroke="none" /><line stroke="#e1ed5e" stroke-width="0.3" x1="143.8653032363475" x2="146.44561519142675" y1="172.8068346515853" y2="177.08958963109032" /><path d="M 144.38136562736335 173.6633856474863 a86.0,86.0 0 0,1 -40.68145358897372,12.25698825130547" fill="none" id="id126" stroke="none" /><text fill="#e1ed5e" style="font-size:6.75px; font-family:Arial;" text-anchor="middle"><textPath startOffset="21.466115282336833" xlink:href="#id126">June</textPath></text><path d="M 101.62511606390274 120.93702456842531 l 3.870945878570515 49.87095430466831 a71.02095865987712,71.02095865987712 0 0,0 -1.2196572599015145,0.08411470551960085 l -3.01192585789007 -49.93019735470419" fill="#3aff91" stroke="none" /><line stroke="#e1ed5e" stroke-width="0.3" x1="102.19456741930631" x2="102.32365962044197" y1="184.97166512339345" y2="189.96999836594603" /><path d="M 102.22038585953345 185.97133177190398 a86.0,86.0 0 0,1 -42.740103519485714,-10.115201625700543" fill="none" id="id127" stroke="none" /><text fill="#e1ed5e" style="font-size:6.75px; font-family:Arial;" text-anchor="middle"><textPath startOffset="22.20632615414155" xlink:href="#id127">July</textPath></text><path d="M 99.09653310690486 120.98055641714683 l -1.0207995033408725 23.70528652916935 a44.72725523645832,44.72725523645832 0 0,0 -0.7689082289274624,-0.03974377265279188 l 1.4286958006818238 -23.684202949754354" fill="#ffd013" stroke="none" /><path d="M 98.73552117531835 120.96189622390904 l -1.9004567074390688 31.50481882478279 a52.56208714390159,52.56208714390159 0 0,0 -0.902659333108284,-0.06225267252133892 l 2.442478801326283 -31.467437807745167" fill="#beff1f" stroke="none" /><path d="M 94.11515582081647 120.15858648285463 l -14.950295558939867 51.21237143970392 a74.34996087887843,74.34996087887843 0 0,0 -1.2254467671223104,-0.3692170584408372 l 15.829617300502424 -50.94743901215736" fill="#3fffbc" stroke="none" /><path d="M 93.76903079525671 120.05430185196036 l -4.015527695880317 12.923929145210474 a34.53338121929633,34.53338121929633 0 0,0 -0.5661479064591011,-0.18126268128658027 l 4.2373969474303586 -12.852893617264188" fill="#ff2e04" stroke="none" /><line stroke="#e1ed5e" stroke-width="0.3" x1="58.666819895761336" x2="56.23545636021788" y1="174.27360380694188" y2="178.64263932499728" /><path d="M 58.180547188652646 175.14741091055294 a86.0,86.0 0 0,1 -31.652253787137756,-30.449443065178592" fill="none" id="id128" stroke="none" /><text fill="#e1ed5e" style="font-size:6.75px; font-family:Arial;" text-anchor="middle"><textPath startOffset="22.20632615414155" xlink:href="#id128">August</textPath></text><path d="M 89.4739219176387 118.17145234162733 l -11.222614090812755 19.373901229310654 a43.38962071751985,43.38962071751985 0 0,0 -0.6430592395802248,-0.37993073357953594 l 11.554441201421362 -19.17785192343737" fill="#ffbc11" stroke="none" /><path d="M 89.1626897886671 117.98757091392108 l -7.002139826269802 11.622024673844601 a34.56839782973975,34.56839782973975 0 0,0 -0.5070374074559372,-0.31146378822150594 l 7.201156433658047 -11.499772418794718" fill="#ff2e04" stroke="none" /><path d="M 87.36589467227662 116.77436683061367 l -6.541900619202246 8.685715205739172 a31.87373497684799,31.87373497684799 0 0,0 -0.43541232764142895,-0.3338556059013126 l 6.690441675337161 -8.571820258010492" fill="#ff0000" stroke="none" /><path d="M 87.07902340077011 116.55440617244103 l -11.65610873363566 14.933852475070873 a39.94425560842964,39.94425560842964 0 0,0 -0.5383772504261265,-0.427719448411723 l 11.911443476779146 -14.730999112654018" fill="#ff860c" stroke="none" /><path d="M 86.24171649860922 115.8653595955263 l -13.051336825319163 15.05014429416952 a40.92094968125906,40.92094968125906 0 0,0 -0.5281874446395238,-0.4660640085932286 l 13.308466622865275 -14.823257143804003" fill="#ff960d" stroke="none" /><path d="M 85.70375840098266 115.38237550388516 l -42.888724797052014 46.14712651165548 a84.0,84.0 0 0,0 -1.0506566624367322,-0.9934614530162769 l 43.67671729387956 -45.40203042189327" fill="#4dd2ff" stroke="none" /><line stroke="#e1ed5e" stroke-width="0.3" x1="26.63291911575756" x2="22.317208475507996" y1="142.92168965132927" y2="145.44649492493687" /><path d="M 25.769776987707644 143.4266507060508 a86.0,86.0 0 0,1 -11.730757126820373,-40.83630448921669" fill="none" id="id129" stroke="none" /><text fill="#e1ed5e" style="font-size:6.75px; font-family:Arial;" text-anchor="middle"><textPath startOffset="21.46611528233685" xlink:href="#id129">September</textPath></text><line stroke="#e1ed5e" stroke-width="0.3" x1="15.007084014347285" x2="10.007500721073583" y1="101.09737516637583" y2="101.16192664675087" /><path d="M 14.007167355692545 101.11028546245083 a86.0,86.0 0 0,1 10.666146001902534,-42.60595125391555" fill="none" id="id130" stroke="none" /><text fill="#e1ed5e" style="font-size:6.75px; font-family:Arial;" text-anchor="middle"><textPath startOffset="22.20632615414155" xlink:href="#id130">October</textPath></text><line stroke="#e1ed5e" stroke-width="0.3" x1="26.266209847984243" x2="21.928928074336255" y1="57.711370442889674" y2="55.22380399835377" /><path d="M 25.398753493254645 57.213857153982495 a86.0,86.0 0 0,1 29.58750427330803,-30.492523968695096" fill="none" id="id131" stroke="none" /><text fill="#e1ed5e" style="font-size:6.75px; font-family:Arial;" text-anchor="middle"><textPath startOffset="21.46611528233685" xlink:href="#id131">November</textPath></text><line stroke="#e1ed5e" stroke-width="0.3" x1="56.762969772571076" x2="54.21961505331055" y1="26.818313649435495" y2="22.513508569990535" /><path d="M 56.25429882871897 25.957352633546506 a86.0,86.0 0 0,1 42.265352541879196,-11.944610805530505" fill="none" id="id132" stroke="none" /><text fill="#e1ed5e" style="font-size:6.75px; font-family:Arial;" text-anchor="middle"><textPath startOffset="22.20632615414155" xlink:href="#id132">December</textPath></text></svg>