<?xml version="1.0" encoding="utf-8" ?>
<svg baseProfile="full" height="200mm" version="1.1" viewBox="0,0,200,200" width="200mm" xmlns="http://www.w3.org/2000/svg" xmlns:ev="http://www.w3.org/2001/xml-events" xmlns:xlink="http://www.w3.org/1999/xlink"><defs /><rect fill="#1a1a1a" height="200" width="200" x="0" y="0" /><text alignment-baseline="middle" fill="#e1ed5e" style="dominant-baseline: central; font-size:9.0px; font-family:Arial;" text-anchor="middle" x="100.0" y="100.0">2020</text><line stroke="#e1ed5e" stroke-width="0.3" x1="100.0" x2="100.0" y1="15.0" y2="10.0" /><path d="M 100.0 14.0 a86.0,86.0 0 0,1 42.35913384403234,11.155469271406648" fill="none" id="id73" stroke="none" /><text fill="#e1ed5e" style="font-size:6.75px; font-family:Arial;" text-anchor="middle"><textPath startOffset="22.145653131862478" xlink:href="#id73">January</textPath></text><line stroke="#e1ed5e" stroke-width="0.3" x1="143.13028292997686" x2="145.6673583964461" y1="26.7553504044142" y2="22.446841604673864" /><path d="M 143.63769802327073 25.89364864446614 a86.0,86.0 0 0,1 29.32050498858742,28.57503671076992" fill="none" id="id74" stroke="none" /><text fill="#e1ed5e" style="font-size:6.75px; font-family:Arial;" text-anchor="middle"><textPath startOffset="20.669276256404974" xlink:href="#id74">February</textPath></text><line stroke="#e1ed5e" stroke-width="0.3" x1="172.87174338648825" x2="177.1583165268699" y1="56.24261187166439" y2="53.66864786411523" /><path d="M 173.72905801456457 55.72781907015455 a86.0,86.0 0 0,1 12.242430191666344,42.057860355516425" fill="none" id="id75" stroke="none" /><text fill="#e1ed5e" style="font-size:6.75px; font-family:Arial;" text-anchor="middle"><textPath startOffset="22.145653131862474" xlink:href="#id75">March</textPath></text><line stroke="#e1ed5e" stroke-width="0.3" x1="184.99686870605535" x2="189.99668451229388" y1="99.2704041080226" y2="99.22748670261217" /><path d="M 185.99683186730306 99.26182062694052 a86.0,86.0 0 0,1 -10.086455211305974,41.156179273409016" fill="none" id="id76" stroke="none" /><text fill="#e1ed5e" style="font-size:6.75px; font-family:Arial;" text-anchor="middle"><textPath startOffset="21.40746469413373" xlink:href="#id76">April</textPath></text><line stroke="#e1ed5e" stroke-width="0.3" x1="174.33088141563837" x2="178.70328620479359" y1="141.23008692659167" y2="143.65538615756765" /><path d="M 175.20536237346943 141.71514677278685 a86.0,86.0 0 0,1 -30.301960400862466,31.63118572779886" fill="none" id="id77" stroke="none" /><text fill="#e1ed5e" style="font-size:6.75px; font-family:Arial;" text-anchor="middle"><textPath startOffset="22.145653131862474" xlink:href="#id77">May</textPath></text><path d="M 117.62189284568427 111.42229804090321 l 9.899268051375698 6.416585951338177 a32.7969522853955,32.7969522853955 0 0,0 -0.31028347128529077,0.4698087226952707 l -9.787660141169681 -6.585574552372508" fill="#ff7f0b" stroke="none" /><line stroke="#e1ed5e" stroke-width="0.3" x1="143.1302829299769" x2="145.6673583964461" y1="173.24464959558577" y2="177.55315839532614" /><path d="M 143.63769802327073 174.10635135553383 a86.0,86.0 0 0,1 -40.685524379131806,11.842963189579606" fill="none" id="id78" stroke="none" /><text fill="#e1ed5e" style="font-size:6.75px; font-family:Arial;" text-anchor="middle"><textPath startOffset="21.407464694133747" xlink:href="#id78">June</textPath></text><path d="M 108.4095320186766 119.2426549942271 l 2.270971283354905 5.196426722717036 a26.670992968994966,26.670992968994966 0 0,0 -0.42110313232832264,0.1797438868508881 l -2.1814330758561513 -5.234645259227325" fill="#ff2703" stroke="none" /><path d="M 108.07796709384702 119.3841803445677 l 3.2899648552027294 7.894717982834477 a29.552803094714573,29.552803094714573 0 0,0 -0.4699536548951078,0.1911260601935775 l -3.1539567391171808 -7.950031299607348" fill="#ff5107" stroke="none" /><path d="M 107.407793817531 119.65005319985036 l 2.5910332918582304 6.873023639927276 a28.345196217564027,28.345196217564027 0 0,0 -0.45677723326266856,0.16773492707799378 l -2.4726669069414338 -6.916489416013992" fill="#ff4006" stroke="none" /><path d="M 105.69591212413111 120.21278271476187 l 2.455199940860751 8.71263844041219 a30.051965275173718,30.051965275173718 0 0,0 -0.4977444029128625,0.1356624503849462 l -2.3052741370131935 -8.753501384941279" fill="#ff5908" stroke="none" /><path d="M 102.15924093988457 120.88869738790638 l 2.4355551693044175 23.56178690548119 a44.687332715230525,44.687332715230525 0 0,0 -0.7637287248883489,0.07232590429268848 l -2.0307268810310535 -23.60012456527906" fill="#e3ff1b" stroke="none" /><path d="M 100.72087961077811 120.9876233191556 l 0.3439355037609962 10.013306925449525 a31.01921190583385,31.01921190583385 0 0,0 -0.5323290942324184,0.01371090916613314 l -0.17199309545783395 -10.017735551965703" fill="#ff6609" stroke="none" /><line stroke="#e1ed5e" stroke-width="0.3" x1="101.45913802915013" x2="101.54496967792366" y1="184.9874750549273" y2="189.98673829345242" /><path d="M 101.47630435890484 185.9873277026323 a86.0,86.0 0 0,1 -42.54439059252881,-10.42667462771756" fill="none" id="id79" stroke="none" /><text fill="#e1ed5e" style="font-size:6.75px; font-family:Arial;" text-anchor="middle"><textPath startOffset="22.145653131862474" xlink:href="#id79">July</textPath></text><path d="M 98.91894614982273 120.97215588758144 l -0.3913931545198824 7.592922636164007 a28.60300353545734,28.60300353545734 0 0,0 -0.49014058896237755,-0.029485640705523855 l 0.5216780956147063 -7.5850850176337925" fill="#ff4406" stroke="none" /><path d="M 98.19965949673042 120.92268563240118 l -0.3310637832712892 3.8474629932943114 a24.861680296627767,24.861680296627767 0 0,0 -0.42489847206866044,-0.04023832707017817 l 0.3970618187249649 -3.8412129107189497" fill="#ff0d01" stroke="none" /><path d="M 96.76829788921471 120.74984581791261 l -0.7267021658650579 4.66594920581309 a25.722200549436753,25.722200549436753 0 0,0 -0.4357126384007389,-0.07169634884073575 l 0.8066923073188598 -4.652786858476686" fill="#ff1902" stroke="none" /><path d="M 95.70440661134978 120.55596938700252 l -1.9546371486711382 9.35364634300437 a30.555694966508938,30.555694966508938 0 0,0 -0.5125173406440917,-0.11170076896617906 l 2.114916905934366 -9.318714115904472" fill="#ff6008" stroke="none" /><path d="M 93.95794788825049 120.11202640906438 l -3.277685371143956 10.910348591145056 a32.392055467408504,32.392055467408504 0 0,0 -0.5311670343211301,-0.16455690501044903 l 3.4644930383367196 -10.852475098327957" fill="#ff7a0b" stroke="none" /><path d="M 93.27111125876986 119.89276391827306 l -1.1703927973517 3.460058340199016 a24.652646029616545,24.652646029616545 0 0,0 -0.3997182703286511,-0.13904276367045232 l 1.229616839725372 -3.4394571439599733" fill="#ff0901" stroke="none" /><line stroke="#e1ed5e" stroke-width="0.3" x1="58.13341422392154" x2="55.670673884152215" y1="173.97424548756322" y2="178.32567169271397" /><path d="M 57.64086615596767 174.84453072859336 a86.0,86.0 0 0,1 -31.369924170532244,-30.572349798747886" fill="none" id="id80" stroke="none" /><text fill="#e1ed5e" style="font-size:6.75px; font-family:Arial;" text-anchor="middle"><textPath startOffset="22.145653131862474" xlink:href="#id80">August</textPath></text><path d="M 89.03521579738668 117.91015095944536 l -4.721281206100981 7.71185803210858 a30.04230338655367,30.04230338655367 0 0,0 -0.43752447759001956,-0.2730476331866243 l 4.852969812480714 -7.629674602080411" fill="#ff5808" stroke="none" /><path d="M 87.54013794807813 116.9041958592261 l -30.838161768771293 41.83788907979133 a72.97500537691006,72.97500537691006 0 0,0 -1.0020059373644097,-0.7519239356604545 l 31.55182069504647 -41.30234611686686" fill="#3fffbd" stroke="none" /><path d="M 87.2517909369889 116.68781488649013 l -5.790322468737113 7.579717983425203 a30.538341522519588,30.538341522519588 0 0,0 -0.4138527764115312,-0.3218144221037453 l 5.919585189783873 -7.479202509700665" fill="#ff5f08" stroke="none" /><path d="M 85.60350026404147 115.28858382429668 l -4.121523639771913 4.376915278446874 a27.01201667229062,27.01201667229062 0 0,0 -0.3348557691458172,-0.3207842520977451 l 4.196051894783042 -4.305518896043546" fill="#ff2d04" stroke="none" /><path d="M 83.8745106332314 113.45245675266167 l -11.543225202229388 9.629769012730613 a36.032581258983114,36.032581258983114 0 0,0 -0.39216005037062496,-0.4783714971199114 l 11.706832071838642 -9.430195233912208" fill="#ffab0f" stroke="none" /><path d="M 82.98947788004972 112.3143062007846 l -7.334973224433942 5.309954957484865 a30.05524454963426,30.05524454963426 0 0,0 -0.29895651411468044,-0.4205197764522668 l 7.425044837078584 -5.1832579543230946" fill="#ff5908" stroke="none" /><path d="M 82.18462484594161 111.1181117155819 l -3.7963281657658468 2.3691895506550544 a25.474948789552812,25.474948789552812 0 0,0 -0.22834292695485287,-0.37298101054357774 l 3.836439057176102 -2.30367142398692" fill="#ff1602" stroke="none" /><line stroke="#e1ed5e" stroke-width="0.3" x1="26.387840678322732" x2="22.057713659400548" y1="142.50000000000003" y2="145.00000000000006" /><path d="M 25.521815274538298 143.00000000000003 a86.0,86.0 0 0,1 -11.493303480769221,-40.785679425670985" fill="none" id="id81" stroke="none" /><text fill="#e1ed5e" style="font-size:6.75px; font-family:Arial;" text-anchor="middle"><textPath startOffset="21.40746469413373" xlink:href="#id81">September</textPath></text><path d="M 81.81346652052679 110.50000000000001 l -2.6208021347219526 1.513120817974467 a24.02624163594893,24.02624163594893 0 0,0 -0.2031551846894622,-0.35895574539245634 l 2.6463906844327933 -1.4679083024828892" fill="#ff0000" stroke="none" /><path d="M 81.4637452351635 109.86951160357371 l -3.1293020301058445 1.6661770723935583 a24.545233029321842,24.545233029321842 0 0,0 -0.19483296624369115,-0.3736179024618163 l 3.1574430653244847 -1.6122129268272378" fill="#ff0801" stroke="none" /><path d="M 80.9802524753101 108.90220220490707 l -13.241657912396526 6.197764513505735 a35.620321105700945,35.620321105700945 0 0,0 -0.25445721584316516,-0.556034938833306 l 13.346099593094747 -5.96954059245774" fill="#ffa60f" stroke="none" /><path d="M 80.68587082218212 108.24405325689762 l -8.325375170762003 3.553607602989505 a30.052071515955078,30.052071515955078 0 0,0 -0.1984497922573433,-0.47620725830740573 l 8.385150807555831 -3.410167835240818" fill="#ff5908" stroke="none" /><path d="M 80.41425534168474 107.57618678355246 l -3.205057928336087 1.2397852591665826 a24.436490042592407,24.436490042592407 0 0,0 -0.14797960612818195,-0.39253348628982615 l 3.225868218278705 -1.1845834926826115" fill="#ff0601" stroke="none" /><path d="M 79.64726062577567 105.17358676015961 l -3.2644437958527073 0.8298088473975946 a24.36826008786444,24.36826008786444 0 0,0 -0.0995762225063776,-0.40630496829526985 l 3.2782075448753782 -0.7736480544942258" fill="#ff0500" stroke="none" /><line stroke="#e1ed5e" stroke-width="0.3" x1="15.003131293944662" x2="10.003315487706104" y1="100.72959589197737" y2="100.7725132973878" /><path d="M 14.003168132696942 100.73817937305945 a86.0,86.0 0 0,1 10.791469493833604,-42.453326145846276" fill="none" id="id82" stroke="none" /><text fill="#e1ed5e" style="font-size:6.75px; font-family:Arial;" text-anchor="middle"><textPath startOffset="22.145653131862435" xlink:href="#id82">October</textPath></text><path d="M 80.5471966667186 92.08871423366112 l -13.55238437305117 -5.511636742198391 a35.630285772085,35.630285772085 0 0,0 0.23528570420799108,-0.5646000373460651 l 13.4557728243067 5.74346928898572" fill="#ffa60f" stroke="none" /><line stroke="#e1ed5e" stroke-width="0.3" x1="26.387840678322718" x2="22.05771365940052" y1="57.5" y2="55.0" /><path d="M 25.521815274538284 57.0 a86.0,86.0 0 0,1 29.574782752854787,-30.346332500585742" fill="none" id="id83" stroke="none" /><text fill="#e1ed5e" style="font-size:6.75px; font-family:Arial;" text-anchor="middle"><textPath startOffset="21.40746469413373" xlink:href="#id83">November</textPath></text><line stroke="#e1ed5e" stroke-width="0.3" x1="56.869717070023135" x2="54.33264160355391" y1="26.7553504044142" y2="22.446841604673864" /><path d="M 56.362301976729285 25.89364864446614 a86.0,86.0 0 0,1 42.16139366436587,-11.88097634709845" fill="none" id="id84" stroke="none" /><text fill="#e1ed5e" style="font-size:6.75px; font-family:Arial;" text-anchor="middle"><textPath startOffset="22.145653131862474" xlink:href="#id84">December</textPath></text><path d="M 92.93061703081487 80.22567764915836 l -9.261098374898463 -25.90494041507659 a48.51061397021549,48.51061397021549 0 0,0 0.7865516214957813,-0.27360348360440867 l 8.81504098135768 26.06010233124959" fill="#b6ff1f" stroke="none" /><path d="M 95.35216902796891 79.52079915486377 l -13.943492916093279 -61.43760253540869 a84.0,84.0 0 0,0 1.4089503335235287,-0.3070741674651436 l 12.886780165950631 61.667908161007546" fill="#4dd2ff" stroke="none" /></svg>