<?xml version="1.0" encoding="utf-8" ?>
<svg baseProfile="full" height="200mm" version="1.1" viewBox="0,0,200,200" width="200mm" xmlns="http://www.w3.org/2000/svg" xmlns:ev="http://www.w3.org/2001/xml-events" xmlns:xlink="http://www.w3.org/1999/xlink"><defs /><rect fill="#1a1a1a" height="200" width="200" x="0" y="0" /><text alignment-baseline="middle" fill="#e1ed5e" style="dominant-baseline: central; font-size:9.0px; font-family:Arial;" text-anchor="middle" x="100.0" y="100.0">2024</text><line stroke="#e1ed5e" stroke-width="0.3" x1="100.0" x2="100.0" y1="15.0" y2="10.0" /><path d="M 100.0 14.0 a86.0,86.0 0 0,1 42.35913384403234,11.155469271406648" fill="none" id="id109" stroke="none" /><text fill="#e1ed5e" style="font-size:6.75px; font-family:Arial;" text-anchor="middle"><textPath startOffset="22.145653131862478" xlink:href="#id109">January</textPath></text><line stroke="#e1ed5e" stroke-width="0.3" x1="143.13028292997686" x2="145.6673583964461" y1="26.7553504044142" y2="22.446841604673864" /><path d="M 143.63769802327073 25.89364864446614 a86.0,86.0 0 0,1 29.32050498858742,28.57503671076993" fill="none" id="id110" stroke="none" /><text fill="#e1ed5e" style="font-size:6.75px; font-family:Arial;" text-anchor="middle"><textPath startOffset="20.669276256404974" xlink:href="#id110">February</textPath></text><path d="M 115.41159269507618 85.73525988315684 l 4.918125490704172 -4.5521435308454965 a27.701490063242105,27.701490063242105 0 0,0 0.32002119902135323,0.35175935718710494 l -4.995544390567403 4.46704659810072" fill="#ff4e07" stroke="none" /><path d="M 115.6541949942343 86.00192230759917 l 5.151406594019844 -4.606419541521933 a27.910578187780402,27.910578187780402 0 0,0 0.31630518129573515,0.35989723297327286 l -5.229722839274169 4.517310030737362" fill="#ff5107" stroke="none" /><path d="M 116.57777611688842 87.10902102172516 l 2.6873435023449126 -2.0896945616752634 a24.404208933172374,24.404208933172374 0 0,0 0.25432442234557795,0.33291883277399675 l -2.722819902044797 2.0432548156603842" fill="#ff2003" stroke="none" /><path d="M 116.7966241395341 87.39550010848427 l 1.8390610182000473 -1.3800656734250334 a23.29928830111169,23.29928830111169 0 0,0 0.23731765298771362,0.32196697445276784 l -1.8624806907715867 1.3482923897033905" fill="#ff1001" stroke="none" /><path d="M 117.01052211995028 87.68569379921539 l 14.205951324634574 -10.284013227308462 a38.537673195077566,38.537673195077566 0 0,0 0.3833303842018264,0.5392021911590714 l -14.380396807366362 10.038633809439885" fill="#ffde14" stroke="none" /><path d="M 117.42321728460499 88.27688183743584 l 5.785471264029464 -3.8927232638179485 a27.973160843948758,27.973160843948758 0 0,0 0.26464682980154014,0.40070903087227355 l -5.8514425327517285 3.792834354606616" fill="#ff5207" stroke="none" /><path d="M 117.81537515405839 88.88188828441811 l 5.90041013687808 -3.682292317858835 a27.955150357651213,27.955150357651213 0 0,0 0.2505740407512369,0.40929386419691083 l -5.962752142084719 3.5804613375373693" fill="#ff5207" stroke="none" /><line stroke="#e1ed5e" stroke-width="0.3" x1="172.87174338648825" x2="177.1583165268699" y1="56.24261187166439" y2="53.66864786411523" /><path d="M 173.72905801456457 55.72781907015455 a86.0,86.0 0 0,1 12.242430191666344,42.057860355516425" fill="none" id="id111" stroke="none" /><text fill="#e1ed5e" style="font-size:6.75px; font-family:Arial;" text-anchor="middle"><textPath startOffset="22.145653131862474" xlink:href="#id111">March</textPath></text><path d="M 118.00360718960297 89.18935116829356 l 13.821395936218115 -8.299351138738304 a37.12173113997946,37.12173113997946 0 0,0 0.32335907385698626,0.5491344004550154 l -13.961828720204869 8.060865569989732" fill="#ffcc13" stroke="none" /><path d="M 118.18653347947321 89.5 l 18.82242809164715 -10.867133925514858 a42.73426785102971,42.73426785102971 0 0,0 0.36134191145631145,0.6384565344300707 l -19.006203368124837 10.54242062098567" fill="#edff1a" stroke="none" /><path d="M 118.53625476483649 90.13048839642627 l 12.947223774626718 -6.893667404709472 a35.668103277418425,35.668103277418425 0 0,0 0.28312309577685646,0.5429258673315981 l -13.063654939378518 6.6703952942733755" fill="#ffb911" stroke="none" /><path d="M 118.8641267826498 90.77261029715802 l 6.2103665113641355 -3.0378014661427355 a27.91352948595521,27.91352948595521 0 0,0 0.20685353197915363,0.43224432438427296 l -6.261599301303201 2.9307446396933594" fill="#ff5107" stroke="none" /><path d="M 119.0197475246899 91.09779779509293 l 12.768908751526288 -5.976494035713962 a35.0983513810562,35.0983513810562 0 0,0 0.2507284745302186,0.5478869661338417 l -12.869621690911558 5.756418087365436" fill="#ffb210" stroke="none" /><path d="M 119.16976305983485 91.42560881287824 l 17.91860452741298 -8.014763889663516 a40.629386857894445,40.629386857894445 0 0,0 0.27930985031928307,0.6391155981387219 l -18.053548259749235 7.705986221748945" fill="#fff817" stroke="none" /><path d="M 119.58574465831526 92.42381321644754 l 6.451181025542988 -2.495455407832694 a27.917010504315236,27.917010504315236 0 0,0 0.16905653027518316,0.44844253167897247 l -6.493068239632612 2.384344595959564" fill="#ff5107" stroke="none" /><path d="M 119.71291397450082 92.76114493625339 l 13.192994033160636 -4.844650150985199 a35.05438460568278,35.05438460568278 0 0,0 0.20258067404570837,0.5666541999622963 l -13.274214877250287 4.617460994641986" fill="#ffb110" stroke="none" /><path d="M 119.83427380445688 93.10060997987247 l 6.391238348384136 -2.223204464747748 a27.76687266896092,27.76687266896092 0 0,0 0.15273707574327816,0.4515400248352058 l -6.42846084569978 2.1131627654383807" fill="#ff4f07" stroke="none" /><path d="M 119.94978838288452 93.4421083053983 l 6.264623914024336 -2.059306311781699 a27.59441091151511,27.59441091151511 0 0,0 0.1440629087258626,0.4512750097170746 l -6.299051538527455 1.9514622683732374" fill="#ff4d07" stroke="none" /><path d="M 120.05942366710727 93.78553927170692 l 7.991385827618875 -2.475751757106043 a29.366097908145797,29.366097908145797 0 0,0 0.14504570200793634,0.48280996842646956 l -8.03270784963044 2.33820418508885" fill="#ff6509" stroke="none" /><path d="M 120.16314734710363 94.1308016681162 l 15.963911521520282 -4.6468619833751506 a37.62647880218374,37.62647880218374 0 0,0 0.17519875405720475,0.6217185712280477 l -16.041328767652068 4.37213548824409" fill="#ffd213" stroke="none" /><path d="M 120.35273937422433 94.82641323984039 l 1.8038436241114488 -0.4585299953735094 a22.86120970793319,22.86120970793319 0 0,0 0.09341795008892967,0.38117711531646103 l -1.8114491007166698 0.4274970554489534" fill="#ff0901" stroke="none" /><path d="M 120.43855184770803 95.1765574152323 l 13.676348646520792 -3.2275810418122197 a35.05203870200537,35.05203870200537 0 0,0 0.13317961755620675,0.5868139682412165 l -13.729739125634666 2.992332739631977" fill="#ffb110" stroke="none" /><path d="M 120.592083275326 95.88100663000786 l 13.921481570724529 -2.7846862079754406 a35.19725770706834,35.19725770706834 0 0,0 0.11342518716846395,0.5934885081873477 l -13.96723305017515 2.5452951347547783" fill="#ffb310" stroke="none" /><path d="M 120.65975698304385 96.23510406497455 l 37.25940511461734 -6.789904787971127 a58.873025711248445,58.873025711248445 0 0,0 0.17265266824817224,0.9958147097943109 l -37.37047260035774 6.1492970452562234" fill="#3cff2e" stroke="none" /><path d="M 120.82617615685814 97.30363454192243 l 6.909212741049664 -0.8945359165869209 a27.96687987603827,27.96687987603827 0 0,0 0.057555723908046204,0.4766439592551168 l -6.9235505512173745 0.775798280408391" fill="#ff5207" stroke="none" /><path d="M 120.86939407059847 97.66154086499901 l 14.110614757408085 -1.5811238154934306 a35.19892254193618,35.19892254193618 0 0,0 0.06213046885012987,0.6010559259072237 l -14.13567761873988 1.3386633673032755" fill="#ffb310" stroke="none" /><path d="M 120.9064616781168 98.02013634271609 l 14.119706123178503 -1.3371508500681117 a35.182879587755174,35.182879587755174 0 0,0 0.05177977862471977,0.6017595162208621 l -14.140579524500964 1.0945702864715876" fill="#ffb310" stroke="none" /><path d="M 120.96210409425399 98.7389718711861 l 15.534338865906323 -0.9345072510065795 a36.56242229869732,36.56242229869732 0 0,0 0.03231144968958985,0.6268334919048871 l -15.548091905052486 0.6677019657249617" fill="#ffc512" stroke="none" /><path d="M 120.98066250479742 99.09900007780936 l 27.042717243620732 -1.1613306360918971 a48.06764202446803,48.06764202446803 0 0,0 0.028326291208392775,0.824689061837632 l -27.05866822182597 0.6969353096901452" fill="#afff20" stroke="none" /><path d="M 120.99303781780057 99.45929381324524 l 7.346674357851941 -0.18922427101021136 a28.34911082683195,28.34911082683195 0 0,0 0.008354305308040332,0.48659640128887177 l -7.348840094758648 0.0630809537522732" fill="#ff5708" stroke="none" /><line stroke="#e1ed5e" stroke-width="0.3" x1="184.99686870605535" x2="189.99668451229388" y1="99.2704041080226" y2="99.22748670261217" /><path d="M 185.99683186730306 99.26182062694052 a86.0,86.0 0 0,1 -10.086455211305974,41.156179273409016" fill="none" id="id112" stroke="none" /><text fill="#e1ed5e" style="font-size:6.75px; font-family:Arial;" text-anchor="middle"><textPath startOffset="21.40746469413373" xlink:href="#id112">April</textPath></text><path d="M 120.99922638620191 100.18025310272382 l 14.204755879397764 0.12193074514299071 a35.20527918415884,35.20527918415884 0 0,0 -0.010374775158054473,0.6042786407666629 l -14.20056967264104 -0.36575630187872465" fill="#ffb310" stroke="none" /><path d="M 120.99303781780057 100.54070618675476 l 6.891644277406292 0.17750431024074578 a27.893929839102,27.893929839102 0 0,0 -0.01643791012604333,0.4785718179865083 l -6.887581680283403 -0.2957823927913648" fill="#ff5107" stroke="none" /><path d="M 120.96210409425399 101.26102812881392 l 26.904432494760933 1.6185038492852708 a47.95307111583575,47.95307111583575 0 0,0 -0.05648423949407909,0.8212684456573686 l -26.872684294101788 -2.080115719096983" fill="#b0ff20" stroke="none" /><path d="M 120.82617615685814 102.69636545807757 l 13.905481082329793 1.800342923537512 a35.02154195419902,35.02154195419902 0 0,0 -0.0823097682919753,0.5955524807955102 l -13.872526797482609 -2.038783712533107" fill="#ffb110" stroke="none" /><path d="M 120.7213421655516 103.40968896794604 l 6.95619723897091 1.144639608529161 a28.049743247869408,28.049743247869408 0 0,0 -0.08225945510552407,0.47445067744913844 l -6.935522966373152 -1.2638833188988876" fill="#ff5307" stroke="none" /><path d="M 120.65975698304385 103.76489593502545 l 7.693927119041634 1.4020898192866433 a28.820637465991602,28.820637465991602 0 0,0 -0.09287616171977936,0.48596732384820857 l -7.668724665039695 -1.5339597081681664" fill="#ff5e08" stroke="none" /><path d="M 120.592083275326 104.11899336999214 l 5.564362979286394 1.113028434931263 a26.674589647033386,26.674589647033386 0 0,0 -0.09366882397109283,0.44823923119764897 l -5.544436444490937 -1.208384117414321" fill="#ff4006" stroke="none" /><path d="M 119.94978838288452 106.5578916946017 l 13.687105494378061 4.4992234364613815 a35.407632294913604,35.407632294913604 0 0,0 -0.19476655798417428,0.5757927209308398 l -13.607853514821521 -4.733517831866382" fill="#ffb610" stroke="none" /><path d="M 119.31412917781788 108.2440532568976 l 12.873000553503607 5.494718460361164 a34.9966451054936,34.9966451054936 0 0,0 -0.2405871331576224,0.5505104432827653 l -12.776779538329018 -5.714890973419775" fill="#ffb110" stroke="none" /><path d="M 118.70294669586154 109.54985784667822 l 12.516797371081658 6.391165923386558 a35.054081908434085,35.054081908434085 0 0,0 -0.278249171601294,0.533579475073973 l -12.405240130505414 -6.605091641565034" fill="#ffb110" stroke="none" /><line stroke="#e1ed5e" stroke-width="0.3" x1="174.33088141563837" x2="178.70328620479359" y1="141.23008692659167" y2="143.65538615756765" /><path d="M 175.20536237346943 141.71514677278685 a86.0,86.0 0 0,1 -30.301960400862466,31.631185727798858" fill="none" id="id113" stroke="none" /><text fill="#e1ed5e" style="font-size:6.75px; font-family:Arial;" text-anchor="middle"><textPath startOffset="22.145653131862474" xlink:href="#id113">May</textPath></text><path d="M 118.18653347947321 110.5 l 54.559600438419636 31.499999999999986 a84.0,84.0 0 0,0 -0.7317051594809385,1.242595326825802 l -54.010821568808936 -32.43194649511934" fill="#4dd2ff" stroke="none" /><path d="M 117.62189284568427 111.42229804090321 l 8.05105964336832 5.218599590688294 a30.59444334336318,30.59444334336318 0 0,0 -0.28944610462622467,0.43825829374758174 l -7.960289099821369 -5.356037762774937" fill="#ff760a" stroke="none" /><path d="M 117.423217284605 111.72311816256416 l 5.84373596426951 3.9319263544104026 a28.043386605646745,28.043386605646745 0 0,0 -0.27216809546126586,0.397101385120063 l -5.775378131992924 -4.03166247460051" fill="#ff5307" stroke="none" /><path d="M 117.01052211995028 112.31430620078461 l 11.093664196127932 8.030957359009019 a34.695461343038865,34.695461343038865 0 0,0 -0.3533947195658751,0.4794478085121639 l -10.95416745697823 -8.220211476790059" fill="#ffad10" stroke="none" /><path d="M 116.57777611688842 112.89097897827486 l 5.154430574921112 4.008116391353271 a27.529406677357166,27.529406677357166 0 0,0 -0.2932977342021498,0.3705721058833727 l -5.0848664100774 -4.0960084411513265" fill="#ff4c07" stroke="none" /><path d="M 115.89218393027572 113.72728997021213 l 4.967492212017968 4.290801460536458 a27.564065512333112,27.564065512333112 0 0,0 -0.3123782202026668,0.3554290721116654 l -4.893102927856716 -4.3754428104594165" fill="#ff4c07" stroke="none" /><path d="M 115.16444852881244 114.52719865689866 l 5.4481193271258945 5.2191750739415115 a28.544653249491,28.544653249491 0 0,0 -0.3420100721021637,0.3509324634196905 l -5.357722453872924 -5.311930229428939" fill="#ff5a08" stroke="none" /><path d="M 113.59037401385872 116.0094264158162 l 9.01522642823434 10.619914063995637 a34.93043008234086,34.93043008234086 0 0,0 -0.4604590269312086,0.3841312970588053 l -8.831593067141236 -10.773107544966313" fill="#ffb010" stroke="none" /><path d="M 111.5731344415666 117.5232005979908 l 3.687738909677188 5.583706729889313 a27.691576728347236,27.691576728347236 0 0,0 -0.39890951551345094,0.258568328467783 l -3.5913437619067277 -5.646188900060991" fill="#ff4e07" stroke="none" /><path d="M 110.96478420261333 117.91015095944535 l 1.1114732333453918 1.8155079962133942 a23.128718401470245,23.128718401470245 0 0,0 -0.3403966305096048,0.20439839623143027 l -1.0801438462783506 -1.834320392980748" fill="#ff0d01" stroke="none" /><line stroke="#e1ed5e" stroke-width="0.3" x1="143.1302829299769" x2="145.66735839644613" y1="173.24464959558577" y2="177.55315839532614" /><path d="M 143.63769802327073 174.10635135553383 a86.0,86.0 0 0,1 -40.68552437913181,11.842963189579606" fill="none" id="id114" stroke="none" /><text fill="#e1ed5e" style="font-size:6.75px; font-family:Arial;" text-anchor="middle"><textPath startOffset="21.407464694133747" xlink:href="#id114">June</textPath></text><path d="M 110.02825361518725 118.45085714620011 l 2.553779768766935 4.698667136321205 a26.347827967063658,26.347827967063658 0 0,0 -0.39924635899292793,0.21257619852313453 l -2.4727445939874535 -4.7418138025669085" fill="#ff3b05" stroke="none" /><path d="M 109.71004243097381 118.62028667847754 l 4.858117875925964 9.316081593940652 a31.506697176627448,31.506697176627448 0 0,0 -0.4817115617680289,0.24596535576952241 l -4.697479092444352 -9.398104901383011" fill="#ff820c" stroke="none" /><path d="M 109.06512990194946 118.94263497670748 l 4.411813062963501 9.218992484510931 a31.220269905046756,31.220269905046756 0 0,0 -0.48541764190359643,0.22719996658449074 l -4.252906707188399 -9.293368682665955" fill="#ff7f0b" stroke="none" /><path d="M 106.38641147887787 120.00534299687104 l 1.6958090940490234 5.312097833950508 a26.576213041206465,26.576213041206465 0 0,0 -0.43579847159708296,0.1350114804958792 l -1.604369989580316 -5.340425902253032" fill="#ff3f05" stroke="none" /><path d="M 105.3480935250658 120.30758222061773 l 1.3415860419106176 5.094220720793723 a26.267915893407327,26.267915893407327 0 0,0 -0.43704146529318944,0.11109423144017135 l -1.2539392833920309 -5.116500184069165" fill="#ff3a05" stroke="none" /><path d="M 104.9986988182912 120.39639698878246 l 2.5516681807631465 10.411676936415407 a31.719796039711,31.719796039711 0 0,0 -0.5299741200125576,0.12507244927825076 l -2.37256190701071 -10.453945529339883" fill="#ff850c" stroke="none" /><line stroke="#e1ed5e" stroke-width="0.3" x1="101.45913802915013" x2="101.54496967792366" y1="184.9874750549273" y2="189.98673829345242" /><path d="M 101.47630435890484 185.9873277026323 a86.0,86.0 0 0,1 -42.54439059252881,-10.42667462771756" fill="none" id="id115" stroke="none" /><text fill="#e1ed5e" style="font-size:6.75px; font-family:Arial;" text-anchor="middle"><textPath startOffset="22.145653131862474" xlink:href="#id115">July</textPath></text><path d="M 93.61358852112213 120.00534299687104 l -1.7017236100039472 5.330624970939736 a26.595661339435324,26.595661339435324 0 0,0 -0.4337337755227407,-0.142576907061786 l 1.7929801231744316 -5.300627142475928" fill="#ff3f05" stroke="none" /><path d="M 90.28995756902619 118.62028667847754 l -0.8808161947168657 1.6890811933381928 a22.904949460370084,22.904949460370084 0 0,0 -0.347076718673015,-0.18479880351945732 l 0.9096817291764425 -1.6737119220961623" fill="#ff0a01" stroke="none" /><line stroke="#e1ed5e" stroke-width="0.3" x1="58.13341422392154" x2="55.67067388415222" y1="173.97424548756322" y2="178.32567169271397" /><path d="M 57.64086615596768 174.84453072859336 a86.0,86.0 0 0,1 -31.369924170532247,-30.572349798747897" fill="none" id="id116" stroke="none" /><text fill="#e1ed5e" style="font-size:6.75px; font-family:Arial;" text-anchor="middle"><textPath startOffset="22.145653131862474" xlink:href="#id116">August</textPath></text><path d="M 88.4268655584334 117.5232005979908 l -0.678319423765628 1.027062062760383 a22.230842687519143,22.230842687519143 0 0,0 -0.3166346460270721,-0.2130459208022901 l 0.6958503578897057 -1.0152664679009717" fill="#ff0000" stroke="none" /><path d="M 84.83555147118756 114.52719865689866 l -4.114327648809272 3.9414328177025886 a26.69759463793445,26.69759463793445 0 0,0 -0.31419784609713297,-0.3336672243650516 l 4.181381328642658 -3.870224133393047" fill="#ff4006" stroke="none" /><line stroke="#e1ed5e" stroke-width="0.3" x1="26.387840678322732" x2="22.057713659400548" y1="142.50000000000003" y2="145.00000000000006" /><path d="M 25.521815274538298 143.00000000000003 a86.0,86.0 0 0,1 -11.493303480769221,-40.785679425670985" fill="none" id="id117" stroke="none" /><text fill="#e1ed5e" style="font-size:6.75px; font-family:Arial;" text-anchor="middle"><textPath startOffset="21.40746469413373" xlink:href="#id117">September</textPath></text><line stroke="#e1ed5e" stroke-width="0.3" x1="15.003131293944662" x2="10.003315487706104" y1="100.72959589197737" y2="100.7725132973878" /><path d="M 14.003168132696942 100.73817937305945 a86.0,86.0 0 0,1 10.791469493833604,-42.45332614584628" fill="none" id="id118" stroke="none" /><text fill="#e1ed5e" style="font-size:6.75px; font-family:Arial;" text-anchor="middle"><textPath startOffset="22.145653131862435" xlink:href="#id118">October</textPath></text><line stroke="#e1ed5e" stroke-width="0.3" x1="26.387840678322718" x2="22.05771365940052" y1="57.49999999999999" y2="54.99999999999999" /><path d="M 25.521815274538284 56.99999999999999 a86.0,86.0 0 0,1 29.574782752854787,-30.34633250058573" fill="none" id="id119" stroke="none" /><text fill="#e1ed5e" style="font-size:6.75px; font-family:Arial;" text-anchor="middle"><textPath startOffset="21.40746469413373" xlink:href="#id119">November</textPath></text><line stroke="#e1ed5e" stroke-width="0.3" x1="56.869717070023135" x2="54.33264160355391" y1="26.7553504044142" y2="22.446841604673864" /><path d="M 56.362301976729285 25.89364864446614 a86.0,86.0 0 0,1 42.16139366436587,-11.88097634709845" fill="none" id="id120" stroke="none" /><text fill="#e1ed5e" style="font-size:6.75px; font-family:Arial;" text-anchor="middle"><textPath startOffset="22.145653131862474" xlink:href="#id120">December</textPath></text></svg>