<?xml version="1.0" encoding="utf-8" ?>
<svg baseProfile="full" height="200mm" version="1.1" viewBox="0,0,200,200" width="200mm" xmlns="http://www.w3.org/2000/svg" xmlns:ev="http://www.w3.org/2001/xml-events" xmlns:xlink="http://www.w3.org/1999/xlink"><defs /><rect fill="#1a1a1a" height="200" width="200" x="0" y="0" /><text alignment-baseline="middle" fill="#e1ed5e" style="dominant-baseline: central; font-size:9.0px; font-family:Arial;" text-anchor="middle" x="100.0" y="100.0">2025</text><line stroke="#e1ed5e" stroke-width="0.3" x1="100.0" x2="100.0" y1="15.0" y2="10.0" /><path d="M 100.0 14.0 a86.0,86.0 0 0,1 42.46469731375804,11.215312516191453" fill="none" id="id121" stroke="none" /><text fill="#e1ed5e" style="font-size:6.75px; font-family:Arial;" text-anchor="middle"><textPath startOffset="22.20632615414155" xlink:href="#id121">January</textPath></text><path d="M 106.0581310904928 79.89281104454417 l 6.183635455000747 -20.523743159087402 a42.435050284534654,42.435050284534654 0 0,0 0.6975809556179791,0.21674179856060208 l -6.536001783329445 20.414261225644278" fill="#ffd113" stroke="none" /><line stroke="#e1ed5e" stroke-width="0.3" x1="143.23703022742887" x2="145.7803849466894" y1="26.81831364943548" y2="22.513508569990506" /><path d="M 143.74570117128098 25.957352633546492 a86.0,86.0 0 0,1 28.547481713284135,27.462654790039103" fill="none" id="id122" stroke="none" /><text fill="#e1ed5e" style="font-size:6.75px; font-family:Arial;" text-anchor="middle"><textPath startOffset="19.985693538727396" xlink:href="#id122">February</textPath></text><line stroke="#e1ed5e" stroke-width="0.3" x1="172.23445277983987" x2="176.4835382374775" y1="55.19839476539836" y2="52.563006222186495" /><path d="M 173.08426987136738 54.67131705675599 a86.0,86.0 0 0,1 12.851231095245387,41.99856678651699" fill="none" id="id123" stroke="none" /><text fill="#e1ed5e" style="font-size:6.75px; font-family:Arial;" text-anchor="middle"><textPath startOffset="22.20632615414155" xlink:href="#id123">March</textPath></text><path d="M 119.04729006885535 91.15688171328212 l 14.361020276984744 -6.667415709439128 a36.83329831836824,36.83329831836824 0 0,0 0.26203854416009825,0.5773671975314993 l -14.47366113810819 6.419226503065566" fill="#ff7f0b" stroke="none" /><path d="M 120.08093135843002 93.85539295169968 l 39.744018223180966 -12.161356968107631 a62.56303150433424,62.56303150433424 0 0,0 0.3062433665457307,1.0325003902596803 l -39.9474674868384 11.47542719110142" fill="#31ff2f" stroke="none" /><line stroke="#e1ed5e" stroke-width="0.3" x1="184.98032266829074" x2="189.97916517819016" y1="98.17113171792111" y2="98.06355123074" /><path d="M 185.9800911702706 98.14961562048488 a86.0,86.0 0 0,1 -9.607161424134198,41.387399972396054" fill="none" id="id124" stroke="none" /><text fill="#e1ed5e" style="font-size:6.75px; font-family:Arial;" text-anchor="middle"><textPath startOffset="21.466115282336823" xlink:href="#id124">April</textPath></text><line stroke="#e1ed5e" stroke-width="0.3" x1="174.80103733775053" x2="179.2010983576182" y1="140.37084112569926" y2="142.7455964860345" /><path d="M 175.68104954172406 140.8457921977663 a86.0,86.0 0 0,1 -30.038265399797805,32.042727171017184" fill="none" id="id125" stroke="none" /><text fill="#e1ed5e" style="font-size:6.75px; font-family:Arial;" text-anchor="middle"><textPath startOffset="22.206326154141568" xlink:href="#id125">May</textPath></text><path d="M 118.12598468904814 110.60418214915192 l 11.966656643730131 7.000811759658237 a34.86406277117568,34.86406277117568 0 0,0 -0.3074995798132951,0.5153869831098671 l -11.844376188218607 -7.205760836654209" fill="#ff6109" stroke="none" /><line stroke="#e1ed5e" stroke-width="0.3" x1="143.8653032363475" x2="146.44561519142675" y1="172.8068346515853" y2="177.08958963109032" /><path d="M 144.38136562736335 173.6633856474863 a86.0,86.0 0 0,1 -40.68145358897372,12.25698825130547" fill="none" id="id126" stroke="none" /><text fill="#e1ed5e" style="font-size:6.75px; font-family:Arial;" text-anchor="middle"><textPath startOffset="21.466115282336833" xlink:href="#id126">June</textPath></text><path d="M 101.62511606390274 120.93702456842531 l 2.756657138312094 35.51512382011615 a56.62194798907534,56.62194798907534 0 0,0 -0.9723801429571013,0.06706102777148104 l -2.144914234576062 -35.55731319240392" fill="#74ff27" stroke="none" /><line stroke="#e1ed5e" stroke-width="0.3" x1="102.19456741930631" x2="102.32365962044197" y1="184.97166512339345" y2="189.96999836594603" /><path d="M 102.22038585953345 185.97133177190398 a86.0,86.0 0 0,1 -42.740103519485714,-10.115201625700543" fill="none" id="id127" stroke="none" /><text fill="#e1ed5e" style="font-size:6.75px; font-family:Arial;" text-anchor="middle"><textPath startOffset="22.20632615414155" xlink:href="#id127">July</textPath></text><path d="M 99.09653310690486 120.98055641714683 l -0.7269526172526141 16.881493406593435 a37.89713821167916,37.89713821167916 0 0,0 -0.6514913841618701,-0.033674662961403604 l 1.017432069827973 -16.866478936869832" fill="#ff8f0d" stroke="none" /><path d="M 98.73552117531835 120.96189622390904 l -1.3533920940660789 22.4358558422001 a43.47663892872475,43.47663892872475 0 0,0 -0.74663309685079,-0.051492189763100334 l 1.739387951695799 -22.409235307920717" fill="#ffe015" stroke="none" /><path d="M 94.11515582081647 120.15858648285463 l -10.646710200878987 36.470401221751025 a58.9926651260082,58.9926651260082 0 0,0 -0.9723256059322669,-0.2929537289588238 l 11.2729107812515 -36.281732123686474" fill="#59ff2a" stroke="none" /><path d="M 93.76903079525671 120.05430185196036 l -2.8596196986939466 9.203652711967303 a30.637668186011673,30.637668186011673 0 0,0 -0.5022807234585803,-0.160814426148978 l 3.0176217672434675 -9.153065439158619" fill="#ff1f03" stroke="none" /><line stroke="#e1ed5e" stroke-width="0.3" x1="58.666819895761336" x2="56.23545636021788" y1="174.27360380694188" y2="178.64263932499728" /><path d="M 58.180547188652646 175.14741091055294 a86.0,86.0 0 0,1 -31.652253787137756,-30.449443065178592" fill="none" id="id128" stroke="none" /><text fill="#e1ed5e" style="font-size:6.75px; font-family:Arial;" text-anchor="middle"><textPath startOffset="22.20632615414155" xlink:href="#id128">August</textPath></text><path d="M 89.4739219176387 118.17145234162733 l -7.992077444230616 13.796938731795239 a36.944554563972346,36.944554563972346 0 0,0 -0.547539636707296,-0.3234960685330813 l 8.228384951966294 -13.657324090968407" fill="#ff810b" stroke="none" /><path d="M 89.1626897886671 117.98757091392108 l -4.986507003986888 8.276513876402776 a30.662604930716043,30.662604930716043 0 0,0 -0.44974857632946147,-0.2762723090465007 l 5.1282347802486585 -8.189453100527896" fill="#ff1f03" stroke="none" /><path d="M 87.36589467227662 116.77436683061367 l -4.658752048145864 6.185449131644484 a28.743626515158436,28.743626515158436 0 0,0 -0.3926533660053252,-0.30106985745440956 l 4.764534142644676 -6.104339932362707" fill="#ff0000" stroke="none" /><path d="M 87.07902340077011 116.55440617244103 l -8.300786514066308 10.63500041573984 a34.49097070617573,34.49097070617573 0 0,0 -0.4648767060613397,-0.3693261707076872 l 8.482620712845005 -10.490540331027024" fill="#ff5c08" stroke="none" /><path d="M 86.24171649860922 115.8653595955263 l -9.294384874561395 10.717816524076639 a35.18651406231446,35.18651406231446 0 0,0 -0.4541701767214391,-0.40075237549569287 l 9.477497404189421 -10.556241006808657" fill="#ff6609" stroke="none" /><path d="M 85.70375840098266 115.38237550388516 l -30.54279575940669 32.86323542139625 a65.86484832430557,65.86484832430557 0 0,0 -0.8238254965751962,-0.7789784276066821 l 31.103957090372706 -32.33262235704363" fill="#34ff59" stroke="none" /><path d="M 82.05923443525364 110.91462005526583 l -53.82229669423909 32.743860165797486 a84.0,84.0 0 0,0 -0.7408764972070725,-1.2417516244555555 l 54.3779540671444 -31.812546447455823" fill="#4dd2ff" stroke="none" /><line stroke="#e1ed5e" stroke-width="0.3" x1="26.63291911575756" x2="22.317208475507996" y1="142.92168965132927" y2="145.44649492493687" /><path d="M 25.769776987707644 143.4266507060508 a86.0,86.0 0 0,1 -11.730757126820373,-40.83630448921669" fill="none" id="id129" stroke="none" /><text fill="#e1ed5e" style="font-size:6.75px; font-family:Arial;" text-anchor="middle"><textPath startOffset="21.46611528233685" xlink:href="#id129">September</textPath></text><line stroke="#e1ed5e" stroke-width="0.3" x1="15.007084014347285" x2="10.007500721073583" y1="101.09737516637583" y2="101.16192664675087" /><path d="M 14.007167355692545 101.11028546245083 a86.0,86.0 0 0,1 10.666146001902534,-42.60595125391555" fill="none" id="id130" stroke="none" /><text fill="#e1ed5e" style="font-size:6.75px; font-family:Arial;" text-anchor="middle"><textPath startOffset="22.20632615414155" xlink:href="#id130">October</textPath></text><line stroke="#e1ed5e" stroke-width="0.3" x1="26.266209847984243" x2="21.928928074336255" y1="57.711370442889674" y2="55.22380399835377" /><path d="M 25.398753493254645 57.213857153982495 a86.0,86.0 0 0,1 29.58750427330803,-30.492523968695096" fill="none" id="id131" stroke="none" /><text fill="#e1ed5e" style="font-size:6.75px; font-family:Arial;" text-anchor="middle"><textPath startOffset="21.46611528233685" xlink:href="#id131">November</textPath></text><line stroke="#e1ed5e" stroke-width="0.3" x1="56.762969772571076" x2="54.21961505331055" y1="26.818313649435495" y2="22.513508569990535" /><path d="M 56.25429882871897 25.957352633546506 a86.0,86.0 0 0,1 42.265352541879196,-11.944610805530505" fill="none" id="id132" stroke="none" /><text fill="#e1ed5e" style="font-size:6.75px; font-family:Arial;" text-anchor="middle"><textPath startOffset="22.20632615414155" xlink:href="#id132">December</textPath></text></svg>