<?xml version="1.0" encoding="utf-8" ?>
<svg baseProfile="full" height="200mm" version="1.1" viewBox="0,0,200,200" width="200mm" xmlns="http://www.w3.org/2000/svg" xmlns:ev="http://www.w3.org/2001/xml-events" xmlns:xlink="http://www.w3.org/1999/xlink"><defs /><rect fill="#1a1a1a" height="200" width="200" x="0" y="0" /><text alignment-baseline="middle" fill="#e1ed5e" style="dominant-baseline: central; font-size:9.0px; font-family:Arial;" text-anchor="middle" x="100.0" y="100.0">2022</text><line stroke="#e1ed5e" stroke-width="0.3" x1="100.0" x2="100.0" y1="15.0" y2="10.0" /><path d="M 100.0 14.0 a86.0,86.0 0 0,1 42.46469731375804,11.215312516191453" fill="none" id="id85" stroke="none" /><text fill="#e1ed5e" style="font-size:6.75px; font-family:Arial;" text-anchor="middle"><textPath startOffset="22.20632615414155" xlink:href="#id85">January</textPath></text><line stroke="#e1ed5e" stroke-width="0.3" x1="143.23703022742887" x2="145.7803849466894" y1="26.81831364943548" y2="22.513508569990506" /><path d="M 143.74570117128098 25.957352633546492 a86.0,86.0 0 0,1 28.547481713284135,27.462654790039103" fill="none" id="id86" stroke="none" /><text fill="#e1ed5e" style="font-size:6.75px; font-family:Arial;" text-anchor="middle"><textPath startOffset="19.985693538727396" xlink:href="#id86">February</textPath></text><line stroke="#e1ed5e" stroke-width="0.3" x1="172.23445277983987" x2="176.4835382374775" y1="55.19839476539836" y2="52.563006222186495" /><path d="M 173.08426987136738 54.67131705675599 a86.0,86.0 0 0,1 12.851231095245387,41.99856678651699" fill="none" id="id87" stroke="none" /><text fill="#e1ed5e" style="font-size:6.75px; font-family:Arial;" text-anchor="middle"><textPath startOffset="22.20632615414155" xlink:href="#id87">March</textPath></text><line stroke="#e1ed5e" stroke-width="0.3" x1="184.98032266829074" x2="189.97916517819016" y1="98.17113171792111" y2="98.06355123074" /><path d="M 185.9800911702706 98.14961562048488 a86.0,86.0 0 0,1 -9.607161424134198,41.387399972396054" fill="none" id="id88" stroke="none" /><text fill="#e1ed5e" style="font-size:6.75px; font-family:Arial;" text-anchor="middle"><textPath startOffset="21.466115282336823" xlink:href="#id88">April</textPath></text><line stroke="#e1ed5e" stroke-width="0.3" x1="174.80103733775053" x2="179.2010983576182" y1="140.37084112569926" y2="142.7455964860345" /><path d="M 175.68104954172406 140.8457921977663 a86.0,86.0 0 0,1 -30.038265399797805,32.042727171017184" fill="none" id="id89" stroke="none" /><text fill="#e1ed5e" style="font-size:6.75px; font-family:Arial;" text-anchor="middle"><textPath startOffset="22.206326154141568" xlink:href="#id89">May</textPath></text><line stroke="#e1ed5e" stroke-width="0.3" x1="143.8653032363475" x2="146.44561519142675" y1="172.8068346515853" y2="177.08958963109032" /><path d="M 144.38136562736335 173.6633856474863 a86.0,86.0 0 0,1 -40.68145358897372,12.25698825130547" fill="none" id="id90" stroke="none" /><text fill="#e1ed5e" style="font-size:6.75px; font-family:Arial;" text-anchor="middle"><textPath startOffset="21.466115282336833" xlink:href="#id90">June</textPath></text><path d="M 107.2578585660854 119.70592522655815 l 10.203104360110316 27.702608113449063 a50.5218196402362,50.5218196402362 0 0,0 -0.8186469992840414,0.293537687878136 l -9.72473780019654 -27.87413334236716" fill="#a0ff22" stroke="none" /><path d="M 105.18746579009965 120.34920634021253 l 8.886481080215512 34.85957198692702 a56.974425709116964,56.974425709116964 0 0,0 -0.952413571372736,0.23408008373635208 l -8.285114224099566 -35.00737332897741" fill="#59ff2a" stroke="none" /><path d="M 104.48393922423573 120.51570834832081 l 0.725079771813386 3.3175126565917976 a24.395825511144487,24.395825511144487 0 0,0 -0.4110214938724728,0.08613355032810643 l -0.6678668165115352 -3.3295021876464452" fill="#ff0300" stroke="none" /><path d="M 103.41894727170886 120.7198165907248 l 0.5254106343329085 3.1841415245789926 a24.22719903061747,24.22719903061747 0 0,0 -0.4120517437597647,0.06435400810316194 l -0.4705230269646266 -3.1927138400292603" fill="#ff0000" stroke="none" /><path d="M 101.62511606390274 120.93702456842531 l 0.4144608987427121 5.339666632048735 a26.35572754889579,26.35572754889579 0 0,0 -0.4526122295664984,0.03121478931518039 l -0.32248590839728336 -5.346009765880201" fill="#ff2003" stroke="none" /><line stroke="#e1ed5e" stroke-width="0.3" x1="102.19456741930631" x2="102.32365962044197" y1="184.97166512339345" y2="189.96999836594603" /><path d="M 102.22038585953345 185.97133177190398 a86.0,86.0 0 0,1 -42.740103519485714,-10.115201625700543" fill="none" id="id91" stroke="none" /><text fill="#e1ed5e" style="font-size:6.75px; font-family:Arial;" text-anchor="middle"><textPath startOffset="22.20632615414155" xlink:href="#id91">July</textPath></text><path d="M 100.18074693466247 120.99922214144158 l 0.5422408039873879 62.99766642432473 a84.0,84.0 0 0,0 -1.4459754772996436,0.0 l 0.5422408039873445 -62.99766642432473" fill="#4dd2ff" stroke="none" /><path d="M 99.45781275523022 120.99299961872073 l -0.139155594096159 5.387978713966137 a26.389775403624945,26.389775403624945 0 0,0 -0.4540042274860369,-0.015636823563686546 l 0.23188017325683896 -5.384785091976356" fill="#ff2003" stroke="none" /><path d="M 98.73552117531835 120.96189622390904 l -0.30353836414239893 5.0319068733555055 a26.04105369150425,26.04105369150425 0 0,0 -0.44720827189103546,-0.030842100754667343 l 0.39010939681236445 -5.025936428084552" fill="#ff1b02" stroke="none" /><path d="M 98.37488393609728 120.93702456842531 l -0.41364271046600576 5.3291255830544975 a26.345154794006213,26.345154794006213 0 0,0 -0.4518265332876191,-0.03898549447895706 l 0.5053135614951666 -5.321215836296877" fill="#ff2003" stroke="none" /><path d="M 98.01472825383883 120.90594882070398 l -1.1055978828717161 11.642523397760717 a32.69490050175786,32.69490050175786 0 0,0 -0.5598104989359789,-0.05802664714174193 l 1.3058409784132885 -11.621767382163215" fill="#ff7b0b" stroke="none" /><path d="M 97.65516085044442 120.86867818915974 l -4.924726473752165 43.82924601452847 a65.10505341843874,65.10505341843874 0 0,0 -1.112591347269146,-0.13471931779077104 l 5.678445244072701 -43.737981168012354" fill="#35ff62" stroke="none" /><path d="M 95.51606077576429 120.51570834832081 l -2.4806528636519936 11.349919818055904 a32.617844830528725,32.617844830528725 0 0,0 -0.547482527285312,-0.12460524076005615 l 2.6756555403301685 -11.305537843718161" fill="#ff7a0b" stroke="none" /><path d="M 95.16358092515715 120.4354850818985 l -10.132138657279707 42.81166813181804 a64.9943082909513,64.9943082909513 0 0,0 -1.0864780207583604,-0.2670298636234899 l 10.867569962781278 -42.63091700988052" fill="#35ff61" stroke="none" /><path d="M 94.81253420990036 120.34920634021253 l -2.39564171326759 9.397538126138867 a30.69808342151073,30.69808342151073 0 0,0 -0.5109177877708656,-0.1349380314097974 l 2.557049943849945 -9.354908745425488" fill="#ff5f08" stroke="none" /><path d="M 94.46302465271185 120.25689768951611 l -1.6771854959781503 6.135944783465486 a27.36103525958289,27.36103525958289 0 0,0 -0.4532405416761701,-0.12809030437508845 l 1.7825572057589343 -6.1061656857518765" fill="#ff2f04" stroke="none" /><path d="M 93.08242187328487 119.8279376855182 l -6.29186279627873 18.03444228098451 a40.10048810458409,40.10048810458409 0 0,0 -0.6497815100566806,-0.2329885313875346 l 6.601363866965137 -17.92346620855702" fill="#ffdf14" stroke="none" /><path d="M 92.06813273071674 119.44442032107085 l -1.7523640953147388 4.295798563953002 a25.63946820493566,25.63946820493566 0 0,0 -0.4072140195073053,-0.17021549318008908 l 1.8260495743195064 -4.26499802775294" fill="#ff1502" stroke="none" /><path d="M 91.07499286063937 119.00905698771935 l -4.571031193443746 9.73567764059398 a31.755358910468647,31.755358910468647 0 0,0 -0.4927937710489223,-0.23657095713163503 l 4.737937632492911 -9.655552406962784" fill="#ff6e0a" stroke="none" /><path d="M 90.7491055286396 118.85261126421891 l -5.044069393082182 10.279425384423282 a32.450293545414205,32.450293545414205 0 0,0 -0.49934216922609237,-0.25038052982335246 l 5.220265469991036 -10.191077013690627" fill="#ff780b" stroke="none" /><path d="M 90.42595943632237 118.69057910512821 l -2.370634664267961 4.627986943146955 a26.199824214083353,26.199824214083353 0 0,0 -0.39962104990369074,-0.20906284605239173 l 2.4499466166981474 -4.586494678149847" fill="#ff1e03" stroke="none" /><path d="M 90.10565033884886 118.52300852407294 l -10.708521878293507 20.047203588393806 a43.72801822712223,43.72801822712223 0 0,0 -0.6608702603562326,-0.3603591587725168 l 11.052014950518378 -19.859903777861522" fill="#f1ff19" stroke="none" /><line stroke="#e1ed5e" stroke-width="0.3" x1="58.666819895761336" x2="56.23545636021788" y1="174.27360380694188" y2="178.64263932499728" /><path d="M 58.180547188652646 175.14741091055294 a86.0,86.0 0 0,1 -31.652253787137756,-30.449443065178592" fill="none" id="id92" stroke="none" /><text fill="#e1ed5e" style="font-size:6.75px; font-family:Arial;" text-anchor="middle"><textPath startOffset="22.20632615414155" xlink:href="#id92">August</textPath></text><path d="M 82.44556493220864 111.52570212397912 l -3.552141164304678 2.3322266312755295 a25.24935146943373,25.24935146943373 0 0,0 -0.23541429621898904,-0.3653682155977405 l 3.5917603239007128 -2.270736815756341" fill="#ff0f01" stroke="none" /><line stroke="#e1ed5e" stroke-width="0.3" x1="26.63291911575756" x2="22.317208475507996" y1="142.92168965132927" y2="145.44649492493687" /><path d="M 25.769776987707644 143.4266507060508 a86.0,86.0 0 0,1 -11.730757126820373,-40.83630448921669" fill="none" id="id93" stroke="none" /><text fill="#e1ed5e" style="font-size:6.75px; font-family:Arial;" text-anchor="middle"><textPath startOffset="21.46611528233685" xlink:href="#id93">September</textPath></text><path d="M 79.50377843672027 104.57218783832718 l -5.515307461313984 1.2303253856521934 a26.650868689626925,26.650868689626925 0 0,0 -0.09602683801092025,-0.4486054182065509 l 5.535668338049345 -1.1352061480294786" fill="#ff2403" stroke="none" /><line stroke="#e1ed5e" stroke-width="0.3" x1="15.007084014347285" x2="10.007500721073583" y1="101.09737516637583" y2="101.16192664675087" /><path d="M 14.007167355692545 101.11028546245083 a86.0,86.0 0 0,1 10.666146001902534,-42.60595125391555" fill="none" id="id94" stroke="none" /><text fill="#e1ed5e" style="font-size:6.75px; font-family:Arial;" text-anchor="middle"><textPath startOffset="22.20632615414155" xlink:href="#id94">October</textPath></text><path d="M 79.54389044137918 95.25157060432595 l -26.10550650843826 -6.059810842252153 a47.7996040550227,47.7996040550227 0 0,0 0.1929446944945751,-0.7998803231318266 l 25.99732901368287 6.508276397043376" fill="#bfff1e" stroke="none" /><line stroke="#e1ed5e" stroke-width="0.3" x1="26.266209847984243" x2="21.928928074336255" y1="57.711370442889674" y2="55.22380399835377" /><path d="M 25.398753493254645 57.213857153982495 a86.0,86.0 0 0,1 29.58750427330803,-30.492523968695096" fill="none" id="id95" stroke="none" /><text fill="#e1ed5e" style="font-size:6.75px; font-family:Arial;" text-anchor="middle"><textPath startOffset="21.46611528233685" xlink:href="#id95">November</textPath></text><path d="M 84.07557802195018 86.31012108654704 l -2.7688502425567707 -2.380320278019229 a24.65136362084855,24.65136362084855 0 0,0 0.2793916721744336,-0.31939297902940855 l 2.7274667068044938 2.4276288132515806" fill="#ff0601" stroke="none" /><path d="M 85.83668400450813 84.49514656593479 l -2.514366880313795 -2.7525256070783093 a24.728060893606855,24.728060893606855 0 0,0 0.3167417465922852,-0.28437386747712806 l 2.4666141461255386 2.7953984833247163" fill="#ff0801" stroke="none" /><line stroke="#e1ed5e" stroke-width="0.3" x1="56.762969772571076" x2="54.21961505331055" y1="26.818313649435495" y2="22.513508569990535" /><path d="M 56.25429882871897 25.957352633546506 a86.0,86.0 0 0,1 42.265352541879196,-11.944610805530505" fill="none" id="id96" stroke="none" /><text fill="#e1ed5e" style="font-size:6.75px; font-family:Arial;" text-anchor="middle"><textPath startOffset="22.20632615414155" xlink:href="#id96">December</textPath></text></svg>