<?xml version="1.0" encoding="utf-8" ?>
<svg baseProfile="full" height="200mm" version="1.1" viewBox="0,0,200,200" width="200mm" xmlns="http://www.w3.org/2000/svg" xmlns:ev="http://www.w3.org/2001/xml-events" xmlns:xlink="http://www.w3.org/1999/xlink"><defs /><rect fill="#1a1a1a" height="200" width="200" x="0" y="0" /><text alignment-baseline="middle" fill="#e1ed5e" style="dominant-baseline: central; font-size:9.0px; font-family:Arial;" text-anchor="middle" x="100.0" y="100.0">2015</text><line stroke="#e1ed5e" stroke-width="0.3" x1="100.0" x2="100.0" y1="15.0" y2="10.0" /><path d="M 100.0 14.0 a86.0,86.0 0 0,1 42.46469731375804,11.215312516191453" fill="none" id="id1" stroke="none" /><text fill="#e1ed5e" style="font-size:6.75px; font-family:Arial;" text-anchor="middle"><textPath startOffset="22.20632615414155" xlink:href="#id1">January</textPath></text><line stroke="#e1ed5e" stroke-width="0.3" x1="143.23703022742887" x2="145.7803849466894" y1="26.81831364943548" y2="22.513508569990506" /><path d="M 143.74570117128098 25.957352633546492 a86.0,86.0 0 0,1 28.547481713284135,27.462654790039103" fill="none" id="id2" stroke="none" /><text fill="#e1ed5e" style="font-size:6.75px; font-family:Arial;" text-anchor="middle"><textPath startOffset="19.985693538727396" xlink:href="#id2">February</textPath></text><line stroke="#e1ed5e" stroke-width="0.3" x1="172.23445277983987" x2="176.4835382374775" y1="55.19839476539836" y2="52.563006222186495" /><path d="M 173.08426987136738 54.67131705675599 a86.0,86.0 0 0,1 12.851231095245387,41.99856678651699" fill="none" id="id3" stroke="none" /><text fill="#e1ed5e" style="font-size:6.75px; font-family:Arial;" text-anchor="middle"><textPath startOffset="22.20632615414155" xlink:href="#id3">March</textPath></text><line stroke="#e1ed5e" stroke-width="0.3" x1="184.98032266829074" x2="189.97916517819016" y1="98.17113171792111" y2="98.06355123074" /><path d="M 185.9800911702706 98.14961562048488 a86.0,86.0 0 0,1 -9.607161424134198,41.387399972396054" fill="none" id="id4" stroke="none" /><text fill="#e1ed5e" style="font-size:6.75px; font-family:Arial;" text-anchor="middle"><textPath startOffset="21.466115282336823" xlink:href="#id4">April</textPath></text><line stroke="#e1ed5e" stroke-width="0.3" x1="174.80103733775053" x2="179.2010983576182" y1="140.37084112569926" y2="142.7455964860345" /><path d="M 175.68104954172406 140.8457921977663 a86.0,86.0 0 0,1 -30.038265399797805,32.042727171017184" fill="none" id="id5" stroke="none" /><text fill="#e1ed5e" style="font-size:6.75px; font-family:Arial;" text-anchor="middle"><textPath startOffset="22.206326154141568" xlink:href="#id5">May</textPath></text><path d="M 115.56566222782051 114.09645910891815 l 12.84418042280646 11.631851023598232 a38.32838506522717,38.32838506522717 0 0,0 -0.44707979035478657,0.48521681309913817 l -12.64205422445595 -11.851219091498704" fill="#ff0000" stroke="none" /><path d="M 114.81725581225074 114.88116024355365 l 33.17941065710696 33.322508096732406 a68.02406657669815,68.02406657669815 0 0,0 -0.8368581352229576,0.8190418206050589 l -32.600902569508214 -33.88870002026003" fill="#32ff4a" stroke="none" /><path d="M 114.55890576462653 115.13401014063108 l 12.95325646339954 13.464934648288276 a39.68398560503824,39.68398560503824 0 0,0 -0.49636004604736045,0.4693394047697593 l -12.719560582961371 -13.685908689803957" fill="#ff1b02" stroke="none" /><path d="M 114.0293411484842 115.62618273729858 l 32.84767541805466 36.586449295478864 a70.16846603688708,70.16846603688708 0 0,0 -0.905699966862506,0.7991749168266908 l -32.21303309828557 -37.14644735407784" fill="#36ff6c" stroke="none" /><path d="M 113.75828350139079 115.86535959552629 l 34.20075331924674 39.438586201024854 a73.20242914979757,73.20242914979757 0 0,0 -0.9590721646443818,0.8173421053362055 l -33.51681567802531 -40.02145269658401" fill="#3bff9a" stroke="none" /><path d="M 113.20401910651253 116.32954008644616 l 29.74319643538529 36.783703096211944 a68.30431848852902,68.30431848852902 0 0,0 -0.9206202649155164,0.7313964169077538 l -29.10561867775242 -37.290233427124825" fill="#33ff4e" stroke="none" /><line stroke="#e1ed5e" stroke-width="0.3" x1="143.8653032363475" x2="146.44561519142675" y1="172.8068346515853" y2="177.08958963109032" /><path d="M 144.38136562736335 173.6633856474863 a86.0,86.0 0 0,1 -40.68145358897372,12.25698825130547" fill="none" id="id6" stroke="none" /><text fill="#e1ed5e" style="font-size:6.75px; font-family:Arial;" text-anchor="middle"><textPath startOffset="21.466115282336833" xlink:href="#id6">June</textPath></text><path d="M 107.2578585660854 119.70592522655815 l 13.503055954221718 36.66235826188637 a60.06995051731894,60.06995051731894 0 0,0 -0.9733632930944465,0.3490134462964763 l -12.869973100497537 -36.88935924922281" fill="#87ff25" stroke="none" /><path d="M 106.91757812671514 119.82793768551818 l 7.788888012221318 22.325383727778686 a44.64507422402159,44.64507422402159 0 0,0 -0.7277790562926969,0.24690217000426024 l -7.403439222991395 -22.45614888468107" fill="#ff790b" stroke="none" /><path d="M 105.88484417918355 120.15858648285463 l 12.146480750706491 41.60787868293507 a64.34457939721098,64.34457939721098 0 0,0 -1.0658796987480113,0.3012282496507276 l -11.428469883853875 -41.81079572592432" fill="#4bff2c" stroke="none" /><path d="M 105.53697534728816 120.25689768951611 l 7.2622467180581065 26.568763546288412 a48.5434098065677,48.5434098065677 0 0,0 -0.8079231269482615,0.2133798409260683 l -6.803833148298348 -26.689834736518065" fill="#ffbe11" stroke="none" /><path d="M 104.83641907484287 120.43548508189849 l 10.63410272963838 44.93263390289678 a67.17386414754836,67.17386414754836 0 0,0 -1.1274968380681916,0.25661460952977166 l -9.859085742177328 -45.10902524600424" fill="#31ff3c" stroke="none" /><path d="M 104.48393922423573 120.51570834832081 l 10.03154494310947 45.89809095170888 a67.98155645524066,67.98155645524066 0 0,0 -1.145355006627854,0.2400202777170044 l -9.23999847505224 -46.06396721015243" fill="#32ff49" stroke="none" /><path d="M 103.7750983002368 120.6578951692458 l 11.32529490071043 61.973685507737414 a84.0,84.0 0 0,0 -1.4246041141118002,0.24768568591597528 l -10.256841815126581 -62.15944977217439" fill="#4dd2ff" stroke="none" /><line stroke="#e1ed5e" stroke-width="0.3" x1="102.19456741930631" x2="102.32365962044197" y1="184.97166512339345" y2="189.96999836594603" /><path d="M 102.22038585953345 185.97133177190398 a86.0,86.0 0 0,1 -42.740103519485714,-10.115201625700543" fill="none" id="id7" stroke="none" /><text fill="#e1ed5e" style="font-size:6.75px; font-family:Arial;" text-anchor="middle"><textPath startOffset="22.20632615414155" xlink:href="#id7">July</textPath></text><line stroke="#e1ed5e" stroke-width="0.3" x1="58.666819895761336" x2="56.23545636021788" y1="174.27360380694188" y2="178.64263932499728" /><path d="M 58.180547188652646 175.14741091055294 a86.0,86.0 0 0,1 -31.652253787137756,-30.449443065178592" fill="none" id="id8" stroke="none" /><text fill="#e1ed5e" style="font-size:6.75px; font-family:Arial;" text-anchor="middle"><textPath startOffset="22.20632615414155" xlink:href="#id8">August</textPath></text><line stroke="#e1ed5e" stroke-width="0.3" x1="26.63291911575756" x2="22.317208475507996" y1="142.92168965132927" y2="145.44649492493687" /><path d="M 25.769776987707644 143.4266507060508 a86.0,86.0 0 0,1 -11.730757126820373,-40.83630448921669" fill="none" id="id9" stroke="none" /><text fill="#e1ed5e" style="font-size:6.75px; font-family:Arial;" text-anchor="middle"><textPath startOffset="21.46611528233685" xlink:href="#id9">September</textPath></text><line stroke="#e1ed5e" stroke-width="0.3" x1="15.007084014347285" x2="10.007500721073583" y1="101.09737516637583" y2="101.16192664675087" /><path d="M 14.007167355692545 101.11028546245083 a86.0,86.0 0 0,1 10.666146001902534,-42.60595125391555" fill="none" id="id10" stroke="none" /><text fill="#e1ed5e" style="font-size:6.75px; font-family:Arial;" text-anchor="middle"><textPath startOffset="22.20632615414155" xlink:href="#id10">October</textPath></text><line stroke="#e1ed5e" stroke-width="0.3" x1="26.266209847984243" x2="21.928928074336255" y1="57.711370442889674" y2="55.22380399835377" /><path d="M 25.398753493254645 57.213857153982495 a86.0,86.0 0 0,1 29.58750427330803,-30.492523968695096" fill="none" id="id11" stroke="none" /><text fill="#e1ed5e" style="font-size:6.75px; font-family:Arial;" text-anchor="middle"><textPath startOffset="21.46611528233685" xlink:href="#id11">November</textPath></text><line stroke="#e1ed5e" stroke-width="0.3" x1="56.762969772571076" x2="54.21961505331055" y1="26.818313649435495" y2="22.513508569990535" /><path d="M 56.25429882871897 25.957352633546506 a86.0,86.0 0 0,1 42.265352541879196,-11.944610805530505" fill="none" id="id12" stroke="none" /><text fill="#e1ed5e" style="font-size:6.75px; font-family:Arial;" text-anchor="middle"><textPath startOffset="22.20632615414155" xlink:href="#id12">December</textPath></text></svg>