<?xml version="1.0" encoding="utf-8" ?>
<svg baseProfile="full" height="200mm" version="1.1" viewBox="0,0,200,200" width="200mm" xmlns="http://www.w3.org/2000/svg" xmlns:ev="http://www.w3.org/2001/xml-events" xmlns:xlink="http://www.w3.org/1999/xlink"><defs /><rect fill="#1a1a1a" height="200" width="200" x="0" y="0" /><text alignment-baseline="middle" fill="#e1ed5e" style="dominant-baseline: central; font-size:9.0px; font-family:Arial;" text-anchor="middle" x="100.0" y="100.0">2023</text><line stroke="#e1ed5e" stroke-width="0.3" x1="100.0" x2="100.0" y1="15.0" y2="10.0" /><path d="M 100.0 14.0 a86.0,86.0 0 0,1 42.46469731375804,11.215312516191453" fill="none" id="id97" stroke="none" /><text fill="#e1ed5e" style="font-size:6.75px; font-family:Arial;" text-anchor="middle"><textPath startOffset="22.20632615414155" xlink:href="#id97">January</textPath></text><path d="M 109.41281617654863 81.2277094730956 l 5.698251417350161 -11.36421120900548 a33.71280321637281,33.71280321637281 0 0,0 0.5165114699453344,0.2645772363203339 l -5.89302337488425 11.264441447372645" fill="#ff750a" stroke="none" /><line stroke="#e1ed5e" stroke-width="0.3" x1="143.23703022742887" x2="145.7803849466894" y1="26.81831364943548" y2="22.513508569990506" /><path d="M 143.74570117128098 25.957352633546492 a86.0,86.0 0 0,1 28.547481713284135,27.462654790039103" fill="none" id="id98" stroke="none" /><text fill="#e1ed5e" style="font-size:6.75px; font-family:Arial;" text-anchor="middle"><textPath startOffset="19.985693538727396" xlink:href="#id98">February</textPath></text><path d="M 117.04232023915458 87.72973835380427 l 4.753727614025427 -3.422625604982255 a26.857669524668324,26.857669524668324 0 0,0 0.2668979376798155,0.37750820507278543 l -4.811938171509126 3.3402908995776763" fill="#ff0e01" stroke="none" /><line stroke="#e1ed5e" stroke-width="0.3" x1="172.23445277983987" x2="176.4835382374775" y1="55.19839476539836" y2="52.563006222186495" /><path d="M 173.08426987136738 54.67131705675599 a86.0,86.0 0 0,1 12.851231095245387,41.99856678651699" fill="none" id="id99" stroke="none" /><text fill="#e1ed5e" style="font-size:6.75px; font-family:Arial;" text-anchor="middle"><textPath startOffset="22.20632615414155" xlink:href="#id99">March</textPath></text><path d="M 120.28053869075195 94.5502522615342 l 26.027952603879665 -6.994181860887685 a47.95130602870623,47.95130602870623 0 0,0 0.20734068947696163,0.7989682561450128 l -26.14448962522693 6.545117179193821" fill="#caff1d" stroke="none" /><line stroke="#e1ed5e" stroke-width="0.3" x1="184.98032266829074" x2="189.97916517819016" y1="98.17113171792111" y2="98.06355123074" /><path d="M 185.9800911702706 98.14961562048488 a86.0,86.0 0 0,1 -9.607161424134198,41.387399972396054" fill="none" id="id100" stroke="none" /><text fill="#e1ed5e" style="font-size:6.75px; font-family:Arial;" text-anchor="middle"><textPath startOffset="21.466115282336823" xlink:href="#id100">April</textPath></text><path d="M 120.89721153311464 102.0752229133903 l 23.649872030095818 2.3485791995659726 a44.76620018632643,44.76620018632643 0 0,0 -0.08274861246554163,0.7661493810574979 l -23.605941116129223 -2.755324902508262" fill="#f2ff19" stroke="none" /><line stroke="#e1ed5e" stroke-width="0.3" x1="174.80103733775053" x2="179.2010983576182" y1="140.37084112569926" y2="142.7455964860345" /><path d="M 175.68104954172406 140.8457921977663 a86.0,86.0 0 0,1 -30.038265399797805,32.042727171017184" fill="none" id="id101" stroke="none" /><text fill="#e1ed5e" style="font-size:6.75px; font-family:Arial;" text-anchor="middle"><textPath startOffset="22.206326154141568" xlink:href="#id101">May</textPath></text><path d="M 116.498646956653 112.99209946851258 l 4.263018317581202 3.35697576677778 a26.426104631756203,26.426104631756203 0 0,0 -0.28449851959068273,0.3549556468365384 l -4.204601885935665 -3.4298592471925686" fill="#ff0801" stroke="none" /><path d="M 114.0293411484842 115.62618273729858 l 5.256940339676781 5.855293525009281 a28.86891885832715,28.86891885832715 0 0,0 -0.3726257723747045,0.3287989196650195 l -5.155372214395489 -5.944915586446589" fill="#ff2d04" stroke="none" /><path d="M 113.48314897796784 116.09983520530334 l 6.093120755934828 7.275617900303678 a30.49003352879341,30.49003352879341 0 0,0 -0.4052704352171506,0.33350997751295886 l -5.966980192172986 -7.379422996673815" fill="#ff4606" stroke="none" /><path d="M 112.04921762599082 117.19931262002967 l 4.269688586180205 6.094645400501441 a28.44143421531165,28.44143421531165 0 0,0 -0.40338501773722585,0.2774518934606356 l -4.164146683820096 -6.16723808332717" fill="#ff2703" stroke="none" /><line stroke="#e1ed5e" stroke-width="0.3" x1="143.8653032363475" x2="146.44561519142675" y1="172.8068346515853" y2="177.08958963109032" /><path d="M 144.38136562736335 173.6633856474863 a86.0,86.0 0 0,1 -40.68145358897372,12.25698825130547" fill="none" id="id102" stroke="none" /><text fill="#e1ed5e" style="font-size:6.75px; font-family:Arial;" text-anchor="middle"><textPath startOffset="21.466115282336833" xlink:href="#id102">June</textPath></text><path d="M 110.21172684928248 118.3499491758327 l 7.737892611187153 13.904595984499164 a36.91266073145579,36.91266073145579 0 0,0 -0.5578684033045708,0.304194333714212 l -7.497401396013934 -14.035730969973146" fill="#ffa30f" stroke="none" /><path d="M 105.18746579009965 120.34920634021253 l 1.2171703109076857 4.7746724142474415 a25.927372548238118,25.927372548238118 0 0,0 -0.43341518896657294,0.10652290850882608 l -1.1348018371979016 -4.794916581070297" fill="#ff0000" stroke="none" /><path d="M 100.90346689309514 120.98055641714683 l 0.3920921096456855 9.105270696701808 a30.11370894217404,30.11370894217404 0 0,0 -0.5180700084000246,0.01784337859549589 l -0.2353017495710087 -9.110670873723398" fill="#ff4006" stroke="none" /><line stroke="#e1ed5e" stroke-width="0.3" x1="102.19456741930631" x2="102.32365962044197" y1="184.97166512339345" y2="189.96999836594603" /><path d="M 102.22038585953345 185.97133177190398 a86.0,86.0 0 0,1 -42.740103519485714,-10.115201625700543" fill="none" id="id103" stroke="none" /><text fill="#e1ed5e" style="font-size:6.75px; font-family:Arial;" text-anchor="middle"><textPath startOffset="22.20632615414155" xlink:href="#id103">July</textPath></text><path d="M 95.51606077576429 120.51570834832081 l -13.451817672707142 61.54712504496245 a84.0,84.0 0 0,0 -1.4099194024285495,-0.320893065689253 l 14.509257224528554 -61.30645524569551" fill="#4dd2ff" stroke="none" /><line stroke="#e1ed5e" stroke-width="0.3" x1="58.666819895761336" x2="56.23545636021788" y1="174.27360380694188" y2="178.64263932499728" /><path d="M 58.180547188652646 175.14741091055294 a86.0,86.0 0 0,1 -31.652253787137756,-30.449443065178592" fill="none" id="id104" stroke="none" /><text fill="#e1ed5e" style="font-size:6.75px; font-family:Arial;" text-anchor="middle"><textPath startOffset="22.20632615414155" xlink:href="#id104">August</textPath></text><line stroke="#e1ed5e" stroke-width="0.3" x1="26.63291911575756" x2="22.317208475507996" y1="142.92168965132927" y2="145.44649492493687" /><path d="M 25.769776987707644 143.4266507060508 a86.0,86.0 0 0,1 -11.730757126820373,-40.83630448921669" fill="none" id="id105" stroke="none" /><text fill="#e1ed5e" style="font-size:6.75px; font-family:Arial;" text-anchor="middle"><textPath startOffset="21.46611528233685" xlink:href="#id105">September</textPath></text><path d="M 81.87401531095188 110.60418214915194 l -18.525667875497753 10.838007421752224 a42.46305605237068,42.46305605237068 0 0,0 -0.3636617080137421,-0.6340748410585595 l 18.709481579663873 -10.517512734835357" fill="#ffee16" stroke="none" /><path d="M 79.67330655649465 105.27499134158121 l -15.478416089633283 4.016812231715664 a36.99112707562163,36.99112707562163 0 0,0 -0.1546382108911094,-0.6177027835587559 l 15.545265614819451 -3.7497816087595166" fill="#ffa40f" stroke="none" /><line stroke="#e1ed5e" stroke-width="0.3" x1="15.007084014347285" x2="10.007500721073583" y1="101.09737516637583" y2="101.16192664675087" /><path d="M 14.007167355692545 101.11028546245083 a86.0,86.0 0 0,1 10.666146001902534,-42.60595125391555" fill="none" id="id106" stroke="none" /><text fill="#e1ed5e" style="font-size:6.75px; font-family:Arial;" text-anchor="middle"><textPath startOffset="22.20632615414155" xlink:href="#id106">October</textPath></text><path d="M 79.01574976396665 99.18683210126434 l -52.69265950447724 -2.041911372867262 a73.73220806783479,73.73220806783479 0 0,0 0.06006152557226486,-1.2678038770217384 l 52.64970437067148 2.9486263565120097" fill="#3fffc1" stroke="none" /><path d="M 79.16333360222342 97.38593545837743 l -34.76615171129646 -4.3615884951187915 a56.038675189191075,56.038675189191075 0 0,0 0.1283125576473717,-0.9560775931087341 l 34.68592315459125 4.959384430292185" fill="#6bff28" stroke="none" /><path d="M 79.91906864156998 93.8553929516997 l -6.866051225123231 -2.1009576696835848 a28.18029822192773,28.18029822192773 0 0,0 0.145926328448156,-0.46262633914588536 l 6.828869412906871 2.2188341752558842" fill="#ff2303" stroke="none" /><line stroke="#e1ed5e" stroke-width="0.3" x1="26.266209847984243" x2="21.928928074336255" y1="57.711370442889674" y2="55.22380399835377" /><path d="M 25.398753493254645 57.213857153982495 a86.0,86.0 0 0,1 29.58750427330803,-30.492523968695096" fill="none" id="id107" stroke="none" /><text fill="#e1ed5e" style="font-size:6.75px; font-family:Arial;" text-anchor="middle"><textPath startOffset="21.46611528233685" xlink:href="#id107">November</textPath></text><line stroke="#e1ed5e" stroke-width="0.3" x1="56.762969772571076" x2="54.21961505331055" y1="26.818313649435495" y2="22.513508569990535" /><path d="M 56.25429882871897 25.957352633546506 a86.0,86.0 0 0,1 42.265352541879196,-11.944610805530505" fill="none" id="id108" stroke="none" /><text fill="#e1ed5e" style="font-size:6.75px; font-family:Arial;" text-anchor="middle"><textPath startOffset="22.20632615414155" xlink:href="#id108">December</textPath></text></svg>