<?xml version="1.0" encoding="utf-8" ?>
<svg baseProfile="full" height="200mm" version="1.1" viewBox="0,0,200,200" width="200mm" xmlns="http://www.w3.org/2000/svg" xmlns:ev="http://www.w3.org/2001/xml-events" xmlns:xlink="http://www.w3.org/1999/xlink"><defs /><rect fill="#1a1a1a" height="200" width="200" x="0" y="0" /><text alignment-baseline="middle" fill="#e1ed5e" style="dominant-baseline: central; font-size:9.0px; font-family:Arial;" text-anchor="middle" x="100.0" y="100.0">2023</text><line stroke="#e1ed5e" stroke-width="0.3" x1="100.0" x2="100.0" y1="15.0" y2="10.0" /><path d="M 100.0 14.0 a86.0,86.0 0 0,1 42.46469731375804,11.215312516191453" fill="none" id="id97" stroke="none" /><text fill="#e1ed5e" style="font-size:6.75px; font-family:Arial;" text-anchor="middle"><textPath startOffset="22.20632615414155" xlink:href="#id97">January</textPath></text><path d="M 109.41281617654863 81.2277094730956 l 3.6975127911318686 -7.3740720141762415 a29.249153829990142,29.249153829990142 0 0,0 0.44812421389059576,0.22954662759366087 l -3.82389749261122 7.30933286127008" fill="#ff4b07" stroke="none" /><line stroke="#e1ed5e" stroke-width="0.3" x1="143.23703022742887" x2="145.7803849466894" y1="26.81831364943548" y2="22.513508569990506" /><path d="M 143.74570117128098 25.957352633546492 a86.0,86.0 0 0,1 28.547481713284135,27.462654790039103" fill="none" id="id98" stroke="none" /><text fill="#e1ed5e" style="font-size:6.75px; font-family:Arial;" text-anchor="middle"><textPath startOffset="19.985693538727396" xlink:href="#id98">February</textPath></text><path d="M 117.04232023915458 87.72973835380427 l 3.0846249789711013 -2.2208921696828776 a24.80095689139606,24.80095689139606 0 0,0 0.24645936762010856,0.34859929717874794 l -3.122396966395093 2.1674663721723366" fill="#ff0901" stroke="none" /><line stroke="#e1ed5e" stroke-width="0.3" x1="172.23445277983987" x2="176.4835382374775" y1="55.19839476539836" y2="52.563006222186495" /><path d="M 173.08426987136738 54.67131705675599 a86.0,86.0 0 0,1 12.851231095245387,41.99856678651699" fill="none" id="id99" stroke="none" /><text fill="#e1ed5e" style="font-size:6.75px; font-family:Arial;" text-anchor="middle"><textPath startOffset="22.20632615414155" xlink:href="#id99">March</textPath></text><path d="M 120.28053869075195 94.5502522615342 l 16.88916136392111 -4.538423281112575 a38.4883120241809,38.4883120241809 0 0,0 0.1664228529483791,0.6412951405643836 l -16.964780548739792 4.24703171499934" fill="#ffca12" stroke="none" /><line stroke="#e1ed5e" stroke-width="0.3" x1="184.98032266829074" x2="189.97916517819016" y1="98.17113171792111" y2="98.06355123074" /><path d="M 185.9800911702706 98.14961562048488 a86.0,86.0 0 0,1 -9.607161424134198,41.387399972396054" fill="none" id="id100" stroke="none" /><text fill="#e1ed5e" style="font-size:6.75px; font-family:Arial;" text-anchor="middle"><textPath startOffset="21.466115282336823" xlink:href="#id100">April</textPath></text><path d="M 120.89721153311464 102.0752229133903 l 15.346059332105725 1.5239590174874516 a36.42154298737615,36.42154298737615 0 0,0 -0.06732383212144978,0.6233350720140081 l -15.317553198483223 -1.787890411386251" fill="#ffaf10" stroke="none" /><line stroke="#e1ed5e" stroke-width="0.3" x1="174.80103733775053" x2="179.2010983576182" y1="140.37084112569926" y2="142.7455964860345" /><path d="M 175.68104954172406 140.8457921977663 a86.0,86.0 0 0,1 -30.038265399797805,32.042727171017184" fill="none" id="id101" stroke="none" /><text fill="#e1ed5e" style="font-size:6.75px; font-family:Arial;" text-anchor="middle"><textPath startOffset="22.206326154141568" xlink:href="#id101">May</textPath></text><path d="M 116.498646956653 112.99209946851258 l 2.76621082567395 2.178292940775975 a24.520920684694588,24.520920684694588 0 0,0 -0.26398766413014635,0.3293652009613189 l -2.72830524948895 -2.225585975315544" fill="#ff0500" stroke="none" /><path d="M 114.0293411484842 115.62618273729858 l 3.411152426336957 3.7994151396396716 a26.106027445972813,26.106027445972813 0 0,0 -0.33696373211721115,0.2973313154921036 l -3.345246341313158 -3.857569596904064" fill="#ff1d02" stroke="none" /><path d="M 113.48314897796784 116.09983520530334 l 3.9537377842581884 4.721043049776635 a27.157945269691435,27.157945269691435 0 0,0 -0.360980655815204,0.2970625042979869 l -3.8718869998982934 -4.7884006729318" fill="#ff2c04" stroke="none" /><path d="M 112.04921762599082 117.19931262002967 l 2.7705390663321285 3.9547271040291276 a25.828638854316516,25.828638854316516 0 0,0 -0.36632772677714637,0.2519635508318734 l -2.7020544549320986 -4.001831444226095" fill="#ff1902" stroke="none" /><line stroke="#e1ed5e" stroke-width="0.3" x1="143.8653032363475" x2="146.44561519142675" y1="172.8068346515853" y2="177.08958963109032" /><path d="M 144.38136562736335 173.6633856474863 a86.0,86.0 0 0,1 -40.68145358897372,12.25698825130547" fill="none" id="id102" stroke="none" /><text fill="#e1ed5e" style="font-size:6.75px; font-family:Arial;" text-anchor="middle"><textPath startOffset="21.466115282336833" xlink:href="#id102">June</textPath></text><path d="M 110.21172684928248 118.3499491758327 l 5.021006412450316 9.022490891094202 a31.325495013496692,31.325495013496692 0 0,0 -0.4734284535336308,0.25815094049229986 l -4.864955147048037 -9.107582483346272" fill="#ff6809" stroke="none" /><path d="M 105.18746579009965 120.34920634021253 l 0.7898041809569669 3.0982157563967516 a24.197300661095575,24.197300661095575 0 0,0 -0.4044944245313585,0.09941488824935321 l -0.7363564716823974 -3.1113519029601346" fill="#ff0000" stroke="none" /><path d="M 100.90346689309514 120.98055641714683 l 0.25442288950300135 5.908278242210151 a26.91375369744775,26.91375369744775 0 0,0 -0.46301864147280714,0.015947298207990766 l -0.15268389635554197 -5.911782338844235" fill="#ff2903" stroke="none" /><line stroke="#e1ed5e" stroke-width="0.3" x1="102.19456741930631" x2="102.32365962044197" y1="184.97166512339345" y2="189.96999836594603" /><path d="M 102.22038585953345 185.97133177190398 a86.0,86.0 0 0,1 -42.740103519485714,-10.115201625700543" fill="none" id="id103" stroke="none" /><text fill="#e1ed5e" style="font-size:6.75px; font-family:Arial;" text-anchor="middle"><textPath startOffset="22.20632615414155" xlink:href="#id103">July</textPath></text><path d="M 95.51606077576429 120.51570834832081 l -8.7286896042116 39.93703777587404 a61.879787285628844,61.879787285628844 0 0,0 -1.0386370560971376,-0.23639041245576548 l 9.4148468097016 -39.780870629840585" fill="#31ff3b" stroke="none" /><line stroke="#e1ed5e" stroke-width="0.3" x1="58.666819895761336" x2="56.23545636021788" y1="174.27360380694188" y2="178.64263932499728" /><path d="M 58.180547188652646 175.14741091055294 a86.0,86.0 0 0,1 -31.652253787137756,-30.449443065178592" fill="none" id="id104" stroke="none" /><text fill="#e1ed5e" style="font-size:6.75px; font-family:Arial;" text-anchor="middle"><textPath startOffset="22.20632615414155" xlink:href="#id104">August</textPath></text><line stroke="#e1ed5e" stroke-width="0.3" x1="26.63291911575756" x2="22.317208475507996" y1="142.92168965132927" y2="145.44649492493687" /><path d="M 25.769776987707644 143.4266507060508 a86.0,86.0 0 0,1 -11.730757126820373,-40.83630448921669" fill="none" id="id105" stroke="none" /><text fill="#e1ed5e" style="font-size:6.75px; font-family:Arial;" text-anchor="middle"><textPath startOffset="21.46611528233685" xlink:href="#id105">September</textPath></text><path d="M 81.87401531095188 110.60418214915194 l -12.021037493246917 7.0326260000205965 a34.9270661257213,34.9270661257213 0 0,0 -0.2991220534745191,-0.521544513305752 l 12.140311542873812 -6.8246616408565375" fill="#ff9b0e" stroke="none" /><path d="M 79.67330655649465 105.27499134158121 l -10.043719956550216 2.606451263473785 a31.376410687442416,31.376410687442416 0 0,0 -0.13116637411376422,-0.5239444632247713 l 10.087097644959039 -2.4331789608516217" fill="#ff6909" stroke="none" /><line stroke="#e1ed5e" stroke-width="0.3" x1="15.007084014347285" x2="10.007500721073583" y1="101.09737516637583" y2="101.16192664675087" /><path d="M 14.007167355692545 101.11028546245083 a86.0,86.0 0 0,1 10.666146001902534,-42.60595125391555" fill="none" id="id106" stroke="none" /><text fill="#e1ed5e" style="font-size:6.75px; font-family:Arial;" text-anchor="middle"><textPath startOffset="22.20632615414155" xlink:href="#id106">October</textPath></text><path d="M 79.01574976396665 99.18683210126434 l -34.191503365985696 -1.3249667076019056 a55.21716585578742,55.21716585578742 0 0,0 0.04497935577928442,-0.9494431102038118 l 34.16363040197291 1.9133209244287264" fill="#6bff28" stroke="none" /><path d="M 79.16333360222342 97.38593545837743 l -22.559252169804775 -2.8301715858397185 a43.73608870641861,43.73608870641861 0 0,0 0.10014314907457593,-0.7461827796829898 l 22.507193021672368 3.218072707587368" fill="#f1ff19" stroke="none" /><path d="M 79.91906864156998 93.8553929516997 l -4.455281167861416 -1.363280994171039 a25.659191491425155,25.659191491425155 0 0,0 0.13287125550638326,-0.4212381903000754 l 4.4311544285868285 1.439769350897529" fill="#ff1602" stroke="none" /><path d="M 80.38941819471856 92.48833698450439 l -58.83174541584431 -22.534989046486853 a84.0,84.0 0 0,0 0.5288258004732356,-1.3458039804169464 l 58.435126065489385 23.544342031799562" fill="#4dd2ff" stroke="none" /><line stroke="#e1ed5e" stroke-width="0.3" x1="26.266209847984243" x2="21.928928074336255" y1="57.711370442889674" y2="55.22380399835377" /><path d="M 25.398753493254645 57.213857153982495 a86.0,86.0 0 0,1 29.58750427330803,-30.492523968695096" fill="none" id="id107" stroke="none" /><text fill="#e1ed5e" style="font-size:6.75px; font-family:Arial;" text-anchor="middle"><textPath startOffset="21.46611528233685" xlink:href="#id107">November</textPath></text><path d="M 88.70189139769569 82.29822771554957 l -30.66393637978892 -48.04397251316829 a77.99561640292886,77.99561640292886 0 0,0 1.137922050703752,-0.7125666837575231 l 29.83239517671293 48.564683538248744" fill="#45fff1" stroke="none" /><line stroke="#e1ed5e" stroke-width="0.3" x1="56.762969772571076" x2="54.21961505331055" y1="26.818313649435495" y2="22.513508569990535" /><path d="M 56.25429882871897 25.957352633546506 a86.0,86.0 0 0,1 42.265352541879196,-11.944610805530505" fill="none" id="id108" stroke="none" /><text fill="#e1ed5e" style="font-size:6.75px; font-family:Arial;" text-anchor="middle"><textPath startOffset="22.20632615414155" xlink:href="#id108">December</textPath></text><path d="M 89.3179101791058 81.91981866633112 l -29.65420790516943 -50.19181313969691 a79.2974283543731,79.2974283543731 0 0,0 1.1811664141116702,-0.6842078260701427 l 28.78584475859244 50.6948251231571" fill="#47fffe" stroke="none" /></svg>