<?xml version="1.0" encoding="utf-8" ?>
<svg baseProfile="full" height="200mm" version="1.1" viewBox="0,0,200,200" width="200mm" xmlns="http://www.w3.org/2000/svg" xmlns:ev="http://www.w3.org/2001/xml-events" xmlns:xlink="http://www.w3.org/1999/xlink"><defs /><rect fill="#1a1a1a" height="200" width="200" x="0" y="0" /><text alignment-baseline="middle" fill="#e1ed5e" style="dominant-baseline: central; font-size:9.0px; font-family:Arial;" text-anchor="middle" x="100.0" y="100.0">2024</text><line stroke="#e1ed5e" stroke-width="0.3" x1="100.0" x2="100.0" y1="15.0" y2="10.0" /><path d="M 100.0 14.0 a86.0,86.0 0 0,1 42.35913384403234,11.155469271406648" fill="none" id="id109" stroke="none" /><text fill="#e1ed5e" style="font-size:6.75px; font-family:Arial;" text-anchor="middle"><textPath startOffset="22.145653131862478" xlink:href="#id109">January</textPath></text><line stroke="#e1ed5e" stroke-width="0.3" x1="143.13028292997686" x2="145.6673583964461" y1="26.7553504044142" y2="22.446841604673864" /><path d="M 143.63769802327073 25.89364864446614 a86.0,86.0 0 0,1 29.32050498858742,28.57503671076993" fill="none" id="id110" stroke="none" /><text fill="#e1ed5e" style="font-size:6.75px; font-family:Arial;" text-anchor="middle"><textPath startOffset="20.669276256404974" xlink:href="#id110">February</textPath></text><path d="M 115.41159269507618 85.73525988315684 l 8.18107083063972 -7.572277024544408 a32.14761406186935,32.14761406186935 0 0,0 0.37138500399321395,0.4082171764654459 l -8.309853535474813 7.43072227252129" fill="#ff750a" stroke="none" /><path d="M 115.6541949942343 86.00192230759917 l 8.569122992643832 -7.6625626198566374 a32.49542233962204,32.49542233962204 0 0,0 0.3682643328010909,0.41901720937648185 l -8.699398389403514 7.514333132668858" fill="#ff7a0b" stroke="none" /><path d="M 116.57777611688842 87.10902102172516 l 4.470269735999625 -3.476108784898082 a26.662741720848636,26.662741720848636 0 0,0 0.2778613478057406,0.3637294237468073 l -4.529283061159672 3.398858447910393" fill="#ff2603" stroke="none" /><path d="M 116.7966241395341 87.39550010848427 l 3.059191653446158 -2.2956744488453777 a24.82475812929343,24.82475812929343 0 0,0 0.2528555061036128,0.34304705633557897 l -3.098149179133596 2.242821083240924" fill="#ff0b01" stroke="none" /><path d="M 117.01052211995028 87.68569379921539 l 23.630933009563243 -17.106973133335007 a50.173095905081986,50.173095905081986 0 0,0 0.49906677117047077,0.7019999134952961 l -23.921114879263673 16.698795993130208" fill="#a3ff22" stroke="none" /><path d="M 117.42321728460499 88.27688183743584 l 9.623859799656907 -6.4753623724257405 a32.599525649684104,32.599525649684104 0 0,0 0.3084156690175822,0.46698063200128326 l -9.733599907595215 6.309201862085399" fill="#ff7c0b" stroke="none" /><path d="M 117.81537515405839 88.88188828441811 l 9.81505521785958 -6.125320374289671 a32.56956605138329,32.56956605138329 0 0,0 0.2919350340312429,0.47685393832048123 l -9.918758216346227 5.955929319844635" fill="#ff7b0b" stroke="none" /><line stroke="#e1ed5e" stroke-width="0.3" x1="172.87174338648825" x2="177.1583165268699" y1="56.24261187166439" y2="53.66864786411523" /><path d="M 173.72905801456457 55.72781907015455 a86.0,86.0 0 0,1 12.242430191666344,42.057860355516425" fill="none" id="id111" stroke="none" /><text fill="#e1ed5e" style="font-size:6.75px; font-family:Arial;" text-anchor="middle"><textPath startOffset="22.145653131862474" xlink:href="#id111">March</textPath></text><path d="M 118.00360718960297 89.18935116829356 l 22.99124317714931 -13.805580935806294 a47.81774277984471,47.81774277984471 0 0,0 0.4165296322231467,0.7073583775903801 l -23.224846519502226 13.408871389922357" fill="#beff1e" stroke="none" /><path d="M 118.18653347947321 89.5 l 31.310225351801744 -18.076967035250586 a57.153934070501165,57.153934070501165 0 0,0 0.4832681785090011,0.8538885655629094 l -31.61592689533212 17.536821699588558" fill="#56ff2a" stroke="none" /><path d="M 118.53625476483649 90.13048839642627 l 21.537098831774205 -11.467292046003802 a45.39970108337297,45.39970108337297 0 0,0 0.3603697067403686,0.6910564292015692 l -21.730776607489517 11.095889373697736" fill="#dbff1b" stroke="none" /><path d="M 118.8641267826498 90.77261029715802 l 10.330653093284193 -5.05324010355347 a32.50033168556209,32.50033168556209 0 0,0 0.24084408254553127,0.5032715020420082 l -10.415876433789636 4.875156099446358" fill="#ff7a0b" stroke="none" /><path d="M 119.0197475246899 91.09779779509293 l 21.24048016335895 -9.94161721116863 a44.45194555561328,44.45194555561328 0 0,0 0.317546780988545,0.6938970245296683 l -21.408011409202548 9.575531204424276" fill="#e7ff1a" stroke="none" /><path d="M 119.16976305983485 91.42560881287824 l 29.806757290367177 -13.3321834093344 a53.65256336992531,53.65256336992531 0 0,0 0.3688386806454578,0.8439750826114861 l -30.031229853029604 12.818546256947064" fill="#7cff26" stroke="none" /><path d="M 119.58574465831526 92.42381321644754 l 10.731236730539296 -4.15107290059391 a32.506122196158046,32.506122196158046 0 0,0 0.1968467300728406,0.5221593383166122 l -10.800914144426576 3.9662452820831398" fill="#ff7a0b" stroke="none" /><path d="M 119.71291397450082 92.76114493625339 l 21.945926117074475 -8.0588480529407 a44.378808889173065,44.378808889173065 0 0,0 0.25646689049725635,0.7173835378726711 l -22.081033177615673 7.6809295586871125" fill="#e8ff1a" stroke="none" /><path d="M 119.83427380445688 93.10060997987247 l 10.631524901603317 -3.6981962399035138 a32.2563749565412,32.2563749565412 0 0,0 0.1774324549861229,0.5245475254853528 l -10.693442778161806 3.5151470399439995" fill="#ff770a" stroke="none" /><path d="M 119.94978838288452 93.4421083053983 l 10.420907735035128 -3.4255593580344663 a31.96949292071117,31.96949292071117 0 0,0 0.16690402108662541,0.5228244688645809 l -10.47817647189901 3.2461658554784982" fill="#ff730a" stroke="none" /><path d="M 120.05942366710727 93.78553927170692 l 13.293295100804695 -4.118296802765254 a34.91661105272202,34.91661105272202 0 0,0 0.17246092339954036,0.5740663241215922 l -13.362032344207863 3.8894928750529387" fill="#ff9c0e" stroke="none" /><path d="M 120.16314734710363 94.1308016681162 l 26.55521725471945 -7.729836722965757 a48.65736681625819,48.65736681625819 0 0,0 0.2265614618559009,0.8039867013802888 l -26.683997208649934 7.272842097682456" fill="#b4ff20" stroke="none" /><path d="M 120.35273937422433 94.82641323984039 l 3.0006091719592654 -0.7627431177211539 a24.096034958859,24.096034958859 0 0,0 0.09846382671283849,0.40176601385162863 l -3.013260525188395 0.7111212792614303" fill="#ff0000" stroke="none" /><path d="M 120.43855184770803 95.1765574152323 l 22.749963821214006 -5.368929516866611 a44.374906588554055,44.374906588554055 0 0,0 0.16860169357903623,0.7428901710094523 l -22.83877637635071 4.977605011918134" fill="#e8ff1a" stroke="none" /><path d="M 120.592083275326 95.88100663000786 l 23.157730930781092 -4.632194756236438 a44.616471584937486,44.616471584937486 0 0,0 0.1437791455924053,0.7523132450233511 l -23.233836368655652 4.233978946179772" fill="#e5ff1a" stroke="none" /><path d="M 120.65975698304385 96.23510406497455 l 61.97927094913153 -11.294687805076354 a84.0,84.0 0 0,0 0.24634073003106272,1.4208278683176294 l -62.16402649665483 10.229066903838131" fill="#4dd2ff" stroke="none" /><path d="M 120.82617615685814 97.30363454192243 l 11.49315098309794 -1.4880184956608338 a32.58907755447835,32.58907755447835 0 0,0 0.0670681877441227,0.5554208057133847 l -11.517001257101727 1.2905040130240362" fill="#ff7b0b" stroke="none" /><path d="M 120.86939407059847 97.66154086499901 l 23.472345106366355 -2.6301252277950775 a44.61924095957033,44.61924095957033 0 0,0 0.07875850055501535,0.7619170489176246 l -23.514035999403035 2.2268036565945217" fill="#e5ff1a" stroke="none" /><path d="M 120.9064616781168 98.02013634271609 l 23.48746816645411 -2.2242876551917865 a44.592554258562885,44.592554258562885 0 0,0 0.06562830032317189,0.7627003301635514 l -23.52219008947502 1.820766277652573" fill="#e5ff1a" stroke="none" /><path d="M 120.96210409425399 98.7389718711861 l 25.840643312040193 -1.5545089336743618 a46.88735878387289,46.88735878387289 0 0,0 0.041435945409908886,0.8038462712504549 l -25.863520846906674 1.1106908690471764" fill="#c9ff1d" stroke="none" /><path d="M 120.98066250479742 99.09900007780936 l 44.98429038486097 -1.9318189846146767 a66.02575158749505,66.02575158749505 0 0,0 0.03890901629350488,1.1327935559247657 l -45.010824088151324 1.1593191641257912" fill="#36ff6e" stroke="none" /><line stroke="#e1ed5e" stroke-width="0.3" x1="184.99686870605535" x2="189.99668451229388" y1="99.2704041080226" y2="99.22748670261217" /><path d="M 185.99683186730306 99.26182062694052 a86.0,86.0 0 0,1 -10.086455211305974,41.156179273409016" fill="none" id="id112" stroke="none" /><text fill="#e1ed5e" style="font-size:6.75px; font-family:Arial;" text-anchor="middle"><textPath startOffset="21.40746469413373" xlink:href="#id112">April</textPath></text><line stroke="#e1ed5e" stroke-width="0.3" x1="174.33088141563837" x2="178.70328620479359" y1="141.23008692659167" y2="143.65538615756765" /><path d="M 175.20536237346943 141.71514677278685 a86.0,86.0 0 0,1 -30.301960400862466,31.631185727798858" fill="none" id="id113" stroke="none" /><text fill="#e1ed5e" style="font-size:6.75px; font-family:Arial;" text-anchor="middle"><textPath startOffset="22.145653131862474" xlink:href="#id113">May</textPath></text><line stroke="#e1ed5e" stroke-width="0.3" x1="143.1302829299769" x2="145.66735839644613" y1="173.24464959558577" y2="177.55315839532614" /><path d="M 143.63769802327073 174.10635135553383 a86.0,86.0 0 0,1 -40.68552437913181,11.842963189579606" fill="none" id="id114" stroke="none" /><text fill="#e1ed5e" style="font-size:6.75px; font-family:Arial;" text-anchor="middle"><textPath startOffset="21.407464694133747" xlink:href="#id114">June</textPath></text><line stroke="#e1ed5e" stroke-width="0.3" x1="101.45913802915013" x2="101.54496967792366" y1="184.9874750549273" y2="189.98673829345242" /><path d="M 101.47630435890484 185.9873277026323 a86.0,86.0 0 0,1 -42.54439059252881,-10.42667462771756" fill="none" id="id115" stroke="none" /><text fill="#e1ed5e" style="font-size:6.75px; font-family:Arial;" text-anchor="middle"><textPath startOffset="22.145653131862474" xlink:href="#id115">July</textPath></text><line stroke="#e1ed5e" stroke-width="0.3" x1="58.13341422392154" x2="55.67067388415222" y1="173.97424548756322" y2="178.32567169271397" /><path d="M 57.64086615596768 174.84453072859336 a86.0,86.0 0 0,1 -31.369924170532247,-30.572349798747897" fill="none" id="id116" stroke="none" /><text fill="#e1ed5e" style="font-size:6.75px; font-family:Arial;" text-anchor="middle"><textPath startOffset="22.145653131862474" xlink:href="#id116">August</textPath></text><line stroke="#e1ed5e" stroke-width="0.3" x1="26.387840678322732" x2="22.057713659400548" y1="142.50000000000003" y2="145.00000000000006" /><path d="M 25.521815274538298 143.00000000000003 a86.0,86.0 0 0,1 -11.493303480769221,-40.785679425670985" fill="none" id="id117" stroke="none" /><text fill="#e1ed5e" style="font-size:6.75px; font-family:Arial;" text-anchor="middle"><textPath startOffset="21.40746469413373" xlink:href="#id117">September</textPath></text><line stroke="#e1ed5e" stroke-width="0.3" x1="15.003131293944662" x2="10.003315487706104" y1="100.72959589197737" y2="100.7725132973878" /><path d="M 14.003168132696942 100.73817937305945 a86.0,86.0 0 0,1 10.791469493833604,-42.45332614584628" fill="none" id="id118" stroke="none" /><text fill="#e1ed5e" style="font-size:6.75px; font-family:Arial;" text-anchor="middle"><textPath startOffset="22.145653131862435" xlink:href="#id118">October</textPath></text><line stroke="#e1ed5e" stroke-width="0.3" x1="26.387840678322718" x2="22.05771365940052" y1="57.49999999999999" y2="54.99999999999999" /><path d="M 25.521815274538284 56.99999999999999 a86.0,86.0 0 0,1 29.574782752854787,-30.34633250058573" fill="none" id="id119" stroke="none" /><text fill="#e1ed5e" style="font-size:6.75px; font-family:Arial;" text-anchor="middle"><textPath startOffset="21.40746469413373" xlink:href="#id119">November</textPath></text><line stroke="#e1ed5e" stroke-width="0.3" x1="56.869717070023135" x2="54.33264160355391" y1="26.7553504044142" y2="22.446841604673864" /><path d="M 56.362301976729285 25.89364864446614 a86.0,86.0 0 0,1 42.16139366436587,-11.88097634709845" fill="none" id="id120" stroke="none" /><text fill="#e1ed5e" style="font-size:6.75px; font-family:Arial;" text-anchor="middle"><textPath startOffset="22.145653131862474" xlink:href="#id120">December</textPath></text></svg>