<?xml version="1.0" encoding="utf-8" ?>
<svg baseProfile="full" height="200mm" version="1.1" viewBox="0,0,200,200" width="200mm" xmlns="http://www.w3.org/2000/svg" xmlns:ev="http://www.w3.org/2001/xml-events" xmlns:xlink="http://www.w3.org/1999/xlink"><defs /><rect fill="#1a1a1a" height="200" width="200" x="0" y="0" /><text alignment-baseline="middle" fill="#e1ed5e" style="dominant-baseline: central; font-size:9.0px; font-family:Arial;" text-anchor="middle" x="100.0" y="100.0">2024</text><line stroke="#e1ed5e" stroke-width="0.3" x1="100.0" x2="100.0" y1="15.0" y2="10.0" /><path d="M 100.0 14.0 a86.0,86.0 0 0,1 42.35913384403234,11.155469271406648" fill="none" id="id109" stroke="none" /><text fill="#e1ed5e" style="font-size:6.75px; font-family:Arial;" text-anchor="middle"><textPath startOffset="22.145653131862478" xlink:href="#id109">January</textPath></text><line stroke="#e1ed5e" stroke-width="0.3" x1="143.13028292997686" x2="145.6673583964461" y1="26.7553504044142" y2="22.446841604673864" /><path d="M 143.63769802327073 25.89364864446614 a86.0,86.0 0 0,1 29.32050498858742,28.57503671076993" fill="none" id="id110" stroke="none" /><text fill="#e1ed5e" style="font-size:6.75px; font-family:Arial;" text-anchor="middle"><textPath startOffset="20.669276256404974" xlink:href="#id110">February</textPath></text><path d="M 115.41159269507618 85.73525988315684 l 14.255916419088551 -13.195063409034006 a40.425263223865635,40.425263223865635 0 0,0 0.46701246677057606,0.5133285095235858 l -14.480326586701004 12.948397323952749" fill="#ffce13" stroke="none" /><path d="M 115.6541949942343 86.00192230759917 l 14.93211630811269 -13.352390478712747 a41.03133617447982,41.03133617447982 0 0,0 0.4650001924058029,0.5290848600498231 l -15.159127564477082 13.094093340851625" fill="#ffd614" stroke="none" /><path d="M 116.57777611688842 87.10902102172516 l 7.7896638528685695 -6.057289727351198 a30.867604662822764,30.867604662822764 0 0,0 0.32168163067941635,0.4210915806784266 l -7.892497460902292 5.922677233431889" fill="#ff4506" stroke="none" /><path d="M 116.7966241395341 87.39550010848427 l 5.330791216006564 -4.000325109716451 a27.664828277763853,27.664828277763853 0 0,0 0.2817833760559027,0.3822932676841469 l -5.398676611646293 3.908225532763429" fill="#ff1402" stroke="none" /><path d="M 117.01052211995028 87.68569379921539 l 41.17805759946851 -29.80973814076454 a71.8355477563299,71.8355477563299 0 0,0 0.7145410150060608,1.0050914220288913 l -41.68371371300453 29.098469492026148" fill="#3dffab" stroke="none" /><path d="M 117.42321728460499 88.27688183743584 l 16.77004682799048 -11.283635929282609 a41.2127412885435,41.2127412885435 0 0,0 0.38990307138649566,0.5903629451619311 l -16.961274338297702 10.99409310578162" fill="#ffd914" stroke="none" /><path d="M 117.81537515405839 88.88188828441811 l 17.10321420400217 -10.673670611550682 a41.160535221860115,41.160535221860115 0 0,0 0.36893958709123037,0.6026350886271405 l -17.283921755548803 10.378498406798986" fill="#ffd814" stroke="none" /><line stroke="#e1ed5e" stroke-width="0.3" x1="172.87174338648825" x2="177.1583165268699" y1="56.24261187166439" y2="53.66864786411523" /><path d="M 173.72905801456457 55.72781907015455 a86.0,86.0 0 0,1 12.242430191666344,42.057860355516425" fill="none" id="id111" stroke="none" /><text fill="#e1ed5e" style="font-size:6.75px; font-family:Arial;" text-anchor="middle"><textPath startOffset="22.145653131862474" xlink:href="#id111">March</textPath></text><path d="M 118.00360718960297 89.18935116829356 l 40.0633667510676 -24.056900619992195 a67.73122963148658,67.73122963148658 0 0,0 0.5899915497541229,1.0019346359553407 l -40.47043201095149 23.365614815743296" fill="#37ff7a" stroke="none" /><path d="M 118.18653347947321 89.5 l 54.55960043841963 -31.500000000000007 a84.0,84.0 0 0,0 0.7102665399144961,1.2549729196035277 l -55.092300343355504 30.558770310297362" fill="#4dd2ff" stroke="none" /><path d="M 118.53625476483649 90.13048839642627 l 37.52944904297012 -19.982317760757734 a63.517673602406624,63.517673602406624 0 0,0 0.5041849365240166,0.9668410950605485 l -37.866942048469085 19.335130422592687" fill="#32ff45" stroke="none" /><path d="M 118.8641267826498 90.77261029715802 l 18.001668742543075 -8.805518257102236 a41.039890950112806,41.039890950112806 0 0,0 0.30412658490004035,0.6355075930280089 l -18.150174585403025 8.495198162009123" fill="#ffd614" stroke="none" /><path d="M 119.0197475246899 91.09779779509293 l 37.01257649256604 -17.323754673067633 a61.86616319879669,61.86616319879669 0 0,0 0.44194693236343857,0.9657338059366662 l -37.30450788978453 16.685831884916283" fill="#2fff30" stroke="none" /><path d="M 119.16976305983485 91.42560881287824 l 51.93973374049198 -23.231982255380153 a77.89869014790673,77.89869014790673 0 0,0 0.5355205472674369,1.2253758128872356 l -52.33088816977639 22.336944372717067" fill="#45ffee" stroke="none" /><path d="M 119.58574465831526 92.42381321644754 l 18.699705340658763 -7.233447741190481 a41.04998119829531,41.04998119829531 0 0,0 0.24858562087701355,0.6594028931246879 l -18.821121645350217 6.911376567871636" fill="#ffd614" stroke="none" /><path d="M 119.71291397450082 92.76114493625339 l 38.24185060136462 -14.042937245645817 a61.73871897718726,61.73871897718726 0 0,0 0.35679049698934384,0.9980065205036759 l -38.4772812683979 13.384395768761223" fill="#30ff2f" stroke="none" /><path d="M 119.83427380445688 93.10060997987247 l 18.525952597438163 -6.444287989782567 a40.614784407119586,40.614784407119586 0 0,0 0.22340950946274776,0.6604705174582985 l -18.633847528473275 6.1253157978501065" fill="#ffd013" stroke="none" /><path d="M 119.94978838288452 93.4421083053983 l 18.15894187412596 -5.9692048764412595 a40.11487841564302,40.11487841564302 0 0,0 0.20942886174570446,0.6560329265541335 l -18.258735451648924 5.656602916195739" fill="#ffca12" stroke="none" /><path d="M 120.05942366710727 93.78553927170692 l 23.16421747402625 -7.176333786200727 a45.25037603409376,45.25037603409376 0 0,0 0.22350169159408914,0.7439644413310527 l -23.283995485623965 6.777631741278951" fill="#f0ff19" stroke="none" /><path d="M 120.16314734710363 94.1308016681162 l 46.273766052263376 -13.469618896721414 a69.19431561794936,69.19431561794936 0 0,0 0.3221868819519232,1.1433275823991622 l -46.498171426289886 12.67328339041924" fill="#39ff8c" stroke="none" /><path d="M 120.35273937422433 94.82641323984039 l 5.228708374164865 -1.3291172220076635 a26.394992479318127,26.394992479318127 0 0,0 0.10785807582067523,0.44009775600697054 l -5.250753976501831 1.2391636413925982" fill="#ff0000" stroke="none" /><path d="M 120.43855184770803 95.1765574152323 l 39.6429256617443 -9.355622514081432 a61.73191902732514,61.73191902732514 0 0,0 0.234549363503913,1.0334677728601742 l -39.79768588680588 8.673720407282232" fill="#30ff2f" stroke="none" /><path d="M 120.592083275326 95.88100663000786 l 20.215886717619966 -4.043743522451857 a41.61635121584357,41.61635121584357 0 0,0 0.13411108516495723,0.701725867533472 l -20.28232409506708 3.6961150898850708" fill="#ffde14" stroke="none" /><line stroke="#e1ed5e" stroke-width="0.3" x1="184.99686870605535" x2="189.99668451229388" y1="99.2704041080226" y2="99.22748670261217" /><path d="M 185.99683186730306 99.26182062694052 a86.0,86.0 0 0,1 -10.086455211305974,41.156179273409016" fill="none" id="id112" stroke="none" /><text fill="#e1ed5e" style="font-size:6.75px; font-family:Arial;" text-anchor="middle"><textPath startOffset="21.40746469413373" xlink:href="#id112">April</textPath></text><line stroke="#e1ed5e" stroke-width="0.3" x1="174.33088141563837" x2="178.70328620479359" y1="141.23008692659167" y2="143.65538615756765" /><path d="M 175.20536237346943 141.71514677278685 a86.0,86.0 0 0,1 -30.301960400862466,31.631185727798858" fill="none" id="id113" stroke="none" /><text fill="#e1ed5e" style="font-size:6.75px; font-family:Arial;" text-anchor="middle"><textPath startOffset="22.145653131862474" xlink:href="#id113">May</textPath></text><line stroke="#e1ed5e" stroke-width="0.3" x1="143.1302829299769" x2="145.66735839644613" y1="173.24464959558577" y2="177.55315839532614" /><path d="M 143.63769802327073 174.10635135553383 a86.0,86.0 0 0,1 -40.68552437913181,11.842963189579606" fill="none" id="id114" stroke="none" /><text fill="#e1ed5e" style="font-size:6.75px; font-family:Arial;" text-anchor="middle"><textPath startOffset="21.407464694133747" xlink:href="#id114">June</textPath></text><line stroke="#e1ed5e" stroke-width="0.3" x1="101.45913802915013" x2="101.54496967792366" y1="184.9874750549273" y2="189.98673829345242" /><path d="M 101.47630435890484 185.9873277026323 a86.0,86.0 0 0,1 -42.54439059252881,-10.42667462771756" fill="none" id="id115" stroke="none" /><text fill="#e1ed5e" style="font-size:6.75px; font-family:Arial;" text-anchor="middle"><textPath startOffset="22.145653131862474" xlink:href="#id115">July</textPath></text><line stroke="#e1ed5e" stroke-width="0.3" x1="58.13341422392154" x2="55.67067388415222" y1="173.97424548756322" y2="178.32567169271397" /><path d="M 57.64086615596768 174.84453072859336 a86.0,86.0 0 0,1 -31.369924170532247,-30.572349798747897" fill="none" id="id116" stroke="none" /><text fill="#e1ed5e" style="font-size:6.75px; font-family:Arial;" text-anchor="middle"><textPath startOffset="22.145653131862474" xlink:href="#id116">August</textPath></text><line stroke="#e1ed5e" stroke-width="0.3" x1="26.387840678322732" x2="22.057713659400548" y1="142.50000000000003" y2="145.00000000000006" /><path d="M 25.521815274538298 143.00000000000003 a86.0,86.0 0 0,1 -11.493303480769221,-40.785679425670985" fill="none" id="id117" stroke="none" /><text fill="#e1ed5e" style="font-size:6.75px; font-family:Arial;" text-anchor="middle"><textPath startOffset="21.40746469413373" xlink:href="#id117">September</textPath></text><line stroke="#e1ed5e" stroke-width="0.3" x1="15.003131293944662" x2="10.003315487706104" y1="100.72959589197737" y2="100.7725132973878" /><path d="M 14.003168132696942 100.73817937305945 a86.0,86.0 0 0,1 10.791469493833604,-42.45332614584628" fill="none" id="id118" stroke="none" /><text fill="#e1ed5e" style="font-size:6.75px; font-family:Arial;" text-anchor="middle"><textPath startOffset="22.145653131862435" xlink:href="#id118">October</textPath></text><line stroke="#e1ed5e" stroke-width="0.3" x1="26.387840678322718" x2="22.05771365940052" y1="57.49999999999999" y2="54.99999999999999" /><path d="M 25.521815274538284 56.99999999999999 a86.0,86.0 0 0,1 29.574782752854787,-30.34633250058573" fill="none" id="id119" stroke="none" /><text fill="#e1ed5e" style="font-size:6.75px; font-family:Arial;" text-anchor="middle"><textPath startOffset="21.40746469413373" xlink:href="#id119">November</textPath></text><line stroke="#e1ed5e" stroke-width="0.3" x1="56.869717070023135" x2="54.33264160355391" y1="26.7553504044142" y2="22.446841604673864" /><path d="M 56.362301976729285 25.89364864446614 a86.0,86.0 0 0,1 42.16139366436587,-11.88097634709845" fill="none" id="id120" stroke="none" /><text fill="#e1ed5e" style="font-size:6.75px; font-family:Arial;" text-anchor="middle"><textPath startOffset="22.145653131862474" xlink:href="#id120">December</textPath></text></svg>